G75*
%MOIN*%
%OFA0B0*%
%FSLAX25Y25*%
%IPPOS*%
%LPD*%
%AMOC8*
5,1,8,0,0,1.08239X$1,22.5*
%
%ADD10C,0.00000*%
%ADD11C,0.07050*%
%ADD12C,0.01600*%
%ADD13C,0.03200*%
D10*
X0001800Y0001800D02*
X0001800Y0290501D01*
X0361721Y0290501D01*
X0361721Y0001800D01*
X0001800Y0001800D01*
D11*
X0121957Y0088275D02*
X0121957Y0095325D01*
X0141643Y0095325D02*
X0141643Y0088275D01*
X0161957Y0088275D02*
X0161957Y0095325D01*
X0181643Y0095325D02*
X0181643Y0088275D01*
X0201957Y0088275D02*
X0201957Y0095325D01*
X0221643Y0095325D02*
X0221643Y0088275D01*
X0321957Y0088275D02*
X0321957Y0095325D01*
X0341643Y0095325D02*
X0341643Y0088275D01*
X0331957Y0248275D02*
X0331957Y0255325D01*
X0351643Y0255325D02*
X0351643Y0248275D01*
X0311643Y0248275D02*
X0311643Y0255325D01*
X0291957Y0255325D02*
X0291957Y0248275D01*
X0271643Y0248275D02*
X0271643Y0255325D01*
X0251957Y0255325D02*
X0251957Y0248275D01*
X0231643Y0248275D02*
X0231643Y0255325D01*
X0211957Y0255325D02*
X0211957Y0248275D01*
X0191643Y0248275D02*
X0191643Y0255325D01*
X0171957Y0255325D02*
X0171957Y0248275D01*
X0151643Y0248275D02*
X0151643Y0255325D01*
X0131957Y0255325D02*
X0131957Y0248275D01*
X0111643Y0248275D02*
X0111643Y0255325D01*
X0091957Y0255325D02*
X0091957Y0248275D01*
X0071643Y0248275D02*
X0071643Y0255325D01*
X0051957Y0255325D02*
X0051957Y0248275D01*
X0031643Y0248275D02*
X0031643Y0255325D01*
X0011957Y0255325D02*
X0011957Y0248275D01*
D12*
X0016717Y0246372D02*
X0026662Y0246372D01*
X0026708Y0246231D02*
X0027088Y0245484D01*
X0027581Y0244806D01*
X0028174Y0244213D01*
X0028852Y0243721D01*
X0029598Y0243340D01*
X0030396Y0243081D01*
X0031223Y0242950D01*
X0031267Y0242950D01*
X0031267Y0251425D01*
X0026318Y0251425D01*
X0026318Y0247856D01*
X0026449Y0247028D01*
X0026708Y0246231D01*
X0027613Y0244774D02*
X0015704Y0244774D01*
X0016302Y0245372D02*
X0017082Y0247256D01*
X0017082Y0256344D01*
X0016302Y0258228D01*
X0014861Y0259670D01*
X0012977Y0260450D01*
X0010938Y0260450D01*
X0009054Y0259670D01*
X0007613Y0258228D01*
X0006832Y0256344D01*
X0006832Y0247256D01*
X0007613Y0245372D01*
X0009054Y0243930D01*
X0010938Y0243150D01*
X0012977Y0243150D01*
X0014861Y0243930D01*
X0016302Y0245372D01*
X0017082Y0247971D02*
X0026318Y0247971D01*
X0026318Y0249569D02*
X0017082Y0249569D01*
X0017082Y0251168D02*
X0026318Y0251168D01*
X0026318Y0252175D02*
X0031267Y0252175D01*
X0031267Y0251425D01*
X0032018Y0251425D01*
X0032018Y0252175D01*
X0036968Y0252175D01*
X0036968Y0255744D01*
X0036836Y0256572D01*
X0036577Y0257369D01*
X0036197Y0258116D01*
X0035704Y0258794D01*
X0035112Y0259387D01*
X0034433Y0259879D01*
X0033687Y0260260D01*
X0032889Y0260519D01*
X0032062Y0260650D01*
X0032018Y0260650D01*
X0032018Y0252175D01*
X0031267Y0252175D01*
X0031267Y0260650D01*
X0031223Y0260650D01*
X0030396Y0260519D01*
X0029598Y0260260D01*
X0028852Y0259879D01*
X0028174Y0259387D01*
X0027581Y0258794D01*
X0027088Y0258116D01*
X0026708Y0257369D01*
X0026449Y0256572D01*
X0026318Y0255744D01*
X0026318Y0252175D01*
X0026318Y0252766D02*
X0017082Y0252766D01*
X0017082Y0254365D02*
X0026318Y0254365D01*
X0026352Y0255963D02*
X0017082Y0255963D01*
X0016578Y0257562D02*
X0026806Y0257562D01*
X0027947Y0259160D02*
X0015370Y0259160D01*
X0008545Y0259160D02*
X0006600Y0259160D01*
X0006600Y0257562D02*
X0007337Y0257562D01*
X0006832Y0255963D02*
X0006600Y0255963D01*
X0006600Y0254365D02*
X0006832Y0254365D01*
X0006832Y0252766D02*
X0006600Y0252766D01*
X0006600Y0251168D02*
X0006832Y0251168D01*
X0006832Y0249569D02*
X0006600Y0249569D01*
X0006600Y0247971D02*
X0006832Y0247971D01*
X0006600Y0246372D02*
X0007198Y0246372D01*
X0006600Y0244774D02*
X0008211Y0244774D01*
X0006600Y0243175D02*
X0010877Y0243175D01*
X0013038Y0243175D02*
X0030106Y0243175D01*
X0031267Y0243175D02*
X0032018Y0243175D01*
X0032018Y0242950D02*
X0032062Y0242950D01*
X0032889Y0243081D01*
X0033687Y0243340D01*
X0034433Y0243721D01*
X0035112Y0244213D01*
X0035704Y0244806D01*
X0036197Y0245484D01*
X0036577Y0246231D01*
X0036836Y0247028D01*
X0036968Y0247856D01*
X0036968Y0251425D01*
X0032018Y0251425D01*
X0032018Y0242950D01*
X0033179Y0243175D02*
X0048757Y0243175D01*
X0048757Y0244227D02*
X0048757Y0206006D01*
X0049245Y0204830D01*
X0118600Y0135475D01*
X0118600Y0099215D01*
X0117613Y0098228D01*
X0116832Y0096344D01*
X0116832Y0087256D01*
X0117613Y0085372D01*
X0119054Y0083930D01*
X0120938Y0083150D01*
X0122977Y0083150D01*
X0124861Y0083930D01*
X0126302Y0085372D01*
X0127082Y0087256D01*
X0127082Y0096344D01*
X0126302Y0098228D01*
X0125000Y0099530D01*
X0125000Y0137437D01*
X0124513Y0138613D01*
X0123613Y0139513D01*
X0055157Y0207968D01*
X0055157Y0244227D01*
X0056302Y0245372D01*
X0057082Y0247256D01*
X0057082Y0256344D01*
X0056302Y0258228D01*
X0054861Y0259670D01*
X0052977Y0260450D01*
X0050938Y0260450D01*
X0049054Y0259670D01*
X0047613Y0258228D01*
X0046832Y0256344D01*
X0046832Y0247256D01*
X0047613Y0245372D01*
X0048757Y0244227D01*
X0048211Y0244774D02*
X0035672Y0244774D01*
X0036623Y0246372D02*
X0047198Y0246372D01*
X0046832Y0247971D02*
X0036968Y0247971D01*
X0036968Y0249569D02*
X0046832Y0249569D01*
X0046832Y0251168D02*
X0036968Y0251168D01*
X0036968Y0252766D02*
X0046832Y0252766D01*
X0046832Y0254365D02*
X0036968Y0254365D01*
X0036933Y0255963D02*
X0046832Y0255963D01*
X0047337Y0257562D02*
X0036479Y0257562D01*
X0035338Y0259160D02*
X0048545Y0259160D01*
X0055370Y0259160D02*
X0068230Y0259160D01*
X0068739Y0259670D02*
X0067298Y0258228D01*
X0066518Y0256344D01*
X0066518Y0247256D01*
X0067298Y0245372D01*
X0068739Y0243930D01*
X0070623Y0243150D01*
X0072662Y0243150D01*
X0074546Y0243930D01*
X0075987Y0245372D01*
X0076768Y0247256D01*
X0076768Y0256344D01*
X0075987Y0258228D01*
X0074546Y0259670D01*
X0072662Y0260450D01*
X0070623Y0260450D01*
X0068739Y0259670D01*
X0067022Y0257562D02*
X0056578Y0257562D01*
X0057082Y0255963D02*
X0066518Y0255963D01*
X0066518Y0254365D02*
X0057082Y0254365D01*
X0057082Y0252766D02*
X0066518Y0252766D01*
X0066518Y0251168D02*
X0057082Y0251168D01*
X0057082Y0249569D02*
X0066518Y0249569D01*
X0066518Y0247971D02*
X0057082Y0247971D01*
X0056717Y0246372D02*
X0066883Y0246372D01*
X0067896Y0244774D02*
X0055704Y0244774D01*
X0055157Y0243175D02*
X0070562Y0243175D01*
X0072723Y0243175D02*
X0090421Y0243175D01*
X0090711Y0243081D02*
X0091538Y0242950D01*
X0091582Y0242950D01*
X0091582Y0251425D01*
X0086632Y0251425D01*
X0086632Y0247856D01*
X0086764Y0247028D01*
X0087023Y0246231D01*
X0087403Y0245484D01*
X0087896Y0244806D01*
X0088488Y0244213D01*
X0089167Y0243721D01*
X0089913Y0243340D01*
X0090711Y0243081D01*
X0091582Y0243175D02*
X0092332Y0243175D01*
X0092332Y0242950D02*
X0092377Y0242950D01*
X0093204Y0243081D01*
X0094002Y0243340D01*
X0094748Y0243721D01*
X0095426Y0244213D01*
X0096019Y0244806D01*
X0096512Y0245484D01*
X0096892Y0246231D01*
X0097151Y0247028D01*
X0097282Y0247856D01*
X0097282Y0251425D01*
X0092333Y0251425D01*
X0092333Y0252175D01*
X0097282Y0252175D01*
X0097282Y0255744D01*
X0097151Y0256572D01*
X0096892Y0257369D01*
X0096512Y0258116D01*
X0096019Y0258794D01*
X0095426Y0259387D01*
X0094748Y0259879D01*
X0094002Y0260260D01*
X0093204Y0260519D01*
X0092377Y0260650D01*
X0092332Y0260650D01*
X0092332Y0252175D01*
X0091582Y0252175D01*
X0091582Y0251425D01*
X0092332Y0251425D01*
X0092332Y0242950D01*
X0093494Y0243175D02*
X0108443Y0243175D01*
X0108443Y0244227D02*
X0108443Y0181321D01*
X0108930Y0180145D01*
X0138600Y0150475D01*
X0138600Y0099530D01*
X0137298Y0098228D01*
X0136518Y0096344D01*
X0136518Y0087256D01*
X0137298Y0085372D01*
X0138739Y0083930D01*
X0140623Y0083150D01*
X0142662Y0083150D01*
X0144546Y0083930D01*
X0145987Y0085372D01*
X0146768Y0087256D01*
X0146768Y0096344D01*
X0145987Y0098228D01*
X0145000Y0099215D01*
X0145000Y0152437D01*
X0144513Y0153613D01*
X0143613Y0154513D01*
X0114843Y0183283D01*
X0114843Y0244227D01*
X0115987Y0245372D01*
X0116768Y0247256D01*
X0116768Y0256344D01*
X0115987Y0258228D01*
X0114546Y0259670D01*
X0112662Y0260450D01*
X0110623Y0260450D01*
X0108739Y0259670D01*
X0107298Y0258228D01*
X0106518Y0256344D01*
X0106518Y0247256D01*
X0107298Y0245372D01*
X0108443Y0244227D01*
X0107896Y0244774D02*
X0095987Y0244774D01*
X0096938Y0246372D02*
X0106883Y0246372D01*
X0106518Y0247971D02*
X0097282Y0247971D01*
X0097282Y0249569D02*
X0106518Y0249569D01*
X0106518Y0251168D02*
X0097282Y0251168D01*
X0097282Y0252766D02*
X0106518Y0252766D01*
X0106518Y0254365D02*
X0097282Y0254365D01*
X0097248Y0255963D02*
X0106518Y0255963D01*
X0107022Y0257562D02*
X0096794Y0257562D01*
X0095653Y0259160D02*
X0108230Y0259160D01*
X0115055Y0259160D02*
X0128545Y0259160D01*
X0129054Y0259670D02*
X0127613Y0258228D01*
X0126832Y0256344D01*
X0126832Y0247256D01*
X0127613Y0245372D01*
X0129054Y0243930D01*
X0130938Y0243150D01*
X0132977Y0243150D01*
X0134861Y0243930D01*
X0136302Y0245372D01*
X0137082Y0247256D01*
X0137082Y0256344D01*
X0136302Y0258228D01*
X0134861Y0259670D01*
X0132977Y0260450D01*
X0130938Y0260450D01*
X0129054Y0259670D01*
X0127337Y0257562D02*
X0116263Y0257562D01*
X0116768Y0255963D02*
X0126832Y0255963D01*
X0126832Y0254365D02*
X0116768Y0254365D01*
X0116768Y0252766D02*
X0126832Y0252766D01*
X0126832Y0251168D02*
X0116768Y0251168D01*
X0116768Y0249569D02*
X0126832Y0249569D01*
X0126832Y0247971D02*
X0116768Y0247971D01*
X0116402Y0246372D02*
X0127198Y0246372D01*
X0128211Y0244774D02*
X0115389Y0244774D01*
X0114843Y0243175D02*
X0130877Y0243175D01*
X0133038Y0243175D02*
X0150106Y0243175D01*
X0150396Y0243081D02*
X0151223Y0242950D01*
X0151267Y0242950D01*
X0151267Y0251425D01*
X0146318Y0251425D01*
X0146318Y0247856D01*
X0146449Y0247028D01*
X0146708Y0246231D01*
X0147088Y0245484D01*
X0147581Y0244806D01*
X0148174Y0244213D01*
X0148852Y0243721D01*
X0149598Y0243340D01*
X0150396Y0243081D01*
X0151267Y0243175D02*
X0152018Y0243175D01*
X0152018Y0242950D02*
X0152062Y0242950D01*
X0152889Y0243081D01*
X0153687Y0243340D01*
X0154433Y0243721D01*
X0155112Y0244213D01*
X0155704Y0244806D01*
X0156197Y0245484D01*
X0156577Y0246231D01*
X0156836Y0247028D01*
X0156968Y0247856D01*
X0156968Y0251425D01*
X0152018Y0251425D01*
X0152018Y0252175D01*
X0156968Y0252175D01*
X0156968Y0255744D01*
X0156836Y0256572D01*
X0156577Y0257369D01*
X0156197Y0258116D01*
X0155704Y0258794D01*
X0155112Y0259387D01*
X0154433Y0259879D01*
X0153687Y0260260D01*
X0152889Y0260519D01*
X0152062Y0260650D01*
X0152018Y0260650D01*
X0152018Y0252175D01*
X0151267Y0252175D01*
X0151267Y0251425D01*
X0152018Y0251425D01*
X0152018Y0242950D01*
X0153179Y0243175D02*
X0168757Y0243175D01*
X0168757Y0244227D02*
X0168757Y0163283D01*
X0159987Y0154513D01*
X0159087Y0153613D01*
X0158600Y0152437D01*
X0158600Y0099215D01*
X0157613Y0098228D01*
X0156832Y0096344D01*
X0156832Y0087256D01*
X0157613Y0085372D01*
X0159054Y0083930D01*
X0160938Y0083150D01*
X0162977Y0083150D01*
X0164861Y0083930D01*
X0166302Y0085372D01*
X0167082Y0087256D01*
X0167082Y0096344D01*
X0166302Y0098228D01*
X0165000Y0099530D01*
X0165000Y0150475D01*
X0174670Y0160145D01*
X0175157Y0161321D01*
X0175157Y0244227D01*
X0176302Y0245372D01*
X0177082Y0247256D01*
X0177082Y0256344D01*
X0176302Y0258228D01*
X0174861Y0259670D01*
X0172977Y0260450D01*
X0170938Y0260450D01*
X0169054Y0259670D01*
X0167613Y0258228D01*
X0166832Y0256344D01*
X0166832Y0247256D01*
X0167613Y0245372D01*
X0168757Y0244227D01*
X0168211Y0244774D02*
X0155672Y0244774D01*
X0156623Y0246372D02*
X0167198Y0246372D01*
X0166832Y0247971D02*
X0156968Y0247971D01*
X0156968Y0249569D02*
X0166832Y0249569D01*
X0166832Y0251168D02*
X0156968Y0251168D01*
X0156968Y0252766D02*
X0166832Y0252766D01*
X0166832Y0254365D02*
X0156968Y0254365D01*
X0156933Y0255963D02*
X0166832Y0255963D01*
X0167337Y0257562D02*
X0156479Y0257562D01*
X0155338Y0259160D02*
X0168545Y0259160D01*
X0175370Y0259160D02*
X0188230Y0259160D01*
X0188739Y0259670D02*
X0187298Y0258228D01*
X0186518Y0256344D01*
X0186518Y0247256D01*
X0187298Y0245372D01*
X0188739Y0243930D01*
X0190623Y0243150D01*
X0192662Y0243150D01*
X0194546Y0243930D01*
X0195987Y0245372D01*
X0196768Y0247256D01*
X0196768Y0256344D01*
X0195987Y0258228D01*
X0194546Y0259670D01*
X0192662Y0260450D01*
X0190623Y0260450D01*
X0188739Y0259670D01*
X0187022Y0257562D02*
X0176578Y0257562D01*
X0177082Y0255963D02*
X0186518Y0255963D01*
X0186518Y0254365D02*
X0177082Y0254365D01*
X0177082Y0252766D02*
X0186518Y0252766D01*
X0186518Y0251168D02*
X0177082Y0251168D01*
X0177082Y0249569D02*
X0186518Y0249569D01*
X0186518Y0247971D02*
X0177082Y0247971D01*
X0176717Y0246372D02*
X0186883Y0246372D01*
X0187896Y0244774D02*
X0175704Y0244774D01*
X0175157Y0243175D02*
X0190562Y0243175D01*
X0192723Y0243175D02*
X0210421Y0243175D01*
X0210711Y0243081D02*
X0211538Y0242950D01*
X0211582Y0242950D01*
X0211582Y0251425D01*
X0206632Y0251425D01*
X0206632Y0247856D01*
X0206764Y0247028D01*
X0207023Y0246231D01*
X0207403Y0245484D01*
X0207896Y0244806D01*
X0208488Y0244213D01*
X0209167Y0243721D01*
X0209913Y0243340D01*
X0210711Y0243081D01*
X0211582Y0243175D02*
X0212332Y0243175D01*
X0212332Y0242950D02*
X0212377Y0242950D01*
X0213204Y0243081D01*
X0214002Y0243340D01*
X0214748Y0243721D01*
X0215426Y0244213D01*
X0216019Y0244806D01*
X0216512Y0245484D01*
X0216892Y0246231D01*
X0217151Y0247028D01*
X0217282Y0247856D01*
X0217282Y0251425D01*
X0212333Y0251425D01*
X0212333Y0252175D01*
X0217282Y0252175D01*
X0217282Y0255744D01*
X0217151Y0256572D01*
X0216892Y0257369D01*
X0216512Y0258116D01*
X0216019Y0258794D01*
X0215426Y0259387D01*
X0214748Y0259879D01*
X0214002Y0260260D01*
X0213204Y0260519D01*
X0212377Y0260650D01*
X0212332Y0260650D01*
X0212332Y0252175D01*
X0211582Y0252175D01*
X0211582Y0251425D01*
X0212332Y0251425D01*
X0212332Y0242950D01*
X0213494Y0243175D02*
X0228443Y0243175D01*
X0228443Y0244227D02*
X0228443Y0197968D01*
X0179987Y0149513D01*
X0179087Y0148613D01*
X0178600Y0147437D01*
X0178600Y0099530D01*
X0177298Y0098228D01*
X0176518Y0096344D01*
X0176518Y0087256D01*
X0177298Y0085372D01*
X0178739Y0083930D01*
X0180623Y0083150D01*
X0182662Y0083150D01*
X0184546Y0083930D01*
X0185987Y0085372D01*
X0186768Y0087256D01*
X0186768Y0096344D01*
X0185987Y0098228D01*
X0185000Y0099215D01*
X0185000Y0145475D01*
X0234355Y0194830D01*
X0234843Y0196006D01*
X0234843Y0244227D01*
X0235987Y0245372D01*
X0236768Y0247256D01*
X0236768Y0256344D01*
X0235987Y0258228D01*
X0234546Y0259670D01*
X0232662Y0260450D01*
X0230623Y0260450D01*
X0228739Y0259670D01*
X0227298Y0258228D01*
X0226518Y0256344D01*
X0226518Y0247256D01*
X0227298Y0245372D01*
X0228443Y0244227D01*
X0227896Y0244774D02*
X0215987Y0244774D01*
X0216938Y0246372D02*
X0226883Y0246372D01*
X0226518Y0247971D02*
X0217282Y0247971D01*
X0217282Y0249569D02*
X0226518Y0249569D01*
X0226518Y0251168D02*
X0217282Y0251168D01*
X0217282Y0252766D02*
X0226518Y0252766D01*
X0226518Y0254365D02*
X0217282Y0254365D01*
X0217248Y0255963D02*
X0226518Y0255963D01*
X0227022Y0257562D02*
X0216794Y0257562D01*
X0215653Y0259160D02*
X0228230Y0259160D01*
X0235055Y0259160D02*
X0248545Y0259160D01*
X0249054Y0259670D02*
X0247613Y0258228D01*
X0246832Y0256344D01*
X0246832Y0247256D01*
X0247613Y0245372D01*
X0249054Y0243930D01*
X0250938Y0243150D01*
X0252977Y0243150D01*
X0254861Y0243930D01*
X0256302Y0245372D01*
X0257082Y0247256D01*
X0257082Y0256344D01*
X0256302Y0258228D01*
X0254861Y0259670D01*
X0252977Y0260450D01*
X0250938Y0260450D01*
X0249054Y0259670D01*
X0247337Y0257562D02*
X0236263Y0257562D01*
X0236768Y0255963D02*
X0246832Y0255963D01*
X0246832Y0254365D02*
X0236768Y0254365D01*
X0236768Y0252766D02*
X0246832Y0252766D01*
X0246832Y0251168D02*
X0236768Y0251168D01*
X0236768Y0249569D02*
X0246832Y0249569D01*
X0246832Y0247971D02*
X0236768Y0247971D01*
X0236402Y0246372D02*
X0247198Y0246372D01*
X0248211Y0244774D02*
X0235389Y0244774D01*
X0234843Y0243175D02*
X0250877Y0243175D01*
X0253038Y0243175D02*
X0270106Y0243175D01*
X0270396Y0243081D02*
X0271223Y0242950D01*
X0271267Y0242950D01*
X0271267Y0251425D01*
X0266318Y0251425D01*
X0266318Y0247856D01*
X0266449Y0247028D01*
X0266708Y0246231D01*
X0267088Y0245484D01*
X0267581Y0244806D01*
X0268174Y0244213D01*
X0268852Y0243721D01*
X0269598Y0243340D01*
X0270396Y0243081D01*
X0271267Y0243175D02*
X0272018Y0243175D01*
X0272018Y0242950D02*
X0272062Y0242950D01*
X0272889Y0243081D01*
X0273687Y0243340D01*
X0274433Y0243721D01*
X0275112Y0244213D01*
X0275704Y0244806D01*
X0276197Y0245484D01*
X0276577Y0246231D01*
X0276836Y0247028D01*
X0276968Y0247856D01*
X0276968Y0251425D01*
X0272018Y0251425D01*
X0272018Y0252175D01*
X0276968Y0252175D01*
X0276968Y0255744D01*
X0276836Y0256572D01*
X0276577Y0257369D01*
X0276197Y0258116D01*
X0275704Y0258794D01*
X0275112Y0259387D01*
X0274433Y0259879D01*
X0273687Y0260260D01*
X0272889Y0260519D01*
X0272062Y0260650D01*
X0272018Y0260650D01*
X0272018Y0252175D01*
X0271267Y0252175D01*
X0271267Y0251425D01*
X0272018Y0251425D01*
X0272018Y0242950D01*
X0273179Y0243175D02*
X0288757Y0243175D01*
X0288757Y0244227D02*
X0288757Y0238283D01*
X0199987Y0149513D01*
X0199087Y0148613D01*
X0198600Y0147437D01*
X0198600Y0099215D01*
X0197613Y0098228D01*
X0196832Y0096344D01*
X0196832Y0087256D01*
X0197613Y0085372D01*
X0199054Y0083930D01*
X0200938Y0083150D01*
X0202977Y0083150D01*
X0204861Y0083930D01*
X0206302Y0085372D01*
X0207082Y0087256D01*
X0207082Y0096344D01*
X0206302Y0098228D01*
X0205000Y0099530D01*
X0205000Y0145475D01*
X0294670Y0235145D01*
X0295157Y0236321D01*
X0295157Y0244227D01*
X0296302Y0245372D01*
X0297082Y0247256D01*
X0297082Y0256344D01*
X0296302Y0258228D01*
X0294861Y0259670D01*
X0292977Y0260450D01*
X0290938Y0260450D01*
X0289054Y0259670D01*
X0287613Y0258228D01*
X0286832Y0256344D01*
X0286832Y0247256D01*
X0287613Y0245372D01*
X0288757Y0244227D01*
X0288211Y0244774D02*
X0275672Y0244774D01*
X0276623Y0246372D02*
X0287198Y0246372D01*
X0286832Y0247971D02*
X0276968Y0247971D01*
X0276968Y0249569D02*
X0286832Y0249569D01*
X0286832Y0251168D02*
X0276968Y0251168D01*
X0276968Y0252766D02*
X0286832Y0252766D01*
X0286832Y0254365D02*
X0276968Y0254365D01*
X0276933Y0255963D02*
X0286832Y0255963D01*
X0287337Y0257562D02*
X0276479Y0257562D01*
X0275338Y0259160D02*
X0288545Y0259160D01*
X0295370Y0259160D02*
X0308230Y0259160D01*
X0308739Y0259670D02*
X0307298Y0258228D01*
X0306518Y0256344D01*
X0306518Y0247256D01*
X0307298Y0245372D01*
X0308739Y0243930D01*
X0310623Y0243150D01*
X0312662Y0243150D01*
X0314546Y0243930D01*
X0315987Y0245372D01*
X0316768Y0247256D01*
X0316768Y0256344D01*
X0315987Y0258228D01*
X0314546Y0259670D01*
X0312662Y0260450D01*
X0310623Y0260450D01*
X0308739Y0259670D01*
X0307022Y0257562D02*
X0296578Y0257562D01*
X0297082Y0255963D02*
X0306518Y0255963D01*
X0306518Y0254365D02*
X0297082Y0254365D01*
X0297082Y0252766D02*
X0306518Y0252766D01*
X0306518Y0251168D02*
X0297082Y0251168D01*
X0297082Y0249569D02*
X0306518Y0249569D01*
X0306518Y0247971D02*
X0297082Y0247971D01*
X0296717Y0246372D02*
X0306883Y0246372D01*
X0307896Y0244774D02*
X0295704Y0244774D01*
X0295157Y0243175D02*
X0310562Y0243175D01*
X0312723Y0243175D02*
X0330421Y0243175D01*
X0330711Y0243081D02*
X0331538Y0242950D01*
X0331582Y0242950D01*
X0331582Y0251425D01*
X0326632Y0251425D01*
X0326632Y0247856D01*
X0326764Y0247028D01*
X0327023Y0246231D01*
X0327403Y0245484D01*
X0327896Y0244806D01*
X0328488Y0244213D01*
X0329167Y0243721D01*
X0329913Y0243340D01*
X0330711Y0243081D01*
X0331582Y0243175D02*
X0332332Y0243175D01*
X0332332Y0242950D02*
X0332377Y0242950D01*
X0333204Y0243081D01*
X0334002Y0243340D01*
X0334748Y0243721D01*
X0335426Y0244213D01*
X0336019Y0244806D01*
X0336512Y0245484D01*
X0336892Y0246231D01*
X0337151Y0247028D01*
X0337282Y0247856D01*
X0337282Y0251425D01*
X0332333Y0251425D01*
X0332333Y0252175D01*
X0337282Y0252175D01*
X0337282Y0255744D01*
X0337151Y0256572D01*
X0336892Y0257369D01*
X0336512Y0258116D01*
X0336019Y0258794D01*
X0335426Y0259387D01*
X0334748Y0259879D01*
X0334002Y0260260D01*
X0333204Y0260519D01*
X0332377Y0260650D01*
X0332332Y0260650D01*
X0332332Y0252175D01*
X0331582Y0252175D01*
X0331582Y0251425D01*
X0332332Y0251425D01*
X0332332Y0242950D01*
X0333494Y0243175D02*
X0348443Y0243175D01*
X0348443Y0242968D02*
X0255475Y0150000D01*
X0226163Y0150000D01*
X0224987Y0149513D01*
X0219987Y0144513D01*
X0219087Y0143613D01*
X0218600Y0142437D01*
X0218600Y0099530D01*
X0217298Y0098228D01*
X0216518Y0096344D01*
X0216518Y0087256D01*
X0217298Y0085372D01*
X0218739Y0083930D01*
X0220623Y0083150D01*
X0222662Y0083150D01*
X0224546Y0083930D01*
X0225987Y0085372D01*
X0226768Y0087256D01*
X0226768Y0096344D01*
X0225987Y0098228D01*
X0225000Y0099215D01*
X0225000Y0140475D01*
X0228125Y0143600D01*
X0257437Y0143600D01*
X0258613Y0144087D01*
X0259513Y0144987D01*
X0354355Y0239830D01*
X0354843Y0241006D01*
X0354843Y0244227D01*
X0355987Y0245372D01*
X0356768Y0247256D01*
X0356768Y0256344D01*
X0355987Y0258228D01*
X0354546Y0259670D01*
X0352662Y0260450D01*
X0350623Y0260450D01*
X0348739Y0259670D01*
X0347298Y0258228D01*
X0346518Y0256344D01*
X0346518Y0247256D01*
X0347298Y0245372D01*
X0348443Y0244227D01*
X0348443Y0242968D01*
X0347896Y0244774D02*
X0335987Y0244774D01*
X0336938Y0246372D02*
X0346883Y0246372D01*
X0346518Y0247971D02*
X0337282Y0247971D01*
X0337282Y0249569D02*
X0346518Y0249569D01*
X0346518Y0251168D02*
X0337282Y0251168D01*
X0337282Y0252766D02*
X0346518Y0252766D01*
X0346518Y0254365D02*
X0337282Y0254365D01*
X0337248Y0255963D02*
X0346518Y0255963D01*
X0347022Y0257562D02*
X0336794Y0257562D01*
X0335653Y0259160D02*
X0348230Y0259160D01*
X0355055Y0259160D02*
X0356921Y0259160D01*
X0356921Y0257562D02*
X0356263Y0257562D01*
X0356768Y0255963D02*
X0356921Y0255963D01*
X0356921Y0254365D02*
X0356768Y0254365D01*
X0356768Y0252766D02*
X0356921Y0252766D01*
X0356921Y0251168D02*
X0356768Y0251168D01*
X0356768Y0249569D02*
X0356921Y0249569D01*
X0356921Y0247971D02*
X0356768Y0247971D01*
X0356921Y0246372D02*
X0356402Y0246372D01*
X0356921Y0244774D02*
X0355389Y0244774D01*
X0354843Y0243175D02*
X0356921Y0243175D01*
X0356921Y0241577D02*
X0354843Y0241577D01*
X0354417Y0239978D02*
X0356921Y0239978D01*
X0356921Y0238380D02*
X0352905Y0238380D01*
X0351307Y0236781D02*
X0356921Y0236781D01*
X0356921Y0235183D02*
X0349708Y0235183D01*
X0348110Y0233584D02*
X0356921Y0233584D01*
X0356921Y0231986D02*
X0346511Y0231986D01*
X0344913Y0230387D02*
X0356921Y0230387D01*
X0356921Y0228789D02*
X0343314Y0228789D01*
X0341716Y0227190D02*
X0356921Y0227190D01*
X0356921Y0225592D02*
X0340117Y0225592D01*
X0338519Y0223993D02*
X0356921Y0223993D01*
X0356921Y0222395D02*
X0336920Y0222395D01*
X0335322Y0220796D02*
X0356921Y0220796D01*
X0356921Y0219198D02*
X0333723Y0219198D01*
X0332125Y0217599D02*
X0356921Y0217599D01*
X0356921Y0216001D02*
X0330526Y0216001D01*
X0328927Y0214402D02*
X0356921Y0214402D01*
X0356921Y0212803D02*
X0327329Y0212803D01*
X0325730Y0211205D02*
X0356921Y0211205D01*
X0356921Y0209606D02*
X0324132Y0209606D01*
X0322533Y0208008D02*
X0356921Y0208008D01*
X0356921Y0206409D02*
X0320935Y0206409D01*
X0319336Y0204811D02*
X0356921Y0204811D01*
X0356921Y0203212D02*
X0317738Y0203212D01*
X0316139Y0201614D02*
X0356921Y0201614D01*
X0356921Y0200015D02*
X0314541Y0200015D01*
X0312942Y0198417D02*
X0356921Y0198417D01*
X0356921Y0196818D02*
X0311344Y0196818D01*
X0309745Y0195220D02*
X0356921Y0195220D01*
X0356921Y0193621D02*
X0308147Y0193621D01*
X0306548Y0192023D02*
X0356921Y0192023D01*
X0356921Y0190424D02*
X0304950Y0190424D01*
X0303351Y0188826D02*
X0356921Y0188826D01*
X0356921Y0187227D02*
X0301753Y0187227D01*
X0300154Y0185629D02*
X0356921Y0185629D01*
X0356921Y0184030D02*
X0298556Y0184030D01*
X0296957Y0182432D02*
X0356921Y0182432D01*
X0356921Y0180833D02*
X0295359Y0180833D01*
X0293760Y0179235D02*
X0356921Y0179235D01*
X0356921Y0177636D02*
X0292162Y0177636D01*
X0290563Y0176038D02*
X0356921Y0176038D01*
X0356921Y0174439D02*
X0288965Y0174439D01*
X0287366Y0172841D02*
X0356921Y0172841D01*
X0356921Y0171242D02*
X0285768Y0171242D01*
X0284169Y0169644D02*
X0356921Y0169644D01*
X0356921Y0168045D02*
X0282571Y0168045D01*
X0280972Y0166447D02*
X0356921Y0166447D01*
X0356921Y0164848D02*
X0279374Y0164848D01*
X0277775Y0163250D02*
X0356921Y0163250D01*
X0356921Y0161651D02*
X0276177Y0161651D01*
X0274578Y0160053D02*
X0356921Y0160053D01*
X0356921Y0158454D02*
X0272980Y0158454D01*
X0271381Y0156856D02*
X0356921Y0156856D01*
X0356921Y0155257D02*
X0269783Y0155257D01*
X0268184Y0153659D02*
X0356921Y0153659D01*
X0356921Y0152060D02*
X0266586Y0152060D01*
X0264987Y0150462D02*
X0356921Y0150462D01*
X0356921Y0148863D02*
X0263389Y0148863D01*
X0261790Y0147265D02*
X0356921Y0147265D01*
X0356921Y0145666D02*
X0260191Y0145666D01*
X0258565Y0144068D02*
X0356921Y0144068D01*
X0356921Y0142469D02*
X0226994Y0142469D01*
X0225396Y0140870D02*
X0356921Y0140870D01*
X0356921Y0139272D02*
X0225000Y0139272D01*
X0225000Y0137673D02*
X0356921Y0137673D01*
X0356921Y0136075D02*
X0225000Y0136075D01*
X0225000Y0134476D02*
X0356921Y0134476D01*
X0356921Y0132878D02*
X0225000Y0132878D01*
X0225000Y0131279D02*
X0356921Y0131279D01*
X0356921Y0129681D02*
X0225000Y0129681D01*
X0225000Y0128082D02*
X0356921Y0128082D01*
X0356921Y0126484D02*
X0225000Y0126484D01*
X0225000Y0124885D02*
X0356921Y0124885D01*
X0356921Y0123287D02*
X0225000Y0123287D01*
X0225000Y0121688D02*
X0356921Y0121688D01*
X0356921Y0120090D02*
X0225000Y0120090D01*
X0225000Y0118491D02*
X0356921Y0118491D01*
X0356921Y0116893D02*
X0225000Y0116893D01*
X0225000Y0115294D02*
X0356921Y0115294D01*
X0356921Y0113696D02*
X0225000Y0113696D01*
X0225000Y0112097D02*
X0356921Y0112097D01*
X0356921Y0110499D02*
X0225000Y0110499D01*
X0225000Y0108900D02*
X0356921Y0108900D01*
X0356921Y0107302D02*
X0225000Y0107302D01*
X0225000Y0105703D02*
X0356921Y0105703D01*
X0356921Y0104105D02*
X0225000Y0104105D01*
X0225000Y0102506D02*
X0356921Y0102506D01*
X0356921Y0100908D02*
X0225000Y0100908D01*
X0225000Y0099309D02*
X0318694Y0099309D01*
X0319054Y0099670D02*
X0317613Y0098228D01*
X0316832Y0096344D01*
X0316832Y0087256D01*
X0317613Y0085372D01*
X0319054Y0083930D01*
X0320938Y0083150D01*
X0322977Y0083150D01*
X0324861Y0083930D01*
X0326302Y0085372D01*
X0327082Y0087256D01*
X0327082Y0096344D01*
X0326302Y0098228D01*
X0324861Y0099670D01*
X0322977Y0100450D01*
X0320938Y0100450D01*
X0319054Y0099670D01*
X0317398Y0097711D02*
X0226202Y0097711D01*
X0226768Y0096112D02*
X0316832Y0096112D01*
X0316832Y0094514D02*
X0226768Y0094514D01*
X0226768Y0092915D02*
X0316832Y0092915D01*
X0316832Y0091317D02*
X0226768Y0091317D01*
X0226768Y0089718D02*
X0316832Y0089718D01*
X0316832Y0088120D02*
X0226768Y0088120D01*
X0226463Y0086521D02*
X0317137Y0086521D01*
X0318062Y0084923D02*
X0225538Y0084923D01*
X0223082Y0083324D02*
X0320518Y0083324D01*
X0323397Y0083324D02*
X0339648Y0083324D01*
X0339598Y0083340D02*
X0340396Y0083081D01*
X0341223Y0082950D01*
X0341267Y0082950D01*
X0341267Y0091425D01*
X0336318Y0091425D01*
X0336318Y0087856D01*
X0336449Y0087028D01*
X0336708Y0086231D01*
X0337088Y0085484D01*
X0337581Y0084806D01*
X0338174Y0084213D01*
X0338852Y0083721D01*
X0339598Y0083340D01*
X0341267Y0083324D02*
X0342018Y0083324D01*
X0342018Y0082950D02*
X0342062Y0082950D01*
X0342889Y0083081D01*
X0343687Y0083340D01*
X0344433Y0083721D01*
X0345112Y0084213D01*
X0345704Y0084806D01*
X0346197Y0085484D01*
X0346577Y0086231D01*
X0346836Y0087028D01*
X0346968Y0087856D01*
X0346968Y0091425D01*
X0342018Y0091425D01*
X0342018Y0092175D01*
X0346968Y0092175D01*
X0346968Y0095744D01*
X0346836Y0096572D01*
X0346577Y0097369D01*
X0346197Y0098116D01*
X0345704Y0098794D01*
X0345112Y0099387D01*
X0344433Y0099879D01*
X0343687Y0100260D01*
X0342889Y0100519D01*
X0342062Y0100650D01*
X0342018Y0100650D01*
X0342018Y0092175D01*
X0341267Y0092175D01*
X0341267Y0091425D01*
X0342018Y0091425D01*
X0342018Y0082950D01*
X0343637Y0083324D02*
X0356921Y0083324D01*
X0356921Y0081726D02*
X0006600Y0081726D01*
X0006600Y0083324D02*
X0120518Y0083324D01*
X0123397Y0083324D02*
X0140203Y0083324D01*
X0143082Y0083324D02*
X0160518Y0083324D01*
X0163397Y0083324D02*
X0180203Y0083324D01*
X0183082Y0083324D02*
X0200518Y0083324D01*
X0203397Y0083324D02*
X0220203Y0083324D01*
X0217747Y0084923D02*
X0205853Y0084923D01*
X0206778Y0086521D02*
X0216822Y0086521D01*
X0216518Y0088120D02*
X0207082Y0088120D01*
X0207082Y0089718D02*
X0216518Y0089718D01*
X0216518Y0091317D02*
X0207082Y0091317D01*
X0207082Y0092915D02*
X0216518Y0092915D01*
X0216518Y0094514D02*
X0207082Y0094514D01*
X0207082Y0096112D02*
X0216518Y0096112D01*
X0217083Y0097711D02*
X0206517Y0097711D01*
X0205221Y0099309D02*
X0218379Y0099309D01*
X0218600Y0100908D02*
X0205000Y0100908D01*
X0205000Y0102506D02*
X0218600Y0102506D01*
X0218600Y0104105D02*
X0205000Y0104105D01*
X0205000Y0105703D02*
X0218600Y0105703D01*
X0218600Y0107302D02*
X0205000Y0107302D01*
X0205000Y0108900D02*
X0218600Y0108900D01*
X0218600Y0110499D02*
X0205000Y0110499D01*
X0205000Y0112097D02*
X0218600Y0112097D01*
X0218600Y0113696D02*
X0205000Y0113696D01*
X0205000Y0115294D02*
X0218600Y0115294D01*
X0218600Y0116893D02*
X0205000Y0116893D01*
X0205000Y0118491D02*
X0218600Y0118491D01*
X0218600Y0120090D02*
X0205000Y0120090D01*
X0205000Y0121688D02*
X0218600Y0121688D01*
X0218600Y0123287D02*
X0205000Y0123287D01*
X0205000Y0124885D02*
X0218600Y0124885D01*
X0218600Y0126484D02*
X0205000Y0126484D01*
X0205000Y0128082D02*
X0218600Y0128082D01*
X0218600Y0129681D02*
X0205000Y0129681D01*
X0205000Y0131279D02*
X0218600Y0131279D01*
X0218600Y0132878D02*
X0205000Y0132878D01*
X0205000Y0134476D02*
X0218600Y0134476D01*
X0218600Y0136075D02*
X0205000Y0136075D01*
X0205000Y0137673D02*
X0218600Y0137673D01*
X0218600Y0139272D02*
X0205000Y0139272D01*
X0205000Y0140870D02*
X0218600Y0140870D01*
X0218613Y0142469D02*
X0205000Y0142469D01*
X0205000Y0144068D02*
X0219542Y0144068D01*
X0221141Y0145666D02*
X0205191Y0145666D01*
X0206790Y0147265D02*
X0222739Y0147265D01*
X0224338Y0148863D02*
X0208389Y0148863D01*
X0209987Y0150462D02*
X0255936Y0150462D01*
X0257535Y0152060D02*
X0211586Y0152060D01*
X0213184Y0153659D02*
X0259133Y0153659D01*
X0260732Y0155257D02*
X0214783Y0155257D01*
X0216381Y0156856D02*
X0262330Y0156856D01*
X0263929Y0158454D02*
X0217980Y0158454D01*
X0219578Y0160053D02*
X0265527Y0160053D01*
X0267126Y0161651D02*
X0221177Y0161651D01*
X0222775Y0163250D02*
X0268724Y0163250D01*
X0270323Y0164848D02*
X0224374Y0164848D01*
X0225972Y0166447D02*
X0271921Y0166447D01*
X0273520Y0168045D02*
X0227571Y0168045D01*
X0229169Y0169644D02*
X0275118Y0169644D01*
X0276717Y0171242D02*
X0230768Y0171242D01*
X0232366Y0172841D02*
X0278315Y0172841D01*
X0279914Y0174439D02*
X0233965Y0174439D01*
X0235563Y0176038D02*
X0281512Y0176038D01*
X0283111Y0177636D02*
X0237162Y0177636D01*
X0238760Y0179235D02*
X0284709Y0179235D01*
X0286308Y0180833D02*
X0240359Y0180833D01*
X0241957Y0182432D02*
X0287906Y0182432D01*
X0289505Y0184030D02*
X0243556Y0184030D01*
X0245154Y0185629D02*
X0291103Y0185629D01*
X0292702Y0187227D02*
X0246753Y0187227D01*
X0248351Y0188826D02*
X0294300Y0188826D01*
X0295899Y0190424D02*
X0249950Y0190424D01*
X0251548Y0192023D02*
X0297497Y0192023D01*
X0299096Y0193621D02*
X0253147Y0193621D01*
X0254745Y0195220D02*
X0300694Y0195220D01*
X0302293Y0196818D02*
X0256344Y0196818D01*
X0257942Y0198417D02*
X0303891Y0198417D01*
X0305490Y0200015D02*
X0259541Y0200015D01*
X0261139Y0201614D02*
X0307088Y0201614D01*
X0308687Y0203212D02*
X0262738Y0203212D01*
X0264336Y0204811D02*
X0310285Y0204811D01*
X0311884Y0206409D02*
X0265935Y0206409D01*
X0267533Y0208008D02*
X0313482Y0208008D01*
X0315081Y0209606D02*
X0269132Y0209606D01*
X0270730Y0211205D02*
X0316680Y0211205D01*
X0318278Y0212803D02*
X0272329Y0212803D01*
X0273927Y0214402D02*
X0319877Y0214402D01*
X0321475Y0216001D02*
X0275526Y0216001D01*
X0277125Y0217599D02*
X0323074Y0217599D01*
X0324672Y0219198D02*
X0278723Y0219198D01*
X0280322Y0220796D02*
X0326271Y0220796D01*
X0327869Y0222395D02*
X0281920Y0222395D01*
X0283519Y0223993D02*
X0329468Y0223993D01*
X0331066Y0225592D02*
X0285117Y0225592D01*
X0286716Y0227190D02*
X0332665Y0227190D01*
X0334263Y0228789D02*
X0288314Y0228789D01*
X0289913Y0230387D02*
X0335862Y0230387D01*
X0337460Y0231986D02*
X0291511Y0231986D01*
X0293110Y0233584D02*
X0339059Y0233584D01*
X0340657Y0235183D02*
X0294686Y0235183D01*
X0295157Y0236781D02*
X0342256Y0236781D01*
X0343854Y0238380D02*
X0295157Y0238380D01*
X0295157Y0239978D02*
X0345453Y0239978D01*
X0347051Y0241577D02*
X0295157Y0241577D01*
X0288757Y0241577D02*
X0234843Y0241577D01*
X0234843Y0239978D02*
X0288757Y0239978D01*
X0288757Y0238380D02*
X0234843Y0238380D01*
X0234843Y0236781D02*
X0287256Y0236781D01*
X0285657Y0235183D02*
X0234843Y0235183D01*
X0234843Y0233584D02*
X0284059Y0233584D01*
X0282460Y0231986D02*
X0234843Y0231986D01*
X0234843Y0230387D02*
X0280862Y0230387D01*
X0279263Y0228789D02*
X0234843Y0228789D01*
X0234843Y0227190D02*
X0277665Y0227190D01*
X0276066Y0225592D02*
X0234843Y0225592D01*
X0234843Y0223993D02*
X0274468Y0223993D01*
X0272869Y0222395D02*
X0234843Y0222395D01*
X0234843Y0220796D02*
X0271271Y0220796D01*
X0269672Y0219198D02*
X0234843Y0219198D01*
X0234843Y0217599D02*
X0268074Y0217599D01*
X0266475Y0216001D02*
X0234843Y0216001D01*
X0234843Y0214402D02*
X0264877Y0214402D01*
X0263278Y0212803D02*
X0234843Y0212803D01*
X0234843Y0211205D02*
X0261680Y0211205D01*
X0260081Y0209606D02*
X0234843Y0209606D01*
X0234843Y0208008D02*
X0258482Y0208008D01*
X0256884Y0206409D02*
X0234843Y0206409D01*
X0234843Y0204811D02*
X0255285Y0204811D01*
X0253687Y0203212D02*
X0234843Y0203212D01*
X0234843Y0201614D02*
X0252088Y0201614D01*
X0250490Y0200015D02*
X0234843Y0200015D01*
X0234843Y0198417D02*
X0248891Y0198417D01*
X0247293Y0196818D02*
X0234843Y0196818D01*
X0234517Y0195220D02*
X0245694Y0195220D01*
X0244096Y0193621D02*
X0233147Y0193621D01*
X0231548Y0192023D02*
X0242497Y0192023D01*
X0240899Y0190424D02*
X0229950Y0190424D01*
X0228351Y0188826D02*
X0239300Y0188826D01*
X0237702Y0187227D02*
X0226753Y0187227D01*
X0225154Y0185629D02*
X0236103Y0185629D01*
X0234505Y0184030D02*
X0223556Y0184030D01*
X0221957Y0182432D02*
X0232906Y0182432D01*
X0231308Y0180833D02*
X0220359Y0180833D01*
X0218760Y0179235D02*
X0229709Y0179235D01*
X0228111Y0177636D02*
X0217162Y0177636D01*
X0215563Y0176038D02*
X0226512Y0176038D01*
X0224914Y0174439D02*
X0213965Y0174439D01*
X0212366Y0172841D02*
X0223315Y0172841D01*
X0221717Y0171242D02*
X0210768Y0171242D01*
X0209169Y0169644D02*
X0220118Y0169644D01*
X0218520Y0168045D02*
X0207571Y0168045D01*
X0205972Y0166447D02*
X0216921Y0166447D01*
X0215323Y0164848D02*
X0204374Y0164848D01*
X0202775Y0163250D02*
X0213724Y0163250D01*
X0212126Y0161651D02*
X0201177Y0161651D01*
X0199578Y0160053D02*
X0210527Y0160053D01*
X0208929Y0158454D02*
X0197980Y0158454D01*
X0196381Y0156856D02*
X0207330Y0156856D01*
X0205732Y0155257D02*
X0194783Y0155257D01*
X0193184Y0153659D02*
X0204133Y0153659D01*
X0202535Y0152060D02*
X0191586Y0152060D01*
X0189987Y0150462D02*
X0200936Y0150462D01*
X0199987Y0149513D02*
X0199987Y0149513D01*
X0199338Y0148863D02*
X0188389Y0148863D01*
X0186790Y0147265D02*
X0198600Y0147265D01*
X0198600Y0145666D02*
X0185191Y0145666D01*
X0185000Y0144068D02*
X0198600Y0144068D01*
X0198600Y0142469D02*
X0185000Y0142469D01*
X0185000Y0140870D02*
X0198600Y0140870D01*
X0198600Y0139272D02*
X0185000Y0139272D01*
X0185000Y0137673D02*
X0198600Y0137673D01*
X0198600Y0136075D02*
X0185000Y0136075D01*
X0185000Y0134476D02*
X0198600Y0134476D01*
X0198600Y0132878D02*
X0185000Y0132878D01*
X0185000Y0131279D02*
X0198600Y0131279D01*
X0198600Y0129681D02*
X0185000Y0129681D01*
X0185000Y0128082D02*
X0198600Y0128082D01*
X0198600Y0126484D02*
X0185000Y0126484D01*
X0185000Y0124885D02*
X0198600Y0124885D01*
X0198600Y0123287D02*
X0185000Y0123287D01*
X0185000Y0121688D02*
X0198600Y0121688D01*
X0198600Y0120090D02*
X0185000Y0120090D01*
X0185000Y0118491D02*
X0198600Y0118491D01*
X0198600Y0116893D02*
X0185000Y0116893D01*
X0185000Y0115294D02*
X0198600Y0115294D01*
X0198600Y0113696D02*
X0185000Y0113696D01*
X0185000Y0112097D02*
X0198600Y0112097D01*
X0198600Y0110499D02*
X0185000Y0110499D01*
X0185000Y0108900D02*
X0198600Y0108900D01*
X0198600Y0107302D02*
X0185000Y0107302D01*
X0185000Y0105703D02*
X0198600Y0105703D01*
X0198600Y0104105D02*
X0185000Y0104105D01*
X0185000Y0102506D02*
X0198600Y0102506D01*
X0198600Y0100908D02*
X0185000Y0100908D01*
X0185000Y0099309D02*
X0198600Y0099309D01*
X0197398Y0097711D02*
X0186202Y0097711D01*
X0186768Y0096112D02*
X0196832Y0096112D01*
X0196832Y0094514D02*
X0186768Y0094514D01*
X0186768Y0092915D02*
X0196832Y0092915D01*
X0196832Y0091317D02*
X0186768Y0091317D01*
X0186768Y0089718D02*
X0196832Y0089718D01*
X0196832Y0088120D02*
X0186768Y0088120D01*
X0186463Y0086521D02*
X0197137Y0086521D01*
X0198062Y0084923D02*
X0185538Y0084923D01*
X0177747Y0084923D02*
X0165853Y0084923D01*
X0166778Y0086521D02*
X0176822Y0086521D01*
X0176518Y0088120D02*
X0167082Y0088120D01*
X0167082Y0089718D02*
X0176518Y0089718D01*
X0176518Y0091317D02*
X0167082Y0091317D01*
X0167082Y0092915D02*
X0176518Y0092915D01*
X0176518Y0094514D02*
X0167082Y0094514D01*
X0167082Y0096112D02*
X0176518Y0096112D01*
X0177083Y0097711D02*
X0166517Y0097711D01*
X0165221Y0099309D02*
X0178379Y0099309D01*
X0178600Y0100908D02*
X0165000Y0100908D01*
X0165000Y0102506D02*
X0178600Y0102506D01*
X0178600Y0104105D02*
X0165000Y0104105D01*
X0165000Y0105703D02*
X0178600Y0105703D01*
X0178600Y0107302D02*
X0165000Y0107302D01*
X0165000Y0108900D02*
X0178600Y0108900D01*
X0178600Y0110499D02*
X0165000Y0110499D01*
X0165000Y0112097D02*
X0178600Y0112097D01*
X0178600Y0113696D02*
X0165000Y0113696D01*
X0165000Y0115294D02*
X0178600Y0115294D01*
X0178600Y0116893D02*
X0165000Y0116893D01*
X0165000Y0118491D02*
X0178600Y0118491D01*
X0178600Y0120090D02*
X0165000Y0120090D01*
X0165000Y0121688D02*
X0178600Y0121688D01*
X0178600Y0123287D02*
X0165000Y0123287D01*
X0165000Y0124885D02*
X0178600Y0124885D01*
X0178600Y0126484D02*
X0165000Y0126484D01*
X0165000Y0128082D02*
X0178600Y0128082D01*
X0178600Y0129681D02*
X0165000Y0129681D01*
X0165000Y0131279D02*
X0178600Y0131279D01*
X0178600Y0132878D02*
X0165000Y0132878D01*
X0165000Y0134476D02*
X0178600Y0134476D01*
X0178600Y0136075D02*
X0165000Y0136075D01*
X0165000Y0137673D02*
X0178600Y0137673D01*
X0178600Y0139272D02*
X0165000Y0139272D01*
X0165000Y0140870D02*
X0178600Y0140870D01*
X0178600Y0142469D02*
X0165000Y0142469D01*
X0165000Y0144068D02*
X0178600Y0144068D01*
X0178600Y0145666D02*
X0165000Y0145666D01*
X0165000Y0147265D02*
X0178600Y0147265D01*
X0179338Y0148863D02*
X0165000Y0148863D01*
X0165000Y0150462D02*
X0180936Y0150462D01*
X0182535Y0152060D02*
X0166586Y0152060D01*
X0168184Y0153659D02*
X0184133Y0153659D01*
X0185732Y0155257D02*
X0169783Y0155257D01*
X0171381Y0156856D02*
X0187330Y0156856D01*
X0188929Y0158454D02*
X0172980Y0158454D01*
X0174578Y0160053D02*
X0190527Y0160053D01*
X0192126Y0161651D02*
X0175157Y0161651D01*
X0175157Y0163250D02*
X0193724Y0163250D01*
X0195323Y0164848D02*
X0175157Y0164848D01*
X0175157Y0166447D02*
X0196921Y0166447D01*
X0198520Y0168045D02*
X0175157Y0168045D01*
X0175157Y0169644D02*
X0200118Y0169644D01*
X0201717Y0171242D02*
X0175157Y0171242D01*
X0175157Y0172841D02*
X0203315Y0172841D01*
X0204914Y0174439D02*
X0175157Y0174439D01*
X0175157Y0176038D02*
X0206512Y0176038D01*
X0208111Y0177636D02*
X0175157Y0177636D01*
X0175157Y0179235D02*
X0209709Y0179235D01*
X0211308Y0180833D02*
X0175157Y0180833D01*
X0175157Y0182432D02*
X0212906Y0182432D01*
X0214505Y0184030D02*
X0175157Y0184030D01*
X0175157Y0185629D02*
X0216103Y0185629D01*
X0217702Y0187227D02*
X0175157Y0187227D01*
X0175157Y0188826D02*
X0219300Y0188826D01*
X0220899Y0190424D02*
X0175157Y0190424D01*
X0175157Y0192023D02*
X0222497Y0192023D01*
X0224096Y0193621D02*
X0175157Y0193621D01*
X0175157Y0195220D02*
X0225694Y0195220D01*
X0227293Y0196818D02*
X0175157Y0196818D01*
X0175157Y0198417D02*
X0228443Y0198417D01*
X0228443Y0200015D02*
X0175157Y0200015D01*
X0175157Y0201614D02*
X0228443Y0201614D01*
X0228443Y0203212D02*
X0175157Y0203212D01*
X0175157Y0204811D02*
X0228443Y0204811D01*
X0228443Y0206409D02*
X0175157Y0206409D01*
X0175157Y0208008D02*
X0228443Y0208008D01*
X0228443Y0209606D02*
X0175157Y0209606D01*
X0175157Y0211205D02*
X0228443Y0211205D01*
X0228443Y0212803D02*
X0175157Y0212803D01*
X0175157Y0214402D02*
X0228443Y0214402D01*
X0228443Y0216001D02*
X0175157Y0216001D01*
X0175157Y0217599D02*
X0228443Y0217599D01*
X0228443Y0219198D02*
X0175157Y0219198D01*
X0175157Y0220796D02*
X0228443Y0220796D01*
X0228443Y0222395D02*
X0175157Y0222395D01*
X0175157Y0223993D02*
X0228443Y0223993D01*
X0228443Y0225592D02*
X0175157Y0225592D01*
X0175157Y0227190D02*
X0228443Y0227190D01*
X0228443Y0228789D02*
X0175157Y0228789D01*
X0175157Y0230387D02*
X0228443Y0230387D01*
X0228443Y0231986D02*
X0175157Y0231986D01*
X0175157Y0233584D02*
X0228443Y0233584D01*
X0228443Y0235183D02*
X0175157Y0235183D01*
X0175157Y0236781D02*
X0228443Y0236781D01*
X0228443Y0238380D02*
X0175157Y0238380D01*
X0175157Y0239978D02*
X0228443Y0239978D01*
X0228443Y0241577D02*
X0175157Y0241577D01*
X0168757Y0241577D02*
X0114843Y0241577D01*
X0114843Y0239978D02*
X0168757Y0239978D01*
X0168757Y0238380D02*
X0114843Y0238380D01*
X0114843Y0236781D02*
X0168757Y0236781D01*
X0168757Y0235183D02*
X0114843Y0235183D01*
X0114843Y0233584D02*
X0168757Y0233584D01*
X0168757Y0231986D02*
X0114843Y0231986D01*
X0114843Y0230387D02*
X0168757Y0230387D01*
X0168757Y0228789D02*
X0114843Y0228789D01*
X0114843Y0227190D02*
X0168757Y0227190D01*
X0168757Y0225592D02*
X0114843Y0225592D01*
X0114843Y0223993D02*
X0168757Y0223993D01*
X0168757Y0222395D02*
X0114843Y0222395D01*
X0114843Y0220796D02*
X0168757Y0220796D01*
X0168757Y0219198D02*
X0114843Y0219198D01*
X0114843Y0217599D02*
X0168757Y0217599D01*
X0168757Y0216001D02*
X0114843Y0216001D01*
X0114843Y0214402D02*
X0168757Y0214402D01*
X0168757Y0212803D02*
X0114843Y0212803D01*
X0114843Y0211205D02*
X0168757Y0211205D01*
X0168757Y0209606D02*
X0114843Y0209606D01*
X0114843Y0208008D02*
X0168757Y0208008D01*
X0168757Y0206409D02*
X0114843Y0206409D01*
X0114843Y0204811D02*
X0168757Y0204811D01*
X0168757Y0203212D02*
X0114843Y0203212D01*
X0114843Y0201614D02*
X0168757Y0201614D01*
X0168757Y0200015D02*
X0114843Y0200015D01*
X0114843Y0198417D02*
X0168757Y0198417D01*
X0168757Y0196818D02*
X0114843Y0196818D01*
X0114843Y0195220D02*
X0168757Y0195220D01*
X0168757Y0193621D02*
X0114843Y0193621D01*
X0114843Y0192023D02*
X0168757Y0192023D01*
X0168757Y0190424D02*
X0114843Y0190424D01*
X0114843Y0188826D02*
X0168757Y0188826D01*
X0168757Y0187227D02*
X0114843Y0187227D01*
X0114843Y0185629D02*
X0168757Y0185629D01*
X0168757Y0184030D02*
X0114843Y0184030D01*
X0115694Y0182432D02*
X0168757Y0182432D01*
X0168757Y0180833D02*
X0117292Y0180833D01*
X0118891Y0179235D02*
X0168757Y0179235D01*
X0168757Y0177636D02*
X0120489Y0177636D01*
X0122088Y0176038D02*
X0168757Y0176038D01*
X0168757Y0174439D02*
X0123686Y0174439D01*
X0125285Y0172841D02*
X0168757Y0172841D01*
X0168757Y0171242D02*
X0126883Y0171242D01*
X0128482Y0169644D02*
X0168757Y0169644D01*
X0168757Y0168045D02*
X0130080Y0168045D01*
X0131679Y0166447D02*
X0168757Y0166447D01*
X0168757Y0164848D02*
X0133277Y0164848D01*
X0134876Y0163250D02*
X0168724Y0163250D01*
X0167126Y0161651D02*
X0136474Y0161651D01*
X0138073Y0160053D02*
X0165527Y0160053D01*
X0163929Y0158454D02*
X0139671Y0158454D01*
X0141270Y0156856D02*
X0162330Y0156856D01*
X0160732Y0155257D02*
X0142868Y0155257D01*
X0144467Y0153659D02*
X0159133Y0153659D01*
X0158600Y0152060D02*
X0145000Y0152060D01*
X0145000Y0150462D02*
X0158600Y0150462D01*
X0158600Y0148863D02*
X0145000Y0148863D01*
X0145000Y0147265D02*
X0158600Y0147265D01*
X0158600Y0145666D02*
X0145000Y0145666D01*
X0145000Y0144068D02*
X0158600Y0144068D01*
X0158600Y0142469D02*
X0145000Y0142469D01*
X0145000Y0140870D02*
X0158600Y0140870D01*
X0158600Y0139272D02*
X0145000Y0139272D01*
X0145000Y0137673D02*
X0158600Y0137673D01*
X0158600Y0136075D02*
X0145000Y0136075D01*
X0145000Y0134476D02*
X0158600Y0134476D01*
X0158600Y0132878D02*
X0145000Y0132878D01*
X0145000Y0131279D02*
X0158600Y0131279D01*
X0158600Y0129681D02*
X0145000Y0129681D01*
X0145000Y0128082D02*
X0158600Y0128082D01*
X0158600Y0126484D02*
X0145000Y0126484D01*
X0145000Y0124885D02*
X0158600Y0124885D01*
X0158600Y0123287D02*
X0145000Y0123287D01*
X0145000Y0121688D02*
X0158600Y0121688D01*
X0158600Y0120090D02*
X0145000Y0120090D01*
X0145000Y0118491D02*
X0158600Y0118491D01*
X0158600Y0116893D02*
X0145000Y0116893D01*
X0145000Y0115294D02*
X0158600Y0115294D01*
X0158600Y0113696D02*
X0145000Y0113696D01*
X0145000Y0112097D02*
X0158600Y0112097D01*
X0158600Y0110499D02*
X0145000Y0110499D01*
X0145000Y0108900D02*
X0158600Y0108900D01*
X0158600Y0107302D02*
X0145000Y0107302D01*
X0145000Y0105703D02*
X0158600Y0105703D01*
X0158600Y0104105D02*
X0145000Y0104105D01*
X0145000Y0102506D02*
X0158600Y0102506D01*
X0158600Y0100908D02*
X0145000Y0100908D01*
X0145000Y0099309D02*
X0158600Y0099309D01*
X0157398Y0097711D02*
X0146202Y0097711D01*
X0146768Y0096112D02*
X0156832Y0096112D01*
X0156832Y0094514D02*
X0146768Y0094514D01*
X0146768Y0092915D02*
X0156832Y0092915D01*
X0156832Y0091317D02*
X0146768Y0091317D01*
X0146768Y0089718D02*
X0156832Y0089718D01*
X0156832Y0088120D02*
X0146768Y0088120D01*
X0146463Y0086521D02*
X0157137Y0086521D01*
X0158062Y0084923D02*
X0145538Y0084923D01*
X0137747Y0084923D02*
X0125853Y0084923D01*
X0126778Y0086521D02*
X0136822Y0086521D01*
X0136518Y0088120D02*
X0127082Y0088120D01*
X0127082Y0089718D02*
X0136518Y0089718D01*
X0136518Y0091317D02*
X0127082Y0091317D01*
X0127082Y0092915D02*
X0136518Y0092915D01*
X0136518Y0094514D02*
X0127082Y0094514D01*
X0127082Y0096112D02*
X0136518Y0096112D01*
X0137083Y0097711D02*
X0126517Y0097711D01*
X0125221Y0099309D02*
X0138379Y0099309D01*
X0138600Y0100908D02*
X0125000Y0100908D01*
X0125000Y0102506D02*
X0138600Y0102506D01*
X0138600Y0104105D02*
X0125000Y0104105D01*
X0125000Y0105703D02*
X0138600Y0105703D01*
X0138600Y0107302D02*
X0125000Y0107302D01*
X0125000Y0108900D02*
X0138600Y0108900D01*
X0138600Y0110499D02*
X0125000Y0110499D01*
X0125000Y0112097D02*
X0138600Y0112097D01*
X0138600Y0113696D02*
X0125000Y0113696D01*
X0125000Y0115294D02*
X0138600Y0115294D01*
X0138600Y0116893D02*
X0125000Y0116893D01*
X0125000Y0118491D02*
X0138600Y0118491D01*
X0138600Y0120090D02*
X0125000Y0120090D01*
X0125000Y0121688D02*
X0138600Y0121688D01*
X0138600Y0123287D02*
X0125000Y0123287D01*
X0125000Y0124885D02*
X0138600Y0124885D01*
X0138600Y0126484D02*
X0125000Y0126484D01*
X0125000Y0128082D02*
X0138600Y0128082D01*
X0138600Y0129681D02*
X0125000Y0129681D01*
X0125000Y0131279D02*
X0138600Y0131279D01*
X0138600Y0132878D02*
X0125000Y0132878D01*
X0125000Y0134476D02*
X0138600Y0134476D01*
X0138600Y0136075D02*
X0125000Y0136075D01*
X0124902Y0137673D02*
X0138600Y0137673D01*
X0138600Y0139272D02*
X0123853Y0139272D01*
X0122255Y0140870D02*
X0138600Y0140870D01*
X0138600Y0142469D02*
X0120656Y0142469D01*
X0119058Y0144068D02*
X0138600Y0144068D01*
X0138600Y0145666D02*
X0117459Y0145666D01*
X0115861Y0147265D02*
X0138600Y0147265D01*
X0138600Y0148863D02*
X0114262Y0148863D01*
X0112664Y0150462D02*
X0138600Y0150462D01*
X0137014Y0152060D02*
X0111065Y0152060D01*
X0109467Y0153659D02*
X0135416Y0153659D01*
X0133817Y0155257D02*
X0107868Y0155257D01*
X0106270Y0156856D02*
X0132219Y0156856D01*
X0130620Y0158454D02*
X0104671Y0158454D01*
X0103073Y0160053D02*
X0129022Y0160053D01*
X0127423Y0161651D02*
X0101474Y0161651D01*
X0099876Y0163250D02*
X0125825Y0163250D01*
X0124226Y0164848D02*
X0098277Y0164848D01*
X0096679Y0166447D02*
X0122628Y0166447D01*
X0121029Y0168045D02*
X0095080Y0168045D01*
X0093482Y0169644D02*
X0119431Y0169644D01*
X0117832Y0171242D02*
X0091883Y0171242D01*
X0090285Y0172841D02*
X0116234Y0172841D01*
X0114635Y0174439D02*
X0088686Y0174439D01*
X0087088Y0176038D02*
X0113037Y0176038D01*
X0111438Y0177636D02*
X0085489Y0177636D01*
X0083891Y0179235D02*
X0109840Y0179235D01*
X0108645Y0180833D02*
X0082292Y0180833D01*
X0080694Y0182432D02*
X0108443Y0182432D01*
X0108443Y0184030D02*
X0079095Y0184030D01*
X0077497Y0185629D02*
X0108443Y0185629D01*
X0108443Y0187227D02*
X0075898Y0187227D01*
X0074300Y0188826D02*
X0108443Y0188826D01*
X0108443Y0190424D02*
X0072701Y0190424D01*
X0071103Y0192023D02*
X0108443Y0192023D01*
X0108443Y0193621D02*
X0069504Y0193621D01*
X0067906Y0195220D02*
X0108443Y0195220D01*
X0108443Y0196818D02*
X0066307Y0196818D01*
X0064709Y0198417D02*
X0108443Y0198417D01*
X0108443Y0200015D02*
X0063110Y0200015D01*
X0061512Y0201614D02*
X0108443Y0201614D01*
X0108443Y0203212D02*
X0059913Y0203212D01*
X0058315Y0204811D02*
X0108443Y0204811D01*
X0108443Y0206409D02*
X0056716Y0206409D01*
X0055157Y0208008D02*
X0108443Y0208008D01*
X0108443Y0209606D02*
X0055157Y0209606D01*
X0055157Y0211205D02*
X0108443Y0211205D01*
X0108443Y0212803D02*
X0055157Y0212803D01*
X0055157Y0214402D02*
X0108443Y0214402D01*
X0108443Y0216001D02*
X0055157Y0216001D01*
X0055157Y0217599D02*
X0108443Y0217599D01*
X0108443Y0219198D02*
X0055157Y0219198D01*
X0055157Y0220796D02*
X0108443Y0220796D01*
X0108443Y0222395D02*
X0055157Y0222395D01*
X0055157Y0223993D02*
X0108443Y0223993D01*
X0108443Y0225592D02*
X0055157Y0225592D01*
X0055157Y0227190D02*
X0108443Y0227190D01*
X0108443Y0228789D02*
X0055157Y0228789D01*
X0055157Y0230387D02*
X0108443Y0230387D01*
X0108443Y0231986D02*
X0055157Y0231986D01*
X0055157Y0233584D02*
X0108443Y0233584D01*
X0108443Y0235183D02*
X0055157Y0235183D01*
X0055157Y0236781D02*
X0108443Y0236781D01*
X0108443Y0238380D02*
X0055157Y0238380D01*
X0055157Y0239978D02*
X0108443Y0239978D01*
X0108443Y0241577D02*
X0055157Y0241577D01*
X0048757Y0241577D02*
X0006600Y0241577D01*
X0006600Y0239978D02*
X0048757Y0239978D01*
X0048757Y0238380D02*
X0006600Y0238380D01*
X0006600Y0236781D02*
X0048757Y0236781D01*
X0048757Y0235183D02*
X0006600Y0235183D01*
X0006600Y0233584D02*
X0048757Y0233584D01*
X0048757Y0231986D02*
X0006600Y0231986D01*
X0006600Y0230387D02*
X0048757Y0230387D01*
X0048757Y0228789D02*
X0006600Y0228789D01*
X0006600Y0227190D02*
X0048757Y0227190D01*
X0048757Y0225592D02*
X0006600Y0225592D01*
X0006600Y0223993D02*
X0048757Y0223993D01*
X0048757Y0222395D02*
X0006600Y0222395D01*
X0006600Y0220796D02*
X0048757Y0220796D01*
X0048757Y0219198D02*
X0006600Y0219198D01*
X0006600Y0217599D02*
X0048757Y0217599D01*
X0048757Y0216001D02*
X0006600Y0216001D01*
X0006600Y0214402D02*
X0048757Y0214402D01*
X0048757Y0212803D02*
X0006600Y0212803D01*
X0006600Y0211205D02*
X0048757Y0211205D01*
X0048757Y0209606D02*
X0006600Y0209606D01*
X0006600Y0208008D02*
X0048757Y0208008D01*
X0048757Y0206409D02*
X0006600Y0206409D01*
X0006600Y0204811D02*
X0049264Y0204811D01*
X0050862Y0203212D02*
X0006600Y0203212D01*
X0006600Y0201614D02*
X0052461Y0201614D01*
X0054059Y0200015D02*
X0006600Y0200015D01*
X0006600Y0198417D02*
X0055658Y0198417D01*
X0057256Y0196818D02*
X0006600Y0196818D01*
X0006600Y0195220D02*
X0058855Y0195220D01*
X0060453Y0193621D02*
X0006600Y0193621D01*
X0006600Y0192023D02*
X0062052Y0192023D01*
X0063650Y0190424D02*
X0006600Y0190424D01*
X0006600Y0188826D02*
X0065249Y0188826D01*
X0066847Y0187227D02*
X0006600Y0187227D01*
X0006600Y0185629D02*
X0068446Y0185629D01*
X0070044Y0184030D02*
X0006600Y0184030D01*
X0006600Y0182432D02*
X0071643Y0182432D01*
X0073241Y0180833D02*
X0006600Y0180833D01*
X0006600Y0179235D02*
X0074840Y0179235D01*
X0076438Y0177636D02*
X0006600Y0177636D01*
X0006600Y0176038D02*
X0078037Y0176038D01*
X0079635Y0174439D02*
X0006600Y0174439D01*
X0006600Y0172841D02*
X0081234Y0172841D01*
X0082832Y0171242D02*
X0006600Y0171242D01*
X0006600Y0169644D02*
X0084431Y0169644D01*
X0086029Y0168045D02*
X0006600Y0168045D01*
X0006600Y0166447D02*
X0087628Y0166447D01*
X0089226Y0164848D02*
X0006600Y0164848D01*
X0006600Y0163250D02*
X0090825Y0163250D01*
X0092423Y0161651D02*
X0006600Y0161651D01*
X0006600Y0160053D02*
X0094022Y0160053D01*
X0095620Y0158454D02*
X0006600Y0158454D01*
X0006600Y0156856D02*
X0097219Y0156856D01*
X0098817Y0155257D02*
X0006600Y0155257D01*
X0006600Y0153659D02*
X0100416Y0153659D01*
X0102014Y0152060D02*
X0006600Y0152060D01*
X0006600Y0150462D02*
X0103613Y0150462D01*
X0105211Y0148863D02*
X0006600Y0148863D01*
X0006600Y0147265D02*
X0106810Y0147265D01*
X0108408Y0145666D02*
X0006600Y0145666D01*
X0006600Y0144068D02*
X0110007Y0144068D01*
X0111606Y0142469D02*
X0006600Y0142469D01*
X0006600Y0140870D02*
X0113204Y0140870D01*
X0114803Y0139272D02*
X0006600Y0139272D01*
X0006600Y0137673D02*
X0116401Y0137673D01*
X0118000Y0136075D02*
X0006600Y0136075D01*
X0006600Y0134476D02*
X0118600Y0134476D01*
X0118600Y0132878D02*
X0006600Y0132878D01*
X0006600Y0131279D02*
X0118600Y0131279D01*
X0118600Y0129681D02*
X0006600Y0129681D01*
X0006600Y0128082D02*
X0118600Y0128082D01*
X0118600Y0126484D02*
X0006600Y0126484D01*
X0006600Y0124885D02*
X0118600Y0124885D01*
X0118600Y0123287D02*
X0006600Y0123287D01*
X0006600Y0121688D02*
X0118600Y0121688D01*
X0118600Y0120090D02*
X0006600Y0120090D01*
X0006600Y0118491D02*
X0118600Y0118491D01*
X0118600Y0116893D02*
X0006600Y0116893D01*
X0006600Y0115294D02*
X0118600Y0115294D01*
X0118600Y0113696D02*
X0006600Y0113696D01*
X0006600Y0112097D02*
X0118600Y0112097D01*
X0118600Y0110499D02*
X0006600Y0110499D01*
X0006600Y0108900D02*
X0118600Y0108900D01*
X0118600Y0107302D02*
X0006600Y0107302D01*
X0006600Y0105703D02*
X0118600Y0105703D01*
X0118600Y0104105D02*
X0006600Y0104105D01*
X0006600Y0102506D02*
X0118600Y0102506D01*
X0118600Y0100908D02*
X0006600Y0100908D01*
X0006600Y0099309D02*
X0118600Y0099309D01*
X0117398Y0097711D02*
X0006600Y0097711D01*
X0006600Y0096112D02*
X0116832Y0096112D01*
X0116832Y0094514D02*
X0006600Y0094514D01*
X0006600Y0092915D02*
X0116832Y0092915D01*
X0116832Y0091317D02*
X0006600Y0091317D01*
X0006600Y0089718D02*
X0116832Y0089718D01*
X0116832Y0088120D02*
X0006600Y0088120D01*
X0006600Y0086521D02*
X0117137Y0086521D01*
X0118062Y0084923D02*
X0006600Y0084923D01*
X0006600Y0080127D02*
X0356921Y0080127D01*
X0356921Y0078529D02*
X0006600Y0078529D01*
X0006600Y0076930D02*
X0356921Y0076930D01*
X0356921Y0075332D02*
X0006600Y0075332D01*
X0006600Y0073733D02*
X0356921Y0073733D01*
X0356921Y0072134D02*
X0006600Y0072134D01*
X0006600Y0070536D02*
X0356921Y0070536D01*
X0356921Y0068937D02*
X0006600Y0068937D01*
X0006600Y0067339D02*
X0356921Y0067339D01*
X0356921Y0065740D02*
X0006600Y0065740D01*
X0006600Y0064142D02*
X0356921Y0064142D01*
X0356921Y0062543D02*
X0006600Y0062543D01*
X0006600Y0060945D02*
X0356921Y0060945D01*
X0356921Y0059346D02*
X0006600Y0059346D01*
X0006600Y0057748D02*
X0356921Y0057748D01*
X0356921Y0056149D02*
X0006600Y0056149D01*
X0006600Y0054551D02*
X0356921Y0054551D01*
X0356921Y0052952D02*
X0006600Y0052952D01*
X0006600Y0051354D02*
X0356921Y0051354D01*
X0356921Y0049755D02*
X0006600Y0049755D01*
X0006600Y0048157D02*
X0356921Y0048157D01*
X0356921Y0046558D02*
X0006600Y0046558D01*
X0006600Y0044960D02*
X0356921Y0044960D01*
X0356921Y0043361D02*
X0006600Y0043361D01*
X0006600Y0041763D02*
X0356921Y0041763D01*
X0356921Y0040164D02*
X0006600Y0040164D01*
X0006600Y0038566D02*
X0356921Y0038566D01*
X0356921Y0036967D02*
X0006600Y0036967D01*
X0006600Y0035369D02*
X0356921Y0035369D01*
X0356921Y0033770D02*
X0006600Y0033770D01*
X0006600Y0032172D02*
X0356921Y0032172D01*
X0356921Y0030573D02*
X0006600Y0030573D01*
X0006600Y0028975D02*
X0356921Y0028975D01*
X0356921Y0027376D02*
X0006600Y0027376D01*
X0006600Y0025778D02*
X0356921Y0025778D01*
X0356921Y0024179D02*
X0006600Y0024179D01*
X0006600Y0022581D02*
X0356921Y0022581D01*
X0356921Y0020982D02*
X0006600Y0020982D01*
X0006600Y0019384D02*
X0356921Y0019384D01*
X0356921Y0017785D02*
X0006600Y0017785D01*
X0006600Y0016187D02*
X0356921Y0016187D01*
X0356921Y0014588D02*
X0006600Y0014588D01*
X0006600Y0012990D02*
X0356921Y0012990D01*
X0356921Y0011391D02*
X0006600Y0011391D01*
X0006600Y0009793D02*
X0356921Y0009793D01*
X0356921Y0008194D02*
X0006600Y0008194D01*
X0006600Y0006600D02*
X0006600Y0285701D01*
X0356921Y0285701D01*
X0356921Y0006600D01*
X0006600Y0006600D01*
X0031267Y0244774D02*
X0032018Y0244774D01*
X0032018Y0246372D02*
X0031267Y0246372D01*
X0031267Y0247971D02*
X0032018Y0247971D01*
X0032018Y0249569D02*
X0031267Y0249569D01*
X0031267Y0251168D02*
X0032018Y0251168D01*
X0032018Y0252766D02*
X0031267Y0252766D01*
X0031267Y0254365D02*
X0032018Y0254365D01*
X0032018Y0255963D02*
X0031267Y0255963D01*
X0031267Y0257562D02*
X0032018Y0257562D01*
X0032018Y0259160D02*
X0031267Y0259160D01*
X0006600Y0260759D02*
X0356921Y0260759D01*
X0356921Y0262357D02*
X0006600Y0262357D01*
X0006600Y0263956D02*
X0356921Y0263956D01*
X0356921Y0265554D02*
X0006600Y0265554D01*
X0006600Y0267153D02*
X0356921Y0267153D01*
X0356921Y0268751D02*
X0006600Y0268751D01*
X0006600Y0270350D02*
X0356921Y0270350D01*
X0356921Y0271948D02*
X0006600Y0271948D01*
X0006600Y0273547D02*
X0356921Y0273547D01*
X0356921Y0275145D02*
X0006600Y0275145D01*
X0006600Y0276744D02*
X0356921Y0276744D01*
X0356921Y0278342D02*
X0006600Y0278342D01*
X0006600Y0279941D02*
X0356921Y0279941D01*
X0356921Y0281539D02*
X0006600Y0281539D01*
X0006600Y0283138D02*
X0356921Y0283138D01*
X0356921Y0284737D02*
X0006600Y0284737D01*
X0075055Y0259160D02*
X0088262Y0259160D01*
X0088488Y0259387D02*
X0087896Y0258794D01*
X0087403Y0258116D01*
X0087023Y0257369D01*
X0086764Y0256572D01*
X0086632Y0255744D01*
X0086632Y0252175D01*
X0091582Y0252175D01*
X0091582Y0260650D01*
X0091538Y0260650D01*
X0090711Y0260519D01*
X0089913Y0260260D01*
X0089167Y0259879D01*
X0088488Y0259387D01*
X0087121Y0257562D02*
X0076263Y0257562D01*
X0076768Y0255963D02*
X0086667Y0255963D01*
X0086632Y0254365D02*
X0076768Y0254365D01*
X0076768Y0252766D02*
X0086632Y0252766D01*
X0086632Y0251168D02*
X0076768Y0251168D01*
X0076768Y0249569D02*
X0086632Y0249569D01*
X0086632Y0247971D02*
X0076768Y0247971D01*
X0076402Y0246372D02*
X0086977Y0246372D01*
X0087928Y0244774D02*
X0075389Y0244774D01*
X0091582Y0244774D02*
X0092332Y0244774D01*
X0092332Y0246372D02*
X0091582Y0246372D01*
X0091582Y0247971D02*
X0092332Y0247971D01*
X0092332Y0249569D02*
X0091582Y0249569D01*
X0091582Y0251168D02*
X0092332Y0251168D01*
X0092332Y0252766D02*
X0091582Y0252766D01*
X0091582Y0254365D02*
X0092332Y0254365D01*
X0092332Y0255963D02*
X0091582Y0255963D01*
X0091582Y0257562D02*
X0092332Y0257562D01*
X0092332Y0259160D02*
X0091582Y0259160D01*
X0135370Y0259160D02*
X0147947Y0259160D01*
X0148174Y0259387D02*
X0147581Y0258794D01*
X0147088Y0258116D01*
X0146708Y0257369D01*
X0146449Y0256572D01*
X0146318Y0255744D01*
X0146318Y0252175D01*
X0151267Y0252175D01*
X0151267Y0260650D01*
X0151223Y0260650D01*
X0150396Y0260519D01*
X0149598Y0260260D01*
X0148852Y0259879D01*
X0148174Y0259387D01*
X0146806Y0257562D02*
X0136578Y0257562D01*
X0137082Y0255963D02*
X0146352Y0255963D01*
X0146318Y0254365D02*
X0137082Y0254365D01*
X0137082Y0252766D02*
X0146318Y0252766D01*
X0146318Y0251168D02*
X0137082Y0251168D01*
X0137082Y0249569D02*
X0146318Y0249569D01*
X0146318Y0247971D02*
X0137082Y0247971D01*
X0136717Y0246372D02*
X0146662Y0246372D01*
X0147613Y0244774D02*
X0135704Y0244774D01*
X0151267Y0244774D02*
X0152018Y0244774D01*
X0152018Y0246372D02*
X0151267Y0246372D01*
X0151267Y0247971D02*
X0152018Y0247971D01*
X0152018Y0249569D02*
X0151267Y0249569D01*
X0151267Y0251168D02*
X0152018Y0251168D01*
X0152018Y0252766D02*
X0151267Y0252766D01*
X0151267Y0254365D02*
X0152018Y0254365D01*
X0152018Y0255963D02*
X0151267Y0255963D01*
X0151267Y0257562D02*
X0152018Y0257562D01*
X0152018Y0259160D02*
X0151267Y0259160D01*
X0195055Y0259160D02*
X0208262Y0259160D01*
X0208488Y0259387D02*
X0207896Y0258794D01*
X0207403Y0258116D01*
X0207023Y0257369D01*
X0206764Y0256572D01*
X0206632Y0255744D01*
X0206632Y0252175D01*
X0211582Y0252175D01*
X0211582Y0260650D01*
X0211538Y0260650D01*
X0210711Y0260519D01*
X0209913Y0260260D01*
X0209167Y0259879D01*
X0208488Y0259387D01*
X0207121Y0257562D02*
X0196263Y0257562D01*
X0196768Y0255963D02*
X0206667Y0255963D01*
X0206632Y0254365D02*
X0196768Y0254365D01*
X0196768Y0252766D02*
X0206632Y0252766D01*
X0206632Y0251168D02*
X0196768Y0251168D01*
X0196768Y0249569D02*
X0206632Y0249569D01*
X0206632Y0247971D02*
X0196768Y0247971D01*
X0196402Y0246372D02*
X0206977Y0246372D01*
X0207928Y0244774D02*
X0195389Y0244774D01*
X0211582Y0244774D02*
X0212332Y0244774D01*
X0212332Y0246372D02*
X0211582Y0246372D01*
X0211582Y0247971D02*
X0212332Y0247971D01*
X0212332Y0249569D02*
X0211582Y0249569D01*
X0211582Y0251168D02*
X0212332Y0251168D01*
X0212332Y0252766D02*
X0211582Y0252766D01*
X0211582Y0254365D02*
X0212332Y0254365D01*
X0212332Y0255963D02*
X0211582Y0255963D01*
X0211582Y0257562D02*
X0212332Y0257562D01*
X0212332Y0259160D02*
X0211582Y0259160D01*
X0255370Y0259160D02*
X0267947Y0259160D01*
X0268174Y0259387D02*
X0267581Y0258794D01*
X0267088Y0258116D01*
X0266708Y0257369D01*
X0266449Y0256572D01*
X0266318Y0255744D01*
X0266318Y0252175D01*
X0271267Y0252175D01*
X0271267Y0260650D01*
X0271223Y0260650D01*
X0270396Y0260519D01*
X0269598Y0260260D01*
X0268852Y0259879D01*
X0268174Y0259387D01*
X0266806Y0257562D02*
X0256578Y0257562D01*
X0257082Y0255963D02*
X0266352Y0255963D01*
X0266318Y0254365D02*
X0257082Y0254365D01*
X0257082Y0252766D02*
X0266318Y0252766D01*
X0266318Y0251168D02*
X0257082Y0251168D01*
X0257082Y0249569D02*
X0266318Y0249569D01*
X0266318Y0247971D02*
X0257082Y0247971D01*
X0256717Y0246372D02*
X0266662Y0246372D01*
X0267613Y0244774D02*
X0255704Y0244774D01*
X0271267Y0244774D02*
X0272018Y0244774D01*
X0272018Y0246372D02*
X0271267Y0246372D01*
X0271267Y0247971D02*
X0272018Y0247971D01*
X0272018Y0249569D02*
X0271267Y0249569D01*
X0271267Y0251168D02*
X0272018Y0251168D01*
X0272018Y0252766D02*
X0271267Y0252766D01*
X0271267Y0254365D02*
X0272018Y0254365D01*
X0272018Y0255963D02*
X0271267Y0255963D01*
X0271267Y0257562D02*
X0272018Y0257562D01*
X0272018Y0259160D02*
X0271267Y0259160D01*
X0315055Y0259160D02*
X0328262Y0259160D01*
X0328488Y0259387D02*
X0327896Y0258794D01*
X0327403Y0258116D01*
X0327023Y0257369D01*
X0326764Y0256572D01*
X0326632Y0255744D01*
X0326632Y0252175D01*
X0331582Y0252175D01*
X0331582Y0260650D01*
X0331538Y0260650D01*
X0330711Y0260519D01*
X0329913Y0260260D01*
X0329167Y0259879D01*
X0328488Y0259387D01*
X0327121Y0257562D02*
X0316263Y0257562D01*
X0316768Y0255963D02*
X0326667Y0255963D01*
X0326632Y0254365D02*
X0316768Y0254365D01*
X0316768Y0252766D02*
X0326632Y0252766D01*
X0326632Y0251168D02*
X0316768Y0251168D01*
X0316768Y0249569D02*
X0326632Y0249569D01*
X0326632Y0247971D02*
X0316768Y0247971D01*
X0316402Y0246372D02*
X0326977Y0246372D01*
X0327928Y0244774D02*
X0315389Y0244774D01*
X0331582Y0244774D02*
X0332332Y0244774D01*
X0332332Y0246372D02*
X0331582Y0246372D01*
X0331582Y0247971D02*
X0332332Y0247971D01*
X0332332Y0249569D02*
X0331582Y0249569D01*
X0331582Y0251168D02*
X0332332Y0251168D01*
X0332332Y0252766D02*
X0331582Y0252766D01*
X0331582Y0254365D02*
X0332332Y0254365D01*
X0332332Y0255963D02*
X0331582Y0255963D01*
X0331582Y0257562D02*
X0332332Y0257562D01*
X0332332Y0259160D02*
X0331582Y0259160D01*
X0341223Y0100650D02*
X0340396Y0100519D01*
X0339598Y0100260D01*
X0338852Y0099879D01*
X0338174Y0099387D01*
X0337581Y0098794D01*
X0337088Y0098116D01*
X0336708Y0097369D01*
X0336449Y0096572D01*
X0336318Y0095744D01*
X0336318Y0092175D01*
X0341267Y0092175D01*
X0341267Y0100650D01*
X0341223Y0100650D01*
X0341267Y0099309D02*
X0342018Y0099309D01*
X0342018Y0097711D02*
X0341267Y0097711D01*
X0341267Y0096112D02*
X0342018Y0096112D01*
X0342018Y0094514D02*
X0341267Y0094514D01*
X0341267Y0092915D02*
X0342018Y0092915D01*
X0342018Y0091317D02*
X0341267Y0091317D01*
X0341267Y0089718D02*
X0342018Y0089718D01*
X0342018Y0088120D02*
X0341267Y0088120D01*
X0341267Y0086521D02*
X0342018Y0086521D01*
X0342018Y0084923D02*
X0341267Y0084923D01*
X0337496Y0084923D02*
X0325853Y0084923D01*
X0326778Y0086521D02*
X0336613Y0086521D01*
X0336318Y0088120D02*
X0327082Y0088120D01*
X0327082Y0089718D02*
X0336318Y0089718D01*
X0336318Y0091317D02*
X0327082Y0091317D01*
X0327082Y0092915D02*
X0336318Y0092915D01*
X0336318Y0094514D02*
X0327082Y0094514D01*
X0327082Y0096112D02*
X0336376Y0096112D01*
X0336882Y0097711D02*
X0326517Y0097711D01*
X0325221Y0099309D02*
X0338096Y0099309D01*
X0345189Y0099309D02*
X0356921Y0099309D01*
X0356921Y0097711D02*
X0346403Y0097711D01*
X0346909Y0096112D02*
X0356921Y0096112D01*
X0356921Y0094514D02*
X0346968Y0094514D01*
X0346968Y0092915D02*
X0356921Y0092915D01*
X0356921Y0091317D02*
X0346968Y0091317D01*
X0346968Y0089718D02*
X0356921Y0089718D01*
X0356921Y0088120D02*
X0346968Y0088120D01*
X0346672Y0086521D02*
X0356921Y0086521D01*
X0356921Y0084923D02*
X0345789Y0084923D01*
D13*
X0256800Y0146800D02*
X0226800Y0146800D01*
X0221800Y0141800D01*
X0221800Y0091957D01*
X0221643Y0091800D01*
X0201957Y0091800D02*
X0201800Y0091957D01*
X0201800Y0146800D01*
X0291957Y0236957D01*
X0291957Y0251800D01*
X0351643Y0251800D02*
X0351643Y0241643D01*
X0256800Y0146800D01*
X0231643Y0196643D02*
X0181800Y0146800D01*
X0181800Y0091957D01*
X0181643Y0091800D01*
X0161957Y0091800D02*
X0161800Y0091957D01*
X0161800Y0151800D01*
X0171957Y0161957D01*
X0171957Y0251800D01*
X0231643Y0251800D02*
X0231643Y0196643D01*
X0141800Y0151800D02*
X0141800Y0091957D01*
X0141643Y0091800D01*
X0121957Y0091800D02*
X0121800Y0091957D01*
X0121800Y0136800D01*
X0051957Y0206643D01*
X0051957Y0251800D01*
X0111643Y0251800D02*
X0111643Y0181957D01*
X0141800Y0151800D01*
M02*
