G75*
%MOIN*%
%OFA0B0*%
%FSLAX25Y25*%
%IPPOS*%
%LPD*%
%AMOC8*
5,1,8,0,0,1.08239X$1,22.5*
%
%ADD10C,0.07050*%
%ADD11C,0.05000*%
%ADD12C,0.01600*%
D10*
X0121957Y0088275D02*
X0121957Y0095325D01*
X0141643Y0095325D02*
X0141643Y0088275D01*
X0161957Y0088275D02*
X0161957Y0095325D01*
X0181643Y0095325D02*
X0181643Y0088275D01*
X0201957Y0088275D02*
X0201957Y0095325D01*
X0221643Y0095325D02*
X0221643Y0088275D01*
X0321957Y0088275D02*
X0321957Y0095325D01*
X0341643Y0095325D02*
X0341643Y0088275D01*
X0331957Y0248275D02*
X0331957Y0255325D01*
X0351643Y0255325D02*
X0351643Y0248275D01*
X0311643Y0248275D02*
X0311643Y0255325D01*
X0291957Y0255325D02*
X0291957Y0248275D01*
X0271643Y0248275D02*
X0271643Y0255325D01*
X0251957Y0255325D02*
X0251957Y0248275D01*
X0231643Y0248275D02*
X0231643Y0255325D01*
X0211957Y0255325D02*
X0211957Y0248275D01*
X0191643Y0248275D02*
X0191643Y0255325D01*
X0171957Y0255325D02*
X0171957Y0248275D01*
X0151643Y0248275D02*
X0151643Y0255325D01*
X0131957Y0255325D02*
X0131957Y0248275D01*
X0111643Y0248275D02*
X0111643Y0255325D01*
X0091957Y0255325D02*
X0091957Y0248275D01*
X0071643Y0248275D02*
X0071643Y0255325D01*
X0051957Y0255325D02*
X0051957Y0248275D01*
X0031643Y0248275D02*
X0031643Y0255325D01*
X0011957Y0255325D02*
X0011957Y0248275D01*
D11*
X0011957Y0251800D02*
X0011957Y0236957D01*
X0011800Y0236800D01*
X0026800Y0221800D01*
X0056800Y0221800D01*
X0116800Y0221800D01*
X0176800Y0221800D01*
X0241800Y0221800D01*
X0301800Y0221800D01*
X0301800Y0111957D01*
X0321957Y0091800D01*
X0301800Y0221800D02*
X0311643Y0231643D01*
X0311643Y0251800D01*
X0311800Y0251643D01*
X0311800Y0231800D01*
X0311643Y0231643D01*
X0251957Y0231957D02*
X0251800Y0231800D01*
X0251800Y0251643D01*
X0251957Y0251800D01*
X0251957Y0231957D01*
X0251800Y0231800D02*
X0241800Y0221800D01*
X0191800Y0236800D02*
X0191800Y0251643D01*
X0191643Y0251800D01*
X0191643Y0236643D01*
X0176800Y0221800D01*
X0191643Y0236643D02*
X0191800Y0236800D01*
X0131957Y0236957D02*
X0131800Y0236800D01*
X0131800Y0251643D01*
X0131957Y0251800D01*
X0131957Y0236957D01*
X0131800Y0236800D02*
X0116800Y0221800D01*
X0071800Y0236800D02*
X0071800Y0251643D01*
X0071643Y0251800D01*
X0071643Y0236643D01*
X0056800Y0221800D01*
X0071643Y0236643D02*
X0071800Y0236800D01*
D12*
X0006600Y0285701D02*
X0006600Y0006600D01*
X0356921Y0006600D01*
X0356921Y0285701D01*
X0006600Y0285701D01*
X0006600Y0284737D02*
X0356921Y0284737D01*
X0356921Y0283138D02*
X0006600Y0283138D01*
X0006600Y0281539D02*
X0356921Y0281539D01*
X0356921Y0279941D02*
X0006600Y0279941D01*
X0006600Y0278342D02*
X0356921Y0278342D01*
X0356921Y0276744D02*
X0006600Y0276744D01*
X0006600Y0275145D02*
X0356921Y0275145D01*
X0356921Y0273547D02*
X0006600Y0273547D01*
X0006600Y0271948D02*
X0356921Y0271948D01*
X0356921Y0270350D02*
X0006600Y0270350D01*
X0006600Y0268751D02*
X0356921Y0268751D01*
X0356921Y0267153D02*
X0006600Y0267153D01*
X0006600Y0265554D02*
X0356921Y0265554D01*
X0356921Y0263956D02*
X0006600Y0263956D01*
X0006600Y0262357D02*
X0356921Y0262357D01*
X0356921Y0260759D02*
X0006600Y0260759D01*
X0006600Y0259160D02*
X0008545Y0259160D01*
X0009054Y0259670D02*
X0007613Y0258228D01*
X0006832Y0256344D01*
X0006832Y0247256D01*
X0007613Y0245372D01*
X0007857Y0245127D01*
X0007857Y0237996D01*
X0007700Y0237616D01*
X0007700Y0235984D01*
X0008324Y0234478D01*
X0023324Y0219478D01*
X0024478Y0218324D01*
X0025984Y0217700D01*
X0297700Y0217700D01*
X0297700Y0111142D01*
X0298324Y0109635D01*
X0316832Y0091127D01*
X0316832Y0087256D01*
X0317613Y0085372D01*
X0319054Y0083930D01*
X0320938Y0083150D01*
X0322977Y0083150D01*
X0324861Y0083930D01*
X0326302Y0085372D01*
X0327082Y0087256D01*
X0327082Y0096344D01*
X0326302Y0098228D01*
X0324861Y0099670D01*
X0322977Y0100450D01*
X0320938Y0100450D01*
X0319642Y0099913D01*
X0305900Y0113656D01*
X0305900Y0220102D01*
X0315118Y0229320D01*
X0315276Y0229478D01*
X0315900Y0230984D01*
X0315900Y0245285D01*
X0315987Y0245372D01*
X0316768Y0247256D01*
X0316768Y0256344D01*
X0315987Y0258228D01*
X0314546Y0259670D01*
X0312662Y0260450D01*
X0310623Y0260450D01*
X0308739Y0259670D01*
X0307298Y0258228D01*
X0306518Y0256344D01*
X0306518Y0247256D01*
X0307298Y0245372D01*
X0307543Y0245127D01*
X0307543Y0233341D01*
X0300102Y0225900D01*
X0251698Y0225900D01*
X0254122Y0228324D01*
X0255433Y0229635D01*
X0256057Y0231142D01*
X0256057Y0245127D01*
X0256302Y0245372D01*
X0257082Y0247256D01*
X0257082Y0256344D01*
X0256302Y0258228D01*
X0254861Y0259670D01*
X0252977Y0260450D01*
X0250938Y0260450D01*
X0249054Y0259670D01*
X0247613Y0258228D01*
X0246832Y0256344D01*
X0246832Y0247256D01*
X0247613Y0245372D01*
X0247700Y0245285D01*
X0247700Y0233498D01*
X0240102Y0225900D01*
X0186698Y0225900D01*
X0195118Y0234320D01*
X0195276Y0234478D01*
X0195900Y0235984D01*
X0195900Y0245285D01*
X0195987Y0245372D01*
X0196768Y0247256D01*
X0196768Y0256344D01*
X0195987Y0258228D01*
X0194546Y0259670D01*
X0192662Y0260450D01*
X0190623Y0260450D01*
X0188739Y0259670D01*
X0187298Y0258228D01*
X0186518Y0256344D01*
X0186518Y0247256D01*
X0187298Y0245372D01*
X0187543Y0245127D01*
X0187543Y0238341D01*
X0175102Y0225900D01*
X0126698Y0225900D01*
X0134122Y0233324D01*
X0135433Y0234635D01*
X0136057Y0236142D01*
X0136057Y0245127D01*
X0136302Y0245372D01*
X0137082Y0247256D01*
X0137082Y0256344D01*
X0136302Y0258228D01*
X0134861Y0259670D01*
X0132977Y0260450D01*
X0130938Y0260450D01*
X0129054Y0259670D01*
X0127613Y0258228D01*
X0126832Y0256344D01*
X0126832Y0247256D01*
X0127613Y0245372D01*
X0127700Y0245285D01*
X0127700Y0238498D01*
X0115102Y0225900D01*
X0066698Y0225900D01*
X0075118Y0234320D01*
X0075276Y0234478D01*
X0075900Y0235984D01*
X0075900Y0245285D01*
X0075987Y0245372D01*
X0076768Y0247256D01*
X0076768Y0256344D01*
X0075987Y0258228D01*
X0074546Y0259670D01*
X0072662Y0260450D01*
X0070623Y0260450D01*
X0068739Y0259670D01*
X0067298Y0258228D01*
X0066518Y0256344D01*
X0066518Y0247256D01*
X0067298Y0245372D01*
X0067543Y0245127D01*
X0067543Y0238341D01*
X0055102Y0225900D01*
X0028498Y0225900D01*
X0016057Y0238341D01*
X0016057Y0245127D01*
X0016302Y0245372D01*
X0017082Y0247256D01*
X0017082Y0256344D01*
X0016302Y0258228D01*
X0014861Y0259670D01*
X0012977Y0260450D01*
X0010938Y0260450D01*
X0009054Y0259670D01*
X0007337Y0257562D02*
X0006600Y0257562D01*
X0006600Y0255963D02*
X0006832Y0255963D01*
X0006832Y0254365D02*
X0006600Y0254365D01*
X0006600Y0252766D02*
X0006832Y0252766D01*
X0006832Y0251168D02*
X0006600Y0251168D01*
X0006600Y0249569D02*
X0006832Y0249569D01*
X0006832Y0247971D02*
X0006600Y0247971D01*
X0006600Y0246372D02*
X0007198Y0246372D01*
X0006600Y0244774D02*
X0007857Y0244774D01*
X0007857Y0243175D02*
X0006600Y0243175D01*
X0006600Y0241577D02*
X0007857Y0241577D01*
X0007857Y0239978D02*
X0006600Y0239978D01*
X0006600Y0238380D02*
X0007857Y0238380D01*
X0007700Y0236781D02*
X0006600Y0236781D01*
X0006600Y0235183D02*
X0008032Y0235183D01*
X0009218Y0233584D02*
X0006600Y0233584D01*
X0006600Y0231986D02*
X0010816Y0231986D01*
X0012415Y0230387D02*
X0006600Y0230387D01*
X0006600Y0228789D02*
X0014013Y0228789D01*
X0015612Y0227190D02*
X0006600Y0227190D01*
X0006600Y0225592D02*
X0017210Y0225592D01*
X0018809Y0223993D02*
X0006600Y0223993D01*
X0006600Y0222395D02*
X0020407Y0222395D01*
X0022006Y0220796D02*
X0006600Y0220796D01*
X0006600Y0219198D02*
X0023604Y0219198D01*
X0027208Y0227190D02*
X0056392Y0227190D01*
X0057990Y0228789D02*
X0025610Y0228789D01*
X0024011Y0230387D02*
X0059589Y0230387D01*
X0061187Y0231986D02*
X0022413Y0231986D01*
X0020814Y0233584D02*
X0062786Y0233584D01*
X0064384Y0235183D02*
X0019216Y0235183D01*
X0017617Y0236781D02*
X0065983Y0236781D01*
X0067543Y0238380D02*
X0016057Y0238380D01*
X0016057Y0239978D02*
X0067543Y0239978D01*
X0067543Y0241577D02*
X0016057Y0241577D01*
X0016057Y0243175D02*
X0030106Y0243175D01*
X0030396Y0243081D02*
X0031223Y0242950D01*
X0031267Y0242950D01*
X0031267Y0251425D01*
X0026318Y0251425D01*
X0026318Y0247856D01*
X0026449Y0247028D01*
X0026708Y0246231D01*
X0027088Y0245484D01*
X0027581Y0244806D01*
X0028174Y0244213D01*
X0028852Y0243721D01*
X0029598Y0243340D01*
X0030396Y0243081D01*
X0031267Y0243175D02*
X0032018Y0243175D01*
X0032018Y0242950D02*
X0032062Y0242950D01*
X0032889Y0243081D01*
X0033687Y0243340D01*
X0034433Y0243721D01*
X0035112Y0244213D01*
X0035704Y0244806D01*
X0036197Y0245484D01*
X0036577Y0246231D01*
X0036836Y0247028D01*
X0036968Y0247856D01*
X0036968Y0251425D01*
X0032018Y0251425D01*
X0032018Y0252175D01*
X0036968Y0252175D01*
X0036968Y0255744D01*
X0036836Y0256572D01*
X0036577Y0257369D01*
X0036197Y0258116D01*
X0035704Y0258794D01*
X0035112Y0259387D01*
X0034433Y0259879D01*
X0033687Y0260260D01*
X0032889Y0260519D01*
X0032062Y0260650D01*
X0032018Y0260650D01*
X0032018Y0252175D01*
X0031267Y0252175D01*
X0031267Y0251425D01*
X0032018Y0251425D01*
X0032018Y0242950D01*
X0033179Y0243175D02*
X0050877Y0243175D01*
X0050938Y0243150D02*
X0049054Y0243930D01*
X0047613Y0245372D01*
X0046832Y0247256D01*
X0046832Y0256344D01*
X0047613Y0258228D01*
X0049054Y0259670D01*
X0050938Y0260450D01*
X0052977Y0260450D01*
X0054861Y0259670D01*
X0056302Y0258228D01*
X0057082Y0256344D01*
X0057082Y0247256D01*
X0056302Y0245372D01*
X0054861Y0243930D01*
X0052977Y0243150D01*
X0050938Y0243150D01*
X0053038Y0243175D02*
X0067543Y0243175D01*
X0067543Y0244774D02*
X0055704Y0244774D01*
X0056717Y0246372D02*
X0066883Y0246372D01*
X0066518Y0247971D02*
X0057082Y0247971D01*
X0057082Y0249569D02*
X0066518Y0249569D01*
X0066518Y0251168D02*
X0057082Y0251168D01*
X0057082Y0252766D02*
X0066518Y0252766D01*
X0066518Y0254365D02*
X0057082Y0254365D01*
X0057082Y0255963D02*
X0066518Y0255963D01*
X0067022Y0257562D02*
X0056578Y0257562D01*
X0055370Y0259160D02*
X0068230Y0259160D01*
X0075055Y0259160D02*
X0088262Y0259160D01*
X0088488Y0259387D02*
X0087896Y0258794D01*
X0087403Y0258116D01*
X0087023Y0257369D01*
X0086764Y0256572D01*
X0086632Y0255744D01*
X0086632Y0252175D01*
X0091582Y0252175D01*
X0091582Y0251425D01*
X0086632Y0251425D01*
X0086632Y0247856D01*
X0086764Y0247028D01*
X0087023Y0246231D01*
X0087403Y0245484D01*
X0087896Y0244806D01*
X0088488Y0244213D01*
X0089167Y0243721D01*
X0089913Y0243340D01*
X0090711Y0243081D01*
X0091538Y0242950D01*
X0091582Y0242950D01*
X0091582Y0251425D01*
X0092332Y0251425D01*
X0092332Y0242950D01*
X0092377Y0242950D01*
X0093204Y0243081D01*
X0094002Y0243340D01*
X0094748Y0243721D01*
X0095426Y0244213D01*
X0096019Y0244806D01*
X0096512Y0245484D01*
X0096892Y0246231D01*
X0097151Y0247028D01*
X0097282Y0247856D01*
X0097282Y0251425D01*
X0092333Y0251425D01*
X0092333Y0252175D01*
X0097282Y0252175D01*
X0097282Y0255744D01*
X0097151Y0256572D01*
X0096892Y0257369D01*
X0096512Y0258116D01*
X0096019Y0258794D01*
X0095426Y0259387D01*
X0094748Y0259879D01*
X0094002Y0260260D01*
X0093204Y0260519D01*
X0092377Y0260650D01*
X0092332Y0260650D01*
X0092332Y0252175D01*
X0091582Y0252175D01*
X0091582Y0260650D01*
X0091538Y0260650D01*
X0090711Y0260519D01*
X0089913Y0260260D01*
X0089167Y0259879D01*
X0088488Y0259387D01*
X0087121Y0257562D02*
X0076263Y0257562D01*
X0076768Y0255963D02*
X0086667Y0255963D01*
X0086632Y0254365D02*
X0076768Y0254365D01*
X0076768Y0252766D02*
X0086632Y0252766D01*
X0086632Y0251168D02*
X0076768Y0251168D01*
X0076768Y0249569D02*
X0086632Y0249569D01*
X0086632Y0247971D02*
X0076768Y0247971D01*
X0076402Y0246372D02*
X0086977Y0246372D01*
X0087928Y0244774D02*
X0075900Y0244774D01*
X0075900Y0243175D02*
X0090421Y0243175D01*
X0091582Y0243175D02*
X0092332Y0243175D01*
X0093494Y0243175D02*
X0110562Y0243175D01*
X0110623Y0243150D02*
X0112662Y0243150D01*
X0114546Y0243930D01*
X0115987Y0245372D01*
X0116768Y0247256D01*
X0116768Y0256344D01*
X0115987Y0258228D01*
X0114546Y0259670D01*
X0112662Y0260450D01*
X0110623Y0260450D01*
X0108739Y0259670D01*
X0107298Y0258228D01*
X0106518Y0256344D01*
X0106518Y0247256D01*
X0107298Y0245372D01*
X0108739Y0243930D01*
X0110623Y0243150D01*
X0112723Y0243175D02*
X0127700Y0243175D01*
X0127700Y0241577D02*
X0075900Y0241577D01*
X0075900Y0239978D02*
X0127700Y0239978D01*
X0127581Y0238380D02*
X0075900Y0238380D01*
X0075900Y0236781D02*
X0125983Y0236781D01*
X0124384Y0235183D02*
X0075568Y0235183D01*
X0074382Y0233584D02*
X0122786Y0233584D01*
X0121187Y0231986D02*
X0072784Y0231986D01*
X0071185Y0230387D02*
X0119589Y0230387D01*
X0117990Y0228789D02*
X0069587Y0228789D01*
X0067988Y0227190D02*
X0116392Y0227190D01*
X0127988Y0227190D02*
X0176392Y0227190D01*
X0177990Y0228789D02*
X0129587Y0228789D01*
X0131185Y0230387D02*
X0179589Y0230387D01*
X0181187Y0231986D02*
X0132784Y0231986D01*
X0134382Y0233584D02*
X0182786Y0233584D01*
X0184384Y0235183D02*
X0135660Y0235183D01*
X0136057Y0236781D02*
X0185983Y0236781D01*
X0187543Y0238380D02*
X0136057Y0238380D01*
X0136057Y0239978D02*
X0187543Y0239978D01*
X0187543Y0241577D02*
X0136057Y0241577D01*
X0136057Y0243175D02*
X0150106Y0243175D01*
X0150396Y0243081D02*
X0151223Y0242950D01*
X0151267Y0242950D01*
X0151267Y0251425D01*
X0146318Y0251425D01*
X0146318Y0247856D01*
X0146449Y0247028D01*
X0146708Y0246231D01*
X0147088Y0245484D01*
X0147581Y0244806D01*
X0148174Y0244213D01*
X0148852Y0243721D01*
X0149598Y0243340D01*
X0150396Y0243081D01*
X0151267Y0243175D02*
X0152018Y0243175D01*
X0152018Y0242950D02*
X0152062Y0242950D01*
X0152889Y0243081D01*
X0153687Y0243340D01*
X0154433Y0243721D01*
X0155112Y0244213D01*
X0155704Y0244806D01*
X0156197Y0245484D01*
X0156577Y0246231D01*
X0156836Y0247028D01*
X0156968Y0247856D01*
X0156968Y0251425D01*
X0152018Y0251425D01*
X0152018Y0252175D01*
X0156968Y0252175D01*
X0156968Y0255744D01*
X0156836Y0256572D01*
X0156577Y0257369D01*
X0156197Y0258116D01*
X0155704Y0258794D01*
X0155112Y0259387D01*
X0154433Y0259879D01*
X0153687Y0260260D01*
X0152889Y0260519D01*
X0152062Y0260650D01*
X0152018Y0260650D01*
X0152018Y0252175D01*
X0151267Y0252175D01*
X0151267Y0251425D01*
X0152018Y0251425D01*
X0152018Y0242950D01*
X0153179Y0243175D02*
X0170877Y0243175D01*
X0170938Y0243150D02*
X0169054Y0243930D01*
X0167613Y0245372D01*
X0166832Y0247256D01*
X0166832Y0256344D01*
X0167613Y0258228D01*
X0169054Y0259670D01*
X0170938Y0260450D01*
X0172977Y0260450D01*
X0174861Y0259670D01*
X0176302Y0258228D01*
X0177082Y0256344D01*
X0177082Y0247256D01*
X0176302Y0245372D01*
X0174861Y0243930D01*
X0172977Y0243150D01*
X0170938Y0243150D01*
X0173038Y0243175D02*
X0187543Y0243175D01*
X0187543Y0244774D02*
X0175704Y0244774D01*
X0176717Y0246372D02*
X0186883Y0246372D01*
X0186518Y0247971D02*
X0177082Y0247971D01*
X0177082Y0249569D02*
X0186518Y0249569D01*
X0186518Y0251168D02*
X0177082Y0251168D01*
X0177082Y0252766D02*
X0186518Y0252766D01*
X0186518Y0254365D02*
X0177082Y0254365D01*
X0177082Y0255963D02*
X0186518Y0255963D01*
X0187022Y0257562D02*
X0176578Y0257562D01*
X0175370Y0259160D02*
X0188230Y0259160D01*
X0195055Y0259160D02*
X0208262Y0259160D01*
X0208488Y0259387D02*
X0207896Y0258794D01*
X0207403Y0258116D01*
X0207023Y0257369D01*
X0206764Y0256572D01*
X0206632Y0255744D01*
X0206632Y0252175D01*
X0211582Y0252175D01*
X0211582Y0251425D01*
X0206632Y0251425D01*
X0206632Y0247856D01*
X0206764Y0247028D01*
X0207023Y0246231D01*
X0207403Y0245484D01*
X0207896Y0244806D01*
X0208488Y0244213D01*
X0209167Y0243721D01*
X0209913Y0243340D01*
X0210711Y0243081D01*
X0211538Y0242950D01*
X0211582Y0242950D01*
X0211582Y0251425D01*
X0212332Y0251425D01*
X0212332Y0242950D01*
X0212377Y0242950D01*
X0213204Y0243081D01*
X0214002Y0243340D01*
X0214748Y0243721D01*
X0215426Y0244213D01*
X0216019Y0244806D01*
X0216512Y0245484D01*
X0216892Y0246231D01*
X0217151Y0247028D01*
X0217282Y0247856D01*
X0217282Y0251425D01*
X0212333Y0251425D01*
X0212333Y0252175D01*
X0217282Y0252175D01*
X0217282Y0255744D01*
X0217151Y0256572D01*
X0216892Y0257369D01*
X0216512Y0258116D01*
X0216019Y0258794D01*
X0215426Y0259387D01*
X0214748Y0259879D01*
X0214002Y0260260D01*
X0213204Y0260519D01*
X0212377Y0260650D01*
X0212332Y0260650D01*
X0212332Y0252175D01*
X0211582Y0252175D01*
X0211582Y0260650D01*
X0211538Y0260650D01*
X0210711Y0260519D01*
X0209913Y0260260D01*
X0209167Y0259879D01*
X0208488Y0259387D01*
X0207121Y0257562D02*
X0196263Y0257562D01*
X0196768Y0255963D02*
X0206667Y0255963D01*
X0206632Y0254365D02*
X0196768Y0254365D01*
X0196768Y0252766D02*
X0206632Y0252766D01*
X0206632Y0251168D02*
X0196768Y0251168D01*
X0196768Y0249569D02*
X0206632Y0249569D01*
X0206632Y0247971D02*
X0196768Y0247971D01*
X0196402Y0246372D02*
X0206977Y0246372D01*
X0207928Y0244774D02*
X0195900Y0244774D01*
X0195900Y0243175D02*
X0210421Y0243175D01*
X0211582Y0243175D02*
X0212332Y0243175D01*
X0213494Y0243175D02*
X0230562Y0243175D01*
X0230623Y0243150D02*
X0232662Y0243150D01*
X0234546Y0243930D01*
X0235987Y0245372D01*
X0236768Y0247256D01*
X0236768Y0256344D01*
X0235987Y0258228D01*
X0234546Y0259670D01*
X0232662Y0260450D01*
X0230623Y0260450D01*
X0228739Y0259670D01*
X0227298Y0258228D01*
X0226518Y0256344D01*
X0226518Y0247256D01*
X0227298Y0245372D01*
X0228739Y0243930D01*
X0230623Y0243150D01*
X0232723Y0243175D02*
X0247700Y0243175D01*
X0247700Y0241577D02*
X0195900Y0241577D01*
X0195900Y0239978D02*
X0247700Y0239978D01*
X0247700Y0238380D02*
X0195900Y0238380D01*
X0195900Y0236781D02*
X0247700Y0236781D01*
X0247700Y0235183D02*
X0195568Y0235183D01*
X0195118Y0234320D02*
X0195118Y0234320D01*
X0194382Y0233584D02*
X0247700Y0233584D01*
X0246187Y0231986D02*
X0192784Y0231986D01*
X0191185Y0230387D02*
X0244589Y0230387D01*
X0242990Y0228789D02*
X0189587Y0228789D01*
X0187988Y0227190D02*
X0241392Y0227190D01*
X0252988Y0227190D02*
X0301392Y0227190D01*
X0302990Y0228789D02*
X0254587Y0228789D01*
X0254122Y0228324D02*
X0254122Y0228324D01*
X0255745Y0230387D02*
X0304589Y0230387D01*
X0306187Y0231986D02*
X0256057Y0231986D01*
X0256057Y0233584D02*
X0307543Y0233584D01*
X0307543Y0235183D02*
X0256057Y0235183D01*
X0256057Y0236781D02*
X0307543Y0236781D01*
X0307543Y0238380D02*
X0256057Y0238380D01*
X0256057Y0239978D02*
X0307543Y0239978D01*
X0307543Y0241577D02*
X0256057Y0241577D01*
X0256057Y0243175D02*
X0270106Y0243175D01*
X0270396Y0243081D02*
X0271223Y0242950D01*
X0271267Y0242950D01*
X0271267Y0251425D01*
X0266318Y0251425D01*
X0266318Y0247856D01*
X0266449Y0247028D01*
X0266708Y0246231D01*
X0267088Y0245484D01*
X0267581Y0244806D01*
X0268174Y0244213D01*
X0268852Y0243721D01*
X0269598Y0243340D01*
X0270396Y0243081D01*
X0271267Y0243175D02*
X0272018Y0243175D01*
X0272018Y0242950D02*
X0272062Y0242950D01*
X0272889Y0243081D01*
X0273687Y0243340D01*
X0274433Y0243721D01*
X0275112Y0244213D01*
X0275704Y0244806D01*
X0276197Y0245484D01*
X0276577Y0246231D01*
X0276836Y0247028D01*
X0276968Y0247856D01*
X0276968Y0251425D01*
X0272018Y0251425D01*
X0272018Y0252175D01*
X0276968Y0252175D01*
X0276968Y0255744D01*
X0276836Y0256572D01*
X0276577Y0257369D01*
X0276197Y0258116D01*
X0275704Y0258794D01*
X0275112Y0259387D01*
X0274433Y0259879D01*
X0273687Y0260260D01*
X0272889Y0260519D01*
X0272062Y0260650D01*
X0272018Y0260650D01*
X0272018Y0252175D01*
X0271267Y0252175D01*
X0271267Y0251425D01*
X0272018Y0251425D01*
X0272018Y0242950D01*
X0273179Y0243175D02*
X0290877Y0243175D01*
X0290938Y0243150D02*
X0289054Y0243930D01*
X0287613Y0245372D01*
X0286832Y0247256D01*
X0286832Y0256344D01*
X0287613Y0258228D01*
X0289054Y0259670D01*
X0290938Y0260450D01*
X0292977Y0260450D01*
X0294861Y0259670D01*
X0296302Y0258228D01*
X0297082Y0256344D01*
X0297082Y0247256D01*
X0296302Y0245372D01*
X0294861Y0243930D01*
X0292977Y0243150D01*
X0290938Y0243150D01*
X0293038Y0243175D02*
X0307543Y0243175D01*
X0307543Y0244774D02*
X0295704Y0244774D01*
X0296717Y0246372D02*
X0306883Y0246372D01*
X0306518Y0247971D02*
X0297082Y0247971D01*
X0297082Y0249569D02*
X0306518Y0249569D01*
X0306518Y0251168D02*
X0297082Y0251168D01*
X0297082Y0252766D02*
X0306518Y0252766D01*
X0306518Y0254365D02*
X0297082Y0254365D01*
X0297082Y0255963D02*
X0306518Y0255963D01*
X0307022Y0257562D02*
X0296578Y0257562D01*
X0295370Y0259160D02*
X0308230Y0259160D01*
X0315055Y0259160D02*
X0328262Y0259160D01*
X0328488Y0259387D02*
X0327896Y0258794D01*
X0327403Y0258116D01*
X0327023Y0257369D01*
X0326764Y0256572D01*
X0326632Y0255744D01*
X0326632Y0252175D01*
X0331582Y0252175D01*
X0331582Y0251425D01*
X0326632Y0251425D01*
X0326632Y0247856D01*
X0326764Y0247028D01*
X0327023Y0246231D01*
X0327403Y0245484D01*
X0327896Y0244806D01*
X0328488Y0244213D01*
X0329167Y0243721D01*
X0329913Y0243340D01*
X0330711Y0243081D01*
X0331538Y0242950D01*
X0331582Y0242950D01*
X0331582Y0251425D01*
X0332332Y0251425D01*
X0332332Y0242950D01*
X0332377Y0242950D01*
X0333204Y0243081D01*
X0334002Y0243340D01*
X0334748Y0243721D01*
X0335426Y0244213D01*
X0336019Y0244806D01*
X0336512Y0245484D01*
X0336892Y0246231D01*
X0337151Y0247028D01*
X0337282Y0247856D01*
X0337282Y0251425D01*
X0332333Y0251425D01*
X0332333Y0252175D01*
X0337282Y0252175D01*
X0337282Y0255744D01*
X0337151Y0256572D01*
X0336892Y0257369D01*
X0336512Y0258116D01*
X0336019Y0258794D01*
X0335426Y0259387D01*
X0334748Y0259879D01*
X0334002Y0260260D01*
X0333204Y0260519D01*
X0332377Y0260650D01*
X0332332Y0260650D01*
X0332332Y0252175D01*
X0331582Y0252175D01*
X0331582Y0260650D01*
X0331538Y0260650D01*
X0330711Y0260519D01*
X0329913Y0260260D01*
X0329167Y0259879D01*
X0328488Y0259387D01*
X0327121Y0257562D02*
X0316263Y0257562D01*
X0316768Y0255963D02*
X0326667Y0255963D01*
X0326632Y0254365D02*
X0316768Y0254365D01*
X0316768Y0252766D02*
X0326632Y0252766D01*
X0326632Y0251168D02*
X0316768Y0251168D01*
X0316768Y0249569D02*
X0326632Y0249569D01*
X0326632Y0247971D02*
X0316768Y0247971D01*
X0316402Y0246372D02*
X0326977Y0246372D01*
X0327928Y0244774D02*
X0315900Y0244774D01*
X0315900Y0243175D02*
X0330421Y0243175D01*
X0331582Y0243175D02*
X0332332Y0243175D01*
X0333494Y0243175D02*
X0350562Y0243175D01*
X0350623Y0243150D02*
X0352662Y0243150D01*
X0354546Y0243930D01*
X0355987Y0245372D01*
X0356768Y0247256D01*
X0356768Y0256344D01*
X0355987Y0258228D01*
X0354546Y0259670D01*
X0352662Y0260450D01*
X0350623Y0260450D01*
X0348739Y0259670D01*
X0347298Y0258228D01*
X0346518Y0256344D01*
X0346518Y0247256D01*
X0347298Y0245372D01*
X0348739Y0243930D01*
X0350623Y0243150D01*
X0352723Y0243175D02*
X0356921Y0243175D01*
X0356921Y0241577D02*
X0315900Y0241577D01*
X0315900Y0239978D02*
X0356921Y0239978D01*
X0356921Y0238380D02*
X0315900Y0238380D01*
X0315900Y0236781D02*
X0356921Y0236781D01*
X0356921Y0235183D02*
X0315900Y0235183D01*
X0315900Y0233584D02*
X0356921Y0233584D01*
X0356921Y0231986D02*
X0315900Y0231986D01*
X0315653Y0230387D02*
X0356921Y0230387D01*
X0356921Y0228789D02*
X0314587Y0228789D01*
X0312988Y0227190D02*
X0356921Y0227190D01*
X0356921Y0225592D02*
X0311390Y0225592D01*
X0309791Y0223993D02*
X0356921Y0223993D01*
X0356921Y0222395D02*
X0308193Y0222395D01*
X0306594Y0220796D02*
X0356921Y0220796D01*
X0356921Y0219198D02*
X0305900Y0219198D01*
X0305900Y0217599D02*
X0356921Y0217599D01*
X0356921Y0216001D02*
X0305900Y0216001D01*
X0305900Y0214402D02*
X0356921Y0214402D01*
X0356921Y0212803D02*
X0305900Y0212803D01*
X0305900Y0211205D02*
X0356921Y0211205D01*
X0356921Y0209606D02*
X0305900Y0209606D01*
X0305900Y0208008D02*
X0356921Y0208008D01*
X0356921Y0206409D02*
X0305900Y0206409D01*
X0305900Y0204811D02*
X0356921Y0204811D01*
X0356921Y0203212D02*
X0305900Y0203212D01*
X0305900Y0201614D02*
X0356921Y0201614D01*
X0356921Y0200015D02*
X0305900Y0200015D01*
X0305900Y0198417D02*
X0356921Y0198417D01*
X0356921Y0196818D02*
X0305900Y0196818D01*
X0305900Y0195220D02*
X0356921Y0195220D01*
X0356921Y0193621D02*
X0305900Y0193621D01*
X0305900Y0192023D02*
X0356921Y0192023D01*
X0356921Y0190424D02*
X0305900Y0190424D01*
X0305900Y0188826D02*
X0356921Y0188826D01*
X0356921Y0187227D02*
X0305900Y0187227D01*
X0305900Y0185629D02*
X0356921Y0185629D01*
X0356921Y0184030D02*
X0305900Y0184030D01*
X0305900Y0182432D02*
X0356921Y0182432D01*
X0356921Y0180833D02*
X0305900Y0180833D01*
X0305900Y0179235D02*
X0356921Y0179235D01*
X0356921Y0177636D02*
X0305900Y0177636D01*
X0305900Y0176038D02*
X0356921Y0176038D01*
X0356921Y0174439D02*
X0305900Y0174439D01*
X0305900Y0172841D02*
X0356921Y0172841D01*
X0356921Y0171242D02*
X0305900Y0171242D01*
X0305900Y0169644D02*
X0356921Y0169644D01*
X0356921Y0168045D02*
X0305900Y0168045D01*
X0305900Y0166447D02*
X0356921Y0166447D01*
X0356921Y0164848D02*
X0305900Y0164848D01*
X0305900Y0163250D02*
X0356921Y0163250D01*
X0356921Y0161651D02*
X0305900Y0161651D01*
X0305900Y0160053D02*
X0356921Y0160053D01*
X0356921Y0158454D02*
X0305900Y0158454D01*
X0305900Y0156856D02*
X0356921Y0156856D01*
X0356921Y0155257D02*
X0305900Y0155257D01*
X0305900Y0153659D02*
X0356921Y0153659D01*
X0356921Y0152060D02*
X0305900Y0152060D01*
X0305900Y0150462D02*
X0356921Y0150462D01*
X0356921Y0148863D02*
X0305900Y0148863D01*
X0305900Y0147265D02*
X0356921Y0147265D01*
X0356921Y0145666D02*
X0305900Y0145666D01*
X0305900Y0144068D02*
X0356921Y0144068D01*
X0356921Y0142469D02*
X0305900Y0142469D01*
X0305900Y0140870D02*
X0356921Y0140870D01*
X0356921Y0139272D02*
X0305900Y0139272D01*
X0305900Y0137673D02*
X0356921Y0137673D01*
X0356921Y0136075D02*
X0305900Y0136075D01*
X0305900Y0134476D02*
X0356921Y0134476D01*
X0356921Y0132878D02*
X0305900Y0132878D01*
X0305900Y0131279D02*
X0356921Y0131279D01*
X0356921Y0129681D02*
X0305900Y0129681D01*
X0305900Y0128082D02*
X0356921Y0128082D01*
X0356921Y0126484D02*
X0305900Y0126484D01*
X0305900Y0124885D02*
X0356921Y0124885D01*
X0356921Y0123287D02*
X0305900Y0123287D01*
X0305900Y0121688D02*
X0356921Y0121688D01*
X0356921Y0120090D02*
X0305900Y0120090D01*
X0305900Y0118491D02*
X0356921Y0118491D01*
X0356921Y0116893D02*
X0305900Y0116893D01*
X0305900Y0115294D02*
X0356921Y0115294D01*
X0356921Y0113696D02*
X0305900Y0113696D01*
X0307458Y0112097D02*
X0356921Y0112097D01*
X0356921Y0110499D02*
X0309057Y0110499D01*
X0310655Y0108900D02*
X0356921Y0108900D01*
X0356921Y0107302D02*
X0312254Y0107302D01*
X0313852Y0105703D02*
X0356921Y0105703D01*
X0356921Y0104105D02*
X0315451Y0104105D01*
X0317050Y0102506D02*
X0356921Y0102506D01*
X0356921Y0100908D02*
X0318648Y0100908D01*
X0325221Y0099309D02*
X0338096Y0099309D01*
X0338174Y0099387D02*
X0337581Y0098794D01*
X0337088Y0098116D01*
X0336708Y0097369D01*
X0336449Y0096572D01*
X0336318Y0095744D01*
X0336318Y0092175D01*
X0341267Y0092175D01*
X0341267Y0091425D01*
X0336318Y0091425D01*
X0336318Y0087856D01*
X0336449Y0087028D01*
X0336708Y0086231D01*
X0337088Y0085484D01*
X0337581Y0084806D01*
X0338174Y0084213D01*
X0338852Y0083721D01*
X0339598Y0083340D01*
X0340396Y0083081D01*
X0341223Y0082950D01*
X0341267Y0082950D01*
X0341267Y0091425D01*
X0342018Y0091425D01*
X0342018Y0092175D01*
X0346968Y0092175D01*
X0346968Y0095744D01*
X0346836Y0096572D01*
X0346577Y0097369D01*
X0346197Y0098116D01*
X0345704Y0098794D01*
X0345112Y0099387D01*
X0344433Y0099879D01*
X0343687Y0100260D01*
X0342889Y0100519D01*
X0342062Y0100650D01*
X0342018Y0100650D01*
X0342018Y0092175D01*
X0341267Y0092175D01*
X0341267Y0100650D01*
X0341223Y0100650D01*
X0340396Y0100519D01*
X0339598Y0100260D01*
X0338852Y0099879D01*
X0338174Y0099387D01*
X0336882Y0097711D02*
X0326517Y0097711D01*
X0327082Y0096112D02*
X0336376Y0096112D01*
X0336318Y0094514D02*
X0327082Y0094514D01*
X0327082Y0092915D02*
X0336318Y0092915D01*
X0336318Y0091317D02*
X0327082Y0091317D01*
X0327082Y0089718D02*
X0336318Y0089718D01*
X0336318Y0088120D02*
X0327082Y0088120D01*
X0326778Y0086521D02*
X0336613Y0086521D01*
X0337496Y0084923D02*
X0325853Y0084923D01*
X0323397Y0083324D02*
X0339648Y0083324D01*
X0341267Y0083324D02*
X0342018Y0083324D01*
X0342018Y0082950D02*
X0342062Y0082950D01*
X0342889Y0083081D01*
X0343687Y0083340D01*
X0344433Y0083721D01*
X0345112Y0084213D01*
X0345704Y0084806D01*
X0346197Y0085484D01*
X0346577Y0086231D01*
X0346836Y0087028D01*
X0346968Y0087856D01*
X0346968Y0091425D01*
X0342018Y0091425D01*
X0342018Y0082950D01*
X0343637Y0083324D02*
X0356921Y0083324D01*
X0356921Y0081726D02*
X0006600Y0081726D01*
X0006600Y0083324D02*
X0120518Y0083324D01*
X0120938Y0083150D02*
X0122977Y0083150D01*
X0124861Y0083930D01*
X0126302Y0085372D01*
X0127082Y0087256D01*
X0127082Y0096344D01*
X0126302Y0098228D01*
X0124861Y0099670D01*
X0122977Y0100450D01*
X0120938Y0100450D01*
X0119054Y0099670D01*
X0117613Y0098228D01*
X0116832Y0096344D01*
X0116832Y0087256D01*
X0117613Y0085372D01*
X0119054Y0083930D01*
X0120938Y0083150D01*
X0123397Y0083324D02*
X0140203Y0083324D01*
X0140623Y0083150D02*
X0142662Y0083150D01*
X0144546Y0083930D01*
X0145987Y0085372D01*
X0146768Y0087256D01*
X0146768Y0096344D01*
X0145987Y0098228D01*
X0144546Y0099670D01*
X0142662Y0100450D01*
X0140623Y0100450D01*
X0138739Y0099670D01*
X0137298Y0098228D01*
X0136518Y0096344D01*
X0136518Y0087256D01*
X0137298Y0085372D01*
X0138739Y0083930D01*
X0140623Y0083150D01*
X0143082Y0083324D02*
X0160518Y0083324D01*
X0160938Y0083150D02*
X0162977Y0083150D01*
X0164861Y0083930D01*
X0166302Y0085372D01*
X0167082Y0087256D01*
X0167082Y0096344D01*
X0166302Y0098228D01*
X0164861Y0099670D01*
X0162977Y0100450D01*
X0160938Y0100450D01*
X0159054Y0099670D01*
X0157613Y0098228D01*
X0156832Y0096344D01*
X0156832Y0087256D01*
X0157613Y0085372D01*
X0159054Y0083930D01*
X0160938Y0083150D01*
X0163397Y0083324D02*
X0180203Y0083324D01*
X0180623Y0083150D02*
X0182662Y0083150D01*
X0184546Y0083930D01*
X0185987Y0085372D01*
X0186768Y0087256D01*
X0186768Y0096344D01*
X0185987Y0098228D01*
X0184546Y0099670D01*
X0182662Y0100450D01*
X0180623Y0100450D01*
X0178739Y0099670D01*
X0177298Y0098228D01*
X0176518Y0096344D01*
X0176518Y0087256D01*
X0177298Y0085372D01*
X0178739Y0083930D01*
X0180623Y0083150D01*
X0183082Y0083324D02*
X0200518Y0083324D01*
X0200938Y0083150D02*
X0202977Y0083150D01*
X0204861Y0083930D01*
X0206302Y0085372D01*
X0207082Y0087256D01*
X0207082Y0096344D01*
X0206302Y0098228D01*
X0204861Y0099670D01*
X0202977Y0100450D01*
X0200938Y0100450D01*
X0199054Y0099670D01*
X0197613Y0098228D01*
X0196832Y0096344D01*
X0196832Y0087256D01*
X0197613Y0085372D01*
X0199054Y0083930D01*
X0200938Y0083150D01*
X0203397Y0083324D02*
X0220203Y0083324D01*
X0220623Y0083150D02*
X0222662Y0083150D01*
X0224546Y0083930D01*
X0225987Y0085372D01*
X0226768Y0087256D01*
X0226768Y0096344D01*
X0225987Y0098228D01*
X0224546Y0099670D01*
X0222662Y0100450D01*
X0220623Y0100450D01*
X0218739Y0099670D01*
X0217298Y0098228D01*
X0216518Y0096344D01*
X0216518Y0087256D01*
X0217298Y0085372D01*
X0218739Y0083930D01*
X0220623Y0083150D01*
X0223082Y0083324D02*
X0320518Y0083324D01*
X0318062Y0084923D02*
X0225538Y0084923D01*
X0226463Y0086521D02*
X0317137Y0086521D01*
X0316832Y0088120D02*
X0226768Y0088120D01*
X0226768Y0089718D02*
X0316832Y0089718D01*
X0316643Y0091317D02*
X0226768Y0091317D01*
X0226768Y0092915D02*
X0315044Y0092915D01*
X0313446Y0094514D02*
X0226768Y0094514D01*
X0226768Y0096112D02*
X0311847Y0096112D01*
X0310249Y0097711D02*
X0226202Y0097711D01*
X0224906Y0099309D02*
X0308650Y0099309D01*
X0307052Y0100908D02*
X0006600Y0100908D01*
X0006600Y0102506D02*
X0305453Y0102506D01*
X0303854Y0104105D02*
X0006600Y0104105D01*
X0006600Y0105703D02*
X0302256Y0105703D01*
X0300657Y0107302D02*
X0006600Y0107302D01*
X0006600Y0108900D02*
X0299059Y0108900D01*
X0297966Y0110499D02*
X0006600Y0110499D01*
X0006600Y0112097D02*
X0297700Y0112097D01*
X0297700Y0113696D02*
X0006600Y0113696D01*
X0006600Y0115294D02*
X0297700Y0115294D01*
X0297700Y0116893D02*
X0006600Y0116893D01*
X0006600Y0118491D02*
X0297700Y0118491D01*
X0297700Y0120090D02*
X0006600Y0120090D01*
X0006600Y0121688D02*
X0297700Y0121688D01*
X0297700Y0123287D02*
X0006600Y0123287D01*
X0006600Y0124885D02*
X0297700Y0124885D01*
X0297700Y0126484D02*
X0006600Y0126484D01*
X0006600Y0128082D02*
X0297700Y0128082D01*
X0297700Y0129681D02*
X0006600Y0129681D01*
X0006600Y0131279D02*
X0297700Y0131279D01*
X0297700Y0132878D02*
X0006600Y0132878D01*
X0006600Y0134476D02*
X0297700Y0134476D01*
X0297700Y0136075D02*
X0006600Y0136075D01*
X0006600Y0137673D02*
X0297700Y0137673D01*
X0297700Y0139272D02*
X0006600Y0139272D01*
X0006600Y0140870D02*
X0297700Y0140870D01*
X0297700Y0142469D02*
X0006600Y0142469D01*
X0006600Y0144068D02*
X0297700Y0144068D01*
X0297700Y0145666D02*
X0006600Y0145666D01*
X0006600Y0147265D02*
X0297700Y0147265D01*
X0297700Y0148863D02*
X0006600Y0148863D01*
X0006600Y0150462D02*
X0297700Y0150462D01*
X0297700Y0152060D02*
X0006600Y0152060D01*
X0006600Y0153659D02*
X0297700Y0153659D01*
X0297700Y0155257D02*
X0006600Y0155257D01*
X0006600Y0156856D02*
X0297700Y0156856D01*
X0297700Y0158454D02*
X0006600Y0158454D01*
X0006600Y0160053D02*
X0297700Y0160053D01*
X0297700Y0161651D02*
X0006600Y0161651D01*
X0006600Y0163250D02*
X0297700Y0163250D01*
X0297700Y0164848D02*
X0006600Y0164848D01*
X0006600Y0166447D02*
X0297700Y0166447D01*
X0297700Y0168045D02*
X0006600Y0168045D01*
X0006600Y0169644D02*
X0297700Y0169644D01*
X0297700Y0171242D02*
X0006600Y0171242D01*
X0006600Y0172841D02*
X0297700Y0172841D01*
X0297700Y0174439D02*
X0006600Y0174439D01*
X0006600Y0176038D02*
X0297700Y0176038D01*
X0297700Y0177636D02*
X0006600Y0177636D01*
X0006600Y0179235D02*
X0297700Y0179235D01*
X0297700Y0180833D02*
X0006600Y0180833D01*
X0006600Y0182432D02*
X0297700Y0182432D01*
X0297700Y0184030D02*
X0006600Y0184030D01*
X0006600Y0185629D02*
X0297700Y0185629D01*
X0297700Y0187227D02*
X0006600Y0187227D01*
X0006600Y0188826D02*
X0297700Y0188826D01*
X0297700Y0190424D02*
X0006600Y0190424D01*
X0006600Y0192023D02*
X0297700Y0192023D01*
X0297700Y0193621D02*
X0006600Y0193621D01*
X0006600Y0195220D02*
X0297700Y0195220D01*
X0297700Y0196818D02*
X0006600Y0196818D01*
X0006600Y0198417D02*
X0297700Y0198417D01*
X0297700Y0200015D02*
X0006600Y0200015D01*
X0006600Y0201614D02*
X0297700Y0201614D01*
X0297700Y0203212D02*
X0006600Y0203212D01*
X0006600Y0204811D02*
X0297700Y0204811D01*
X0297700Y0206409D02*
X0006600Y0206409D01*
X0006600Y0208008D02*
X0297700Y0208008D01*
X0297700Y0209606D02*
X0006600Y0209606D01*
X0006600Y0211205D02*
X0297700Y0211205D01*
X0297700Y0212803D02*
X0006600Y0212803D01*
X0006600Y0214402D02*
X0297700Y0214402D01*
X0297700Y0216001D02*
X0006600Y0216001D01*
X0006600Y0217599D02*
X0297700Y0217599D01*
X0288211Y0244774D02*
X0275672Y0244774D01*
X0276623Y0246372D02*
X0287198Y0246372D01*
X0286832Y0247971D02*
X0276968Y0247971D01*
X0276968Y0249569D02*
X0286832Y0249569D01*
X0286832Y0251168D02*
X0276968Y0251168D01*
X0276968Y0252766D02*
X0286832Y0252766D01*
X0286832Y0254365D02*
X0276968Y0254365D01*
X0276933Y0255963D02*
X0286832Y0255963D01*
X0287337Y0257562D02*
X0276479Y0257562D01*
X0275338Y0259160D02*
X0288545Y0259160D01*
X0272018Y0259160D02*
X0271267Y0259160D01*
X0271267Y0260650D02*
X0271223Y0260650D01*
X0270396Y0260519D01*
X0269598Y0260260D01*
X0268852Y0259879D01*
X0268174Y0259387D01*
X0267581Y0258794D01*
X0267088Y0258116D01*
X0266708Y0257369D01*
X0266449Y0256572D01*
X0266318Y0255744D01*
X0266318Y0252175D01*
X0271267Y0252175D01*
X0271267Y0260650D01*
X0271267Y0257562D02*
X0272018Y0257562D01*
X0272018Y0255963D02*
X0271267Y0255963D01*
X0271267Y0254365D02*
X0272018Y0254365D01*
X0272018Y0252766D02*
X0271267Y0252766D01*
X0271267Y0251168D02*
X0272018Y0251168D01*
X0272018Y0249569D02*
X0271267Y0249569D01*
X0271267Y0247971D02*
X0272018Y0247971D01*
X0272018Y0246372D02*
X0271267Y0246372D01*
X0271267Y0244774D02*
X0272018Y0244774D01*
X0267613Y0244774D02*
X0256057Y0244774D01*
X0256717Y0246372D02*
X0266662Y0246372D01*
X0266318Y0247971D02*
X0257082Y0247971D01*
X0257082Y0249569D02*
X0266318Y0249569D01*
X0266318Y0251168D02*
X0257082Y0251168D01*
X0257082Y0252766D02*
X0266318Y0252766D01*
X0266318Y0254365D02*
X0257082Y0254365D01*
X0257082Y0255963D02*
X0266352Y0255963D01*
X0266806Y0257562D02*
X0256578Y0257562D01*
X0255370Y0259160D02*
X0267947Y0259160D01*
X0248545Y0259160D02*
X0235055Y0259160D01*
X0236263Y0257562D02*
X0247337Y0257562D01*
X0246832Y0255963D02*
X0236768Y0255963D01*
X0236768Y0254365D02*
X0246832Y0254365D01*
X0246832Y0252766D02*
X0236768Y0252766D01*
X0236768Y0251168D02*
X0246832Y0251168D01*
X0246832Y0249569D02*
X0236768Y0249569D01*
X0236768Y0247971D02*
X0246832Y0247971D01*
X0247198Y0246372D02*
X0236402Y0246372D01*
X0235389Y0244774D02*
X0247700Y0244774D01*
X0227896Y0244774D02*
X0215987Y0244774D01*
X0216938Y0246372D02*
X0226883Y0246372D01*
X0226518Y0247971D02*
X0217282Y0247971D01*
X0217282Y0249569D02*
X0226518Y0249569D01*
X0226518Y0251168D02*
X0217282Y0251168D01*
X0217282Y0252766D02*
X0226518Y0252766D01*
X0226518Y0254365D02*
X0217282Y0254365D01*
X0217248Y0255963D02*
X0226518Y0255963D01*
X0227022Y0257562D02*
X0216794Y0257562D01*
X0215653Y0259160D02*
X0228230Y0259160D01*
X0212332Y0259160D02*
X0211582Y0259160D01*
X0211582Y0257562D02*
X0212332Y0257562D01*
X0212332Y0255963D02*
X0211582Y0255963D01*
X0211582Y0254365D02*
X0212332Y0254365D01*
X0212332Y0252766D02*
X0211582Y0252766D01*
X0211582Y0251168D02*
X0212332Y0251168D01*
X0212332Y0249569D02*
X0211582Y0249569D01*
X0211582Y0247971D02*
X0212332Y0247971D01*
X0212332Y0246372D02*
X0211582Y0246372D01*
X0211582Y0244774D02*
X0212332Y0244774D01*
X0168211Y0244774D02*
X0155672Y0244774D01*
X0156623Y0246372D02*
X0167198Y0246372D01*
X0166832Y0247971D02*
X0156968Y0247971D01*
X0156968Y0249569D02*
X0166832Y0249569D01*
X0166832Y0251168D02*
X0156968Y0251168D01*
X0156968Y0252766D02*
X0166832Y0252766D01*
X0166832Y0254365D02*
X0156968Y0254365D01*
X0156933Y0255963D02*
X0166832Y0255963D01*
X0167337Y0257562D02*
X0156479Y0257562D01*
X0155338Y0259160D02*
X0168545Y0259160D01*
X0152018Y0259160D02*
X0151267Y0259160D01*
X0151267Y0260650D02*
X0151223Y0260650D01*
X0150396Y0260519D01*
X0149598Y0260260D01*
X0148852Y0259879D01*
X0148174Y0259387D01*
X0147581Y0258794D01*
X0147088Y0258116D01*
X0146708Y0257369D01*
X0146449Y0256572D01*
X0146318Y0255744D01*
X0146318Y0252175D01*
X0151267Y0252175D01*
X0151267Y0260650D01*
X0151267Y0257562D02*
X0152018Y0257562D01*
X0152018Y0255963D02*
X0151267Y0255963D01*
X0151267Y0254365D02*
X0152018Y0254365D01*
X0152018Y0252766D02*
X0151267Y0252766D01*
X0151267Y0251168D02*
X0152018Y0251168D01*
X0152018Y0249569D02*
X0151267Y0249569D01*
X0151267Y0247971D02*
X0152018Y0247971D01*
X0152018Y0246372D02*
X0151267Y0246372D01*
X0151267Y0244774D02*
X0152018Y0244774D01*
X0147613Y0244774D02*
X0136057Y0244774D01*
X0136717Y0246372D02*
X0146662Y0246372D01*
X0146318Y0247971D02*
X0137082Y0247971D01*
X0137082Y0249569D02*
X0146318Y0249569D01*
X0146318Y0251168D02*
X0137082Y0251168D01*
X0137082Y0252766D02*
X0146318Y0252766D01*
X0146318Y0254365D02*
X0137082Y0254365D01*
X0137082Y0255963D02*
X0146352Y0255963D01*
X0146806Y0257562D02*
X0136578Y0257562D01*
X0135370Y0259160D02*
X0147947Y0259160D01*
X0128545Y0259160D02*
X0115055Y0259160D01*
X0116263Y0257562D02*
X0127337Y0257562D01*
X0126832Y0255963D02*
X0116768Y0255963D01*
X0116768Y0254365D02*
X0126832Y0254365D01*
X0126832Y0252766D02*
X0116768Y0252766D01*
X0116768Y0251168D02*
X0126832Y0251168D01*
X0126832Y0249569D02*
X0116768Y0249569D01*
X0116768Y0247971D02*
X0126832Y0247971D01*
X0127198Y0246372D02*
X0116402Y0246372D01*
X0115389Y0244774D02*
X0127700Y0244774D01*
X0107896Y0244774D02*
X0095987Y0244774D01*
X0096938Y0246372D02*
X0106883Y0246372D01*
X0106518Y0247971D02*
X0097282Y0247971D01*
X0097282Y0249569D02*
X0106518Y0249569D01*
X0106518Y0251168D02*
X0097282Y0251168D01*
X0097282Y0252766D02*
X0106518Y0252766D01*
X0106518Y0254365D02*
X0097282Y0254365D01*
X0097248Y0255963D02*
X0106518Y0255963D01*
X0107022Y0257562D02*
X0096794Y0257562D01*
X0095653Y0259160D02*
X0108230Y0259160D01*
X0092332Y0259160D02*
X0091582Y0259160D01*
X0091582Y0257562D02*
X0092332Y0257562D01*
X0092332Y0255963D02*
X0091582Y0255963D01*
X0091582Y0254365D02*
X0092332Y0254365D01*
X0092332Y0252766D02*
X0091582Y0252766D01*
X0091582Y0251168D02*
X0092332Y0251168D01*
X0092332Y0249569D02*
X0091582Y0249569D01*
X0091582Y0247971D02*
X0092332Y0247971D01*
X0092332Y0246372D02*
X0091582Y0246372D01*
X0091582Y0244774D02*
X0092332Y0244774D01*
X0048211Y0244774D02*
X0035672Y0244774D01*
X0036623Y0246372D02*
X0047198Y0246372D01*
X0046832Y0247971D02*
X0036968Y0247971D01*
X0036968Y0249569D02*
X0046832Y0249569D01*
X0046832Y0251168D02*
X0036968Y0251168D01*
X0036968Y0252766D02*
X0046832Y0252766D01*
X0046832Y0254365D02*
X0036968Y0254365D01*
X0036933Y0255963D02*
X0046832Y0255963D01*
X0047337Y0257562D02*
X0036479Y0257562D01*
X0035338Y0259160D02*
X0048545Y0259160D01*
X0032018Y0259160D02*
X0031267Y0259160D01*
X0031267Y0260650D02*
X0031223Y0260650D01*
X0030396Y0260519D01*
X0029598Y0260260D01*
X0028852Y0259879D01*
X0028174Y0259387D01*
X0027581Y0258794D01*
X0027088Y0258116D01*
X0026708Y0257369D01*
X0026449Y0256572D01*
X0026318Y0255744D01*
X0026318Y0252175D01*
X0031267Y0252175D01*
X0031267Y0260650D01*
X0031267Y0257562D02*
X0032018Y0257562D01*
X0032018Y0255963D02*
X0031267Y0255963D01*
X0031267Y0254365D02*
X0032018Y0254365D01*
X0032018Y0252766D02*
X0031267Y0252766D01*
X0031267Y0251168D02*
X0032018Y0251168D01*
X0032018Y0249569D02*
X0031267Y0249569D01*
X0031267Y0247971D02*
X0032018Y0247971D01*
X0032018Y0246372D02*
X0031267Y0246372D01*
X0031267Y0244774D02*
X0032018Y0244774D01*
X0027613Y0244774D02*
X0016057Y0244774D01*
X0016717Y0246372D02*
X0026662Y0246372D01*
X0026318Y0247971D02*
X0017082Y0247971D01*
X0017082Y0249569D02*
X0026318Y0249569D01*
X0026318Y0251168D02*
X0017082Y0251168D01*
X0017082Y0252766D02*
X0026318Y0252766D01*
X0026318Y0254365D02*
X0017082Y0254365D01*
X0017082Y0255963D02*
X0026352Y0255963D01*
X0026806Y0257562D02*
X0016578Y0257562D01*
X0015370Y0259160D02*
X0027947Y0259160D01*
X0006600Y0099309D02*
X0118694Y0099309D01*
X0117398Y0097711D02*
X0006600Y0097711D01*
X0006600Y0096112D02*
X0116832Y0096112D01*
X0116832Y0094514D02*
X0006600Y0094514D01*
X0006600Y0092915D02*
X0116832Y0092915D01*
X0116832Y0091317D02*
X0006600Y0091317D01*
X0006600Y0089718D02*
X0116832Y0089718D01*
X0116832Y0088120D02*
X0006600Y0088120D01*
X0006600Y0086521D02*
X0117137Y0086521D01*
X0118062Y0084923D02*
X0006600Y0084923D01*
X0006600Y0080127D02*
X0356921Y0080127D01*
X0356921Y0078529D02*
X0006600Y0078529D01*
X0006600Y0076930D02*
X0356921Y0076930D01*
X0356921Y0075332D02*
X0006600Y0075332D01*
X0006600Y0073733D02*
X0356921Y0073733D01*
X0356921Y0072134D02*
X0006600Y0072134D01*
X0006600Y0070536D02*
X0356921Y0070536D01*
X0356921Y0068937D02*
X0006600Y0068937D01*
X0006600Y0067339D02*
X0356921Y0067339D01*
X0356921Y0065740D02*
X0006600Y0065740D01*
X0006600Y0064142D02*
X0356921Y0064142D01*
X0356921Y0062543D02*
X0006600Y0062543D01*
X0006600Y0060945D02*
X0356921Y0060945D01*
X0356921Y0059346D02*
X0006600Y0059346D01*
X0006600Y0057748D02*
X0356921Y0057748D01*
X0356921Y0056149D02*
X0006600Y0056149D01*
X0006600Y0054551D02*
X0356921Y0054551D01*
X0356921Y0052952D02*
X0006600Y0052952D01*
X0006600Y0051354D02*
X0356921Y0051354D01*
X0356921Y0049755D02*
X0006600Y0049755D01*
X0006600Y0048157D02*
X0356921Y0048157D01*
X0356921Y0046558D02*
X0006600Y0046558D01*
X0006600Y0044960D02*
X0356921Y0044960D01*
X0356921Y0043361D02*
X0006600Y0043361D01*
X0006600Y0041763D02*
X0356921Y0041763D01*
X0356921Y0040164D02*
X0006600Y0040164D01*
X0006600Y0038566D02*
X0356921Y0038566D01*
X0356921Y0036967D02*
X0006600Y0036967D01*
X0006600Y0035369D02*
X0356921Y0035369D01*
X0356921Y0033770D02*
X0006600Y0033770D01*
X0006600Y0032172D02*
X0356921Y0032172D01*
X0356921Y0030573D02*
X0006600Y0030573D01*
X0006600Y0028975D02*
X0356921Y0028975D01*
X0356921Y0027376D02*
X0006600Y0027376D01*
X0006600Y0025778D02*
X0356921Y0025778D01*
X0356921Y0024179D02*
X0006600Y0024179D01*
X0006600Y0022581D02*
X0356921Y0022581D01*
X0356921Y0020982D02*
X0006600Y0020982D01*
X0006600Y0019384D02*
X0356921Y0019384D01*
X0356921Y0017785D02*
X0006600Y0017785D01*
X0006600Y0016187D02*
X0356921Y0016187D01*
X0356921Y0014588D02*
X0006600Y0014588D01*
X0006600Y0012990D02*
X0356921Y0012990D01*
X0356921Y0011391D02*
X0006600Y0011391D01*
X0006600Y0009793D02*
X0356921Y0009793D01*
X0356921Y0008194D02*
X0006600Y0008194D01*
X0125853Y0084923D02*
X0137747Y0084923D01*
X0136822Y0086521D02*
X0126778Y0086521D01*
X0127082Y0088120D02*
X0136518Y0088120D01*
X0136518Y0089718D02*
X0127082Y0089718D01*
X0127082Y0091317D02*
X0136518Y0091317D01*
X0136518Y0092915D02*
X0127082Y0092915D01*
X0127082Y0094514D02*
X0136518Y0094514D01*
X0136518Y0096112D02*
X0127082Y0096112D01*
X0126517Y0097711D02*
X0137083Y0097711D01*
X0138379Y0099309D02*
X0125221Y0099309D01*
X0144906Y0099309D02*
X0158694Y0099309D01*
X0157398Y0097711D02*
X0146202Y0097711D01*
X0146768Y0096112D02*
X0156832Y0096112D01*
X0156832Y0094514D02*
X0146768Y0094514D01*
X0146768Y0092915D02*
X0156832Y0092915D01*
X0156832Y0091317D02*
X0146768Y0091317D01*
X0146768Y0089718D02*
X0156832Y0089718D01*
X0156832Y0088120D02*
X0146768Y0088120D01*
X0146463Y0086521D02*
X0157137Y0086521D01*
X0158062Y0084923D02*
X0145538Y0084923D01*
X0165853Y0084923D02*
X0177747Y0084923D01*
X0176822Y0086521D02*
X0166778Y0086521D01*
X0167082Y0088120D02*
X0176518Y0088120D01*
X0176518Y0089718D02*
X0167082Y0089718D01*
X0167082Y0091317D02*
X0176518Y0091317D01*
X0176518Y0092915D02*
X0167082Y0092915D01*
X0167082Y0094514D02*
X0176518Y0094514D01*
X0176518Y0096112D02*
X0167082Y0096112D01*
X0166517Y0097711D02*
X0177083Y0097711D01*
X0178379Y0099309D02*
X0165221Y0099309D01*
X0184906Y0099309D02*
X0198694Y0099309D01*
X0197398Y0097711D02*
X0186202Y0097711D01*
X0186768Y0096112D02*
X0196832Y0096112D01*
X0196832Y0094514D02*
X0186768Y0094514D01*
X0186768Y0092915D02*
X0196832Y0092915D01*
X0196832Y0091317D02*
X0186768Y0091317D01*
X0186768Y0089718D02*
X0196832Y0089718D01*
X0196832Y0088120D02*
X0186768Y0088120D01*
X0186463Y0086521D02*
X0197137Y0086521D01*
X0198062Y0084923D02*
X0185538Y0084923D01*
X0205853Y0084923D02*
X0217747Y0084923D01*
X0216822Y0086521D02*
X0206778Y0086521D01*
X0207082Y0088120D02*
X0216518Y0088120D01*
X0216518Y0089718D02*
X0207082Y0089718D01*
X0207082Y0091317D02*
X0216518Y0091317D01*
X0216518Y0092915D02*
X0207082Y0092915D01*
X0207082Y0094514D02*
X0216518Y0094514D01*
X0216518Y0096112D02*
X0207082Y0096112D01*
X0206517Y0097711D02*
X0217083Y0097711D01*
X0218379Y0099309D02*
X0205221Y0099309D01*
X0341267Y0099309D02*
X0342018Y0099309D01*
X0342018Y0097711D02*
X0341267Y0097711D01*
X0341267Y0096112D02*
X0342018Y0096112D01*
X0342018Y0094514D02*
X0341267Y0094514D01*
X0341267Y0092915D02*
X0342018Y0092915D01*
X0342018Y0091317D02*
X0341267Y0091317D01*
X0341267Y0089718D02*
X0342018Y0089718D01*
X0342018Y0088120D02*
X0341267Y0088120D01*
X0341267Y0086521D02*
X0342018Y0086521D01*
X0342018Y0084923D02*
X0341267Y0084923D01*
X0345789Y0084923D02*
X0356921Y0084923D01*
X0356921Y0086521D02*
X0346672Y0086521D01*
X0346968Y0088120D02*
X0356921Y0088120D01*
X0356921Y0089718D02*
X0346968Y0089718D01*
X0346968Y0091317D02*
X0356921Y0091317D01*
X0356921Y0092915D02*
X0346968Y0092915D01*
X0346968Y0094514D02*
X0356921Y0094514D01*
X0356921Y0096112D02*
X0346909Y0096112D01*
X0346403Y0097711D02*
X0356921Y0097711D01*
X0356921Y0099309D02*
X0345189Y0099309D01*
X0347896Y0244774D02*
X0335987Y0244774D01*
X0336938Y0246372D02*
X0346883Y0246372D01*
X0346518Y0247971D02*
X0337282Y0247971D01*
X0337282Y0249569D02*
X0346518Y0249569D01*
X0346518Y0251168D02*
X0337282Y0251168D01*
X0337282Y0252766D02*
X0346518Y0252766D01*
X0346518Y0254365D02*
X0337282Y0254365D01*
X0337248Y0255963D02*
X0346518Y0255963D01*
X0347022Y0257562D02*
X0336794Y0257562D01*
X0335653Y0259160D02*
X0348230Y0259160D01*
X0355055Y0259160D02*
X0356921Y0259160D01*
X0356921Y0257562D02*
X0356263Y0257562D01*
X0356768Y0255963D02*
X0356921Y0255963D01*
X0356921Y0254365D02*
X0356768Y0254365D01*
X0356768Y0252766D02*
X0356921Y0252766D01*
X0356921Y0251168D02*
X0356768Y0251168D01*
X0356768Y0249569D02*
X0356921Y0249569D01*
X0356921Y0247971D02*
X0356768Y0247971D01*
X0356921Y0246372D02*
X0356402Y0246372D01*
X0356921Y0244774D02*
X0355389Y0244774D01*
X0332332Y0244774D02*
X0331582Y0244774D01*
X0331582Y0246372D02*
X0332332Y0246372D01*
X0332332Y0247971D02*
X0331582Y0247971D01*
X0331582Y0249569D02*
X0332332Y0249569D01*
X0332332Y0251168D02*
X0331582Y0251168D01*
X0331582Y0252766D02*
X0332332Y0252766D01*
X0332332Y0254365D02*
X0331582Y0254365D01*
X0331582Y0255963D02*
X0332332Y0255963D01*
X0332332Y0257562D02*
X0331582Y0257562D01*
X0331582Y0259160D02*
X0332332Y0259160D01*
M02*
