G75*
%MOIN*%
%OFA0B0*%
%FSLAX25Y25*%
%IPPOS*%
%LPD*%
%AMOC8*
5,1,8,0,0,1.08239X$1,22.5*
%
%ADD10C,0.09449*%
%ADD11C,0.01600*%
%ADD12C,0.05600*%
%ADD13C,0.16598*%
D10*
X0121800Y0079300D03*
X0141800Y0079300D03*
X0161800Y0079300D03*
X0181800Y0079300D03*
X0201800Y0079300D03*
X0221800Y0079300D03*
X0241800Y0079300D03*
X0261800Y0079300D03*
X0256800Y0239300D03*
X0276800Y0239300D03*
X0296800Y0239300D03*
X0316800Y0239300D03*
X0336800Y0239300D03*
X0356800Y0239300D03*
X0376800Y0239300D03*
X0236800Y0239300D03*
X0216800Y0239300D03*
X0196800Y0239300D03*
X0176800Y0239300D03*
X0156800Y0239300D03*
X0136800Y0239300D03*
X0116800Y0239300D03*
X0096800Y0239300D03*
X0076800Y0239300D03*
X0056800Y0239300D03*
X0036800Y0239300D03*
D11*
X0006600Y0285701D02*
X0006600Y0006600D01*
X0406921Y0006600D01*
X0406921Y0285701D01*
X0401179Y0285701D01*
X0402407Y0285192D01*
X0405192Y0282407D01*
X0406699Y0278769D01*
X0406699Y0274831D01*
X0405192Y0271193D01*
X0402407Y0268408D01*
X0398769Y0266901D01*
X0394831Y0266901D01*
X0391193Y0268408D01*
X0388408Y0271193D01*
X0386901Y0274831D01*
X0386901Y0278769D01*
X0388408Y0282407D01*
X0391193Y0285192D01*
X0392421Y0285701D01*
X0021179Y0285701D01*
X0022407Y0285192D01*
X0025192Y0282407D01*
X0026699Y0278769D01*
X0026699Y0274831D01*
X0025192Y0271193D01*
X0022407Y0268408D01*
X0018769Y0266901D01*
X0014831Y0266901D01*
X0011193Y0268408D01*
X0008408Y0271193D01*
X0006901Y0274831D01*
X0006901Y0278769D01*
X0008408Y0282407D01*
X0011193Y0285192D01*
X0012421Y0285701D01*
X0006600Y0285701D01*
X0006600Y0284737D02*
X0010737Y0284737D01*
X0009138Y0283138D02*
X0006600Y0283138D01*
X0006600Y0281539D02*
X0008048Y0281539D01*
X0007386Y0279941D02*
X0006600Y0279941D01*
X0006600Y0278342D02*
X0006901Y0278342D01*
X0006901Y0276744D02*
X0006600Y0276744D01*
X0006600Y0275145D02*
X0006901Y0275145D01*
X0006600Y0273547D02*
X0007433Y0273547D01*
X0008095Y0271948D02*
X0006600Y0271948D01*
X0006600Y0270350D02*
X0009250Y0270350D01*
X0010849Y0268751D02*
X0006600Y0268751D01*
X0006600Y0267153D02*
X0014222Y0267153D01*
X0019378Y0267153D02*
X0394222Y0267153D01*
X0390849Y0268751D02*
X0022751Y0268751D01*
X0024349Y0270350D02*
X0389250Y0270350D01*
X0388095Y0271948D02*
X0025505Y0271948D01*
X0026167Y0273547D02*
X0387433Y0273547D01*
X0386901Y0275145D02*
X0026699Y0275145D01*
X0026699Y0276744D02*
X0386901Y0276744D01*
X0386901Y0278342D02*
X0026699Y0278342D01*
X0026214Y0279941D02*
X0387386Y0279941D01*
X0388048Y0281539D02*
X0025552Y0281539D01*
X0024462Y0283138D02*
X0389138Y0283138D01*
X0390737Y0284737D02*
X0022863Y0284737D01*
X0006600Y0265554D02*
X0406921Y0265554D01*
X0406921Y0263956D02*
X0006600Y0263956D01*
X0006600Y0262357D02*
X0406921Y0262357D01*
X0406921Y0260759D02*
X0006600Y0260759D01*
X0006600Y0259160D02*
X0406921Y0259160D01*
X0406921Y0257562D02*
X0006600Y0257562D01*
X0006600Y0255963D02*
X0406921Y0255963D01*
X0406921Y0254365D02*
X0006600Y0254365D01*
X0006600Y0252766D02*
X0406921Y0252766D01*
X0406921Y0251168D02*
X0006600Y0251168D01*
X0006600Y0249569D02*
X0406921Y0249569D01*
X0406921Y0247971D02*
X0006600Y0247971D01*
X0006600Y0246372D02*
X0406921Y0246372D01*
X0406921Y0244774D02*
X0380112Y0244774D01*
X0380382Y0244662D02*
X0378058Y0245624D01*
X0375542Y0245624D01*
X0373218Y0244662D01*
X0371438Y0242882D01*
X0370476Y0240558D01*
X0370476Y0238042D01*
X0371438Y0235718D01*
X0373218Y0233938D01*
X0375542Y0232976D01*
X0378058Y0232976D01*
X0380382Y0233938D01*
X0382162Y0235718D01*
X0383124Y0238042D01*
X0383124Y0240558D01*
X0382162Y0242882D01*
X0380382Y0244662D01*
X0381869Y0243175D02*
X0406921Y0243175D01*
X0406921Y0241577D02*
X0382702Y0241577D01*
X0383124Y0239978D02*
X0406921Y0239978D01*
X0406921Y0238380D02*
X0383124Y0238380D01*
X0382602Y0236781D02*
X0406921Y0236781D01*
X0406921Y0235183D02*
X0381627Y0235183D01*
X0379527Y0233584D02*
X0406921Y0233584D01*
X0406921Y0231986D02*
X0341200Y0231986D01*
X0341200Y0233584D02*
X0353651Y0233584D01*
X0353908Y0233436D02*
X0354698Y0233109D01*
X0355524Y0232887D01*
X0356025Y0232821D01*
X0356025Y0238525D01*
X0357575Y0238525D01*
X0357575Y0240075D01*
X0363279Y0240075D01*
X0363213Y0240576D01*
X0362991Y0241402D01*
X0362664Y0242192D01*
X0362236Y0242933D01*
X0361716Y0243611D01*
X0361111Y0244216D01*
X0360433Y0244736D01*
X0359692Y0245164D01*
X0358902Y0245491D01*
X0358076Y0245713D01*
X0357575Y0245779D01*
X0357575Y0240075D01*
X0356025Y0240075D01*
X0356025Y0245779D01*
X0355524Y0245713D01*
X0354698Y0245491D01*
X0353908Y0245164D01*
X0353167Y0244736D01*
X0352489Y0244216D01*
X0351884Y0243611D01*
X0351364Y0242933D01*
X0350936Y0242192D01*
X0350609Y0241402D01*
X0350387Y0240576D01*
X0350321Y0240075D01*
X0356025Y0240075D01*
X0356025Y0238525D01*
X0350321Y0238525D01*
X0350387Y0238024D01*
X0350609Y0237198D01*
X0350936Y0236408D01*
X0351364Y0235667D01*
X0351884Y0234989D01*
X0352489Y0234384D01*
X0353167Y0233864D01*
X0353908Y0233436D01*
X0356025Y0233584D02*
X0357575Y0233584D01*
X0357575Y0232821D02*
X0358076Y0232887D01*
X0358902Y0233109D01*
X0359692Y0233436D01*
X0360433Y0233864D01*
X0361111Y0234384D01*
X0361716Y0234989D01*
X0362236Y0235667D01*
X0362664Y0236408D01*
X0362991Y0237198D01*
X0363213Y0238024D01*
X0363279Y0238525D01*
X0357575Y0238525D01*
X0357575Y0232821D01*
X0357575Y0235183D02*
X0356025Y0235183D01*
X0356025Y0236781D02*
X0357575Y0236781D01*
X0357575Y0238380D02*
X0356025Y0238380D01*
X0356025Y0239978D02*
X0343124Y0239978D01*
X0343124Y0240558D02*
X0342162Y0242882D01*
X0340382Y0244662D01*
X0338058Y0245624D01*
X0335542Y0245624D01*
X0333218Y0244662D01*
X0331438Y0242882D01*
X0330476Y0240558D01*
X0330476Y0238042D01*
X0331438Y0235718D01*
X0332400Y0234756D01*
X0332400Y0218623D01*
X0319977Y0206200D01*
X0283623Y0206200D01*
X0281200Y0208623D01*
X0281200Y0234756D01*
X0282162Y0235718D01*
X0283124Y0238042D01*
X0283124Y0240558D01*
X0282162Y0242882D01*
X0280382Y0244662D01*
X0278058Y0245624D01*
X0275542Y0245624D01*
X0273218Y0244662D01*
X0271438Y0242882D01*
X0270476Y0240558D01*
X0270476Y0238042D01*
X0271438Y0235718D01*
X0272400Y0234756D01*
X0272400Y0206200D01*
X0212423Y0206200D01*
X0220530Y0214308D01*
X0221200Y0215925D01*
X0221200Y0234756D01*
X0222162Y0235718D01*
X0223124Y0238042D01*
X0223124Y0240558D01*
X0222162Y0242882D01*
X0220382Y0244662D01*
X0218058Y0245624D01*
X0215542Y0245624D01*
X0213218Y0244662D01*
X0211438Y0242882D01*
X0210476Y0240558D01*
X0210476Y0238042D01*
X0211438Y0235718D01*
X0212400Y0234756D01*
X0212400Y0218623D01*
X0199977Y0206200D01*
X0147423Y0206200D01*
X0160530Y0219308D01*
X0161200Y0220925D01*
X0161200Y0234756D01*
X0162162Y0235718D01*
X0163124Y0238042D01*
X0163124Y0240558D01*
X0162162Y0242882D01*
X0160382Y0244662D01*
X0158058Y0245624D01*
X0155542Y0245624D01*
X0153218Y0244662D01*
X0151438Y0242882D01*
X0150476Y0240558D01*
X0150476Y0238042D01*
X0151438Y0235718D01*
X0152400Y0234756D01*
X0152400Y0223623D01*
X0134977Y0206200D01*
X0069923Y0206200D01*
X0096698Y0232976D01*
X0098058Y0232976D01*
X0100382Y0233938D01*
X0102162Y0235718D01*
X0103124Y0238042D01*
X0103124Y0240558D01*
X0102162Y0242882D01*
X0100382Y0244662D01*
X0098058Y0245624D01*
X0095542Y0245624D01*
X0093218Y0244662D01*
X0091438Y0242882D01*
X0090476Y0240558D01*
X0090476Y0239198D01*
X0058050Y0206773D01*
X0041200Y0223623D01*
X0041200Y0234756D01*
X0042162Y0235718D01*
X0043124Y0238042D01*
X0043124Y0240558D01*
X0042162Y0242882D01*
X0040382Y0244662D01*
X0038058Y0245624D01*
X0035542Y0245624D01*
X0033218Y0244662D01*
X0031438Y0242882D01*
X0030476Y0240558D01*
X0030476Y0238042D01*
X0031438Y0235718D01*
X0032400Y0234756D01*
X0032400Y0220925D01*
X0033070Y0219308D01*
X0053070Y0199308D01*
X0053070Y0199308D01*
X0054308Y0198070D01*
X0055925Y0197400D01*
X0296177Y0197400D01*
X0238070Y0139292D01*
X0237400Y0137675D01*
X0237400Y0083844D01*
X0236438Y0082882D01*
X0235476Y0080558D01*
X0235476Y0078042D01*
X0236438Y0075718D01*
X0238218Y0073938D01*
X0240542Y0072976D01*
X0243058Y0072976D01*
X0245382Y0073938D01*
X0247162Y0075718D01*
X0248124Y0078042D01*
X0248124Y0080558D01*
X0247162Y0082882D01*
X0246200Y0083844D01*
X0246200Y0134977D01*
X0308623Y0197400D01*
X0322675Y0197400D01*
X0324292Y0198070D01*
X0339292Y0213070D01*
X0340530Y0214308D01*
X0341200Y0215925D01*
X0341200Y0234756D01*
X0342162Y0235718D01*
X0343124Y0238042D01*
X0343124Y0240558D01*
X0342702Y0241577D02*
X0350681Y0241577D01*
X0351550Y0243175D02*
X0341869Y0243175D01*
X0340112Y0244774D02*
X0353232Y0244774D01*
X0356025Y0244774D02*
X0357575Y0244774D01*
X0357575Y0243175D02*
X0356025Y0243175D01*
X0356025Y0241577D02*
X0357575Y0241577D01*
X0357575Y0239978D02*
X0370476Y0239978D01*
X0370476Y0238380D02*
X0363260Y0238380D01*
X0362819Y0236781D02*
X0370998Y0236781D01*
X0371973Y0235183D02*
X0361864Y0235183D01*
X0359949Y0233584D02*
X0374073Y0233584D01*
X0370898Y0241577D02*
X0362919Y0241577D01*
X0362050Y0243175D02*
X0371731Y0243175D01*
X0373488Y0244774D02*
X0360368Y0244774D01*
X0350340Y0238380D02*
X0343124Y0238380D01*
X0342602Y0236781D02*
X0350781Y0236781D01*
X0351736Y0235183D02*
X0341627Y0235183D01*
X0341200Y0230387D02*
X0406921Y0230387D01*
X0406921Y0228789D02*
X0341200Y0228789D01*
X0341200Y0227190D02*
X0406921Y0227190D01*
X0406921Y0225592D02*
X0341200Y0225592D01*
X0341200Y0223993D02*
X0406921Y0223993D01*
X0406921Y0222395D02*
X0341200Y0222395D01*
X0341200Y0220796D02*
X0406921Y0220796D01*
X0406921Y0219198D02*
X0341200Y0219198D01*
X0341200Y0217599D02*
X0406921Y0217599D01*
X0406921Y0216001D02*
X0341200Y0216001D01*
X0340569Y0214402D02*
X0406921Y0214402D01*
X0406921Y0212803D02*
X0339026Y0212803D01*
X0337428Y0211205D02*
X0406921Y0211205D01*
X0406921Y0209606D02*
X0335829Y0209606D01*
X0334230Y0208008D02*
X0406921Y0208008D01*
X0406921Y0206409D02*
X0332632Y0206409D01*
X0331033Y0204811D02*
X0406921Y0204811D01*
X0406921Y0203212D02*
X0329435Y0203212D01*
X0327836Y0201614D02*
X0406921Y0201614D01*
X0406921Y0200015D02*
X0326238Y0200015D01*
X0324639Y0198417D02*
X0406921Y0198417D01*
X0406921Y0196818D02*
X0308041Y0196818D01*
X0306442Y0195220D02*
X0406921Y0195220D01*
X0406921Y0193621D02*
X0304844Y0193621D01*
X0303245Y0192023D02*
X0406921Y0192023D01*
X0406921Y0190424D02*
X0301647Y0190424D01*
X0300048Y0188826D02*
X0406921Y0188826D01*
X0406921Y0187227D02*
X0298450Y0187227D01*
X0296851Y0185629D02*
X0406921Y0185629D01*
X0406921Y0184030D02*
X0295253Y0184030D01*
X0293654Y0182432D02*
X0406921Y0182432D01*
X0406921Y0180833D02*
X0292056Y0180833D01*
X0290457Y0179235D02*
X0406921Y0179235D01*
X0406921Y0177636D02*
X0288859Y0177636D01*
X0287260Y0176038D02*
X0406921Y0176038D01*
X0406921Y0174439D02*
X0285662Y0174439D01*
X0284063Y0172841D02*
X0406921Y0172841D01*
X0406921Y0171242D02*
X0282465Y0171242D01*
X0280866Y0169644D02*
X0406921Y0169644D01*
X0406921Y0168045D02*
X0279268Y0168045D01*
X0277669Y0166447D02*
X0406921Y0166447D01*
X0406921Y0164848D02*
X0276071Y0164848D01*
X0274472Y0163250D02*
X0406921Y0163250D01*
X0406921Y0161651D02*
X0272874Y0161651D01*
X0271275Y0160053D02*
X0406921Y0160053D01*
X0406921Y0158454D02*
X0269677Y0158454D01*
X0268078Y0156856D02*
X0406921Y0156856D01*
X0406921Y0155257D02*
X0266480Y0155257D01*
X0264881Y0153659D02*
X0406921Y0153659D01*
X0406921Y0152060D02*
X0263283Y0152060D01*
X0261684Y0150462D02*
X0406921Y0150462D01*
X0406921Y0148863D02*
X0260086Y0148863D01*
X0258487Y0147265D02*
X0406921Y0147265D01*
X0406921Y0145666D02*
X0256889Y0145666D01*
X0255290Y0144068D02*
X0406921Y0144068D01*
X0406921Y0142469D02*
X0253692Y0142469D01*
X0252093Y0140870D02*
X0406921Y0140870D01*
X0406921Y0139272D02*
X0250495Y0139272D01*
X0248896Y0137673D02*
X0406921Y0137673D01*
X0406921Y0136075D02*
X0247297Y0136075D01*
X0246200Y0134476D02*
X0406921Y0134476D01*
X0406921Y0132878D02*
X0246200Y0132878D01*
X0246200Y0131279D02*
X0406921Y0131279D01*
X0406921Y0129681D02*
X0246200Y0129681D01*
X0246200Y0128082D02*
X0406921Y0128082D01*
X0406921Y0126484D02*
X0246200Y0126484D01*
X0246200Y0124885D02*
X0406921Y0124885D01*
X0406921Y0123287D02*
X0246200Y0123287D01*
X0246200Y0121688D02*
X0406921Y0121688D01*
X0406921Y0120090D02*
X0246200Y0120090D01*
X0246200Y0118491D02*
X0406921Y0118491D01*
X0406921Y0116893D02*
X0246200Y0116893D01*
X0246200Y0115294D02*
X0406921Y0115294D01*
X0406921Y0113696D02*
X0246200Y0113696D01*
X0246200Y0112097D02*
X0406921Y0112097D01*
X0406921Y0110499D02*
X0246200Y0110499D01*
X0246200Y0108900D02*
X0406921Y0108900D01*
X0406921Y0107302D02*
X0246200Y0107302D01*
X0246200Y0105703D02*
X0406921Y0105703D01*
X0406921Y0104105D02*
X0246200Y0104105D01*
X0246200Y0102506D02*
X0406921Y0102506D01*
X0406921Y0100908D02*
X0246200Y0100908D01*
X0246200Y0099309D02*
X0406921Y0099309D01*
X0406921Y0097711D02*
X0246200Y0097711D01*
X0246200Y0096112D02*
X0406921Y0096112D01*
X0406921Y0094514D02*
X0246200Y0094514D01*
X0246200Y0092915D02*
X0406921Y0092915D01*
X0406921Y0091317D02*
X0246200Y0091317D01*
X0246200Y0089718D02*
X0406921Y0089718D01*
X0406921Y0088120D02*
X0246200Y0088120D01*
X0246200Y0086521D02*
X0406921Y0086521D01*
X0406921Y0084923D02*
X0265110Y0084923D01*
X0265433Y0084736D02*
X0264692Y0085164D01*
X0263902Y0085491D01*
X0263076Y0085713D01*
X0262575Y0085779D01*
X0262575Y0080075D01*
X0268279Y0080075D01*
X0268213Y0080576D01*
X0267991Y0081402D01*
X0267664Y0082192D01*
X0267236Y0082933D01*
X0266716Y0083611D01*
X0266111Y0084216D01*
X0265433Y0084736D01*
X0266936Y0083324D02*
X0406921Y0083324D01*
X0406921Y0081726D02*
X0267857Y0081726D01*
X0268272Y0080127D02*
X0406921Y0080127D01*
X0406921Y0078529D02*
X0262575Y0078529D01*
X0262575Y0078525D02*
X0262575Y0080075D01*
X0261025Y0080075D01*
X0261025Y0085779D01*
X0260524Y0085713D01*
X0259698Y0085491D01*
X0258908Y0085164D01*
X0258167Y0084736D01*
X0257489Y0084216D01*
X0256884Y0083611D01*
X0256364Y0082933D01*
X0255936Y0082192D01*
X0255609Y0081402D01*
X0255387Y0080576D01*
X0255321Y0080075D01*
X0261025Y0080075D01*
X0261025Y0078525D01*
X0262575Y0078525D01*
X0268279Y0078525D01*
X0268213Y0078024D01*
X0267991Y0077198D01*
X0267664Y0076408D01*
X0267236Y0075667D01*
X0266716Y0074989D01*
X0266111Y0074384D01*
X0265433Y0073864D01*
X0264692Y0073436D01*
X0263902Y0073109D01*
X0263076Y0072887D01*
X0262575Y0072821D01*
X0262575Y0078525D01*
X0261025Y0078525D02*
X0261025Y0072821D01*
X0260524Y0072887D01*
X0259698Y0073109D01*
X0258908Y0073436D01*
X0258167Y0073864D01*
X0257489Y0074384D01*
X0256884Y0074989D01*
X0256364Y0075667D01*
X0255936Y0076408D01*
X0255609Y0077198D01*
X0255387Y0078024D01*
X0255321Y0078525D01*
X0261025Y0078525D01*
X0261025Y0078529D02*
X0248124Y0078529D01*
X0248124Y0080127D02*
X0255328Y0080127D01*
X0255743Y0081726D02*
X0247641Y0081726D01*
X0246720Y0083324D02*
X0256664Y0083324D01*
X0258490Y0084923D02*
X0246200Y0084923D01*
X0247664Y0076930D02*
X0255720Y0076930D01*
X0256621Y0075332D02*
X0246776Y0075332D01*
X0244887Y0073733D02*
X0258393Y0073733D01*
X0261025Y0073733D02*
X0262575Y0073733D01*
X0262575Y0075332D02*
X0261025Y0075332D01*
X0261025Y0076930D02*
X0262575Y0076930D01*
X0262575Y0080127D02*
X0261025Y0080127D01*
X0261025Y0081726D02*
X0262575Y0081726D01*
X0262575Y0083324D02*
X0261025Y0083324D01*
X0261025Y0084923D02*
X0262575Y0084923D01*
X0267880Y0076930D02*
X0406921Y0076930D01*
X0406921Y0075332D02*
X0266979Y0075332D01*
X0265207Y0073733D02*
X0406921Y0073733D01*
X0406921Y0072134D02*
X0006600Y0072134D01*
X0006600Y0070536D02*
X0406921Y0070536D01*
X0406921Y0068937D02*
X0006600Y0068937D01*
X0006600Y0067339D02*
X0406921Y0067339D01*
X0406921Y0065740D02*
X0006600Y0065740D01*
X0006600Y0064142D02*
X0406921Y0064142D01*
X0406921Y0062543D02*
X0006600Y0062543D01*
X0006600Y0060945D02*
X0406921Y0060945D01*
X0406921Y0059346D02*
X0006600Y0059346D01*
X0006600Y0057748D02*
X0406921Y0057748D01*
X0406921Y0056149D02*
X0006600Y0056149D01*
X0006600Y0054551D02*
X0406921Y0054551D01*
X0406921Y0052952D02*
X0006600Y0052952D01*
X0006600Y0051354D02*
X0406921Y0051354D01*
X0406921Y0049755D02*
X0006600Y0049755D01*
X0006600Y0048157D02*
X0406921Y0048157D01*
X0406921Y0046558D02*
X0006600Y0046558D01*
X0006600Y0044960D02*
X0406921Y0044960D01*
X0406921Y0043361D02*
X0006600Y0043361D01*
X0006600Y0041763D02*
X0406921Y0041763D01*
X0406921Y0040164D02*
X0006600Y0040164D01*
X0006600Y0038566D02*
X0406921Y0038566D01*
X0406921Y0036967D02*
X0006600Y0036967D01*
X0006600Y0035369D02*
X0406921Y0035369D01*
X0406921Y0033770D02*
X0006600Y0033770D01*
X0006600Y0032172D02*
X0406921Y0032172D01*
X0406921Y0030573D02*
X0006600Y0030573D01*
X0006600Y0028975D02*
X0406921Y0028975D01*
X0406921Y0027376D02*
X0006600Y0027376D01*
X0006600Y0025778D02*
X0012606Y0025778D01*
X0011193Y0025192D02*
X0008408Y0022407D01*
X0006901Y0018769D01*
X0006901Y0014831D01*
X0008408Y0011193D01*
X0011193Y0008408D01*
X0014831Y0006901D01*
X0018769Y0006901D01*
X0022407Y0008408D01*
X0025192Y0011193D01*
X0026699Y0014831D01*
X0026699Y0018769D01*
X0025192Y0022407D01*
X0022407Y0025192D01*
X0018769Y0026699D01*
X0014831Y0026699D01*
X0011193Y0025192D01*
X0010180Y0024179D02*
X0006600Y0024179D01*
X0006600Y0022581D02*
X0008581Y0022581D01*
X0007817Y0020982D02*
X0006600Y0020982D01*
X0006600Y0019384D02*
X0007155Y0019384D01*
X0006901Y0017785D02*
X0006600Y0017785D01*
X0006600Y0016187D02*
X0006901Y0016187D01*
X0007001Y0014588D02*
X0006600Y0014588D01*
X0006600Y0012990D02*
X0007663Y0012990D01*
X0008326Y0011391D02*
X0006600Y0011391D01*
X0006600Y0009793D02*
X0009808Y0009793D01*
X0011709Y0008194D02*
X0006600Y0008194D01*
X0021891Y0008194D02*
X0391709Y0008194D01*
X0391193Y0008408D02*
X0394831Y0006901D01*
X0398769Y0006901D01*
X0402407Y0008408D01*
X0405192Y0011193D01*
X0406699Y0014831D01*
X0406699Y0018769D01*
X0405192Y0022407D01*
X0402407Y0025192D01*
X0398769Y0026699D01*
X0394831Y0026699D01*
X0391193Y0025192D01*
X0388408Y0022407D01*
X0386901Y0018769D01*
X0386901Y0014831D01*
X0388408Y0011193D01*
X0391193Y0008408D01*
X0389808Y0009793D02*
X0023792Y0009793D01*
X0025274Y0011391D02*
X0388326Y0011391D01*
X0387663Y0012990D02*
X0025936Y0012990D01*
X0026599Y0014588D02*
X0387001Y0014588D01*
X0386901Y0016187D02*
X0026699Y0016187D01*
X0026699Y0017785D02*
X0386901Y0017785D01*
X0387155Y0019384D02*
X0026445Y0019384D01*
X0025783Y0020982D02*
X0387817Y0020982D01*
X0388581Y0022581D02*
X0025019Y0022581D01*
X0023420Y0024179D02*
X0390180Y0024179D01*
X0392606Y0025778D02*
X0020994Y0025778D01*
X0006600Y0073733D02*
X0118713Y0073733D01*
X0118218Y0073938D02*
X0120542Y0072976D01*
X0123058Y0072976D01*
X0125382Y0073938D01*
X0127162Y0075718D01*
X0128124Y0078042D01*
X0128124Y0080558D01*
X0127162Y0082882D01*
X0125382Y0084662D01*
X0123058Y0085624D01*
X0120542Y0085624D01*
X0118218Y0084662D01*
X0116438Y0082882D01*
X0115476Y0080558D01*
X0115476Y0078042D01*
X0116438Y0075718D01*
X0118218Y0073938D01*
X0116824Y0075332D02*
X0006600Y0075332D01*
X0006600Y0076930D02*
X0115936Y0076930D01*
X0115476Y0078529D02*
X0006600Y0078529D01*
X0006600Y0080127D02*
X0115476Y0080127D01*
X0115959Y0081726D02*
X0006600Y0081726D01*
X0006600Y0083324D02*
X0116880Y0083324D01*
X0118848Y0084923D02*
X0006600Y0084923D01*
X0006600Y0086521D02*
X0237400Y0086521D01*
X0237400Y0084923D02*
X0224752Y0084923D01*
X0225382Y0084662D02*
X0223058Y0085624D01*
X0220542Y0085624D01*
X0218218Y0084662D01*
X0216438Y0082882D01*
X0215476Y0080558D01*
X0215476Y0078042D01*
X0216438Y0075718D01*
X0218218Y0073938D01*
X0220542Y0072976D01*
X0223058Y0072976D01*
X0225382Y0073938D01*
X0227162Y0075718D01*
X0228124Y0078042D01*
X0228124Y0080558D01*
X0227162Y0082882D01*
X0225382Y0084662D01*
X0226720Y0083324D02*
X0236880Y0083324D01*
X0235959Y0081726D02*
X0227641Y0081726D01*
X0228124Y0080127D02*
X0235476Y0080127D01*
X0235476Y0078529D02*
X0228124Y0078529D01*
X0227664Y0076930D02*
X0235936Y0076930D01*
X0236824Y0075332D02*
X0226776Y0075332D01*
X0224887Y0073733D02*
X0238713Y0073733D01*
X0237400Y0088120D02*
X0006600Y0088120D01*
X0006600Y0089718D02*
X0237400Y0089718D01*
X0237400Y0091317D02*
X0006600Y0091317D01*
X0006600Y0092915D02*
X0237400Y0092915D01*
X0237400Y0094514D02*
X0006600Y0094514D01*
X0006600Y0096112D02*
X0237400Y0096112D01*
X0237400Y0097711D02*
X0006600Y0097711D01*
X0006600Y0099309D02*
X0237400Y0099309D01*
X0237400Y0100908D02*
X0006600Y0100908D01*
X0006600Y0102506D02*
X0237400Y0102506D01*
X0237400Y0104105D02*
X0006600Y0104105D01*
X0006600Y0105703D02*
X0237400Y0105703D01*
X0237400Y0107302D02*
X0006600Y0107302D01*
X0006600Y0108900D02*
X0237400Y0108900D01*
X0237400Y0110499D02*
X0006600Y0110499D01*
X0006600Y0112097D02*
X0237400Y0112097D01*
X0237400Y0113696D02*
X0006600Y0113696D01*
X0006600Y0115294D02*
X0237400Y0115294D01*
X0237400Y0116893D02*
X0006600Y0116893D01*
X0006600Y0118491D02*
X0237400Y0118491D01*
X0237400Y0120090D02*
X0006600Y0120090D01*
X0006600Y0121688D02*
X0237400Y0121688D01*
X0237400Y0123287D02*
X0006600Y0123287D01*
X0006600Y0124885D02*
X0237400Y0124885D01*
X0237400Y0126484D02*
X0006600Y0126484D01*
X0006600Y0128082D02*
X0237400Y0128082D01*
X0237400Y0129681D02*
X0006600Y0129681D01*
X0006600Y0131279D02*
X0237400Y0131279D01*
X0237400Y0132878D02*
X0006600Y0132878D01*
X0006600Y0134476D02*
X0237400Y0134476D01*
X0237400Y0136075D02*
X0006600Y0136075D01*
X0006600Y0137673D02*
X0237400Y0137673D01*
X0238061Y0139272D02*
X0006600Y0139272D01*
X0006600Y0140870D02*
X0239648Y0140870D01*
X0241246Y0142469D02*
X0006600Y0142469D01*
X0006600Y0144068D02*
X0242845Y0144068D01*
X0244443Y0145666D02*
X0006600Y0145666D01*
X0006600Y0147265D02*
X0246042Y0147265D01*
X0247641Y0148863D02*
X0006600Y0148863D01*
X0006600Y0150462D02*
X0249239Y0150462D01*
X0250838Y0152060D02*
X0006600Y0152060D01*
X0006600Y0153659D02*
X0252436Y0153659D01*
X0254035Y0155257D02*
X0006600Y0155257D01*
X0006600Y0156856D02*
X0255633Y0156856D01*
X0257232Y0158454D02*
X0006600Y0158454D01*
X0006600Y0160053D02*
X0258830Y0160053D01*
X0260429Y0161651D02*
X0006600Y0161651D01*
X0006600Y0163250D02*
X0262027Y0163250D01*
X0263626Y0164848D02*
X0006600Y0164848D01*
X0006600Y0166447D02*
X0265224Y0166447D01*
X0266823Y0168045D02*
X0006600Y0168045D01*
X0006600Y0169644D02*
X0268421Y0169644D01*
X0270020Y0171242D02*
X0006600Y0171242D01*
X0006600Y0172841D02*
X0271618Y0172841D01*
X0273217Y0174439D02*
X0006600Y0174439D01*
X0006600Y0176038D02*
X0274815Y0176038D01*
X0276414Y0177636D02*
X0006600Y0177636D01*
X0006600Y0179235D02*
X0278012Y0179235D01*
X0279611Y0180833D02*
X0006600Y0180833D01*
X0006600Y0182432D02*
X0281209Y0182432D01*
X0282808Y0184030D02*
X0006600Y0184030D01*
X0006600Y0185629D02*
X0284406Y0185629D01*
X0286005Y0187227D02*
X0006600Y0187227D01*
X0006600Y0188826D02*
X0287603Y0188826D01*
X0289202Y0190424D02*
X0006600Y0190424D01*
X0006600Y0192023D02*
X0290800Y0192023D01*
X0292399Y0193621D02*
X0006600Y0193621D01*
X0006600Y0195220D02*
X0293997Y0195220D01*
X0295596Y0196818D02*
X0006600Y0196818D01*
X0006600Y0198417D02*
X0053961Y0198417D01*
X0052362Y0200015D02*
X0006600Y0200015D01*
X0006600Y0201614D02*
X0050764Y0201614D01*
X0049165Y0203212D02*
X0006600Y0203212D01*
X0006600Y0204811D02*
X0047567Y0204811D01*
X0045968Y0206409D02*
X0006600Y0206409D01*
X0006600Y0208008D02*
X0044369Y0208008D01*
X0042771Y0209606D02*
X0006600Y0209606D01*
X0006600Y0211205D02*
X0041172Y0211205D01*
X0039574Y0212803D02*
X0006600Y0212803D01*
X0006600Y0214402D02*
X0037975Y0214402D01*
X0036377Y0216001D02*
X0006600Y0216001D01*
X0006600Y0217599D02*
X0034778Y0217599D01*
X0033180Y0219198D02*
X0006600Y0219198D01*
X0006600Y0220796D02*
X0032453Y0220796D01*
X0032400Y0222395D02*
X0006600Y0222395D01*
X0006600Y0223993D02*
X0032400Y0223993D01*
X0032400Y0225592D02*
X0006600Y0225592D01*
X0006600Y0227190D02*
X0032400Y0227190D01*
X0032400Y0228789D02*
X0006600Y0228789D01*
X0006600Y0230387D02*
X0032400Y0230387D01*
X0032400Y0231986D02*
X0006600Y0231986D01*
X0006600Y0233584D02*
X0032400Y0233584D01*
X0031973Y0235183D02*
X0006600Y0235183D01*
X0006600Y0236781D02*
X0030998Y0236781D01*
X0030476Y0238380D02*
X0006600Y0238380D01*
X0006600Y0239978D02*
X0030476Y0239978D01*
X0030898Y0241577D02*
X0006600Y0241577D01*
X0006600Y0243175D02*
X0031731Y0243175D01*
X0033488Y0244774D02*
X0006600Y0244774D01*
X0040112Y0244774D02*
X0053232Y0244774D01*
X0053167Y0244736D02*
X0052489Y0244216D01*
X0051884Y0243611D01*
X0051364Y0242933D01*
X0050936Y0242192D01*
X0050609Y0241402D01*
X0050387Y0240576D01*
X0050321Y0240075D01*
X0056025Y0240075D01*
X0056025Y0245779D01*
X0055524Y0245713D01*
X0054698Y0245491D01*
X0053908Y0245164D01*
X0053167Y0244736D01*
X0051550Y0243175D02*
X0041869Y0243175D01*
X0042702Y0241577D02*
X0050681Y0241577D01*
X0050321Y0238525D02*
X0050387Y0238024D01*
X0050609Y0237198D01*
X0050936Y0236408D01*
X0051364Y0235667D01*
X0051884Y0234989D01*
X0052489Y0234384D01*
X0053167Y0233864D01*
X0053908Y0233436D01*
X0054698Y0233109D01*
X0055524Y0232887D01*
X0056025Y0232821D01*
X0056025Y0238525D01*
X0057575Y0238525D01*
X0057575Y0240075D01*
X0063279Y0240075D01*
X0063213Y0240576D01*
X0062991Y0241402D01*
X0062664Y0242192D01*
X0062236Y0242933D01*
X0061716Y0243611D01*
X0061111Y0244216D01*
X0060433Y0244736D01*
X0059692Y0245164D01*
X0058902Y0245491D01*
X0058076Y0245713D01*
X0057575Y0245779D01*
X0057575Y0240075D01*
X0056025Y0240075D01*
X0056025Y0238525D01*
X0050321Y0238525D01*
X0050340Y0238380D02*
X0043124Y0238380D01*
X0043124Y0239978D02*
X0056025Y0239978D01*
X0057575Y0239978D02*
X0070476Y0239978D01*
X0070476Y0240558D02*
X0070476Y0238042D01*
X0071438Y0235718D01*
X0073218Y0233938D01*
X0075542Y0232976D01*
X0078058Y0232976D01*
X0080382Y0233938D01*
X0082162Y0235718D01*
X0083124Y0238042D01*
X0083124Y0240558D01*
X0082162Y0242882D01*
X0080382Y0244662D01*
X0078058Y0245624D01*
X0075542Y0245624D01*
X0073218Y0244662D01*
X0071438Y0242882D01*
X0070476Y0240558D01*
X0070898Y0241577D02*
X0062919Y0241577D01*
X0062050Y0243175D02*
X0071731Y0243175D01*
X0073488Y0244774D02*
X0060368Y0244774D01*
X0057575Y0244774D02*
X0056025Y0244774D01*
X0056025Y0243175D02*
X0057575Y0243175D01*
X0057575Y0241577D02*
X0056025Y0241577D01*
X0056025Y0238380D02*
X0057575Y0238380D01*
X0057575Y0238525D02*
X0057575Y0232821D01*
X0058076Y0232887D01*
X0058902Y0233109D01*
X0059692Y0233436D01*
X0060433Y0233864D01*
X0061111Y0234384D01*
X0061716Y0234989D01*
X0062236Y0235667D01*
X0062664Y0236408D01*
X0062991Y0237198D01*
X0063213Y0238024D01*
X0063279Y0238525D01*
X0057575Y0238525D01*
X0057575Y0236781D02*
X0056025Y0236781D01*
X0056025Y0235183D02*
X0057575Y0235183D01*
X0057575Y0233584D02*
X0056025Y0233584D01*
X0053651Y0233584D02*
X0041200Y0233584D01*
X0041200Y0231986D02*
X0083263Y0231986D01*
X0084862Y0233584D02*
X0079527Y0233584D01*
X0081627Y0235183D02*
X0086460Y0235183D01*
X0088059Y0236781D02*
X0082602Y0236781D01*
X0083124Y0238380D02*
X0089657Y0238380D01*
X0090476Y0239978D02*
X0083124Y0239978D01*
X0082702Y0241577D02*
X0090898Y0241577D01*
X0091731Y0243175D02*
X0081869Y0243175D01*
X0080112Y0244774D02*
X0093488Y0244774D01*
X0100112Y0244774D02*
X0113232Y0244774D01*
X0113167Y0244736D02*
X0112489Y0244216D01*
X0111884Y0243611D01*
X0111364Y0242933D01*
X0110936Y0242192D01*
X0110609Y0241402D01*
X0110387Y0240576D01*
X0110321Y0240075D01*
X0116025Y0240075D01*
X0116025Y0245779D01*
X0115524Y0245713D01*
X0114698Y0245491D01*
X0113908Y0245164D01*
X0113167Y0244736D01*
X0111550Y0243175D02*
X0101869Y0243175D01*
X0102702Y0241577D02*
X0110681Y0241577D01*
X0110321Y0238525D02*
X0110387Y0238024D01*
X0110609Y0237198D01*
X0110936Y0236408D01*
X0111364Y0235667D01*
X0111884Y0234989D01*
X0112489Y0234384D01*
X0113167Y0233864D01*
X0113908Y0233436D01*
X0114698Y0233109D01*
X0115524Y0232887D01*
X0116025Y0232821D01*
X0116025Y0238525D01*
X0117575Y0238525D01*
X0117575Y0240075D01*
X0123279Y0240075D01*
X0123213Y0240576D01*
X0122991Y0241402D01*
X0122664Y0242192D01*
X0122236Y0242933D01*
X0121716Y0243611D01*
X0121111Y0244216D01*
X0120433Y0244736D01*
X0119692Y0245164D01*
X0118902Y0245491D01*
X0118076Y0245713D01*
X0117575Y0245779D01*
X0117575Y0240075D01*
X0116025Y0240075D01*
X0116025Y0238525D01*
X0110321Y0238525D01*
X0110340Y0238380D02*
X0103124Y0238380D01*
X0103124Y0239978D02*
X0116025Y0239978D01*
X0117575Y0239978D02*
X0130476Y0239978D01*
X0130476Y0240558D02*
X0130476Y0238042D01*
X0131438Y0235718D01*
X0133218Y0233938D01*
X0135542Y0232976D01*
X0138058Y0232976D01*
X0140382Y0233938D01*
X0142162Y0235718D01*
X0143124Y0238042D01*
X0143124Y0240558D01*
X0142162Y0242882D01*
X0140382Y0244662D01*
X0138058Y0245624D01*
X0135542Y0245624D01*
X0133218Y0244662D01*
X0131438Y0242882D01*
X0130476Y0240558D01*
X0130898Y0241577D02*
X0122919Y0241577D01*
X0122050Y0243175D02*
X0131731Y0243175D01*
X0133488Y0244774D02*
X0120368Y0244774D01*
X0117575Y0244774D02*
X0116025Y0244774D01*
X0116025Y0243175D02*
X0117575Y0243175D01*
X0117575Y0241577D02*
X0116025Y0241577D01*
X0116025Y0238380D02*
X0117575Y0238380D01*
X0117575Y0238525D02*
X0117575Y0232821D01*
X0118076Y0232887D01*
X0118902Y0233109D01*
X0119692Y0233436D01*
X0120433Y0233864D01*
X0121111Y0234384D01*
X0121716Y0234989D01*
X0122236Y0235667D01*
X0122664Y0236408D01*
X0122991Y0237198D01*
X0123213Y0238024D01*
X0123279Y0238525D01*
X0117575Y0238525D01*
X0117575Y0236781D02*
X0116025Y0236781D01*
X0116025Y0235183D02*
X0117575Y0235183D01*
X0117575Y0233584D02*
X0116025Y0233584D01*
X0113651Y0233584D02*
X0099527Y0233584D01*
X0101627Y0235183D02*
X0111736Y0235183D01*
X0110781Y0236781D02*
X0102602Y0236781D01*
X0095708Y0231986D02*
X0152400Y0231986D01*
X0152400Y0233584D02*
X0139527Y0233584D01*
X0141627Y0235183D02*
X0151973Y0235183D01*
X0150998Y0236781D02*
X0142602Y0236781D01*
X0143124Y0238380D02*
X0150476Y0238380D01*
X0150476Y0239978D02*
X0143124Y0239978D01*
X0142702Y0241577D02*
X0150898Y0241577D01*
X0151731Y0243175D02*
X0141869Y0243175D01*
X0140112Y0244774D02*
X0153488Y0244774D01*
X0160112Y0244774D02*
X0173232Y0244774D01*
X0173167Y0244736D02*
X0172489Y0244216D01*
X0171884Y0243611D01*
X0171364Y0242933D01*
X0170936Y0242192D01*
X0170609Y0241402D01*
X0170387Y0240576D01*
X0170321Y0240075D01*
X0176025Y0240075D01*
X0176025Y0245779D01*
X0175524Y0245713D01*
X0174698Y0245491D01*
X0173908Y0245164D01*
X0173167Y0244736D01*
X0171550Y0243175D02*
X0161869Y0243175D01*
X0162702Y0241577D02*
X0170681Y0241577D01*
X0170321Y0238525D02*
X0170387Y0238024D01*
X0170609Y0237198D01*
X0170936Y0236408D01*
X0171364Y0235667D01*
X0171884Y0234989D01*
X0172489Y0234384D01*
X0173167Y0233864D01*
X0173908Y0233436D01*
X0174698Y0233109D01*
X0175524Y0232887D01*
X0176025Y0232821D01*
X0176025Y0238525D01*
X0177575Y0238525D01*
X0177575Y0240075D01*
X0183279Y0240075D01*
X0183213Y0240576D01*
X0182991Y0241402D01*
X0182664Y0242192D01*
X0182236Y0242933D01*
X0181716Y0243611D01*
X0181111Y0244216D01*
X0180433Y0244736D01*
X0179692Y0245164D01*
X0178902Y0245491D01*
X0178076Y0245713D01*
X0177575Y0245779D01*
X0177575Y0240075D01*
X0176025Y0240075D01*
X0176025Y0238525D01*
X0170321Y0238525D01*
X0170340Y0238380D02*
X0163124Y0238380D01*
X0163124Y0239978D02*
X0176025Y0239978D01*
X0177575Y0239978D02*
X0190476Y0239978D01*
X0190476Y0240558D02*
X0190476Y0238042D01*
X0191438Y0235718D01*
X0193218Y0233938D01*
X0195542Y0232976D01*
X0198058Y0232976D01*
X0200382Y0233938D01*
X0202162Y0235718D01*
X0203124Y0238042D01*
X0203124Y0240558D01*
X0202162Y0242882D01*
X0200382Y0244662D01*
X0198058Y0245624D01*
X0195542Y0245624D01*
X0193218Y0244662D01*
X0191438Y0242882D01*
X0190476Y0240558D01*
X0190898Y0241577D02*
X0182919Y0241577D01*
X0182050Y0243175D02*
X0191731Y0243175D01*
X0193488Y0244774D02*
X0180368Y0244774D01*
X0177575Y0244774D02*
X0176025Y0244774D01*
X0176025Y0243175D02*
X0177575Y0243175D01*
X0177575Y0241577D02*
X0176025Y0241577D01*
X0176025Y0238380D02*
X0177575Y0238380D01*
X0177575Y0238525D02*
X0177575Y0232821D01*
X0178076Y0232887D01*
X0178902Y0233109D01*
X0179692Y0233436D01*
X0180433Y0233864D01*
X0181111Y0234384D01*
X0181716Y0234989D01*
X0182236Y0235667D01*
X0182664Y0236408D01*
X0182991Y0237198D01*
X0183213Y0238024D01*
X0183279Y0238525D01*
X0177575Y0238525D01*
X0177575Y0236781D02*
X0176025Y0236781D01*
X0176025Y0235183D02*
X0177575Y0235183D01*
X0177575Y0233584D02*
X0176025Y0233584D01*
X0173651Y0233584D02*
X0161200Y0233584D01*
X0161200Y0231986D02*
X0212400Y0231986D01*
X0212400Y0233584D02*
X0199527Y0233584D01*
X0201627Y0235183D02*
X0211973Y0235183D01*
X0210998Y0236781D02*
X0202602Y0236781D01*
X0203124Y0238380D02*
X0210476Y0238380D01*
X0210476Y0239978D02*
X0203124Y0239978D01*
X0202702Y0241577D02*
X0210898Y0241577D01*
X0211731Y0243175D02*
X0201869Y0243175D01*
X0200112Y0244774D02*
X0213488Y0244774D01*
X0220112Y0244774D02*
X0233232Y0244774D01*
X0233167Y0244736D02*
X0232489Y0244216D01*
X0231884Y0243611D01*
X0231364Y0242933D01*
X0230936Y0242192D01*
X0230609Y0241402D01*
X0230387Y0240576D01*
X0230321Y0240075D01*
X0236025Y0240075D01*
X0236025Y0245779D01*
X0235524Y0245713D01*
X0234698Y0245491D01*
X0233908Y0245164D01*
X0233167Y0244736D01*
X0231550Y0243175D02*
X0221869Y0243175D01*
X0222702Y0241577D02*
X0230681Y0241577D01*
X0230321Y0238525D02*
X0230387Y0238024D01*
X0230609Y0237198D01*
X0230936Y0236408D01*
X0231364Y0235667D01*
X0231884Y0234989D01*
X0232489Y0234384D01*
X0233167Y0233864D01*
X0233908Y0233436D01*
X0234698Y0233109D01*
X0235524Y0232887D01*
X0236025Y0232821D01*
X0236025Y0238525D01*
X0237575Y0238525D01*
X0237575Y0240075D01*
X0243279Y0240075D01*
X0243213Y0240576D01*
X0242991Y0241402D01*
X0242664Y0242192D01*
X0242236Y0242933D01*
X0241716Y0243611D01*
X0241111Y0244216D01*
X0240433Y0244736D01*
X0239692Y0245164D01*
X0238902Y0245491D01*
X0238076Y0245713D01*
X0237575Y0245779D01*
X0237575Y0240075D01*
X0236025Y0240075D01*
X0236025Y0238525D01*
X0230321Y0238525D01*
X0230340Y0238380D02*
X0223124Y0238380D01*
X0223124Y0239978D02*
X0236025Y0239978D01*
X0237575Y0239978D02*
X0250476Y0239978D01*
X0250476Y0240558D02*
X0250476Y0238042D01*
X0251438Y0235718D01*
X0253218Y0233938D01*
X0255542Y0232976D01*
X0258058Y0232976D01*
X0260382Y0233938D01*
X0262162Y0235718D01*
X0263124Y0238042D01*
X0263124Y0240558D01*
X0262162Y0242882D01*
X0260382Y0244662D01*
X0258058Y0245624D01*
X0255542Y0245624D01*
X0253218Y0244662D01*
X0251438Y0242882D01*
X0250476Y0240558D01*
X0250898Y0241577D02*
X0242919Y0241577D01*
X0242050Y0243175D02*
X0251731Y0243175D01*
X0253488Y0244774D02*
X0240368Y0244774D01*
X0237575Y0244774D02*
X0236025Y0244774D01*
X0236025Y0243175D02*
X0237575Y0243175D01*
X0237575Y0241577D02*
X0236025Y0241577D01*
X0236025Y0238380D02*
X0237575Y0238380D01*
X0237575Y0238525D02*
X0237575Y0232821D01*
X0238076Y0232887D01*
X0238902Y0233109D01*
X0239692Y0233436D01*
X0240433Y0233864D01*
X0241111Y0234384D01*
X0241716Y0234989D01*
X0242236Y0235667D01*
X0242664Y0236408D01*
X0242991Y0237198D01*
X0243213Y0238024D01*
X0243279Y0238525D01*
X0237575Y0238525D01*
X0237575Y0236781D02*
X0236025Y0236781D01*
X0236025Y0235183D02*
X0237575Y0235183D01*
X0237575Y0233584D02*
X0236025Y0233584D01*
X0233651Y0233584D02*
X0221200Y0233584D01*
X0221200Y0231986D02*
X0272400Y0231986D01*
X0272400Y0233584D02*
X0259527Y0233584D01*
X0261627Y0235183D02*
X0271973Y0235183D01*
X0270998Y0236781D02*
X0262602Y0236781D01*
X0263124Y0238380D02*
X0270476Y0238380D01*
X0270476Y0239978D02*
X0263124Y0239978D01*
X0262702Y0241577D02*
X0270898Y0241577D01*
X0271731Y0243175D02*
X0261869Y0243175D01*
X0260112Y0244774D02*
X0273488Y0244774D01*
X0280112Y0244774D02*
X0293232Y0244774D01*
X0293167Y0244736D02*
X0292489Y0244216D01*
X0291884Y0243611D01*
X0291364Y0242933D01*
X0290936Y0242192D01*
X0290609Y0241402D01*
X0290387Y0240576D01*
X0290321Y0240075D01*
X0296025Y0240075D01*
X0296025Y0245779D01*
X0295524Y0245713D01*
X0294698Y0245491D01*
X0293908Y0245164D01*
X0293167Y0244736D01*
X0291550Y0243175D02*
X0281869Y0243175D01*
X0282702Y0241577D02*
X0290681Y0241577D01*
X0290321Y0238525D02*
X0290387Y0238024D01*
X0290609Y0237198D01*
X0290936Y0236408D01*
X0291364Y0235667D01*
X0291884Y0234989D01*
X0292489Y0234384D01*
X0293167Y0233864D01*
X0293908Y0233436D01*
X0294698Y0233109D01*
X0295524Y0232887D01*
X0296025Y0232821D01*
X0296025Y0238525D01*
X0297575Y0238525D01*
X0297575Y0240075D01*
X0303279Y0240075D01*
X0303213Y0240576D01*
X0302991Y0241402D01*
X0302664Y0242192D01*
X0302236Y0242933D01*
X0301716Y0243611D01*
X0301111Y0244216D01*
X0300433Y0244736D01*
X0299692Y0245164D01*
X0298902Y0245491D01*
X0298076Y0245713D01*
X0297575Y0245779D01*
X0297575Y0240075D01*
X0296025Y0240075D01*
X0296025Y0238525D01*
X0290321Y0238525D01*
X0290340Y0238380D02*
X0283124Y0238380D01*
X0283124Y0239978D02*
X0296025Y0239978D01*
X0297575Y0239978D02*
X0310476Y0239978D01*
X0310476Y0240558D02*
X0310476Y0238042D01*
X0311438Y0235718D01*
X0313218Y0233938D01*
X0315542Y0232976D01*
X0318058Y0232976D01*
X0320382Y0233938D01*
X0322162Y0235718D01*
X0323124Y0238042D01*
X0323124Y0240558D01*
X0322162Y0242882D01*
X0320382Y0244662D01*
X0318058Y0245624D01*
X0315542Y0245624D01*
X0313218Y0244662D01*
X0311438Y0242882D01*
X0310476Y0240558D01*
X0310898Y0241577D02*
X0302919Y0241577D01*
X0302050Y0243175D02*
X0311731Y0243175D01*
X0313488Y0244774D02*
X0300368Y0244774D01*
X0297575Y0244774D02*
X0296025Y0244774D01*
X0296025Y0243175D02*
X0297575Y0243175D01*
X0297575Y0241577D02*
X0296025Y0241577D01*
X0296025Y0238380D02*
X0297575Y0238380D01*
X0297575Y0238525D02*
X0297575Y0232821D01*
X0298076Y0232887D01*
X0298902Y0233109D01*
X0299692Y0233436D01*
X0300433Y0233864D01*
X0301111Y0234384D01*
X0301716Y0234989D01*
X0302236Y0235667D01*
X0302664Y0236408D01*
X0302991Y0237198D01*
X0303213Y0238024D01*
X0303279Y0238525D01*
X0297575Y0238525D01*
X0297575Y0236781D02*
X0296025Y0236781D01*
X0296025Y0235183D02*
X0297575Y0235183D01*
X0297575Y0233584D02*
X0296025Y0233584D01*
X0293651Y0233584D02*
X0281200Y0233584D01*
X0281200Y0231986D02*
X0332400Y0231986D01*
X0332400Y0233584D02*
X0319527Y0233584D01*
X0321627Y0235183D02*
X0331973Y0235183D01*
X0330998Y0236781D02*
X0322602Y0236781D01*
X0323124Y0238380D02*
X0330476Y0238380D01*
X0330476Y0239978D02*
X0323124Y0239978D01*
X0322702Y0241577D02*
X0330898Y0241577D01*
X0331731Y0243175D02*
X0321869Y0243175D01*
X0320112Y0244774D02*
X0333488Y0244774D01*
X0332400Y0230387D02*
X0281200Y0230387D01*
X0281200Y0228789D02*
X0332400Y0228789D01*
X0332400Y0227190D02*
X0281200Y0227190D01*
X0281200Y0225592D02*
X0332400Y0225592D01*
X0332400Y0223993D02*
X0281200Y0223993D01*
X0281200Y0222395D02*
X0332400Y0222395D01*
X0332400Y0220796D02*
X0281200Y0220796D01*
X0281200Y0219198D02*
X0332400Y0219198D01*
X0331376Y0217599D02*
X0281200Y0217599D01*
X0281200Y0216001D02*
X0329778Y0216001D01*
X0328179Y0214402D02*
X0281200Y0214402D01*
X0281200Y0212803D02*
X0326581Y0212803D01*
X0324982Y0211205D02*
X0281200Y0211205D01*
X0281200Y0209606D02*
X0323384Y0209606D01*
X0321785Y0208008D02*
X0281815Y0208008D01*
X0283413Y0206409D02*
X0320187Y0206409D01*
X0314073Y0233584D02*
X0299949Y0233584D01*
X0301864Y0235183D02*
X0311973Y0235183D01*
X0310998Y0236781D02*
X0302819Y0236781D01*
X0303260Y0238380D02*
X0310476Y0238380D01*
X0291736Y0235183D02*
X0281627Y0235183D01*
X0282602Y0236781D02*
X0290781Y0236781D01*
X0272400Y0230387D02*
X0221200Y0230387D01*
X0221200Y0228789D02*
X0272400Y0228789D01*
X0272400Y0227190D02*
X0221200Y0227190D01*
X0221200Y0225592D02*
X0272400Y0225592D01*
X0272400Y0223993D02*
X0221200Y0223993D01*
X0221200Y0222395D02*
X0272400Y0222395D01*
X0272400Y0220796D02*
X0221200Y0220796D01*
X0221200Y0219198D02*
X0272400Y0219198D01*
X0272400Y0217599D02*
X0221200Y0217599D01*
X0221200Y0216001D02*
X0272400Y0216001D01*
X0272400Y0214402D02*
X0220569Y0214402D01*
X0219026Y0212803D02*
X0272400Y0212803D01*
X0272400Y0211205D02*
X0217428Y0211205D01*
X0215829Y0209606D02*
X0272400Y0209606D01*
X0272400Y0208008D02*
X0214230Y0208008D01*
X0212632Y0206409D02*
X0272400Y0206409D01*
X0254073Y0233584D02*
X0239949Y0233584D01*
X0241864Y0235183D02*
X0251973Y0235183D01*
X0250998Y0236781D02*
X0242819Y0236781D01*
X0243260Y0238380D02*
X0250476Y0238380D01*
X0231736Y0235183D02*
X0221627Y0235183D01*
X0222602Y0236781D02*
X0230781Y0236781D01*
X0212400Y0230387D02*
X0161200Y0230387D01*
X0161200Y0228789D02*
X0212400Y0228789D01*
X0212400Y0227190D02*
X0161200Y0227190D01*
X0161200Y0225592D02*
X0212400Y0225592D01*
X0212400Y0223993D02*
X0161200Y0223993D01*
X0161200Y0222395D02*
X0212400Y0222395D01*
X0212400Y0220796D02*
X0161147Y0220796D01*
X0160420Y0219198D02*
X0212400Y0219198D01*
X0211376Y0217599D02*
X0158822Y0217599D01*
X0157223Y0216001D02*
X0209778Y0216001D01*
X0208179Y0214402D02*
X0155625Y0214402D01*
X0154026Y0212803D02*
X0206581Y0212803D01*
X0204982Y0211205D02*
X0152428Y0211205D01*
X0150829Y0209606D02*
X0203384Y0209606D01*
X0201785Y0208008D02*
X0149230Y0208008D01*
X0147632Y0206409D02*
X0200187Y0206409D01*
X0194073Y0233584D02*
X0179949Y0233584D01*
X0181864Y0235183D02*
X0191973Y0235183D01*
X0190998Y0236781D02*
X0182819Y0236781D01*
X0183260Y0238380D02*
X0190476Y0238380D01*
X0171736Y0235183D02*
X0161627Y0235183D01*
X0162602Y0236781D02*
X0170781Y0236781D01*
X0152400Y0230387D02*
X0094110Y0230387D01*
X0092511Y0228789D02*
X0152400Y0228789D01*
X0152400Y0227190D02*
X0090913Y0227190D01*
X0089314Y0225592D02*
X0152400Y0225592D01*
X0152400Y0223993D02*
X0087716Y0223993D01*
X0086117Y0222395D02*
X0151172Y0222395D01*
X0149574Y0220796D02*
X0084519Y0220796D01*
X0082920Y0219198D02*
X0147975Y0219198D01*
X0146376Y0217599D02*
X0081322Y0217599D01*
X0079723Y0216001D02*
X0144778Y0216001D01*
X0143179Y0214402D02*
X0078125Y0214402D01*
X0076526Y0212803D02*
X0141581Y0212803D01*
X0139982Y0211205D02*
X0074928Y0211205D01*
X0073329Y0209606D02*
X0138384Y0209606D01*
X0136785Y0208008D02*
X0071730Y0208008D01*
X0070132Y0206409D02*
X0135187Y0206409D01*
X0134073Y0233584D02*
X0119949Y0233584D01*
X0121864Y0235183D02*
X0131973Y0235183D01*
X0130998Y0236781D02*
X0122819Y0236781D01*
X0123260Y0238380D02*
X0130476Y0238380D01*
X0081665Y0230387D02*
X0041200Y0230387D01*
X0041200Y0228789D02*
X0080066Y0228789D01*
X0078468Y0227190D02*
X0041200Y0227190D01*
X0041200Y0225592D02*
X0076869Y0225592D01*
X0075271Y0223993D02*
X0041200Y0223993D01*
X0042428Y0222395D02*
X0073672Y0222395D01*
X0072074Y0220796D02*
X0044026Y0220796D01*
X0045625Y0219198D02*
X0070475Y0219198D01*
X0068876Y0217599D02*
X0047223Y0217599D01*
X0048822Y0216001D02*
X0067278Y0216001D01*
X0065679Y0214402D02*
X0050421Y0214402D01*
X0052019Y0212803D02*
X0064081Y0212803D01*
X0062482Y0211205D02*
X0053618Y0211205D01*
X0055216Y0209606D02*
X0060884Y0209606D01*
X0059285Y0208008D02*
X0056815Y0208008D01*
X0059949Y0233584D02*
X0074073Y0233584D01*
X0071973Y0235183D02*
X0061864Y0235183D01*
X0062819Y0236781D02*
X0070998Y0236781D01*
X0070476Y0238380D02*
X0063260Y0238380D01*
X0051736Y0235183D02*
X0041627Y0235183D01*
X0042602Y0236781D02*
X0050781Y0236781D01*
X0138218Y0084662D02*
X0140542Y0085624D01*
X0143058Y0085624D01*
X0145382Y0084662D01*
X0147162Y0082882D01*
X0148124Y0080558D01*
X0148124Y0078042D01*
X0147162Y0075718D01*
X0145382Y0073938D01*
X0143058Y0072976D01*
X0140542Y0072976D01*
X0138218Y0073938D01*
X0136438Y0075718D01*
X0135476Y0078042D01*
X0135476Y0080558D01*
X0136438Y0082882D01*
X0138218Y0084662D01*
X0138848Y0084923D02*
X0124752Y0084923D01*
X0126720Y0083324D02*
X0136880Y0083324D01*
X0135959Y0081726D02*
X0127641Y0081726D01*
X0128124Y0080127D02*
X0135476Y0080127D01*
X0135476Y0078529D02*
X0128124Y0078529D01*
X0127664Y0076930D02*
X0135936Y0076930D01*
X0136824Y0075332D02*
X0126776Y0075332D01*
X0124887Y0073733D02*
X0138713Y0073733D01*
X0144887Y0073733D02*
X0158713Y0073733D01*
X0158218Y0073938D02*
X0160542Y0072976D01*
X0163058Y0072976D01*
X0165382Y0073938D01*
X0167162Y0075718D01*
X0168124Y0078042D01*
X0168124Y0080558D01*
X0167162Y0082882D01*
X0165382Y0084662D01*
X0163058Y0085624D01*
X0160542Y0085624D01*
X0158218Y0084662D01*
X0156438Y0082882D01*
X0155476Y0080558D01*
X0155476Y0078042D01*
X0156438Y0075718D01*
X0158218Y0073938D01*
X0156824Y0075332D02*
X0146776Y0075332D01*
X0147664Y0076930D02*
X0155936Y0076930D01*
X0155476Y0078529D02*
X0148124Y0078529D01*
X0148124Y0080127D02*
X0155476Y0080127D01*
X0155959Y0081726D02*
X0147641Y0081726D01*
X0146720Y0083324D02*
X0156880Y0083324D01*
X0158848Y0084923D02*
X0144752Y0084923D01*
X0164752Y0084923D02*
X0178848Y0084923D01*
X0178218Y0084662D02*
X0176438Y0082882D01*
X0175476Y0080558D01*
X0175476Y0078042D01*
X0176438Y0075718D01*
X0178218Y0073938D01*
X0180542Y0072976D01*
X0183058Y0072976D01*
X0185382Y0073938D01*
X0187162Y0075718D01*
X0188124Y0078042D01*
X0188124Y0080558D01*
X0187162Y0082882D01*
X0185382Y0084662D01*
X0183058Y0085624D01*
X0180542Y0085624D01*
X0178218Y0084662D01*
X0176880Y0083324D02*
X0166720Y0083324D01*
X0167641Y0081726D02*
X0175959Y0081726D01*
X0175476Y0080127D02*
X0168124Y0080127D01*
X0168124Y0078529D02*
X0175476Y0078529D01*
X0175936Y0076930D02*
X0167664Y0076930D01*
X0166776Y0075332D02*
X0176824Y0075332D01*
X0178713Y0073733D02*
X0164887Y0073733D01*
X0184887Y0073733D02*
X0198713Y0073733D01*
X0198218Y0073938D02*
X0200542Y0072976D01*
X0203058Y0072976D01*
X0205382Y0073938D01*
X0207162Y0075718D01*
X0208124Y0078042D01*
X0208124Y0080558D01*
X0207162Y0082882D01*
X0205382Y0084662D01*
X0203058Y0085624D01*
X0200542Y0085624D01*
X0198218Y0084662D01*
X0196438Y0082882D01*
X0195476Y0080558D01*
X0195476Y0078042D01*
X0196438Y0075718D01*
X0198218Y0073938D01*
X0196824Y0075332D02*
X0186776Y0075332D01*
X0187664Y0076930D02*
X0195936Y0076930D01*
X0195476Y0078529D02*
X0188124Y0078529D01*
X0188124Y0080127D02*
X0195476Y0080127D01*
X0195959Y0081726D02*
X0187641Y0081726D01*
X0186720Y0083324D02*
X0196880Y0083324D01*
X0198848Y0084923D02*
X0184752Y0084923D01*
X0204752Y0084923D02*
X0218848Y0084923D01*
X0216880Y0083324D02*
X0206720Y0083324D01*
X0207641Y0081726D02*
X0215959Y0081726D01*
X0215476Y0080127D02*
X0208124Y0080127D01*
X0208124Y0078529D02*
X0215476Y0078529D01*
X0215936Y0076930D02*
X0207664Y0076930D01*
X0206776Y0075332D02*
X0216824Y0075332D01*
X0218713Y0073733D02*
X0204887Y0073733D01*
X0400994Y0025778D02*
X0406921Y0025778D01*
X0406921Y0024179D02*
X0403420Y0024179D01*
X0405019Y0022581D02*
X0406921Y0022581D01*
X0406921Y0020982D02*
X0405783Y0020982D01*
X0406445Y0019384D02*
X0406921Y0019384D01*
X0406921Y0017785D02*
X0406699Y0017785D01*
X0406699Y0016187D02*
X0406921Y0016187D01*
X0406921Y0014588D02*
X0406599Y0014588D01*
X0406921Y0012990D02*
X0405936Y0012990D01*
X0405274Y0011391D02*
X0406921Y0011391D01*
X0406921Y0009793D02*
X0403792Y0009793D01*
X0401891Y0008194D02*
X0406921Y0008194D01*
X0406921Y0267153D02*
X0399378Y0267153D01*
X0402751Y0268751D02*
X0406921Y0268751D01*
X0406921Y0270350D02*
X0404349Y0270350D01*
X0405505Y0271948D02*
X0406921Y0271948D01*
X0406921Y0273547D02*
X0406167Y0273547D01*
X0406699Y0275145D02*
X0406921Y0275145D01*
X0406921Y0276744D02*
X0406699Y0276744D01*
X0406699Y0278342D02*
X0406921Y0278342D01*
X0406921Y0279941D02*
X0406214Y0279941D01*
X0405552Y0281539D02*
X0406921Y0281539D01*
X0406921Y0283138D02*
X0404462Y0283138D01*
X0402863Y0284737D02*
X0406921Y0284737D01*
D12*
X0336800Y0239300D02*
X0336800Y0216800D01*
X0321800Y0201800D01*
X0306800Y0201800D01*
X0241800Y0136800D01*
X0241800Y0079300D01*
X0201800Y0201800D02*
X0136800Y0201800D01*
X0156800Y0221800D01*
X0156800Y0239300D01*
X0136800Y0201800D02*
X0059300Y0201800D01*
X0096800Y0239300D01*
X0059300Y0201800D02*
X0056800Y0201800D01*
X0036800Y0221800D01*
X0036800Y0239300D01*
X0201800Y0201800D02*
X0216800Y0216800D01*
X0216800Y0239300D01*
X0201800Y0201800D02*
X0281800Y0201800D01*
X0276800Y0206800D01*
X0276800Y0239300D01*
X0281800Y0201800D02*
X0306800Y0201800D01*
D13*
X0396800Y0276800D03*
X0396800Y0016800D03*
X0016800Y0016800D03*
X0016800Y0276800D03*
M02*
