%
M48
M72
T01C0.04700
T02C0.12598
%
T01
X136957Y76800
X156643Y76800
X176957Y76800
X196643Y76800
X216957Y76800
X236643Y76800
X336957Y76800
X356643Y76800
X346957Y236800
X366643Y236800
X326643Y236800
X306957Y236800
X286643Y236800
X266957Y236800
X246643Y236800
X226957Y236800
X206643Y236800
X186957Y236800
X166643Y236800
X146957Y236800
X126643Y236800
X106957Y236800
X86643Y236800
X66957Y236800
X46643Y236800
X26957Y236800
T02
X16800Y16800
X16800Y276800
X381800Y276800
X381800Y16800
M30
