G75*
%MOIN*%
%OFA0B0*%
%FSLAX25Y25*%
%IPPOS*%
%LPD*%
%AMOC8*
5,1,8,0,0,1.08239X$1,22.5*
%
%ADD10C,0.00000*%
%ADD11C,0.14000*%
%ADD12C,0.01600*%
%ADD13C,0.05600*%
D10*
X0003000Y0001800D02*
X0003000Y0290501D01*
X0362921Y0290501D01*
X0362921Y0001800D01*
X0003000Y0001800D01*
D11*
X0123000Y0091800D03*
X0143000Y0091800D03*
X0163000Y0091800D03*
X0183000Y0091800D03*
X0203000Y0091800D03*
X0223000Y0091800D03*
X0318000Y0101800D03*
X0338000Y0101800D03*
X0333000Y0246800D03*
X0353000Y0246800D03*
X0313000Y0246800D03*
X0293000Y0246800D03*
X0273000Y0246800D03*
X0253000Y0246800D03*
X0233000Y0246800D03*
X0213000Y0246800D03*
X0193000Y0246800D03*
X0173000Y0246800D03*
X0153000Y0246800D03*
X0133000Y0246800D03*
X0113000Y0246800D03*
X0093000Y0246800D03*
X0073000Y0246800D03*
X0053000Y0246800D03*
X0033000Y0246800D03*
X0013000Y0246800D03*
D12*
X0019196Y0252766D02*
X0026521Y0252766D01*
X0026370Y0252615D02*
X0025667Y0251699D01*
X0025091Y0250700D01*
X0024649Y0249635D01*
X0024351Y0248520D01*
X0024229Y0247600D01*
X0032200Y0247600D01*
X0032200Y0255571D01*
X0031280Y0255449D01*
X0030165Y0255151D01*
X0029099Y0254709D01*
X0028100Y0254133D01*
X0027185Y0253430D01*
X0026370Y0252615D01*
X0025360Y0251168D02*
X0020499Y0251168D01*
X0020291Y0251672D02*
X0017872Y0254091D01*
X0014711Y0255400D01*
X0011289Y0255400D01*
X0008128Y0254091D01*
X0007800Y0253762D01*
X0007800Y0285701D01*
X0358121Y0285701D01*
X0358121Y0253841D01*
X0357872Y0254091D01*
X0354711Y0255400D01*
X0351289Y0255400D01*
X0348128Y0254091D01*
X0345709Y0251672D01*
X0344400Y0248511D01*
X0344400Y0245089D01*
X0344595Y0244618D01*
X0225508Y0125530D01*
X0224270Y0124292D01*
X0223600Y0122675D01*
X0223600Y0100400D01*
X0221289Y0100400D01*
X0218128Y0099091D01*
X0215709Y0096672D01*
X0214400Y0093511D01*
X0214400Y0090089D01*
X0215709Y0086928D01*
X0218128Y0084509D01*
X0221289Y0083200D01*
X0224711Y0083200D01*
X0227872Y0084509D01*
X0230291Y0086928D01*
X0231600Y0090089D01*
X0231600Y0093511D01*
X0231405Y0093982D01*
X0231730Y0094308D01*
X0232400Y0095925D01*
X0232400Y0119977D01*
X0350818Y0238395D01*
X0351289Y0238200D01*
X0354711Y0238200D01*
X0357872Y0239509D01*
X0358121Y0239759D01*
X0358121Y0006600D01*
X0007800Y0006600D01*
X0007800Y0239838D01*
X0008128Y0239509D01*
X0011289Y0238200D01*
X0014711Y0238200D01*
X0017872Y0239509D01*
X0020291Y0241928D01*
X0021600Y0245089D01*
X0021600Y0248511D01*
X0020291Y0251672D01*
X0021162Y0249569D02*
X0024632Y0249569D01*
X0024278Y0247971D02*
X0021600Y0247971D01*
X0021600Y0246372D02*
X0032200Y0246372D01*
X0032200Y0246000D02*
X0024229Y0246000D01*
X0024351Y0245080D01*
X0024649Y0243965D01*
X0025091Y0242899D01*
X0025667Y0241900D01*
X0026370Y0240985D01*
X0027185Y0240170D01*
X0028100Y0239467D01*
X0029099Y0238891D01*
X0030165Y0238449D01*
X0031280Y0238151D01*
X0032200Y0238029D01*
X0032200Y0246000D01*
X0033800Y0246000D01*
X0033800Y0247600D01*
X0041771Y0247600D01*
X0041649Y0248520D01*
X0041351Y0249635D01*
X0040909Y0250700D01*
X0040333Y0251699D01*
X0039630Y0252615D01*
X0038815Y0253430D01*
X0037899Y0254133D01*
X0036900Y0254709D01*
X0035835Y0255151D01*
X0034720Y0255449D01*
X0033800Y0255571D01*
X0033800Y0247600D01*
X0032200Y0247600D01*
X0032200Y0246000D01*
X0032200Y0244774D02*
X0033800Y0244774D01*
X0033800Y0246000D02*
X0033800Y0238029D01*
X0034720Y0238151D01*
X0035835Y0238449D01*
X0036900Y0238891D01*
X0037899Y0239467D01*
X0038815Y0240170D01*
X0039630Y0240985D01*
X0040333Y0241900D01*
X0040909Y0242899D01*
X0041351Y0243965D01*
X0041649Y0245080D01*
X0041771Y0246000D01*
X0033800Y0246000D01*
X0033800Y0246372D02*
X0044400Y0246372D01*
X0044400Y0245089D02*
X0045709Y0241928D01*
X0048128Y0239509D01*
X0048600Y0239314D01*
X0048600Y0190925D01*
X0049270Y0189308D01*
X0118600Y0119977D01*
X0118600Y0099286D01*
X0118128Y0099091D01*
X0115709Y0096672D01*
X0114400Y0093511D01*
X0114400Y0090089D01*
X0115709Y0086928D01*
X0118128Y0084509D01*
X0121289Y0083200D01*
X0124711Y0083200D01*
X0127872Y0084509D01*
X0130291Y0086928D01*
X0131600Y0090089D01*
X0131600Y0093511D01*
X0130291Y0096672D01*
X0127872Y0099091D01*
X0127400Y0099286D01*
X0127400Y0122675D01*
X0126730Y0124292D01*
X0125492Y0125530D01*
X0057400Y0193623D01*
X0057400Y0239314D01*
X0057872Y0239509D01*
X0060291Y0241928D01*
X0061600Y0245089D01*
X0061600Y0248511D01*
X0060291Y0251672D01*
X0057872Y0254091D01*
X0054711Y0255400D01*
X0051289Y0255400D01*
X0048128Y0254091D01*
X0045709Y0251672D01*
X0044400Y0248511D01*
X0044400Y0245089D01*
X0044531Y0244774D02*
X0041567Y0244774D01*
X0041024Y0243175D02*
X0045193Y0243175D01*
X0046061Y0241577D02*
X0040084Y0241577D01*
X0038565Y0239978D02*
X0047660Y0239978D01*
X0048600Y0238380D02*
X0035575Y0238380D01*
X0033800Y0238380D02*
X0032200Y0238380D01*
X0032200Y0239978D02*
X0033800Y0239978D01*
X0033800Y0241577D02*
X0032200Y0241577D01*
X0032200Y0243175D02*
X0033800Y0243175D01*
X0030424Y0238380D02*
X0015144Y0238380D01*
X0018340Y0239978D02*
X0027435Y0239978D01*
X0025916Y0241577D02*
X0019939Y0241577D01*
X0020807Y0243175D02*
X0024976Y0243175D01*
X0024433Y0244774D02*
X0021469Y0244774D01*
X0017210Y0254365D02*
X0028503Y0254365D01*
X0032200Y0254365D02*
X0033800Y0254365D01*
X0033800Y0252766D02*
X0032200Y0252766D01*
X0032200Y0251168D02*
X0033800Y0251168D01*
X0033800Y0249569D02*
X0032200Y0249569D01*
X0032200Y0247971D02*
X0033800Y0247971D01*
X0037497Y0254365D02*
X0048790Y0254365D01*
X0046804Y0252766D02*
X0039479Y0252766D01*
X0040640Y0251168D02*
X0045501Y0251168D01*
X0044838Y0249569D02*
X0041368Y0249569D01*
X0041722Y0247971D02*
X0044400Y0247971D01*
X0057210Y0254365D02*
X0068790Y0254365D01*
X0068128Y0254091D02*
X0065709Y0251672D01*
X0064400Y0248511D01*
X0064400Y0245089D01*
X0065709Y0241928D01*
X0068128Y0239509D01*
X0071289Y0238200D01*
X0074711Y0238200D01*
X0077872Y0239509D01*
X0080291Y0241928D01*
X0081600Y0245089D01*
X0081600Y0248511D01*
X0080291Y0251672D01*
X0077872Y0254091D01*
X0074711Y0255400D01*
X0071289Y0255400D01*
X0068128Y0254091D01*
X0066804Y0252766D02*
X0059196Y0252766D01*
X0060499Y0251168D02*
X0065501Y0251168D01*
X0064838Y0249569D02*
X0061162Y0249569D01*
X0061600Y0247971D02*
X0064400Y0247971D01*
X0064400Y0246372D02*
X0061600Y0246372D01*
X0061469Y0244774D02*
X0064531Y0244774D01*
X0065193Y0243175D02*
X0060807Y0243175D01*
X0059939Y0241577D02*
X0066061Y0241577D01*
X0067660Y0239978D02*
X0058340Y0239978D01*
X0057400Y0238380D02*
X0070856Y0238380D01*
X0075144Y0238380D02*
X0090424Y0238380D01*
X0090165Y0238449D02*
X0091280Y0238151D01*
X0092200Y0238029D01*
X0092200Y0246000D01*
X0093800Y0246000D01*
X0093800Y0247600D01*
X0101771Y0247600D01*
X0101649Y0248520D01*
X0101351Y0249635D01*
X0100909Y0250700D01*
X0100333Y0251699D01*
X0099630Y0252615D01*
X0098815Y0253430D01*
X0097899Y0254133D01*
X0096900Y0254709D01*
X0095835Y0255151D01*
X0094720Y0255449D01*
X0093800Y0255571D01*
X0093800Y0247600D01*
X0092200Y0247600D01*
X0092200Y0255571D01*
X0091280Y0255449D01*
X0090165Y0255151D01*
X0089099Y0254709D01*
X0088100Y0254133D01*
X0087185Y0253430D01*
X0086370Y0252615D01*
X0085667Y0251699D01*
X0085091Y0250700D01*
X0084649Y0249635D01*
X0084351Y0248520D01*
X0084229Y0247600D01*
X0092200Y0247600D01*
X0092200Y0246000D01*
X0084229Y0246000D01*
X0084351Y0245080D01*
X0084649Y0243965D01*
X0085091Y0242899D01*
X0085667Y0241900D01*
X0086370Y0240985D01*
X0087185Y0240170D01*
X0088100Y0239467D01*
X0089099Y0238891D01*
X0090165Y0238449D01*
X0092200Y0238380D02*
X0093800Y0238380D01*
X0093800Y0238029D02*
X0094720Y0238151D01*
X0095835Y0238449D01*
X0096900Y0238891D01*
X0097899Y0239467D01*
X0098815Y0240170D01*
X0099630Y0240985D01*
X0100333Y0241900D01*
X0100909Y0242899D01*
X0101351Y0243965D01*
X0101649Y0245080D01*
X0101771Y0246000D01*
X0093800Y0246000D01*
X0093800Y0238029D01*
X0095575Y0238380D02*
X0108600Y0238380D01*
X0108600Y0239314D02*
X0108600Y0150925D01*
X0109270Y0149308D01*
X0138600Y0119977D01*
X0138600Y0099286D01*
X0138128Y0099091D01*
X0135709Y0096672D01*
X0134400Y0093511D01*
X0134400Y0090089D01*
X0135709Y0086928D01*
X0138128Y0084509D01*
X0141289Y0083200D01*
X0144711Y0083200D01*
X0147872Y0084509D01*
X0150291Y0086928D01*
X0151600Y0090089D01*
X0151600Y0093511D01*
X0150291Y0096672D01*
X0147872Y0099091D01*
X0147400Y0099286D01*
X0147400Y0122675D01*
X0146730Y0124292D01*
X0145492Y0125530D01*
X0117400Y0153623D01*
X0117400Y0239314D01*
X0117872Y0239509D01*
X0120291Y0241928D01*
X0121600Y0245089D01*
X0121600Y0248511D01*
X0120291Y0251672D01*
X0117872Y0254091D01*
X0114711Y0255400D01*
X0111289Y0255400D01*
X0108128Y0254091D01*
X0105709Y0251672D01*
X0104400Y0248511D01*
X0104400Y0245089D01*
X0105709Y0241928D01*
X0108128Y0239509D01*
X0108600Y0239314D01*
X0107660Y0239978D02*
X0098565Y0239978D01*
X0100084Y0241577D02*
X0106061Y0241577D01*
X0105193Y0243175D02*
X0101024Y0243175D01*
X0101567Y0244774D02*
X0104531Y0244774D01*
X0104400Y0246372D02*
X0093800Y0246372D01*
X0093800Y0244774D02*
X0092200Y0244774D01*
X0092200Y0246372D02*
X0081600Y0246372D01*
X0081600Y0247971D02*
X0084278Y0247971D01*
X0084632Y0249569D02*
X0081162Y0249569D01*
X0080499Y0251168D02*
X0085360Y0251168D01*
X0086521Y0252766D02*
X0079196Y0252766D01*
X0077210Y0254365D02*
X0088503Y0254365D01*
X0092200Y0254365D02*
X0093800Y0254365D01*
X0093800Y0252766D02*
X0092200Y0252766D01*
X0092200Y0251168D02*
X0093800Y0251168D01*
X0093800Y0249569D02*
X0092200Y0249569D01*
X0092200Y0247971D02*
X0093800Y0247971D01*
X0093800Y0243175D02*
X0092200Y0243175D01*
X0092200Y0241577D02*
X0093800Y0241577D01*
X0093800Y0239978D02*
X0092200Y0239978D01*
X0087435Y0239978D02*
X0078340Y0239978D01*
X0079939Y0241577D02*
X0085916Y0241577D01*
X0084976Y0243175D02*
X0080807Y0243175D01*
X0081469Y0244774D02*
X0084433Y0244774D01*
X0097497Y0254365D02*
X0108790Y0254365D01*
X0106804Y0252766D02*
X0099479Y0252766D01*
X0100640Y0251168D02*
X0105501Y0251168D01*
X0104838Y0249569D02*
X0101368Y0249569D01*
X0101722Y0247971D02*
X0104400Y0247971D01*
X0108600Y0236781D02*
X0057400Y0236781D01*
X0057400Y0235183D02*
X0108600Y0235183D01*
X0108600Y0233584D02*
X0057400Y0233584D01*
X0057400Y0231986D02*
X0108600Y0231986D01*
X0108600Y0230387D02*
X0057400Y0230387D01*
X0057400Y0228789D02*
X0108600Y0228789D01*
X0108600Y0227190D02*
X0057400Y0227190D01*
X0057400Y0225592D02*
X0108600Y0225592D01*
X0108600Y0223993D02*
X0057400Y0223993D01*
X0057400Y0222395D02*
X0108600Y0222395D01*
X0108600Y0220796D02*
X0057400Y0220796D01*
X0057400Y0219198D02*
X0108600Y0219198D01*
X0108600Y0217599D02*
X0057400Y0217599D01*
X0057400Y0216001D02*
X0108600Y0216001D01*
X0108600Y0214402D02*
X0057400Y0214402D01*
X0057400Y0212803D02*
X0108600Y0212803D01*
X0108600Y0211205D02*
X0057400Y0211205D01*
X0057400Y0209606D02*
X0108600Y0209606D01*
X0108600Y0208008D02*
X0057400Y0208008D01*
X0057400Y0206409D02*
X0108600Y0206409D01*
X0108600Y0204811D02*
X0057400Y0204811D01*
X0057400Y0203212D02*
X0108600Y0203212D01*
X0108600Y0201614D02*
X0057400Y0201614D01*
X0057400Y0200015D02*
X0108600Y0200015D01*
X0108600Y0198417D02*
X0057400Y0198417D01*
X0057400Y0196818D02*
X0108600Y0196818D01*
X0108600Y0195220D02*
X0057400Y0195220D01*
X0057401Y0193621D02*
X0108600Y0193621D01*
X0108600Y0192023D02*
X0059000Y0192023D01*
X0060598Y0190424D02*
X0108600Y0190424D01*
X0108600Y0188826D02*
X0062197Y0188826D01*
X0063795Y0187227D02*
X0108600Y0187227D01*
X0108600Y0185629D02*
X0065394Y0185629D01*
X0066992Y0184030D02*
X0108600Y0184030D01*
X0108600Y0182432D02*
X0068591Y0182432D01*
X0070189Y0180833D02*
X0108600Y0180833D01*
X0108600Y0179235D02*
X0071788Y0179235D01*
X0073386Y0177636D02*
X0108600Y0177636D01*
X0108600Y0176038D02*
X0074985Y0176038D01*
X0076583Y0174439D02*
X0108600Y0174439D01*
X0108600Y0172841D02*
X0078182Y0172841D01*
X0079780Y0171242D02*
X0108600Y0171242D01*
X0108600Y0169644D02*
X0081379Y0169644D01*
X0082977Y0168045D02*
X0108600Y0168045D01*
X0108600Y0166447D02*
X0084576Y0166447D01*
X0086174Y0164848D02*
X0108600Y0164848D01*
X0108600Y0163250D02*
X0087773Y0163250D01*
X0089371Y0161651D02*
X0108600Y0161651D01*
X0108600Y0160053D02*
X0090970Y0160053D01*
X0092568Y0158454D02*
X0108600Y0158454D01*
X0108600Y0156856D02*
X0094167Y0156856D01*
X0095765Y0155257D02*
X0108600Y0155257D01*
X0108600Y0153659D02*
X0097364Y0153659D01*
X0098962Y0152060D02*
X0108600Y0152060D01*
X0108792Y0150462D02*
X0100561Y0150462D01*
X0102159Y0148863D02*
X0109714Y0148863D01*
X0111313Y0147265D02*
X0103758Y0147265D01*
X0105357Y0145666D02*
X0112911Y0145666D01*
X0114510Y0144068D02*
X0106955Y0144068D01*
X0108554Y0142469D02*
X0116108Y0142469D01*
X0117707Y0140870D02*
X0110152Y0140870D01*
X0111751Y0139272D02*
X0119305Y0139272D01*
X0120904Y0137673D02*
X0113349Y0137673D01*
X0114948Y0136075D02*
X0122502Y0136075D01*
X0124101Y0134476D02*
X0116546Y0134476D01*
X0118145Y0132878D02*
X0125700Y0132878D01*
X0127298Y0131279D02*
X0119743Y0131279D01*
X0121342Y0129681D02*
X0128897Y0129681D01*
X0130495Y0128082D02*
X0122940Y0128082D01*
X0124539Y0126484D02*
X0132094Y0126484D01*
X0133692Y0124885D02*
X0126137Y0124885D01*
X0125492Y0125530D02*
X0125492Y0125530D01*
X0127147Y0123287D02*
X0135291Y0123287D01*
X0136889Y0121688D02*
X0127400Y0121688D01*
X0127400Y0120090D02*
X0138488Y0120090D01*
X0138600Y0118491D02*
X0127400Y0118491D01*
X0127400Y0116893D02*
X0138600Y0116893D01*
X0138600Y0115294D02*
X0127400Y0115294D01*
X0127400Y0113696D02*
X0138600Y0113696D01*
X0138600Y0112097D02*
X0127400Y0112097D01*
X0127400Y0110499D02*
X0138600Y0110499D01*
X0138600Y0108900D02*
X0127400Y0108900D01*
X0127400Y0107302D02*
X0138600Y0107302D01*
X0138600Y0105703D02*
X0127400Y0105703D01*
X0127400Y0104105D02*
X0138600Y0104105D01*
X0138600Y0102506D02*
X0127400Y0102506D01*
X0127400Y0100908D02*
X0138600Y0100908D01*
X0138600Y0099309D02*
X0127400Y0099309D01*
X0129252Y0097711D02*
X0136748Y0097711D01*
X0135478Y0096112D02*
X0130522Y0096112D01*
X0131185Y0094514D02*
X0134815Y0094514D01*
X0134400Y0092915D02*
X0131600Y0092915D01*
X0131600Y0091317D02*
X0134400Y0091317D01*
X0134554Y0089718D02*
X0131446Y0089718D01*
X0130784Y0088120D02*
X0135216Y0088120D01*
X0136117Y0086521D02*
X0129883Y0086521D01*
X0128285Y0084923D02*
X0137715Y0084923D01*
X0140990Y0083324D02*
X0125010Y0083324D01*
X0120990Y0083324D02*
X0007800Y0083324D01*
X0007800Y0081726D02*
X0358121Y0081726D01*
X0358121Y0083324D02*
X0225010Y0083324D01*
X0228285Y0084923D02*
X0358121Y0084923D01*
X0358121Y0086521D02*
X0229883Y0086521D01*
X0230784Y0088120D02*
X0358121Y0088120D01*
X0358121Y0089718D02*
X0231446Y0089718D01*
X0231600Y0091317D02*
X0358121Y0091317D01*
X0358121Y0092915D02*
X0231600Y0092915D01*
X0231815Y0094514D02*
X0313124Y0094514D01*
X0313128Y0094509D02*
X0316289Y0093200D01*
X0319711Y0093200D01*
X0322872Y0094509D01*
X0325291Y0096928D01*
X0326600Y0100089D01*
X0326600Y0103511D01*
X0325291Y0106672D01*
X0322872Y0109091D01*
X0319711Y0110400D01*
X0316289Y0110400D01*
X0313128Y0109091D01*
X0310709Y0106672D01*
X0309400Y0103511D01*
X0309400Y0100089D01*
X0310709Y0096928D01*
X0313128Y0094509D01*
X0311526Y0096112D02*
X0232400Y0096112D01*
X0232400Y0097711D02*
X0310385Y0097711D01*
X0309723Y0099309D02*
X0232400Y0099309D01*
X0232400Y0100908D02*
X0309400Y0100908D01*
X0309400Y0102506D02*
X0232400Y0102506D01*
X0232400Y0104105D02*
X0309646Y0104105D01*
X0310308Y0105703D02*
X0232400Y0105703D01*
X0232400Y0107302D02*
X0311340Y0107302D01*
X0312938Y0108900D02*
X0232400Y0108900D01*
X0232400Y0110499D02*
X0336654Y0110499D01*
X0336280Y0110449D02*
X0335165Y0110151D01*
X0334099Y0109709D01*
X0333100Y0109133D01*
X0332185Y0108430D01*
X0331370Y0107615D01*
X0330667Y0106699D01*
X0330091Y0105700D01*
X0329649Y0104635D01*
X0329351Y0103520D01*
X0329229Y0102600D01*
X0337200Y0102600D01*
X0337200Y0110571D01*
X0336280Y0110449D01*
X0337200Y0110499D02*
X0338800Y0110499D01*
X0338800Y0110571D02*
X0339720Y0110449D01*
X0340835Y0110151D01*
X0341900Y0109709D01*
X0342899Y0109133D01*
X0343815Y0108430D01*
X0344630Y0107615D01*
X0345333Y0106699D01*
X0345909Y0105700D01*
X0346351Y0104635D01*
X0346649Y0103520D01*
X0346771Y0102600D01*
X0338800Y0102600D01*
X0338800Y0101000D01*
X0346771Y0101000D01*
X0346649Y0100080D01*
X0346351Y0098965D01*
X0345909Y0097899D01*
X0345333Y0096900D01*
X0344630Y0095985D01*
X0343815Y0095170D01*
X0342899Y0094467D01*
X0341900Y0093891D01*
X0340835Y0093449D01*
X0339720Y0093151D01*
X0338800Y0093029D01*
X0338800Y0101000D01*
X0337200Y0101000D01*
X0337200Y0093029D01*
X0336280Y0093151D01*
X0335165Y0093449D01*
X0334099Y0093891D01*
X0333100Y0094467D01*
X0332185Y0095170D01*
X0331370Y0095985D01*
X0330667Y0096900D01*
X0330091Y0097899D01*
X0329649Y0098965D01*
X0329351Y0100080D01*
X0329229Y0101000D01*
X0337200Y0101000D01*
X0337200Y0102600D01*
X0338800Y0102600D01*
X0338800Y0110571D01*
X0339346Y0110499D02*
X0358121Y0110499D01*
X0358121Y0112097D02*
X0232400Y0112097D01*
X0232400Y0113696D02*
X0358121Y0113696D01*
X0358121Y0115294D02*
X0232400Y0115294D01*
X0232400Y0116893D02*
X0358121Y0116893D01*
X0358121Y0118491D02*
X0232400Y0118491D01*
X0232512Y0120090D02*
X0358121Y0120090D01*
X0358121Y0121688D02*
X0234111Y0121688D01*
X0235709Y0123287D02*
X0358121Y0123287D01*
X0358121Y0124885D02*
X0237308Y0124885D01*
X0238906Y0126484D02*
X0358121Y0126484D01*
X0358121Y0128082D02*
X0240505Y0128082D01*
X0242103Y0129681D02*
X0358121Y0129681D01*
X0358121Y0131279D02*
X0243702Y0131279D01*
X0245300Y0132878D02*
X0358121Y0132878D01*
X0358121Y0134476D02*
X0246899Y0134476D01*
X0248497Y0136075D02*
X0358121Y0136075D01*
X0358121Y0137673D02*
X0250096Y0137673D01*
X0251695Y0139272D02*
X0358121Y0139272D01*
X0358121Y0140870D02*
X0253293Y0140870D01*
X0254892Y0142469D02*
X0358121Y0142469D01*
X0358121Y0144068D02*
X0256490Y0144068D01*
X0258089Y0145666D02*
X0358121Y0145666D01*
X0358121Y0147265D02*
X0259687Y0147265D01*
X0261286Y0148863D02*
X0358121Y0148863D01*
X0358121Y0150462D02*
X0262884Y0150462D01*
X0264483Y0152060D02*
X0358121Y0152060D01*
X0358121Y0153659D02*
X0266081Y0153659D01*
X0267680Y0155257D02*
X0358121Y0155257D01*
X0358121Y0156856D02*
X0269278Y0156856D01*
X0270877Y0158454D02*
X0358121Y0158454D01*
X0358121Y0160053D02*
X0272475Y0160053D01*
X0274074Y0161651D02*
X0358121Y0161651D01*
X0358121Y0163250D02*
X0275672Y0163250D01*
X0277271Y0164848D02*
X0358121Y0164848D01*
X0358121Y0166447D02*
X0278869Y0166447D01*
X0280468Y0168045D02*
X0358121Y0168045D01*
X0358121Y0169644D02*
X0282066Y0169644D01*
X0283665Y0171242D02*
X0358121Y0171242D01*
X0358121Y0172841D02*
X0285263Y0172841D01*
X0286862Y0174439D02*
X0358121Y0174439D01*
X0358121Y0176038D02*
X0288460Y0176038D01*
X0290059Y0177636D02*
X0358121Y0177636D01*
X0358121Y0179235D02*
X0291657Y0179235D01*
X0293256Y0180833D02*
X0358121Y0180833D01*
X0358121Y0182432D02*
X0294854Y0182432D01*
X0296453Y0184030D02*
X0358121Y0184030D01*
X0358121Y0185629D02*
X0298051Y0185629D01*
X0299650Y0187227D02*
X0358121Y0187227D01*
X0358121Y0188826D02*
X0301248Y0188826D01*
X0302847Y0190424D02*
X0358121Y0190424D01*
X0358121Y0192023D02*
X0304445Y0192023D01*
X0306044Y0193621D02*
X0358121Y0193621D01*
X0358121Y0195220D02*
X0307642Y0195220D01*
X0309241Y0196818D02*
X0358121Y0196818D01*
X0358121Y0198417D02*
X0310839Y0198417D01*
X0312438Y0200015D02*
X0358121Y0200015D01*
X0358121Y0201614D02*
X0314036Y0201614D01*
X0315635Y0203212D02*
X0358121Y0203212D01*
X0358121Y0204811D02*
X0317233Y0204811D01*
X0318832Y0206409D02*
X0358121Y0206409D01*
X0358121Y0208008D02*
X0320430Y0208008D01*
X0322029Y0209606D02*
X0358121Y0209606D01*
X0358121Y0211205D02*
X0323628Y0211205D01*
X0325226Y0212803D02*
X0358121Y0212803D01*
X0358121Y0214402D02*
X0326825Y0214402D01*
X0328423Y0216001D02*
X0358121Y0216001D01*
X0358121Y0217599D02*
X0330022Y0217599D01*
X0331620Y0219198D02*
X0358121Y0219198D01*
X0358121Y0220796D02*
X0333219Y0220796D01*
X0334817Y0222395D02*
X0358121Y0222395D01*
X0358121Y0223993D02*
X0336416Y0223993D01*
X0338014Y0225592D02*
X0358121Y0225592D01*
X0358121Y0227190D02*
X0339613Y0227190D01*
X0341211Y0228789D02*
X0358121Y0228789D01*
X0358121Y0230387D02*
X0342810Y0230387D01*
X0344408Y0231986D02*
X0358121Y0231986D01*
X0358121Y0233584D02*
X0346007Y0233584D01*
X0347605Y0235183D02*
X0358121Y0235183D01*
X0358121Y0236781D02*
X0349204Y0236781D01*
X0350802Y0238380D02*
X0350856Y0238380D01*
X0355144Y0238380D02*
X0358121Y0238380D01*
X0344531Y0244774D02*
X0341567Y0244774D01*
X0341649Y0245080D02*
X0341771Y0246000D01*
X0333800Y0246000D01*
X0333800Y0247600D01*
X0341771Y0247600D01*
X0341649Y0248520D01*
X0341351Y0249635D01*
X0340909Y0250700D01*
X0340333Y0251699D01*
X0339630Y0252615D01*
X0338815Y0253430D01*
X0337899Y0254133D01*
X0336900Y0254709D01*
X0335835Y0255151D01*
X0334720Y0255449D01*
X0333800Y0255571D01*
X0333800Y0247600D01*
X0332200Y0247600D01*
X0332200Y0255571D01*
X0331280Y0255449D01*
X0330165Y0255151D01*
X0329099Y0254709D01*
X0328100Y0254133D01*
X0327185Y0253430D01*
X0326370Y0252615D01*
X0325667Y0251699D01*
X0325091Y0250700D01*
X0324649Y0249635D01*
X0324351Y0248520D01*
X0324229Y0247600D01*
X0332200Y0247600D01*
X0332200Y0246000D01*
X0333800Y0246000D01*
X0333800Y0238029D01*
X0334720Y0238151D01*
X0335835Y0238449D01*
X0336900Y0238891D01*
X0337899Y0239467D01*
X0338815Y0240170D01*
X0339630Y0240985D01*
X0340333Y0241900D01*
X0340909Y0242899D01*
X0341351Y0243965D01*
X0341649Y0245080D01*
X0341024Y0243175D02*
X0343153Y0243175D01*
X0341554Y0241577D02*
X0340084Y0241577D01*
X0339956Y0239978D02*
X0338565Y0239978D01*
X0338357Y0238380D02*
X0335575Y0238380D01*
X0333800Y0238380D02*
X0332200Y0238380D01*
X0332200Y0238029D02*
X0332200Y0246000D01*
X0324229Y0246000D01*
X0324351Y0245080D01*
X0324649Y0243965D01*
X0325091Y0242899D01*
X0325667Y0241900D01*
X0326370Y0240985D01*
X0327185Y0240170D01*
X0328100Y0239467D01*
X0329099Y0238891D01*
X0330165Y0238449D01*
X0331280Y0238151D01*
X0332200Y0238029D01*
X0330424Y0238380D02*
X0315144Y0238380D01*
X0314711Y0238200D02*
X0317872Y0239509D01*
X0320291Y0241928D01*
X0321600Y0245089D01*
X0321600Y0248511D01*
X0320291Y0251672D01*
X0317872Y0254091D01*
X0314711Y0255400D01*
X0311289Y0255400D01*
X0308128Y0254091D01*
X0305709Y0251672D01*
X0304400Y0248511D01*
X0304400Y0245089D01*
X0305709Y0241928D01*
X0308128Y0239509D01*
X0311289Y0238200D01*
X0314711Y0238200D01*
X0310856Y0238380D02*
X0297400Y0238380D01*
X0297400Y0239314D02*
X0297872Y0239509D01*
X0300291Y0241928D01*
X0301600Y0245089D01*
X0301600Y0248511D01*
X0300291Y0251672D01*
X0297872Y0254091D01*
X0294711Y0255400D01*
X0291289Y0255400D01*
X0288128Y0254091D01*
X0285709Y0251672D01*
X0284400Y0248511D01*
X0284400Y0245089D01*
X0285709Y0241928D01*
X0288128Y0239509D01*
X0288600Y0239314D01*
X0288600Y0213623D01*
X0200508Y0125530D01*
X0199270Y0124292D01*
X0198600Y0122675D01*
X0198600Y0099286D01*
X0198128Y0099091D01*
X0195709Y0096672D01*
X0194400Y0093511D01*
X0194400Y0090089D01*
X0195709Y0086928D01*
X0198128Y0084509D01*
X0201289Y0083200D01*
X0204711Y0083200D01*
X0207872Y0084509D01*
X0210291Y0086928D01*
X0211600Y0090089D01*
X0211600Y0093511D01*
X0210291Y0096672D01*
X0207872Y0099091D01*
X0207400Y0099286D01*
X0207400Y0119977D01*
X0296730Y0209308D01*
X0297400Y0210925D01*
X0297400Y0239314D01*
X0298340Y0239978D02*
X0307660Y0239978D01*
X0306061Y0241577D02*
X0299939Y0241577D01*
X0300807Y0243175D02*
X0305193Y0243175D01*
X0304531Y0244774D02*
X0301469Y0244774D01*
X0301600Y0246372D02*
X0304400Y0246372D01*
X0304400Y0247971D02*
X0301600Y0247971D01*
X0301162Y0249569D02*
X0304838Y0249569D01*
X0305501Y0251168D02*
X0300499Y0251168D01*
X0299196Y0252766D02*
X0306804Y0252766D01*
X0308790Y0254365D02*
X0297210Y0254365D01*
X0288790Y0254365D02*
X0277497Y0254365D01*
X0277899Y0254133D02*
X0276900Y0254709D01*
X0275835Y0255151D01*
X0274720Y0255449D01*
X0273800Y0255571D01*
X0273800Y0247600D01*
X0281771Y0247600D01*
X0281649Y0248520D01*
X0281351Y0249635D01*
X0280909Y0250700D01*
X0280333Y0251699D01*
X0279630Y0252615D01*
X0278815Y0253430D01*
X0277899Y0254133D01*
X0279479Y0252766D02*
X0286804Y0252766D01*
X0285501Y0251168D02*
X0280640Y0251168D01*
X0281368Y0249569D02*
X0284838Y0249569D01*
X0284400Y0247971D02*
X0281722Y0247971D01*
X0281771Y0246000D02*
X0273800Y0246000D01*
X0273800Y0247600D01*
X0272200Y0247600D01*
X0272200Y0255571D01*
X0271280Y0255449D01*
X0270165Y0255151D01*
X0269099Y0254709D01*
X0268100Y0254133D01*
X0267185Y0253430D01*
X0266370Y0252615D01*
X0265667Y0251699D01*
X0265091Y0250700D01*
X0264649Y0249635D01*
X0264351Y0248520D01*
X0264229Y0247600D01*
X0272200Y0247600D01*
X0272200Y0246000D01*
X0273800Y0246000D01*
X0273800Y0238029D01*
X0274720Y0238151D01*
X0275835Y0238449D01*
X0276900Y0238891D01*
X0277899Y0239467D01*
X0278815Y0240170D01*
X0279630Y0240985D01*
X0280333Y0241900D01*
X0280909Y0242899D01*
X0281351Y0243965D01*
X0281649Y0245080D01*
X0281771Y0246000D01*
X0281567Y0244774D02*
X0284531Y0244774D01*
X0284400Y0246372D02*
X0273800Y0246372D01*
X0273800Y0244774D02*
X0272200Y0244774D01*
X0272200Y0246000D02*
X0272200Y0238029D01*
X0271280Y0238151D01*
X0270165Y0238449D01*
X0269099Y0238891D01*
X0268100Y0239467D01*
X0267185Y0240170D01*
X0266370Y0240985D01*
X0265667Y0241900D01*
X0265091Y0242899D01*
X0264649Y0243965D01*
X0264351Y0245080D01*
X0264229Y0246000D01*
X0272200Y0246000D01*
X0272200Y0246372D02*
X0261600Y0246372D01*
X0261600Y0245089D02*
X0260291Y0241928D01*
X0257872Y0239509D01*
X0254711Y0238200D01*
X0251289Y0238200D01*
X0248128Y0239509D01*
X0245709Y0241928D01*
X0244400Y0245089D01*
X0244400Y0248511D01*
X0245709Y0251672D01*
X0248128Y0254091D01*
X0251289Y0255400D01*
X0254711Y0255400D01*
X0257872Y0254091D01*
X0260291Y0251672D01*
X0261600Y0248511D01*
X0261600Y0245089D01*
X0261469Y0244774D02*
X0264433Y0244774D01*
X0264976Y0243175D02*
X0260807Y0243175D01*
X0259939Y0241577D02*
X0265916Y0241577D01*
X0267435Y0239978D02*
X0258340Y0239978D01*
X0255144Y0238380D02*
X0270424Y0238380D01*
X0272200Y0238380D02*
X0273800Y0238380D01*
X0273800Y0239978D02*
X0272200Y0239978D01*
X0272200Y0241577D02*
X0273800Y0241577D01*
X0273800Y0243175D02*
X0272200Y0243175D01*
X0275575Y0238380D02*
X0288600Y0238380D01*
X0288600Y0236781D02*
X0237400Y0236781D01*
X0237400Y0235183D02*
X0288600Y0235183D01*
X0288600Y0233584D02*
X0237400Y0233584D01*
X0237400Y0231986D02*
X0288600Y0231986D01*
X0288600Y0230387D02*
X0237400Y0230387D01*
X0237400Y0228789D02*
X0288600Y0228789D01*
X0288600Y0227190D02*
X0237400Y0227190D01*
X0237400Y0225592D02*
X0288600Y0225592D01*
X0288600Y0223993D02*
X0237400Y0223993D01*
X0237400Y0222395D02*
X0288600Y0222395D01*
X0288600Y0220796D02*
X0237400Y0220796D01*
X0237400Y0219198D02*
X0288600Y0219198D01*
X0288600Y0217599D02*
X0237400Y0217599D01*
X0237400Y0216001D02*
X0288600Y0216001D01*
X0288600Y0214402D02*
X0237400Y0214402D01*
X0237400Y0212803D02*
X0287781Y0212803D01*
X0286182Y0211205D02*
X0237400Y0211205D01*
X0237400Y0209606D02*
X0284584Y0209606D01*
X0282985Y0208008D02*
X0237400Y0208008D01*
X0237400Y0206409D02*
X0281387Y0206409D01*
X0279788Y0204811D02*
X0237400Y0204811D01*
X0237400Y0203212D02*
X0278190Y0203212D01*
X0276591Y0201614D02*
X0237400Y0201614D01*
X0237400Y0200015D02*
X0274993Y0200015D01*
X0273394Y0198417D02*
X0237400Y0198417D01*
X0237400Y0196818D02*
X0271796Y0196818D01*
X0270197Y0195220D02*
X0237400Y0195220D01*
X0237400Y0193621D02*
X0268599Y0193621D01*
X0267000Y0192023D02*
X0237400Y0192023D01*
X0237400Y0190424D02*
X0265402Y0190424D01*
X0263803Y0188826D02*
X0237400Y0188826D01*
X0237400Y0187227D02*
X0262205Y0187227D01*
X0260606Y0185629D02*
X0237400Y0185629D01*
X0237400Y0184030D02*
X0259008Y0184030D01*
X0257409Y0182432D02*
X0237400Y0182432D01*
X0237400Y0180833D02*
X0255811Y0180833D01*
X0254212Y0179235D02*
X0237400Y0179235D01*
X0237400Y0177636D02*
X0252614Y0177636D01*
X0251015Y0176038D02*
X0237400Y0176038D01*
X0237400Y0174439D02*
X0249417Y0174439D01*
X0247818Y0172841D02*
X0237400Y0172841D01*
X0237400Y0171242D02*
X0246220Y0171242D01*
X0244621Y0169644D02*
X0236869Y0169644D01*
X0236730Y0169308D02*
X0237400Y0170925D01*
X0237400Y0239314D01*
X0237872Y0239509D01*
X0240291Y0241928D01*
X0241600Y0245089D01*
X0241600Y0248511D01*
X0240291Y0251672D01*
X0237872Y0254091D01*
X0234711Y0255400D01*
X0231289Y0255400D01*
X0228128Y0254091D01*
X0225709Y0251672D01*
X0224400Y0248511D01*
X0224400Y0245089D01*
X0225709Y0241928D01*
X0228128Y0239509D01*
X0228600Y0239314D01*
X0228600Y0173623D01*
X0180508Y0125530D01*
X0179270Y0124292D01*
X0178600Y0122675D01*
X0178600Y0099286D01*
X0178128Y0099091D01*
X0175709Y0096672D01*
X0174400Y0093511D01*
X0174400Y0090089D01*
X0175709Y0086928D01*
X0178128Y0084509D01*
X0181289Y0083200D01*
X0184711Y0083200D01*
X0187872Y0084509D01*
X0190291Y0086928D01*
X0191600Y0090089D01*
X0191600Y0093511D01*
X0190291Y0096672D01*
X0187872Y0099091D01*
X0187400Y0099286D01*
X0187400Y0119977D01*
X0236730Y0169308D01*
X0235468Y0168045D02*
X0243023Y0168045D01*
X0241424Y0166447D02*
X0233869Y0166447D01*
X0232271Y0164848D02*
X0239826Y0164848D01*
X0238227Y0163250D02*
X0230672Y0163250D01*
X0229074Y0161651D02*
X0236629Y0161651D01*
X0235030Y0160053D02*
X0227475Y0160053D01*
X0225877Y0158454D02*
X0233432Y0158454D01*
X0231833Y0156856D02*
X0224278Y0156856D01*
X0222680Y0155257D02*
X0230235Y0155257D01*
X0228636Y0153659D02*
X0221081Y0153659D01*
X0219483Y0152060D02*
X0227038Y0152060D01*
X0225439Y0150462D02*
X0217884Y0150462D01*
X0216286Y0148863D02*
X0223841Y0148863D01*
X0222242Y0147265D02*
X0214687Y0147265D01*
X0213089Y0145666D02*
X0220643Y0145666D01*
X0219045Y0144068D02*
X0211490Y0144068D01*
X0209892Y0142469D02*
X0217446Y0142469D01*
X0215848Y0140870D02*
X0208293Y0140870D01*
X0206695Y0139272D02*
X0214249Y0139272D01*
X0212651Y0137673D02*
X0205096Y0137673D01*
X0203497Y0136075D02*
X0211052Y0136075D01*
X0209454Y0134476D02*
X0201899Y0134476D01*
X0200300Y0132878D02*
X0207855Y0132878D01*
X0206257Y0131279D02*
X0198702Y0131279D01*
X0197103Y0129681D02*
X0204658Y0129681D01*
X0203060Y0128082D02*
X0195505Y0128082D01*
X0193906Y0126484D02*
X0201461Y0126484D01*
X0199863Y0124885D02*
X0192308Y0124885D01*
X0190709Y0123287D02*
X0198853Y0123287D01*
X0198600Y0121688D02*
X0189111Y0121688D01*
X0187512Y0120090D02*
X0198600Y0120090D01*
X0198600Y0118491D02*
X0187400Y0118491D01*
X0187400Y0116893D02*
X0198600Y0116893D01*
X0198600Y0115294D02*
X0187400Y0115294D01*
X0187400Y0113696D02*
X0198600Y0113696D01*
X0198600Y0112097D02*
X0187400Y0112097D01*
X0187400Y0110499D02*
X0198600Y0110499D01*
X0198600Y0108900D02*
X0187400Y0108900D01*
X0187400Y0107302D02*
X0198600Y0107302D01*
X0198600Y0105703D02*
X0187400Y0105703D01*
X0187400Y0104105D02*
X0198600Y0104105D01*
X0198600Y0102506D02*
X0187400Y0102506D01*
X0187400Y0100908D02*
X0198600Y0100908D01*
X0198600Y0099309D02*
X0187400Y0099309D01*
X0189252Y0097711D02*
X0196748Y0097711D01*
X0195478Y0096112D02*
X0190522Y0096112D01*
X0191185Y0094514D02*
X0194815Y0094514D01*
X0194400Y0092915D02*
X0191600Y0092915D01*
X0191600Y0091317D02*
X0194400Y0091317D01*
X0194554Y0089718D02*
X0191446Y0089718D01*
X0190784Y0088120D02*
X0195216Y0088120D01*
X0196117Y0086521D02*
X0189883Y0086521D01*
X0188285Y0084923D02*
X0197715Y0084923D01*
X0200990Y0083324D02*
X0185010Y0083324D01*
X0180990Y0083324D02*
X0165010Y0083324D01*
X0164711Y0083200D02*
X0167872Y0084509D01*
X0170291Y0086928D01*
X0171600Y0090089D01*
X0171600Y0093511D01*
X0170291Y0096672D01*
X0167872Y0099091D01*
X0167400Y0099286D01*
X0167400Y0119977D01*
X0176730Y0129308D01*
X0177400Y0130925D01*
X0177400Y0239314D01*
X0177872Y0239509D01*
X0180291Y0241928D01*
X0181600Y0245089D01*
X0181600Y0248511D01*
X0180291Y0251672D01*
X0177872Y0254091D01*
X0174711Y0255400D01*
X0171289Y0255400D01*
X0168128Y0254091D01*
X0165709Y0251672D01*
X0164400Y0248511D01*
X0164400Y0245089D01*
X0165709Y0241928D01*
X0168128Y0239509D01*
X0168600Y0239314D01*
X0168600Y0133623D01*
X0160508Y0125530D01*
X0159270Y0124292D01*
X0158600Y0122675D01*
X0158600Y0099286D01*
X0158128Y0099091D01*
X0155709Y0096672D01*
X0154400Y0093511D01*
X0154400Y0090089D01*
X0155709Y0086928D01*
X0158128Y0084509D01*
X0161289Y0083200D01*
X0164711Y0083200D01*
X0160990Y0083324D02*
X0145010Y0083324D01*
X0148285Y0084923D02*
X0157715Y0084923D01*
X0156117Y0086521D02*
X0149883Y0086521D01*
X0150784Y0088120D02*
X0155216Y0088120D01*
X0154554Y0089718D02*
X0151446Y0089718D01*
X0151600Y0091317D02*
X0154400Y0091317D01*
X0154400Y0092915D02*
X0151600Y0092915D01*
X0151185Y0094514D02*
X0154815Y0094514D01*
X0155478Y0096112D02*
X0150522Y0096112D01*
X0149252Y0097711D02*
X0156748Y0097711D01*
X0158600Y0099309D02*
X0147400Y0099309D01*
X0147400Y0100908D02*
X0158600Y0100908D01*
X0158600Y0102506D02*
X0147400Y0102506D01*
X0147400Y0104105D02*
X0158600Y0104105D01*
X0158600Y0105703D02*
X0147400Y0105703D01*
X0147400Y0107302D02*
X0158600Y0107302D01*
X0158600Y0108900D02*
X0147400Y0108900D01*
X0147400Y0110499D02*
X0158600Y0110499D01*
X0158600Y0112097D02*
X0147400Y0112097D01*
X0147400Y0113696D02*
X0158600Y0113696D01*
X0158600Y0115294D02*
X0147400Y0115294D01*
X0147400Y0116893D02*
X0158600Y0116893D01*
X0158600Y0118491D02*
X0147400Y0118491D01*
X0147400Y0120090D02*
X0158600Y0120090D01*
X0158600Y0121688D02*
X0147400Y0121688D01*
X0147147Y0123287D02*
X0158853Y0123287D01*
X0159863Y0124885D02*
X0146137Y0124885D01*
X0144539Y0126484D02*
X0161461Y0126484D01*
X0163060Y0128082D02*
X0142940Y0128082D01*
X0141342Y0129681D02*
X0164658Y0129681D01*
X0166257Y0131279D02*
X0139743Y0131279D01*
X0138145Y0132878D02*
X0167855Y0132878D01*
X0168600Y0134476D02*
X0136546Y0134476D01*
X0134948Y0136075D02*
X0168600Y0136075D01*
X0168600Y0137673D02*
X0133349Y0137673D01*
X0131751Y0139272D02*
X0168600Y0139272D01*
X0168600Y0140870D02*
X0130152Y0140870D01*
X0128554Y0142469D02*
X0168600Y0142469D01*
X0168600Y0144068D02*
X0126955Y0144068D01*
X0125357Y0145666D02*
X0168600Y0145666D01*
X0168600Y0147265D02*
X0123758Y0147265D01*
X0122159Y0148863D02*
X0168600Y0148863D01*
X0168600Y0150462D02*
X0120561Y0150462D01*
X0118962Y0152060D02*
X0168600Y0152060D01*
X0168600Y0153659D02*
X0117400Y0153659D01*
X0117400Y0155257D02*
X0168600Y0155257D01*
X0168600Y0156856D02*
X0117400Y0156856D01*
X0117400Y0158454D02*
X0168600Y0158454D01*
X0168600Y0160053D02*
X0117400Y0160053D01*
X0117400Y0161651D02*
X0168600Y0161651D01*
X0168600Y0163250D02*
X0117400Y0163250D01*
X0117400Y0164848D02*
X0168600Y0164848D01*
X0168600Y0166447D02*
X0117400Y0166447D01*
X0117400Y0168045D02*
X0168600Y0168045D01*
X0168600Y0169644D02*
X0117400Y0169644D01*
X0117400Y0171242D02*
X0168600Y0171242D01*
X0168600Y0172841D02*
X0117400Y0172841D01*
X0117400Y0174439D02*
X0168600Y0174439D01*
X0168600Y0176038D02*
X0117400Y0176038D01*
X0117400Y0177636D02*
X0168600Y0177636D01*
X0168600Y0179235D02*
X0117400Y0179235D01*
X0117400Y0180833D02*
X0168600Y0180833D01*
X0168600Y0182432D02*
X0117400Y0182432D01*
X0117400Y0184030D02*
X0168600Y0184030D01*
X0168600Y0185629D02*
X0117400Y0185629D01*
X0117400Y0187227D02*
X0168600Y0187227D01*
X0168600Y0188826D02*
X0117400Y0188826D01*
X0117400Y0190424D02*
X0168600Y0190424D01*
X0168600Y0192023D02*
X0117400Y0192023D01*
X0117400Y0193621D02*
X0168600Y0193621D01*
X0168600Y0195220D02*
X0117400Y0195220D01*
X0117400Y0196818D02*
X0168600Y0196818D01*
X0168600Y0198417D02*
X0117400Y0198417D01*
X0117400Y0200015D02*
X0168600Y0200015D01*
X0168600Y0201614D02*
X0117400Y0201614D01*
X0117400Y0203212D02*
X0168600Y0203212D01*
X0168600Y0204811D02*
X0117400Y0204811D01*
X0117400Y0206409D02*
X0168600Y0206409D01*
X0168600Y0208008D02*
X0117400Y0208008D01*
X0117400Y0209606D02*
X0168600Y0209606D01*
X0168600Y0211205D02*
X0117400Y0211205D01*
X0117400Y0212803D02*
X0168600Y0212803D01*
X0168600Y0214402D02*
X0117400Y0214402D01*
X0117400Y0216001D02*
X0168600Y0216001D01*
X0168600Y0217599D02*
X0117400Y0217599D01*
X0117400Y0219198D02*
X0168600Y0219198D01*
X0168600Y0220796D02*
X0117400Y0220796D01*
X0117400Y0222395D02*
X0168600Y0222395D01*
X0168600Y0223993D02*
X0117400Y0223993D01*
X0117400Y0225592D02*
X0168600Y0225592D01*
X0168600Y0227190D02*
X0117400Y0227190D01*
X0117400Y0228789D02*
X0168600Y0228789D01*
X0168600Y0230387D02*
X0117400Y0230387D01*
X0117400Y0231986D02*
X0168600Y0231986D01*
X0168600Y0233584D02*
X0117400Y0233584D01*
X0117400Y0235183D02*
X0168600Y0235183D01*
X0168600Y0236781D02*
X0117400Y0236781D01*
X0117400Y0238380D02*
X0130856Y0238380D01*
X0131289Y0238200D02*
X0134711Y0238200D01*
X0137872Y0239509D01*
X0140291Y0241928D01*
X0141600Y0245089D01*
X0141600Y0248511D01*
X0140291Y0251672D01*
X0137872Y0254091D01*
X0134711Y0255400D01*
X0131289Y0255400D01*
X0128128Y0254091D01*
X0125709Y0251672D01*
X0124400Y0248511D01*
X0124400Y0245089D01*
X0125709Y0241928D01*
X0128128Y0239509D01*
X0131289Y0238200D01*
X0127660Y0239978D02*
X0118340Y0239978D01*
X0119939Y0241577D02*
X0126061Y0241577D01*
X0125193Y0243175D02*
X0120807Y0243175D01*
X0121469Y0244774D02*
X0124531Y0244774D01*
X0124400Y0246372D02*
X0121600Y0246372D01*
X0121600Y0247971D02*
X0124400Y0247971D01*
X0124838Y0249569D02*
X0121162Y0249569D01*
X0120499Y0251168D02*
X0125501Y0251168D01*
X0126804Y0252766D02*
X0119196Y0252766D01*
X0117210Y0254365D02*
X0128790Y0254365D01*
X0137210Y0254365D02*
X0148503Y0254365D01*
X0148100Y0254133D02*
X0147185Y0253430D01*
X0146370Y0252615D01*
X0145667Y0251699D01*
X0145091Y0250700D01*
X0144649Y0249635D01*
X0144351Y0248520D01*
X0144229Y0247600D01*
X0152200Y0247600D01*
X0152200Y0255571D01*
X0151280Y0255449D01*
X0150165Y0255151D01*
X0149099Y0254709D01*
X0148100Y0254133D01*
X0146521Y0252766D02*
X0139196Y0252766D01*
X0140499Y0251168D02*
X0145360Y0251168D01*
X0144632Y0249569D02*
X0141162Y0249569D01*
X0141600Y0247971D02*
X0144278Y0247971D01*
X0144229Y0246000D02*
X0144351Y0245080D01*
X0144649Y0243965D01*
X0145091Y0242899D01*
X0145667Y0241900D01*
X0146370Y0240985D01*
X0147185Y0240170D01*
X0148100Y0239467D01*
X0149099Y0238891D01*
X0150165Y0238449D01*
X0151280Y0238151D01*
X0152200Y0238029D01*
X0152200Y0246000D01*
X0153800Y0246000D01*
X0153800Y0247600D01*
X0161771Y0247600D01*
X0161649Y0248520D01*
X0161351Y0249635D01*
X0160909Y0250700D01*
X0160333Y0251699D01*
X0159630Y0252615D01*
X0158815Y0253430D01*
X0157899Y0254133D01*
X0156900Y0254709D01*
X0155835Y0255151D01*
X0154720Y0255449D01*
X0153800Y0255571D01*
X0153800Y0247600D01*
X0152200Y0247600D01*
X0152200Y0246000D01*
X0144229Y0246000D01*
X0144433Y0244774D02*
X0141469Y0244774D01*
X0141600Y0246372D02*
X0152200Y0246372D01*
X0152200Y0244774D02*
X0153800Y0244774D01*
X0153800Y0246000D02*
X0153800Y0238029D01*
X0154720Y0238151D01*
X0155835Y0238449D01*
X0156900Y0238891D01*
X0157899Y0239467D01*
X0158815Y0240170D01*
X0159630Y0240985D01*
X0160333Y0241900D01*
X0160909Y0242899D01*
X0161351Y0243965D01*
X0161649Y0245080D01*
X0161771Y0246000D01*
X0153800Y0246000D01*
X0153800Y0246372D02*
X0164400Y0246372D01*
X0164400Y0247971D02*
X0161722Y0247971D01*
X0161368Y0249569D02*
X0164838Y0249569D01*
X0165501Y0251168D02*
X0160640Y0251168D01*
X0159479Y0252766D02*
X0166804Y0252766D01*
X0168790Y0254365D02*
X0157497Y0254365D01*
X0153800Y0254365D02*
X0152200Y0254365D01*
X0152200Y0252766D02*
X0153800Y0252766D01*
X0153800Y0251168D02*
X0152200Y0251168D01*
X0152200Y0249569D02*
X0153800Y0249569D01*
X0153800Y0247971D02*
X0152200Y0247971D01*
X0152200Y0243175D02*
X0153800Y0243175D01*
X0153800Y0241577D02*
X0152200Y0241577D01*
X0152200Y0239978D02*
X0153800Y0239978D01*
X0153800Y0238380D02*
X0152200Y0238380D01*
X0150424Y0238380D02*
X0135144Y0238380D01*
X0138340Y0239978D02*
X0147435Y0239978D01*
X0145916Y0241577D02*
X0139939Y0241577D01*
X0140807Y0243175D02*
X0144976Y0243175D01*
X0155575Y0238380D02*
X0168600Y0238380D01*
X0167660Y0239978D02*
X0158565Y0239978D01*
X0160084Y0241577D02*
X0166061Y0241577D01*
X0165193Y0243175D02*
X0161024Y0243175D01*
X0161567Y0244774D02*
X0164531Y0244774D01*
X0177400Y0238380D02*
X0190856Y0238380D01*
X0191289Y0238200D02*
X0194711Y0238200D01*
X0197872Y0239509D01*
X0200291Y0241928D01*
X0201600Y0245089D01*
X0201600Y0248511D01*
X0200291Y0251672D01*
X0197872Y0254091D01*
X0194711Y0255400D01*
X0191289Y0255400D01*
X0188128Y0254091D01*
X0185709Y0251672D01*
X0184400Y0248511D01*
X0184400Y0245089D01*
X0185709Y0241928D01*
X0188128Y0239509D01*
X0191289Y0238200D01*
X0195144Y0238380D02*
X0210424Y0238380D01*
X0210165Y0238449D02*
X0211280Y0238151D01*
X0212200Y0238029D01*
X0212200Y0246000D01*
X0213800Y0246000D01*
X0213800Y0247600D01*
X0221771Y0247600D01*
X0221649Y0248520D01*
X0221351Y0249635D01*
X0220909Y0250700D01*
X0220333Y0251699D01*
X0219630Y0252615D01*
X0218815Y0253430D01*
X0217899Y0254133D01*
X0216900Y0254709D01*
X0215835Y0255151D01*
X0214720Y0255449D01*
X0213800Y0255571D01*
X0213800Y0247600D01*
X0212200Y0247600D01*
X0212200Y0255571D01*
X0211280Y0255449D01*
X0210165Y0255151D01*
X0209099Y0254709D01*
X0208100Y0254133D01*
X0207185Y0253430D01*
X0206370Y0252615D01*
X0205667Y0251699D01*
X0205091Y0250700D01*
X0204649Y0249635D01*
X0204351Y0248520D01*
X0204229Y0247600D01*
X0212200Y0247600D01*
X0212200Y0246000D01*
X0204229Y0246000D01*
X0204351Y0245080D01*
X0204649Y0243965D01*
X0205091Y0242899D01*
X0205667Y0241900D01*
X0206370Y0240985D01*
X0207185Y0240170D01*
X0208100Y0239467D01*
X0209099Y0238891D01*
X0210165Y0238449D01*
X0212200Y0238380D02*
X0213800Y0238380D01*
X0213800Y0238029D02*
X0214720Y0238151D01*
X0215835Y0238449D01*
X0216900Y0238891D01*
X0217899Y0239467D01*
X0218815Y0240170D01*
X0219630Y0240985D01*
X0220333Y0241900D01*
X0220909Y0242899D01*
X0221351Y0243965D01*
X0221649Y0245080D01*
X0221771Y0246000D01*
X0213800Y0246000D01*
X0213800Y0238029D01*
X0215575Y0238380D02*
X0228600Y0238380D01*
X0228600Y0236781D02*
X0177400Y0236781D01*
X0177400Y0235183D02*
X0228600Y0235183D01*
X0228600Y0233584D02*
X0177400Y0233584D01*
X0177400Y0231986D02*
X0228600Y0231986D01*
X0228600Y0230387D02*
X0177400Y0230387D01*
X0177400Y0228789D02*
X0228600Y0228789D01*
X0228600Y0227190D02*
X0177400Y0227190D01*
X0177400Y0225592D02*
X0228600Y0225592D01*
X0228600Y0223993D02*
X0177400Y0223993D01*
X0177400Y0222395D02*
X0228600Y0222395D01*
X0228600Y0220796D02*
X0177400Y0220796D01*
X0177400Y0219198D02*
X0228600Y0219198D01*
X0228600Y0217599D02*
X0177400Y0217599D01*
X0177400Y0216001D02*
X0228600Y0216001D01*
X0228600Y0214402D02*
X0177400Y0214402D01*
X0177400Y0212803D02*
X0228600Y0212803D01*
X0228600Y0211205D02*
X0177400Y0211205D01*
X0177400Y0209606D02*
X0228600Y0209606D01*
X0228600Y0208008D02*
X0177400Y0208008D01*
X0177400Y0206409D02*
X0228600Y0206409D01*
X0228600Y0204811D02*
X0177400Y0204811D01*
X0177400Y0203212D02*
X0228600Y0203212D01*
X0228600Y0201614D02*
X0177400Y0201614D01*
X0177400Y0200015D02*
X0228600Y0200015D01*
X0228600Y0198417D02*
X0177400Y0198417D01*
X0177400Y0196818D02*
X0228600Y0196818D01*
X0228600Y0195220D02*
X0177400Y0195220D01*
X0177400Y0193621D02*
X0228600Y0193621D01*
X0228600Y0192023D02*
X0177400Y0192023D01*
X0177400Y0190424D02*
X0228600Y0190424D01*
X0228600Y0188826D02*
X0177400Y0188826D01*
X0177400Y0187227D02*
X0228600Y0187227D01*
X0228600Y0185629D02*
X0177400Y0185629D01*
X0177400Y0184030D02*
X0228600Y0184030D01*
X0228600Y0182432D02*
X0177400Y0182432D01*
X0177400Y0180833D02*
X0228600Y0180833D01*
X0228600Y0179235D02*
X0177400Y0179235D01*
X0177400Y0177636D02*
X0228600Y0177636D01*
X0228600Y0176038D02*
X0177400Y0176038D01*
X0177400Y0174439D02*
X0228600Y0174439D01*
X0227818Y0172841D02*
X0177400Y0172841D01*
X0177400Y0171242D02*
X0226220Y0171242D01*
X0224621Y0169644D02*
X0177400Y0169644D01*
X0177400Y0168045D02*
X0223023Y0168045D01*
X0221424Y0166447D02*
X0177400Y0166447D01*
X0177400Y0164848D02*
X0219826Y0164848D01*
X0218227Y0163250D02*
X0177400Y0163250D01*
X0177400Y0161651D02*
X0216629Y0161651D01*
X0215030Y0160053D02*
X0177400Y0160053D01*
X0177400Y0158454D02*
X0213432Y0158454D01*
X0211833Y0156856D02*
X0177400Y0156856D01*
X0177400Y0155257D02*
X0210235Y0155257D01*
X0208636Y0153659D02*
X0177400Y0153659D01*
X0177400Y0152060D02*
X0207038Y0152060D01*
X0205439Y0150462D02*
X0177400Y0150462D01*
X0177400Y0148863D02*
X0203841Y0148863D01*
X0202242Y0147265D02*
X0177400Y0147265D01*
X0177400Y0145666D02*
X0200643Y0145666D01*
X0199045Y0144068D02*
X0177400Y0144068D01*
X0177400Y0142469D02*
X0197446Y0142469D01*
X0195848Y0140870D02*
X0177400Y0140870D01*
X0177400Y0139272D02*
X0194249Y0139272D01*
X0192651Y0137673D02*
X0177400Y0137673D01*
X0177400Y0136075D02*
X0191052Y0136075D01*
X0189454Y0134476D02*
X0177400Y0134476D01*
X0177400Y0132878D02*
X0187855Y0132878D01*
X0186257Y0131279D02*
X0177400Y0131279D01*
X0176885Y0129681D02*
X0184658Y0129681D01*
X0183060Y0128082D02*
X0175505Y0128082D01*
X0173906Y0126484D02*
X0181461Y0126484D01*
X0179863Y0124885D02*
X0172308Y0124885D01*
X0170709Y0123287D02*
X0178853Y0123287D01*
X0178600Y0121688D02*
X0169111Y0121688D01*
X0167512Y0120090D02*
X0178600Y0120090D01*
X0178600Y0118491D02*
X0167400Y0118491D01*
X0167400Y0116893D02*
X0178600Y0116893D01*
X0178600Y0115294D02*
X0167400Y0115294D01*
X0167400Y0113696D02*
X0178600Y0113696D01*
X0178600Y0112097D02*
X0167400Y0112097D01*
X0167400Y0110499D02*
X0178600Y0110499D01*
X0178600Y0108900D02*
X0167400Y0108900D01*
X0167400Y0107302D02*
X0178600Y0107302D01*
X0178600Y0105703D02*
X0167400Y0105703D01*
X0167400Y0104105D02*
X0178600Y0104105D01*
X0178600Y0102506D02*
X0167400Y0102506D01*
X0167400Y0100908D02*
X0178600Y0100908D01*
X0178600Y0099309D02*
X0167400Y0099309D01*
X0169252Y0097711D02*
X0176748Y0097711D01*
X0175478Y0096112D02*
X0170522Y0096112D01*
X0171185Y0094514D02*
X0174815Y0094514D01*
X0174400Y0092915D02*
X0171600Y0092915D01*
X0171600Y0091317D02*
X0174400Y0091317D01*
X0174554Y0089718D02*
X0171446Y0089718D01*
X0170784Y0088120D02*
X0175216Y0088120D01*
X0176117Y0086521D02*
X0169883Y0086521D01*
X0168285Y0084923D02*
X0177715Y0084923D01*
X0205010Y0083324D02*
X0220990Y0083324D01*
X0217715Y0084923D02*
X0208285Y0084923D01*
X0209883Y0086521D02*
X0216117Y0086521D01*
X0215216Y0088120D02*
X0210784Y0088120D01*
X0211446Y0089718D02*
X0214554Y0089718D01*
X0214400Y0091317D02*
X0211600Y0091317D01*
X0211600Y0092915D02*
X0214400Y0092915D01*
X0214815Y0094514D02*
X0211185Y0094514D01*
X0210522Y0096112D02*
X0215478Y0096112D01*
X0216748Y0097711D02*
X0209252Y0097711D01*
X0207400Y0099309D02*
X0218656Y0099309D01*
X0223600Y0100908D02*
X0207400Y0100908D01*
X0207400Y0102506D02*
X0223600Y0102506D01*
X0223600Y0104105D02*
X0207400Y0104105D01*
X0207400Y0105703D02*
X0223600Y0105703D01*
X0223600Y0107302D02*
X0207400Y0107302D01*
X0207400Y0108900D02*
X0223600Y0108900D01*
X0223600Y0110499D02*
X0207400Y0110499D01*
X0207400Y0112097D02*
X0223600Y0112097D01*
X0223600Y0113696D02*
X0207400Y0113696D01*
X0207400Y0115294D02*
X0223600Y0115294D01*
X0223600Y0116893D02*
X0207400Y0116893D01*
X0207400Y0118491D02*
X0223600Y0118491D01*
X0223600Y0120090D02*
X0207512Y0120090D01*
X0209111Y0121688D02*
X0223600Y0121688D01*
X0223853Y0123287D02*
X0210709Y0123287D01*
X0212308Y0124885D02*
X0224863Y0124885D01*
X0226461Y0126484D02*
X0213906Y0126484D01*
X0215505Y0128082D02*
X0228060Y0128082D01*
X0229658Y0129681D02*
X0217103Y0129681D01*
X0218702Y0131279D02*
X0231257Y0131279D01*
X0232855Y0132878D02*
X0220300Y0132878D01*
X0221899Y0134476D02*
X0234454Y0134476D01*
X0236052Y0136075D02*
X0223497Y0136075D01*
X0225096Y0137673D02*
X0237651Y0137673D01*
X0239249Y0139272D02*
X0226695Y0139272D01*
X0228293Y0140870D02*
X0240848Y0140870D01*
X0242446Y0142469D02*
X0229892Y0142469D01*
X0231490Y0144068D02*
X0244045Y0144068D01*
X0245643Y0145666D02*
X0233089Y0145666D01*
X0234687Y0147265D02*
X0247242Y0147265D01*
X0248841Y0148863D02*
X0236286Y0148863D01*
X0237884Y0150462D02*
X0250439Y0150462D01*
X0252038Y0152060D02*
X0239483Y0152060D01*
X0241081Y0153659D02*
X0253636Y0153659D01*
X0255235Y0155257D02*
X0242680Y0155257D01*
X0244278Y0156856D02*
X0256833Y0156856D01*
X0258432Y0158454D02*
X0245877Y0158454D01*
X0247475Y0160053D02*
X0260030Y0160053D01*
X0261629Y0161651D02*
X0249074Y0161651D01*
X0250672Y0163250D02*
X0263227Y0163250D01*
X0264826Y0164848D02*
X0252271Y0164848D01*
X0253869Y0166447D02*
X0266424Y0166447D01*
X0268023Y0168045D02*
X0255468Y0168045D01*
X0257066Y0169644D02*
X0269621Y0169644D01*
X0271220Y0171242D02*
X0258665Y0171242D01*
X0260263Y0172841D02*
X0272818Y0172841D01*
X0274417Y0174439D02*
X0261862Y0174439D01*
X0263460Y0176038D02*
X0276015Y0176038D01*
X0277614Y0177636D02*
X0265059Y0177636D01*
X0266657Y0179235D02*
X0279212Y0179235D01*
X0280811Y0180833D02*
X0268256Y0180833D01*
X0269854Y0182432D02*
X0282409Y0182432D01*
X0284008Y0184030D02*
X0271453Y0184030D01*
X0273051Y0185629D02*
X0285606Y0185629D01*
X0287205Y0187227D02*
X0274650Y0187227D01*
X0276248Y0188826D02*
X0288803Y0188826D01*
X0290402Y0190424D02*
X0277847Y0190424D01*
X0279445Y0192023D02*
X0292000Y0192023D01*
X0293599Y0193621D02*
X0281044Y0193621D01*
X0282642Y0195220D02*
X0295197Y0195220D01*
X0296796Y0196818D02*
X0284241Y0196818D01*
X0285839Y0198417D02*
X0298394Y0198417D01*
X0299993Y0200015D02*
X0287438Y0200015D01*
X0289036Y0201614D02*
X0301591Y0201614D01*
X0303190Y0203212D02*
X0290635Y0203212D01*
X0292233Y0204811D02*
X0304788Y0204811D01*
X0306387Y0206409D02*
X0293832Y0206409D01*
X0295430Y0208008D02*
X0307985Y0208008D01*
X0309584Y0209606D02*
X0296854Y0209606D01*
X0297400Y0211205D02*
X0311182Y0211205D01*
X0312781Y0212803D02*
X0297400Y0212803D01*
X0297400Y0214402D02*
X0314379Y0214402D01*
X0315978Y0216001D02*
X0297400Y0216001D01*
X0297400Y0217599D02*
X0317577Y0217599D01*
X0319175Y0219198D02*
X0297400Y0219198D01*
X0297400Y0220796D02*
X0320774Y0220796D01*
X0322372Y0222395D02*
X0297400Y0222395D01*
X0297400Y0223993D02*
X0323971Y0223993D01*
X0325569Y0225592D02*
X0297400Y0225592D01*
X0297400Y0227190D02*
X0327168Y0227190D01*
X0328766Y0228789D02*
X0297400Y0228789D01*
X0297400Y0230387D02*
X0330365Y0230387D01*
X0331963Y0231986D02*
X0297400Y0231986D01*
X0297400Y0233584D02*
X0333562Y0233584D01*
X0335160Y0235183D02*
X0297400Y0235183D01*
X0297400Y0236781D02*
X0336759Y0236781D01*
X0333800Y0239978D02*
X0332200Y0239978D01*
X0332200Y0241577D02*
X0333800Y0241577D01*
X0333800Y0243175D02*
X0332200Y0243175D01*
X0332200Y0244774D02*
X0333800Y0244774D01*
X0333800Y0246372D02*
X0344400Y0246372D01*
X0344400Y0247971D02*
X0341722Y0247971D01*
X0341368Y0249569D02*
X0344838Y0249569D01*
X0345501Y0251168D02*
X0340640Y0251168D01*
X0339479Y0252766D02*
X0346804Y0252766D01*
X0348790Y0254365D02*
X0337497Y0254365D01*
X0333800Y0254365D02*
X0332200Y0254365D01*
X0332200Y0252766D02*
X0333800Y0252766D01*
X0333800Y0251168D02*
X0332200Y0251168D01*
X0332200Y0249569D02*
X0333800Y0249569D01*
X0333800Y0247971D02*
X0332200Y0247971D01*
X0332200Y0246372D02*
X0321600Y0246372D01*
X0321600Y0247971D02*
X0324278Y0247971D01*
X0324632Y0249569D02*
X0321162Y0249569D01*
X0320499Y0251168D02*
X0325360Y0251168D01*
X0326521Y0252766D02*
X0319196Y0252766D01*
X0317210Y0254365D02*
X0328503Y0254365D01*
X0324433Y0244774D02*
X0321469Y0244774D01*
X0320807Y0243175D02*
X0324976Y0243175D01*
X0325916Y0241577D02*
X0319939Y0241577D01*
X0318340Y0239978D02*
X0327435Y0239978D01*
X0357210Y0254365D02*
X0358121Y0254365D01*
X0358121Y0255963D02*
X0007800Y0255963D01*
X0007800Y0254365D02*
X0008790Y0254365D01*
X0007800Y0257562D02*
X0358121Y0257562D01*
X0358121Y0259160D02*
X0007800Y0259160D01*
X0007800Y0260759D02*
X0358121Y0260759D01*
X0358121Y0262357D02*
X0007800Y0262357D01*
X0007800Y0263956D02*
X0358121Y0263956D01*
X0358121Y0265554D02*
X0007800Y0265554D01*
X0007800Y0267153D02*
X0358121Y0267153D01*
X0358121Y0268751D02*
X0007800Y0268751D01*
X0007800Y0270350D02*
X0358121Y0270350D01*
X0358121Y0271948D02*
X0007800Y0271948D01*
X0007800Y0273547D02*
X0358121Y0273547D01*
X0358121Y0275145D02*
X0007800Y0275145D01*
X0007800Y0276744D02*
X0358121Y0276744D01*
X0358121Y0278342D02*
X0007800Y0278342D01*
X0007800Y0279941D02*
X0358121Y0279941D01*
X0358121Y0281539D02*
X0007800Y0281539D01*
X0007800Y0283138D02*
X0358121Y0283138D01*
X0358121Y0284737D02*
X0007800Y0284737D01*
X0007800Y0238380D02*
X0010856Y0238380D01*
X0007800Y0236781D02*
X0048600Y0236781D01*
X0048600Y0235183D02*
X0007800Y0235183D01*
X0007800Y0233584D02*
X0048600Y0233584D01*
X0048600Y0231986D02*
X0007800Y0231986D01*
X0007800Y0230387D02*
X0048600Y0230387D01*
X0048600Y0228789D02*
X0007800Y0228789D01*
X0007800Y0227190D02*
X0048600Y0227190D01*
X0048600Y0225592D02*
X0007800Y0225592D01*
X0007800Y0223993D02*
X0048600Y0223993D01*
X0048600Y0222395D02*
X0007800Y0222395D01*
X0007800Y0220796D02*
X0048600Y0220796D01*
X0048600Y0219198D02*
X0007800Y0219198D01*
X0007800Y0217599D02*
X0048600Y0217599D01*
X0048600Y0216001D02*
X0007800Y0216001D01*
X0007800Y0214402D02*
X0048600Y0214402D01*
X0048600Y0212803D02*
X0007800Y0212803D01*
X0007800Y0211205D02*
X0048600Y0211205D01*
X0048600Y0209606D02*
X0007800Y0209606D01*
X0007800Y0208008D02*
X0048600Y0208008D01*
X0048600Y0206409D02*
X0007800Y0206409D01*
X0007800Y0204811D02*
X0048600Y0204811D01*
X0048600Y0203212D02*
X0007800Y0203212D01*
X0007800Y0201614D02*
X0048600Y0201614D01*
X0048600Y0200015D02*
X0007800Y0200015D01*
X0007800Y0198417D02*
X0048600Y0198417D01*
X0048600Y0196818D02*
X0007800Y0196818D01*
X0007800Y0195220D02*
X0048600Y0195220D01*
X0048600Y0193621D02*
X0007800Y0193621D01*
X0007800Y0192023D02*
X0048600Y0192023D01*
X0048807Y0190424D02*
X0007800Y0190424D01*
X0007800Y0188826D02*
X0049752Y0188826D01*
X0051350Y0187227D02*
X0007800Y0187227D01*
X0007800Y0185629D02*
X0052949Y0185629D01*
X0054547Y0184030D02*
X0007800Y0184030D01*
X0007800Y0182432D02*
X0056146Y0182432D01*
X0057744Y0180833D02*
X0007800Y0180833D01*
X0007800Y0179235D02*
X0059343Y0179235D01*
X0060941Y0177636D02*
X0007800Y0177636D01*
X0007800Y0176038D02*
X0062540Y0176038D01*
X0064138Y0174439D02*
X0007800Y0174439D01*
X0007800Y0172841D02*
X0065737Y0172841D01*
X0067335Y0171242D02*
X0007800Y0171242D01*
X0007800Y0169644D02*
X0068934Y0169644D01*
X0070532Y0168045D02*
X0007800Y0168045D01*
X0007800Y0166447D02*
X0072131Y0166447D01*
X0073729Y0164848D02*
X0007800Y0164848D01*
X0007800Y0163250D02*
X0075328Y0163250D01*
X0076926Y0161651D02*
X0007800Y0161651D01*
X0007800Y0160053D02*
X0078525Y0160053D01*
X0080123Y0158454D02*
X0007800Y0158454D01*
X0007800Y0156856D02*
X0081722Y0156856D01*
X0083320Y0155257D02*
X0007800Y0155257D01*
X0007800Y0153659D02*
X0084919Y0153659D01*
X0086517Y0152060D02*
X0007800Y0152060D01*
X0007800Y0150462D02*
X0088116Y0150462D01*
X0089714Y0148863D02*
X0007800Y0148863D01*
X0007800Y0147265D02*
X0091313Y0147265D01*
X0092911Y0145666D02*
X0007800Y0145666D01*
X0007800Y0144068D02*
X0094510Y0144068D01*
X0096108Y0142469D02*
X0007800Y0142469D01*
X0007800Y0140870D02*
X0097707Y0140870D01*
X0099305Y0139272D02*
X0007800Y0139272D01*
X0007800Y0137673D02*
X0100904Y0137673D01*
X0102502Y0136075D02*
X0007800Y0136075D01*
X0007800Y0134476D02*
X0104101Y0134476D01*
X0105700Y0132878D02*
X0007800Y0132878D01*
X0007800Y0131279D02*
X0107298Y0131279D01*
X0108897Y0129681D02*
X0007800Y0129681D01*
X0007800Y0128082D02*
X0110495Y0128082D01*
X0112094Y0126484D02*
X0007800Y0126484D01*
X0007800Y0124885D02*
X0113692Y0124885D01*
X0115291Y0123287D02*
X0007800Y0123287D01*
X0007800Y0121688D02*
X0116889Y0121688D01*
X0118488Y0120090D02*
X0007800Y0120090D01*
X0007800Y0118491D02*
X0118600Y0118491D01*
X0118600Y0116893D02*
X0007800Y0116893D01*
X0007800Y0115294D02*
X0118600Y0115294D01*
X0118600Y0113696D02*
X0007800Y0113696D01*
X0007800Y0112097D02*
X0118600Y0112097D01*
X0118600Y0110499D02*
X0007800Y0110499D01*
X0007800Y0108900D02*
X0118600Y0108900D01*
X0118600Y0107302D02*
X0007800Y0107302D01*
X0007800Y0105703D02*
X0118600Y0105703D01*
X0118600Y0104105D02*
X0007800Y0104105D01*
X0007800Y0102506D02*
X0118600Y0102506D01*
X0118600Y0100908D02*
X0007800Y0100908D01*
X0007800Y0099309D02*
X0118600Y0099309D01*
X0116748Y0097711D02*
X0007800Y0097711D01*
X0007800Y0096112D02*
X0115478Y0096112D01*
X0114815Y0094514D02*
X0007800Y0094514D01*
X0007800Y0092915D02*
X0114400Y0092915D01*
X0114400Y0091317D02*
X0007800Y0091317D01*
X0007800Y0089718D02*
X0114554Y0089718D01*
X0115216Y0088120D02*
X0007800Y0088120D01*
X0007800Y0086521D02*
X0116117Y0086521D01*
X0117715Y0084923D02*
X0007800Y0084923D01*
X0007800Y0080127D02*
X0358121Y0080127D01*
X0358121Y0078529D02*
X0007800Y0078529D01*
X0007800Y0076930D02*
X0358121Y0076930D01*
X0358121Y0075332D02*
X0007800Y0075332D01*
X0007800Y0073733D02*
X0358121Y0073733D01*
X0358121Y0072134D02*
X0007800Y0072134D01*
X0007800Y0070536D02*
X0358121Y0070536D01*
X0358121Y0068937D02*
X0007800Y0068937D01*
X0007800Y0067339D02*
X0358121Y0067339D01*
X0358121Y0065740D02*
X0007800Y0065740D01*
X0007800Y0064142D02*
X0358121Y0064142D01*
X0358121Y0062543D02*
X0007800Y0062543D01*
X0007800Y0060945D02*
X0358121Y0060945D01*
X0358121Y0059346D02*
X0007800Y0059346D01*
X0007800Y0057748D02*
X0358121Y0057748D01*
X0358121Y0056149D02*
X0007800Y0056149D01*
X0007800Y0054551D02*
X0358121Y0054551D01*
X0358121Y0052952D02*
X0007800Y0052952D01*
X0007800Y0051354D02*
X0358121Y0051354D01*
X0358121Y0049755D02*
X0007800Y0049755D01*
X0007800Y0048157D02*
X0358121Y0048157D01*
X0358121Y0046558D02*
X0007800Y0046558D01*
X0007800Y0044960D02*
X0358121Y0044960D01*
X0358121Y0043361D02*
X0007800Y0043361D01*
X0007800Y0041763D02*
X0358121Y0041763D01*
X0358121Y0040164D02*
X0007800Y0040164D01*
X0007800Y0038566D02*
X0358121Y0038566D01*
X0358121Y0036967D02*
X0007800Y0036967D01*
X0007800Y0035369D02*
X0358121Y0035369D01*
X0358121Y0033770D02*
X0007800Y0033770D01*
X0007800Y0032172D02*
X0358121Y0032172D01*
X0358121Y0030573D02*
X0007800Y0030573D01*
X0007800Y0028975D02*
X0358121Y0028975D01*
X0358121Y0027376D02*
X0007800Y0027376D01*
X0007800Y0025778D02*
X0358121Y0025778D01*
X0358121Y0024179D02*
X0007800Y0024179D01*
X0007800Y0022581D02*
X0358121Y0022581D01*
X0358121Y0020982D02*
X0007800Y0020982D01*
X0007800Y0019384D02*
X0358121Y0019384D01*
X0358121Y0017785D02*
X0007800Y0017785D01*
X0007800Y0016187D02*
X0358121Y0016187D01*
X0358121Y0014588D02*
X0007800Y0014588D01*
X0007800Y0012990D02*
X0358121Y0012990D01*
X0358121Y0011391D02*
X0007800Y0011391D01*
X0007800Y0009793D02*
X0358121Y0009793D01*
X0358121Y0008194D02*
X0007800Y0008194D01*
X0178340Y0239978D02*
X0187660Y0239978D01*
X0186061Y0241577D02*
X0179939Y0241577D01*
X0180807Y0243175D02*
X0185193Y0243175D01*
X0184531Y0244774D02*
X0181469Y0244774D01*
X0181600Y0246372D02*
X0184400Y0246372D01*
X0184400Y0247971D02*
X0181600Y0247971D01*
X0181162Y0249569D02*
X0184838Y0249569D01*
X0185501Y0251168D02*
X0180499Y0251168D01*
X0179196Y0252766D02*
X0186804Y0252766D01*
X0188790Y0254365D02*
X0177210Y0254365D01*
X0197210Y0254365D02*
X0208503Y0254365D01*
X0206521Y0252766D02*
X0199196Y0252766D01*
X0200499Y0251168D02*
X0205360Y0251168D01*
X0204632Y0249569D02*
X0201162Y0249569D01*
X0201600Y0247971D02*
X0204278Y0247971D01*
X0201600Y0246372D02*
X0212200Y0246372D01*
X0212200Y0244774D02*
X0213800Y0244774D01*
X0213800Y0246372D02*
X0224400Y0246372D01*
X0224400Y0247971D02*
X0221722Y0247971D01*
X0221368Y0249569D02*
X0224838Y0249569D01*
X0225501Y0251168D02*
X0220640Y0251168D01*
X0219479Y0252766D02*
X0226804Y0252766D01*
X0228790Y0254365D02*
X0217497Y0254365D01*
X0213800Y0254365D02*
X0212200Y0254365D01*
X0212200Y0252766D02*
X0213800Y0252766D01*
X0213800Y0251168D02*
X0212200Y0251168D01*
X0212200Y0249569D02*
X0213800Y0249569D01*
X0213800Y0247971D02*
X0212200Y0247971D01*
X0212200Y0243175D02*
X0213800Y0243175D01*
X0213800Y0241577D02*
X0212200Y0241577D01*
X0212200Y0239978D02*
X0213800Y0239978D01*
X0218565Y0239978D02*
X0227660Y0239978D01*
X0226061Y0241577D02*
X0220084Y0241577D01*
X0221024Y0243175D02*
X0225193Y0243175D01*
X0224531Y0244774D02*
X0221567Y0244774D01*
X0207435Y0239978D02*
X0198340Y0239978D01*
X0199939Y0241577D02*
X0205916Y0241577D01*
X0204976Y0243175D02*
X0200807Y0243175D01*
X0201469Y0244774D02*
X0204433Y0244774D01*
X0237400Y0238380D02*
X0250856Y0238380D01*
X0247660Y0239978D02*
X0238340Y0239978D01*
X0239939Y0241577D02*
X0246061Y0241577D01*
X0245193Y0243175D02*
X0240807Y0243175D01*
X0241469Y0244774D02*
X0244531Y0244774D01*
X0244400Y0246372D02*
X0241600Y0246372D01*
X0241600Y0247971D02*
X0244400Y0247971D01*
X0244838Y0249569D02*
X0241162Y0249569D01*
X0240499Y0251168D02*
X0245501Y0251168D01*
X0246804Y0252766D02*
X0239196Y0252766D01*
X0237210Y0254365D02*
X0248790Y0254365D01*
X0257210Y0254365D02*
X0268503Y0254365D01*
X0266521Y0252766D02*
X0259196Y0252766D01*
X0260499Y0251168D02*
X0265360Y0251168D01*
X0264632Y0249569D02*
X0261162Y0249569D01*
X0261600Y0247971D02*
X0264278Y0247971D01*
X0272200Y0247971D02*
X0273800Y0247971D01*
X0273800Y0249569D02*
X0272200Y0249569D01*
X0272200Y0251168D02*
X0273800Y0251168D01*
X0273800Y0252766D02*
X0272200Y0252766D01*
X0272200Y0254365D02*
X0273800Y0254365D01*
X0281024Y0243175D02*
X0285193Y0243175D01*
X0286061Y0241577D02*
X0280084Y0241577D01*
X0278565Y0239978D02*
X0287660Y0239978D01*
X0323062Y0108900D02*
X0332798Y0108900D01*
X0331129Y0107302D02*
X0324660Y0107302D01*
X0325692Y0105703D02*
X0330092Y0105703D01*
X0329507Y0104105D02*
X0326354Y0104105D01*
X0326600Y0102506D02*
X0337200Y0102506D01*
X0337200Y0100908D02*
X0338800Y0100908D01*
X0338800Y0102506D02*
X0358121Y0102506D01*
X0358121Y0100908D02*
X0346758Y0100908D01*
X0346443Y0099309D02*
X0358121Y0099309D01*
X0358121Y0097711D02*
X0345800Y0097711D01*
X0344728Y0096112D02*
X0358121Y0096112D01*
X0358121Y0094514D02*
X0342960Y0094514D01*
X0338800Y0094514D02*
X0337200Y0094514D01*
X0337200Y0096112D02*
X0338800Y0096112D01*
X0338800Y0097711D02*
X0337200Y0097711D01*
X0337200Y0099309D02*
X0338800Y0099309D01*
X0333040Y0094514D02*
X0322876Y0094514D01*
X0324474Y0096112D02*
X0331272Y0096112D01*
X0330200Y0097711D02*
X0325615Y0097711D01*
X0326277Y0099309D02*
X0329557Y0099309D01*
X0329242Y0100908D02*
X0326600Y0100908D01*
X0337200Y0104105D02*
X0338800Y0104105D01*
X0338800Y0105703D02*
X0337200Y0105703D01*
X0337200Y0107302D02*
X0338800Y0107302D01*
X0338800Y0108900D02*
X0337200Y0108900D01*
X0343202Y0108900D02*
X0358121Y0108900D01*
X0358121Y0107302D02*
X0344871Y0107302D01*
X0345908Y0105703D02*
X0358121Y0105703D01*
X0358121Y0104105D02*
X0346493Y0104105D01*
D13*
X0233000Y0171800D02*
X0183000Y0121800D01*
X0183000Y0091800D01*
X0203000Y0091800D02*
X0203000Y0121800D01*
X0293000Y0211800D01*
X0293000Y0246800D01*
X0353000Y0246800D02*
X0228000Y0121800D01*
X0228000Y0096800D01*
X0223000Y0091800D01*
X0173000Y0131800D02*
X0163000Y0121800D01*
X0163000Y0091800D01*
X0143000Y0091800D02*
X0143000Y0121800D01*
X0113000Y0151800D01*
X0113000Y0246800D01*
X0053000Y0246800D02*
X0053000Y0191800D01*
X0123000Y0121800D01*
X0123000Y0091800D01*
X0173000Y0131800D02*
X0173000Y0246800D01*
X0233000Y0246800D02*
X0233000Y0171800D01*
M02*
