%
M48
M72
T01C0.06299
T02C0.12598
%
T01
X121800Y79300
X141800Y79300
X161800Y79300
X181800Y79300
X201800Y79300
X221800Y79300
X241800Y79300
X261800Y79300
X256800Y239300
X276800Y239300
X296800Y239300
X316800Y239300
X336800Y239300
X356800Y239300
X376800Y239300
X236800Y239300
X216800Y239300
X196800Y239300
X176800Y239300
X156800Y239300
X136800Y239300
X116800Y239300
X96800Y239300
X76800Y239300
X56800Y239300
X36800Y239300
T02
X16800Y16800
X16800Y276800
X396800Y276800
X396800Y16800
M30
