G75*
%MOIN*%
%OFA0B0*%
%FSLAX25Y25*%
%IPPOS*%
%LPD*%
%AMOC8*
5,1,8,0,0,1.08239X$1,22.5*
%
%ADD10C,0.00000*%
%ADD11C,0.00600*%
%ADD12C,0.00400*%
%ADD13C,0.01200*%
%ADD14C,0.00500*%
D10*
X0001800Y0001800D02*
X0001800Y0290501D01*
X0411721Y0290501D01*
X0411721Y0001800D01*
X0001800Y0001800D01*
D11*
X0071829Y0053268D02*
X0072997Y0052100D01*
X0074165Y0053268D01*
X0074165Y0055603D01*
X0075332Y0056771D01*
X0076500Y0055603D01*
X0076500Y0052100D01*
X0071829Y0053268D02*
X0071829Y0056771D01*
X0072997Y0059098D02*
X0071829Y0060266D01*
X0071829Y0062601D01*
X0072997Y0063769D01*
X0074165Y0063769D01*
X0074165Y0059098D01*
X0075332Y0059098D02*
X0072997Y0059098D01*
X0075332Y0059098D02*
X0076500Y0060266D01*
X0076500Y0062601D01*
X0076500Y0066096D02*
X0071829Y0066096D01*
X0071829Y0069599D01*
X0072997Y0070767D01*
X0076500Y0070767D01*
X0076500Y0073094D02*
X0076500Y0076597D01*
X0075332Y0077765D01*
X0074165Y0076597D01*
X0074165Y0074262D01*
X0072997Y0073094D01*
X0071829Y0074262D01*
X0071829Y0077765D01*
X0072997Y0080092D02*
X0075332Y0080092D01*
X0076500Y0081260D01*
X0076500Y0083595D01*
X0075332Y0084763D01*
X0072997Y0084763D01*
X0071829Y0083595D01*
X0071829Y0081260D01*
X0072997Y0080092D01*
X0071829Y0087090D02*
X0076500Y0087090D01*
X0074165Y0087090D02*
X0071829Y0089425D01*
X0071829Y0090593D01*
X0071829Y0102255D02*
X0077668Y0102255D01*
X0078835Y0101087D01*
X0078835Y0099919D01*
X0075332Y0104585D02*
X0076500Y0105752D01*
X0076500Y0109255D01*
X0071829Y0109255D01*
X0071829Y0111583D02*
X0071829Y0115086D01*
X0072997Y0116253D01*
X0076500Y0116253D01*
X0075332Y0118581D02*
X0072997Y0118581D01*
X0071829Y0119748D01*
X0071829Y0123251D01*
X0071829Y0125579D02*
X0071829Y0127914D01*
X0070662Y0126746D02*
X0075332Y0126746D01*
X0076500Y0127914D01*
X0076500Y0130244D02*
X0076500Y0132579D01*
X0076500Y0131412D02*
X0071829Y0131412D01*
X0071829Y0130244D01*
X0069494Y0131412D02*
X0068326Y0131412D01*
X0071829Y0136077D02*
X0072997Y0134909D01*
X0075332Y0134909D01*
X0076500Y0136077D01*
X0076500Y0138412D01*
X0075332Y0139580D01*
X0072997Y0139580D01*
X0071829Y0138412D01*
X0071829Y0136077D01*
X0071829Y0141907D02*
X0071829Y0145410D01*
X0072997Y0146578D01*
X0076500Y0146578D01*
X0076500Y0141907D02*
X0071829Y0141907D01*
X0069494Y0155903D02*
X0069494Y0159406D01*
X0070662Y0160574D01*
X0072997Y0160574D01*
X0074165Y0159406D01*
X0074165Y0155903D01*
X0076500Y0155903D02*
X0069494Y0155903D01*
X0070662Y0162901D02*
X0069494Y0164069D01*
X0069494Y0166404D01*
X0070662Y0167572D01*
X0069494Y0169899D02*
X0069494Y0173402D01*
X0070662Y0174570D01*
X0071829Y0174570D01*
X0072997Y0173402D01*
X0072997Y0169899D01*
X0075332Y0167572D02*
X0076500Y0166404D01*
X0076500Y0164069D01*
X0075332Y0162901D01*
X0070662Y0162901D01*
X0069494Y0169899D02*
X0076500Y0169899D01*
X0076500Y0173402D01*
X0075332Y0174570D01*
X0074165Y0174570D01*
X0072997Y0173402D01*
X0094235Y0208168D02*
X0094235Y0212438D01*
X0092100Y0210303D02*
X0096370Y0210303D01*
X0106800Y0219300D02*
X0106800Y0220300D01*
X0106800Y0246300D01*
X0113300Y0246300D01*
X0106800Y0246300D02*
X0106800Y0255800D01*
X0146800Y0255800D01*
X0186800Y0255800D01*
X0226800Y0255800D01*
X0266800Y0255800D01*
X0306800Y0255800D01*
X0346800Y0255800D01*
X0386800Y0255800D01*
X0386800Y0246300D01*
X0380300Y0246300D01*
X0373300Y0246300D02*
X0360300Y0246300D01*
X0353300Y0246300D02*
X0346800Y0246300D01*
X0346800Y0220300D01*
X0346800Y0219300D01*
X0386800Y0219300D01*
X0386800Y0220300D01*
X0386800Y0246300D01*
X0374800Y0225600D02*
X0374802Y0225689D01*
X0374808Y0225778D01*
X0374818Y0225867D01*
X0374832Y0225955D01*
X0374849Y0226042D01*
X0374871Y0226128D01*
X0374897Y0226214D01*
X0374926Y0226298D01*
X0374959Y0226381D01*
X0374995Y0226462D01*
X0375036Y0226542D01*
X0375079Y0226619D01*
X0375126Y0226695D01*
X0375177Y0226768D01*
X0375230Y0226839D01*
X0375287Y0226908D01*
X0375347Y0226974D01*
X0375410Y0227038D01*
X0375475Y0227098D01*
X0375543Y0227156D01*
X0375614Y0227210D01*
X0375687Y0227261D01*
X0375762Y0227309D01*
X0375839Y0227354D01*
X0375918Y0227395D01*
X0375999Y0227432D01*
X0376081Y0227466D01*
X0376165Y0227497D01*
X0376250Y0227523D01*
X0376336Y0227546D01*
X0376423Y0227564D01*
X0376511Y0227579D01*
X0376600Y0227590D01*
X0376689Y0227597D01*
X0376778Y0227600D01*
X0376867Y0227599D01*
X0376956Y0227594D01*
X0377044Y0227585D01*
X0377133Y0227572D01*
X0377220Y0227555D01*
X0377307Y0227535D01*
X0377393Y0227510D01*
X0377477Y0227482D01*
X0377560Y0227450D01*
X0377642Y0227414D01*
X0377722Y0227375D01*
X0377800Y0227332D01*
X0377876Y0227286D01*
X0377950Y0227236D01*
X0378022Y0227183D01*
X0378091Y0227127D01*
X0378158Y0227068D01*
X0378222Y0227006D01*
X0378283Y0226942D01*
X0378342Y0226874D01*
X0378397Y0226804D01*
X0378449Y0226732D01*
X0378498Y0226657D01*
X0378543Y0226581D01*
X0378585Y0226502D01*
X0378623Y0226422D01*
X0378658Y0226340D01*
X0378689Y0226256D01*
X0378717Y0226171D01*
X0378740Y0226085D01*
X0378760Y0225998D01*
X0378776Y0225911D01*
X0378788Y0225822D01*
X0378796Y0225734D01*
X0378800Y0225645D01*
X0378800Y0225555D01*
X0378796Y0225466D01*
X0378788Y0225378D01*
X0378776Y0225289D01*
X0378760Y0225202D01*
X0378740Y0225115D01*
X0378717Y0225029D01*
X0378689Y0224944D01*
X0378658Y0224860D01*
X0378623Y0224778D01*
X0378585Y0224698D01*
X0378543Y0224619D01*
X0378498Y0224543D01*
X0378449Y0224468D01*
X0378397Y0224396D01*
X0378342Y0224326D01*
X0378283Y0224258D01*
X0378222Y0224194D01*
X0378158Y0224132D01*
X0378091Y0224073D01*
X0378022Y0224017D01*
X0377950Y0223964D01*
X0377876Y0223914D01*
X0377800Y0223868D01*
X0377722Y0223825D01*
X0377642Y0223786D01*
X0377560Y0223750D01*
X0377477Y0223718D01*
X0377393Y0223690D01*
X0377307Y0223665D01*
X0377220Y0223645D01*
X0377133Y0223628D01*
X0377044Y0223615D01*
X0376956Y0223606D01*
X0376867Y0223601D01*
X0376778Y0223600D01*
X0376689Y0223603D01*
X0376600Y0223610D01*
X0376511Y0223621D01*
X0376423Y0223636D01*
X0376336Y0223654D01*
X0376250Y0223677D01*
X0376165Y0223703D01*
X0376081Y0223734D01*
X0375999Y0223768D01*
X0375918Y0223805D01*
X0375839Y0223846D01*
X0375762Y0223891D01*
X0375687Y0223939D01*
X0375614Y0223990D01*
X0375543Y0224044D01*
X0375475Y0224102D01*
X0375410Y0224162D01*
X0375347Y0224226D01*
X0375287Y0224292D01*
X0375230Y0224361D01*
X0375177Y0224432D01*
X0375126Y0224505D01*
X0375079Y0224581D01*
X0375036Y0224658D01*
X0374995Y0224738D01*
X0374959Y0224819D01*
X0374926Y0224902D01*
X0374897Y0224986D01*
X0374871Y0225072D01*
X0374849Y0225158D01*
X0374832Y0225245D01*
X0374818Y0225333D01*
X0374808Y0225422D01*
X0374802Y0225511D01*
X0374800Y0225600D01*
X0386800Y0220300D02*
X0346800Y0220300D01*
X0346800Y0219300D01*
X0306800Y0219300D01*
X0306800Y0220300D01*
X0306800Y0246300D01*
X0313300Y0246300D01*
X0306800Y0246300D02*
X0306800Y0255800D01*
X0306800Y0246300D01*
X0300300Y0246300D01*
X0306800Y0246300D02*
X0306800Y0220300D01*
X0346800Y0220300D01*
X0346800Y0246300D01*
X0346800Y0255800D01*
X0346800Y0246300D01*
X0340300Y0246300D01*
X0333300Y0246300D02*
X0320300Y0246300D01*
X0314800Y0225600D02*
X0314802Y0225689D01*
X0314808Y0225778D01*
X0314818Y0225867D01*
X0314832Y0225955D01*
X0314849Y0226042D01*
X0314871Y0226128D01*
X0314897Y0226214D01*
X0314926Y0226298D01*
X0314959Y0226381D01*
X0314995Y0226462D01*
X0315036Y0226542D01*
X0315079Y0226619D01*
X0315126Y0226695D01*
X0315177Y0226768D01*
X0315230Y0226839D01*
X0315287Y0226908D01*
X0315347Y0226974D01*
X0315410Y0227038D01*
X0315475Y0227098D01*
X0315543Y0227156D01*
X0315614Y0227210D01*
X0315687Y0227261D01*
X0315762Y0227309D01*
X0315839Y0227354D01*
X0315918Y0227395D01*
X0315999Y0227432D01*
X0316081Y0227466D01*
X0316165Y0227497D01*
X0316250Y0227523D01*
X0316336Y0227546D01*
X0316423Y0227564D01*
X0316511Y0227579D01*
X0316600Y0227590D01*
X0316689Y0227597D01*
X0316778Y0227600D01*
X0316867Y0227599D01*
X0316956Y0227594D01*
X0317044Y0227585D01*
X0317133Y0227572D01*
X0317220Y0227555D01*
X0317307Y0227535D01*
X0317393Y0227510D01*
X0317477Y0227482D01*
X0317560Y0227450D01*
X0317642Y0227414D01*
X0317722Y0227375D01*
X0317800Y0227332D01*
X0317876Y0227286D01*
X0317950Y0227236D01*
X0318022Y0227183D01*
X0318091Y0227127D01*
X0318158Y0227068D01*
X0318222Y0227006D01*
X0318283Y0226942D01*
X0318342Y0226874D01*
X0318397Y0226804D01*
X0318449Y0226732D01*
X0318498Y0226657D01*
X0318543Y0226581D01*
X0318585Y0226502D01*
X0318623Y0226422D01*
X0318658Y0226340D01*
X0318689Y0226256D01*
X0318717Y0226171D01*
X0318740Y0226085D01*
X0318760Y0225998D01*
X0318776Y0225911D01*
X0318788Y0225822D01*
X0318796Y0225734D01*
X0318800Y0225645D01*
X0318800Y0225555D01*
X0318796Y0225466D01*
X0318788Y0225378D01*
X0318776Y0225289D01*
X0318760Y0225202D01*
X0318740Y0225115D01*
X0318717Y0225029D01*
X0318689Y0224944D01*
X0318658Y0224860D01*
X0318623Y0224778D01*
X0318585Y0224698D01*
X0318543Y0224619D01*
X0318498Y0224543D01*
X0318449Y0224468D01*
X0318397Y0224396D01*
X0318342Y0224326D01*
X0318283Y0224258D01*
X0318222Y0224194D01*
X0318158Y0224132D01*
X0318091Y0224073D01*
X0318022Y0224017D01*
X0317950Y0223964D01*
X0317876Y0223914D01*
X0317800Y0223868D01*
X0317722Y0223825D01*
X0317642Y0223786D01*
X0317560Y0223750D01*
X0317477Y0223718D01*
X0317393Y0223690D01*
X0317307Y0223665D01*
X0317220Y0223645D01*
X0317133Y0223628D01*
X0317044Y0223615D01*
X0316956Y0223606D01*
X0316867Y0223601D01*
X0316778Y0223600D01*
X0316689Y0223603D01*
X0316600Y0223610D01*
X0316511Y0223621D01*
X0316423Y0223636D01*
X0316336Y0223654D01*
X0316250Y0223677D01*
X0316165Y0223703D01*
X0316081Y0223734D01*
X0315999Y0223768D01*
X0315918Y0223805D01*
X0315839Y0223846D01*
X0315762Y0223891D01*
X0315687Y0223939D01*
X0315614Y0223990D01*
X0315543Y0224044D01*
X0315475Y0224102D01*
X0315410Y0224162D01*
X0315347Y0224226D01*
X0315287Y0224292D01*
X0315230Y0224361D01*
X0315177Y0224432D01*
X0315126Y0224505D01*
X0315079Y0224581D01*
X0315036Y0224658D01*
X0314995Y0224738D01*
X0314959Y0224819D01*
X0314926Y0224902D01*
X0314897Y0224986D01*
X0314871Y0225072D01*
X0314849Y0225158D01*
X0314832Y0225245D01*
X0314818Y0225333D01*
X0314808Y0225422D01*
X0314802Y0225511D01*
X0314800Y0225600D01*
X0306800Y0220300D02*
X0306800Y0219300D01*
X0266800Y0219300D01*
X0266800Y0220300D01*
X0266800Y0246300D01*
X0273300Y0246300D01*
X0280300Y0246300D02*
X0293300Y0246300D01*
X0266800Y0246300D02*
X0266800Y0255800D01*
X0266800Y0246300D01*
X0260300Y0246300D01*
X0253300Y0246300D02*
X0240300Y0246300D01*
X0233300Y0246300D02*
X0226800Y0246300D01*
X0226800Y0220300D01*
X0226800Y0219300D01*
X0266800Y0219300D01*
X0266800Y0220300D01*
X0306800Y0220300D01*
X0294800Y0225600D02*
X0294802Y0225689D01*
X0294808Y0225778D01*
X0294818Y0225867D01*
X0294832Y0225955D01*
X0294849Y0226042D01*
X0294871Y0226128D01*
X0294897Y0226214D01*
X0294926Y0226298D01*
X0294959Y0226381D01*
X0294995Y0226462D01*
X0295036Y0226542D01*
X0295079Y0226619D01*
X0295126Y0226695D01*
X0295177Y0226768D01*
X0295230Y0226839D01*
X0295287Y0226908D01*
X0295347Y0226974D01*
X0295410Y0227038D01*
X0295475Y0227098D01*
X0295543Y0227156D01*
X0295614Y0227210D01*
X0295687Y0227261D01*
X0295762Y0227309D01*
X0295839Y0227354D01*
X0295918Y0227395D01*
X0295999Y0227432D01*
X0296081Y0227466D01*
X0296165Y0227497D01*
X0296250Y0227523D01*
X0296336Y0227546D01*
X0296423Y0227564D01*
X0296511Y0227579D01*
X0296600Y0227590D01*
X0296689Y0227597D01*
X0296778Y0227600D01*
X0296867Y0227599D01*
X0296956Y0227594D01*
X0297044Y0227585D01*
X0297133Y0227572D01*
X0297220Y0227555D01*
X0297307Y0227535D01*
X0297393Y0227510D01*
X0297477Y0227482D01*
X0297560Y0227450D01*
X0297642Y0227414D01*
X0297722Y0227375D01*
X0297800Y0227332D01*
X0297876Y0227286D01*
X0297950Y0227236D01*
X0298022Y0227183D01*
X0298091Y0227127D01*
X0298158Y0227068D01*
X0298222Y0227006D01*
X0298283Y0226942D01*
X0298342Y0226874D01*
X0298397Y0226804D01*
X0298449Y0226732D01*
X0298498Y0226657D01*
X0298543Y0226581D01*
X0298585Y0226502D01*
X0298623Y0226422D01*
X0298658Y0226340D01*
X0298689Y0226256D01*
X0298717Y0226171D01*
X0298740Y0226085D01*
X0298760Y0225998D01*
X0298776Y0225911D01*
X0298788Y0225822D01*
X0298796Y0225734D01*
X0298800Y0225645D01*
X0298800Y0225555D01*
X0298796Y0225466D01*
X0298788Y0225378D01*
X0298776Y0225289D01*
X0298760Y0225202D01*
X0298740Y0225115D01*
X0298717Y0225029D01*
X0298689Y0224944D01*
X0298658Y0224860D01*
X0298623Y0224778D01*
X0298585Y0224698D01*
X0298543Y0224619D01*
X0298498Y0224543D01*
X0298449Y0224468D01*
X0298397Y0224396D01*
X0298342Y0224326D01*
X0298283Y0224258D01*
X0298222Y0224194D01*
X0298158Y0224132D01*
X0298091Y0224073D01*
X0298022Y0224017D01*
X0297950Y0223964D01*
X0297876Y0223914D01*
X0297800Y0223868D01*
X0297722Y0223825D01*
X0297642Y0223786D01*
X0297560Y0223750D01*
X0297477Y0223718D01*
X0297393Y0223690D01*
X0297307Y0223665D01*
X0297220Y0223645D01*
X0297133Y0223628D01*
X0297044Y0223615D01*
X0296956Y0223606D01*
X0296867Y0223601D01*
X0296778Y0223600D01*
X0296689Y0223603D01*
X0296600Y0223610D01*
X0296511Y0223621D01*
X0296423Y0223636D01*
X0296336Y0223654D01*
X0296250Y0223677D01*
X0296165Y0223703D01*
X0296081Y0223734D01*
X0295999Y0223768D01*
X0295918Y0223805D01*
X0295839Y0223846D01*
X0295762Y0223891D01*
X0295687Y0223939D01*
X0295614Y0223990D01*
X0295543Y0224044D01*
X0295475Y0224102D01*
X0295410Y0224162D01*
X0295347Y0224226D01*
X0295287Y0224292D01*
X0295230Y0224361D01*
X0295177Y0224432D01*
X0295126Y0224505D01*
X0295079Y0224581D01*
X0295036Y0224658D01*
X0294995Y0224738D01*
X0294959Y0224819D01*
X0294926Y0224902D01*
X0294897Y0224986D01*
X0294871Y0225072D01*
X0294849Y0225158D01*
X0294832Y0225245D01*
X0294818Y0225333D01*
X0294808Y0225422D01*
X0294802Y0225511D01*
X0294800Y0225600D01*
X0274800Y0225600D02*
X0274802Y0225689D01*
X0274808Y0225778D01*
X0274818Y0225867D01*
X0274832Y0225955D01*
X0274849Y0226042D01*
X0274871Y0226128D01*
X0274897Y0226214D01*
X0274926Y0226298D01*
X0274959Y0226381D01*
X0274995Y0226462D01*
X0275036Y0226542D01*
X0275079Y0226619D01*
X0275126Y0226695D01*
X0275177Y0226768D01*
X0275230Y0226839D01*
X0275287Y0226908D01*
X0275347Y0226974D01*
X0275410Y0227038D01*
X0275475Y0227098D01*
X0275543Y0227156D01*
X0275614Y0227210D01*
X0275687Y0227261D01*
X0275762Y0227309D01*
X0275839Y0227354D01*
X0275918Y0227395D01*
X0275999Y0227432D01*
X0276081Y0227466D01*
X0276165Y0227497D01*
X0276250Y0227523D01*
X0276336Y0227546D01*
X0276423Y0227564D01*
X0276511Y0227579D01*
X0276600Y0227590D01*
X0276689Y0227597D01*
X0276778Y0227600D01*
X0276867Y0227599D01*
X0276956Y0227594D01*
X0277044Y0227585D01*
X0277133Y0227572D01*
X0277220Y0227555D01*
X0277307Y0227535D01*
X0277393Y0227510D01*
X0277477Y0227482D01*
X0277560Y0227450D01*
X0277642Y0227414D01*
X0277722Y0227375D01*
X0277800Y0227332D01*
X0277876Y0227286D01*
X0277950Y0227236D01*
X0278022Y0227183D01*
X0278091Y0227127D01*
X0278158Y0227068D01*
X0278222Y0227006D01*
X0278283Y0226942D01*
X0278342Y0226874D01*
X0278397Y0226804D01*
X0278449Y0226732D01*
X0278498Y0226657D01*
X0278543Y0226581D01*
X0278585Y0226502D01*
X0278623Y0226422D01*
X0278658Y0226340D01*
X0278689Y0226256D01*
X0278717Y0226171D01*
X0278740Y0226085D01*
X0278760Y0225998D01*
X0278776Y0225911D01*
X0278788Y0225822D01*
X0278796Y0225734D01*
X0278800Y0225645D01*
X0278800Y0225555D01*
X0278796Y0225466D01*
X0278788Y0225378D01*
X0278776Y0225289D01*
X0278760Y0225202D01*
X0278740Y0225115D01*
X0278717Y0225029D01*
X0278689Y0224944D01*
X0278658Y0224860D01*
X0278623Y0224778D01*
X0278585Y0224698D01*
X0278543Y0224619D01*
X0278498Y0224543D01*
X0278449Y0224468D01*
X0278397Y0224396D01*
X0278342Y0224326D01*
X0278283Y0224258D01*
X0278222Y0224194D01*
X0278158Y0224132D01*
X0278091Y0224073D01*
X0278022Y0224017D01*
X0277950Y0223964D01*
X0277876Y0223914D01*
X0277800Y0223868D01*
X0277722Y0223825D01*
X0277642Y0223786D01*
X0277560Y0223750D01*
X0277477Y0223718D01*
X0277393Y0223690D01*
X0277307Y0223665D01*
X0277220Y0223645D01*
X0277133Y0223628D01*
X0277044Y0223615D01*
X0276956Y0223606D01*
X0276867Y0223601D01*
X0276778Y0223600D01*
X0276689Y0223603D01*
X0276600Y0223610D01*
X0276511Y0223621D01*
X0276423Y0223636D01*
X0276336Y0223654D01*
X0276250Y0223677D01*
X0276165Y0223703D01*
X0276081Y0223734D01*
X0275999Y0223768D01*
X0275918Y0223805D01*
X0275839Y0223846D01*
X0275762Y0223891D01*
X0275687Y0223939D01*
X0275614Y0223990D01*
X0275543Y0224044D01*
X0275475Y0224102D01*
X0275410Y0224162D01*
X0275347Y0224226D01*
X0275287Y0224292D01*
X0275230Y0224361D01*
X0275177Y0224432D01*
X0275126Y0224505D01*
X0275079Y0224581D01*
X0275036Y0224658D01*
X0274995Y0224738D01*
X0274959Y0224819D01*
X0274926Y0224902D01*
X0274897Y0224986D01*
X0274871Y0225072D01*
X0274849Y0225158D01*
X0274832Y0225245D01*
X0274818Y0225333D01*
X0274808Y0225422D01*
X0274802Y0225511D01*
X0274800Y0225600D01*
X0266800Y0220300D02*
X0266800Y0246300D01*
X0254800Y0225600D02*
X0254802Y0225689D01*
X0254808Y0225778D01*
X0254818Y0225867D01*
X0254832Y0225955D01*
X0254849Y0226042D01*
X0254871Y0226128D01*
X0254897Y0226214D01*
X0254926Y0226298D01*
X0254959Y0226381D01*
X0254995Y0226462D01*
X0255036Y0226542D01*
X0255079Y0226619D01*
X0255126Y0226695D01*
X0255177Y0226768D01*
X0255230Y0226839D01*
X0255287Y0226908D01*
X0255347Y0226974D01*
X0255410Y0227038D01*
X0255475Y0227098D01*
X0255543Y0227156D01*
X0255614Y0227210D01*
X0255687Y0227261D01*
X0255762Y0227309D01*
X0255839Y0227354D01*
X0255918Y0227395D01*
X0255999Y0227432D01*
X0256081Y0227466D01*
X0256165Y0227497D01*
X0256250Y0227523D01*
X0256336Y0227546D01*
X0256423Y0227564D01*
X0256511Y0227579D01*
X0256600Y0227590D01*
X0256689Y0227597D01*
X0256778Y0227600D01*
X0256867Y0227599D01*
X0256956Y0227594D01*
X0257044Y0227585D01*
X0257133Y0227572D01*
X0257220Y0227555D01*
X0257307Y0227535D01*
X0257393Y0227510D01*
X0257477Y0227482D01*
X0257560Y0227450D01*
X0257642Y0227414D01*
X0257722Y0227375D01*
X0257800Y0227332D01*
X0257876Y0227286D01*
X0257950Y0227236D01*
X0258022Y0227183D01*
X0258091Y0227127D01*
X0258158Y0227068D01*
X0258222Y0227006D01*
X0258283Y0226942D01*
X0258342Y0226874D01*
X0258397Y0226804D01*
X0258449Y0226732D01*
X0258498Y0226657D01*
X0258543Y0226581D01*
X0258585Y0226502D01*
X0258623Y0226422D01*
X0258658Y0226340D01*
X0258689Y0226256D01*
X0258717Y0226171D01*
X0258740Y0226085D01*
X0258760Y0225998D01*
X0258776Y0225911D01*
X0258788Y0225822D01*
X0258796Y0225734D01*
X0258800Y0225645D01*
X0258800Y0225555D01*
X0258796Y0225466D01*
X0258788Y0225378D01*
X0258776Y0225289D01*
X0258760Y0225202D01*
X0258740Y0225115D01*
X0258717Y0225029D01*
X0258689Y0224944D01*
X0258658Y0224860D01*
X0258623Y0224778D01*
X0258585Y0224698D01*
X0258543Y0224619D01*
X0258498Y0224543D01*
X0258449Y0224468D01*
X0258397Y0224396D01*
X0258342Y0224326D01*
X0258283Y0224258D01*
X0258222Y0224194D01*
X0258158Y0224132D01*
X0258091Y0224073D01*
X0258022Y0224017D01*
X0257950Y0223964D01*
X0257876Y0223914D01*
X0257800Y0223868D01*
X0257722Y0223825D01*
X0257642Y0223786D01*
X0257560Y0223750D01*
X0257477Y0223718D01*
X0257393Y0223690D01*
X0257307Y0223665D01*
X0257220Y0223645D01*
X0257133Y0223628D01*
X0257044Y0223615D01*
X0256956Y0223606D01*
X0256867Y0223601D01*
X0256778Y0223600D01*
X0256689Y0223603D01*
X0256600Y0223610D01*
X0256511Y0223621D01*
X0256423Y0223636D01*
X0256336Y0223654D01*
X0256250Y0223677D01*
X0256165Y0223703D01*
X0256081Y0223734D01*
X0255999Y0223768D01*
X0255918Y0223805D01*
X0255839Y0223846D01*
X0255762Y0223891D01*
X0255687Y0223939D01*
X0255614Y0223990D01*
X0255543Y0224044D01*
X0255475Y0224102D01*
X0255410Y0224162D01*
X0255347Y0224226D01*
X0255287Y0224292D01*
X0255230Y0224361D01*
X0255177Y0224432D01*
X0255126Y0224505D01*
X0255079Y0224581D01*
X0255036Y0224658D01*
X0254995Y0224738D01*
X0254959Y0224819D01*
X0254926Y0224902D01*
X0254897Y0224986D01*
X0254871Y0225072D01*
X0254849Y0225158D01*
X0254832Y0225245D01*
X0254818Y0225333D01*
X0254808Y0225422D01*
X0254802Y0225511D01*
X0254800Y0225600D01*
X0266800Y0220300D02*
X0226800Y0220300D01*
X0226800Y0219300D01*
X0186800Y0219300D01*
X0186800Y0220300D01*
X0186800Y0246300D01*
X0193300Y0246300D01*
X0186800Y0246300D02*
X0186800Y0255800D01*
X0186800Y0246300D01*
X0180300Y0246300D01*
X0186800Y0246300D02*
X0186800Y0220300D01*
X0226800Y0220300D01*
X0226800Y0246300D01*
X0226800Y0255800D01*
X0226800Y0246300D01*
X0220300Y0246300D01*
X0213300Y0246300D02*
X0200300Y0246300D01*
X0194800Y0225600D02*
X0194802Y0225689D01*
X0194808Y0225778D01*
X0194818Y0225867D01*
X0194832Y0225955D01*
X0194849Y0226042D01*
X0194871Y0226128D01*
X0194897Y0226214D01*
X0194926Y0226298D01*
X0194959Y0226381D01*
X0194995Y0226462D01*
X0195036Y0226542D01*
X0195079Y0226619D01*
X0195126Y0226695D01*
X0195177Y0226768D01*
X0195230Y0226839D01*
X0195287Y0226908D01*
X0195347Y0226974D01*
X0195410Y0227038D01*
X0195475Y0227098D01*
X0195543Y0227156D01*
X0195614Y0227210D01*
X0195687Y0227261D01*
X0195762Y0227309D01*
X0195839Y0227354D01*
X0195918Y0227395D01*
X0195999Y0227432D01*
X0196081Y0227466D01*
X0196165Y0227497D01*
X0196250Y0227523D01*
X0196336Y0227546D01*
X0196423Y0227564D01*
X0196511Y0227579D01*
X0196600Y0227590D01*
X0196689Y0227597D01*
X0196778Y0227600D01*
X0196867Y0227599D01*
X0196956Y0227594D01*
X0197044Y0227585D01*
X0197133Y0227572D01*
X0197220Y0227555D01*
X0197307Y0227535D01*
X0197393Y0227510D01*
X0197477Y0227482D01*
X0197560Y0227450D01*
X0197642Y0227414D01*
X0197722Y0227375D01*
X0197800Y0227332D01*
X0197876Y0227286D01*
X0197950Y0227236D01*
X0198022Y0227183D01*
X0198091Y0227127D01*
X0198158Y0227068D01*
X0198222Y0227006D01*
X0198283Y0226942D01*
X0198342Y0226874D01*
X0198397Y0226804D01*
X0198449Y0226732D01*
X0198498Y0226657D01*
X0198543Y0226581D01*
X0198585Y0226502D01*
X0198623Y0226422D01*
X0198658Y0226340D01*
X0198689Y0226256D01*
X0198717Y0226171D01*
X0198740Y0226085D01*
X0198760Y0225998D01*
X0198776Y0225911D01*
X0198788Y0225822D01*
X0198796Y0225734D01*
X0198800Y0225645D01*
X0198800Y0225555D01*
X0198796Y0225466D01*
X0198788Y0225378D01*
X0198776Y0225289D01*
X0198760Y0225202D01*
X0198740Y0225115D01*
X0198717Y0225029D01*
X0198689Y0224944D01*
X0198658Y0224860D01*
X0198623Y0224778D01*
X0198585Y0224698D01*
X0198543Y0224619D01*
X0198498Y0224543D01*
X0198449Y0224468D01*
X0198397Y0224396D01*
X0198342Y0224326D01*
X0198283Y0224258D01*
X0198222Y0224194D01*
X0198158Y0224132D01*
X0198091Y0224073D01*
X0198022Y0224017D01*
X0197950Y0223964D01*
X0197876Y0223914D01*
X0197800Y0223868D01*
X0197722Y0223825D01*
X0197642Y0223786D01*
X0197560Y0223750D01*
X0197477Y0223718D01*
X0197393Y0223690D01*
X0197307Y0223665D01*
X0197220Y0223645D01*
X0197133Y0223628D01*
X0197044Y0223615D01*
X0196956Y0223606D01*
X0196867Y0223601D01*
X0196778Y0223600D01*
X0196689Y0223603D01*
X0196600Y0223610D01*
X0196511Y0223621D01*
X0196423Y0223636D01*
X0196336Y0223654D01*
X0196250Y0223677D01*
X0196165Y0223703D01*
X0196081Y0223734D01*
X0195999Y0223768D01*
X0195918Y0223805D01*
X0195839Y0223846D01*
X0195762Y0223891D01*
X0195687Y0223939D01*
X0195614Y0223990D01*
X0195543Y0224044D01*
X0195475Y0224102D01*
X0195410Y0224162D01*
X0195347Y0224226D01*
X0195287Y0224292D01*
X0195230Y0224361D01*
X0195177Y0224432D01*
X0195126Y0224505D01*
X0195079Y0224581D01*
X0195036Y0224658D01*
X0194995Y0224738D01*
X0194959Y0224819D01*
X0194926Y0224902D01*
X0194897Y0224986D01*
X0194871Y0225072D01*
X0194849Y0225158D01*
X0194832Y0225245D01*
X0194818Y0225333D01*
X0194808Y0225422D01*
X0194802Y0225511D01*
X0194800Y0225600D01*
X0186800Y0220300D02*
X0186800Y0219300D01*
X0146800Y0219300D01*
X0146800Y0220300D01*
X0146800Y0246300D01*
X0153300Y0246300D01*
X0160300Y0246300D02*
X0173300Y0246300D01*
X0146800Y0246300D02*
X0146800Y0255800D01*
X0146800Y0246300D01*
X0140300Y0246300D01*
X0133300Y0246300D02*
X0120300Y0246300D01*
X0106800Y0246300D02*
X0106800Y0255800D01*
X0066800Y0255800D01*
X0066800Y0246300D01*
X0066800Y0220300D01*
X0066800Y0219300D01*
X0106800Y0219300D01*
X0146800Y0219300D01*
X0146800Y0220300D01*
X0186800Y0220300D01*
X0174800Y0225600D02*
X0174802Y0225689D01*
X0174808Y0225778D01*
X0174818Y0225867D01*
X0174832Y0225955D01*
X0174849Y0226042D01*
X0174871Y0226128D01*
X0174897Y0226214D01*
X0174926Y0226298D01*
X0174959Y0226381D01*
X0174995Y0226462D01*
X0175036Y0226542D01*
X0175079Y0226619D01*
X0175126Y0226695D01*
X0175177Y0226768D01*
X0175230Y0226839D01*
X0175287Y0226908D01*
X0175347Y0226974D01*
X0175410Y0227038D01*
X0175475Y0227098D01*
X0175543Y0227156D01*
X0175614Y0227210D01*
X0175687Y0227261D01*
X0175762Y0227309D01*
X0175839Y0227354D01*
X0175918Y0227395D01*
X0175999Y0227432D01*
X0176081Y0227466D01*
X0176165Y0227497D01*
X0176250Y0227523D01*
X0176336Y0227546D01*
X0176423Y0227564D01*
X0176511Y0227579D01*
X0176600Y0227590D01*
X0176689Y0227597D01*
X0176778Y0227600D01*
X0176867Y0227599D01*
X0176956Y0227594D01*
X0177044Y0227585D01*
X0177133Y0227572D01*
X0177220Y0227555D01*
X0177307Y0227535D01*
X0177393Y0227510D01*
X0177477Y0227482D01*
X0177560Y0227450D01*
X0177642Y0227414D01*
X0177722Y0227375D01*
X0177800Y0227332D01*
X0177876Y0227286D01*
X0177950Y0227236D01*
X0178022Y0227183D01*
X0178091Y0227127D01*
X0178158Y0227068D01*
X0178222Y0227006D01*
X0178283Y0226942D01*
X0178342Y0226874D01*
X0178397Y0226804D01*
X0178449Y0226732D01*
X0178498Y0226657D01*
X0178543Y0226581D01*
X0178585Y0226502D01*
X0178623Y0226422D01*
X0178658Y0226340D01*
X0178689Y0226256D01*
X0178717Y0226171D01*
X0178740Y0226085D01*
X0178760Y0225998D01*
X0178776Y0225911D01*
X0178788Y0225822D01*
X0178796Y0225734D01*
X0178800Y0225645D01*
X0178800Y0225555D01*
X0178796Y0225466D01*
X0178788Y0225378D01*
X0178776Y0225289D01*
X0178760Y0225202D01*
X0178740Y0225115D01*
X0178717Y0225029D01*
X0178689Y0224944D01*
X0178658Y0224860D01*
X0178623Y0224778D01*
X0178585Y0224698D01*
X0178543Y0224619D01*
X0178498Y0224543D01*
X0178449Y0224468D01*
X0178397Y0224396D01*
X0178342Y0224326D01*
X0178283Y0224258D01*
X0178222Y0224194D01*
X0178158Y0224132D01*
X0178091Y0224073D01*
X0178022Y0224017D01*
X0177950Y0223964D01*
X0177876Y0223914D01*
X0177800Y0223868D01*
X0177722Y0223825D01*
X0177642Y0223786D01*
X0177560Y0223750D01*
X0177477Y0223718D01*
X0177393Y0223690D01*
X0177307Y0223665D01*
X0177220Y0223645D01*
X0177133Y0223628D01*
X0177044Y0223615D01*
X0176956Y0223606D01*
X0176867Y0223601D01*
X0176778Y0223600D01*
X0176689Y0223603D01*
X0176600Y0223610D01*
X0176511Y0223621D01*
X0176423Y0223636D01*
X0176336Y0223654D01*
X0176250Y0223677D01*
X0176165Y0223703D01*
X0176081Y0223734D01*
X0175999Y0223768D01*
X0175918Y0223805D01*
X0175839Y0223846D01*
X0175762Y0223891D01*
X0175687Y0223939D01*
X0175614Y0223990D01*
X0175543Y0224044D01*
X0175475Y0224102D01*
X0175410Y0224162D01*
X0175347Y0224226D01*
X0175287Y0224292D01*
X0175230Y0224361D01*
X0175177Y0224432D01*
X0175126Y0224505D01*
X0175079Y0224581D01*
X0175036Y0224658D01*
X0174995Y0224738D01*
X0174959Y0224819D01*
X0174926Y0224902D01*
X0174897Y0224986D01*
X0174871Y0225072D01*
X0174849Y0225158D01*
X0174832Y0225245D01*
X0174818Y0225333D01*
X0174808Y0225422D01*
X0174802Y0225511D01*
X0174800Y0225600D01*
X0154800Y0225600D02*
X0154802Y0225689D01*
X0154808Y0225778D01*
X0154818Y0225867D01*
X0154832Y0225955D01*
X0154849Y0226042D01*
X0154871Y0226128D01*
X0154897Y0226214D01*
X0154926Y0226298D01*
X0154959Y0226381D01*
X0154995Y0226462D01*
X0155036Y0226542D01*
X0155079Y0226619D01*
X0155126Y0226695D01*
X0155177Y0226768D01*
X0155230Y0226839D01*
X0155287Y0226908D01*
X0155347Y0226974D01*
X0155410Y0227038D01*
X0155475Y0227098D01*
X0155543Y0227156D01*
X0155614Y0227210D01*
X0155687Y0227261D01*
X0155762Y0227309D01*
X0155839Y0227354D01*
X0155918Y0227395D01*
X0155999Y0227432D01*
X0156081Y0227466D01*
X0156165Y0227497D01*
X0156250Y0227523D01*
X0156336Y0227546D01*
X0156423Y0227564D01*
X0156511Y0227579D01*
X0156600Y0227590D01*
X0156689Y0227597D01*
X0156778Y0227600D01*
X0156867Y0227599D01*
X0156956Y0227594D01*
X0157044Y0227585D01*
X0157133Y0227572D01*
X0157220Y0227555D01*
X0157307Y0227535D01*
X0157393Y0227510D01*
X0157477Y0227482D01*
X0157560Y0227450D01*
X0157642Y0227414D01*
X0157722Y0227375D01*
X0157800Y0227332D01*
X0157876Y0227286D01*
X0157950Y0227236D01*
X0158022Y0227183D01*
X0158091Y0227127D01*
X0158158Y0227068D01*
X0158222Y0227006D01*
X0158283Y0226942D01*
X0158342Y0226874D01*
X0158397Y0226804D01*
X0158449Y0226732D01*
X0158498Y0226657D01*
X0158543Y0226581D01*
X0158585Y0226502D01*
X0158623Y0226422D01*
X0158658Y0226340D01*
X0158689Y0226256D01*
X0158717Y0226171D01*
X0158740Y0226085D01*
X0158760Y0225998D01*
X0158776Y0225911D01*
X0158788Y0225822D01*
X0158796Y0225734D01*
X0158800Y0225645D01*
X0158800Y0225555D01*
X0158796Y0225466D01*
X0158788Y0225378D01*
X0158776Y0225289D01*
X0158760Y0225202D01*
X0158740Y0225115D01*
X0158717Y0225029D01*
X0158689Y0224944D01*
X0158658Y0224860D01*
X0158623Y0224778D01*
X0158585Y0224698D01*
X0158543Y0224619D01*
X0158498Y0224543D01*
X0158449Y0224468D01*
X0158397Y0224396D01*
X0158342Y0224326D01*
X0158283Y0224258D01*
X0158222Y0224194D01*
X0158158Y0224132D01*
X0158091Y0224073D01*
X0158022Y0224017D01*
X0157950Y0223964D01*
X0157876Y0223914D01*
X0157800Y0223868D01*
X0157722Y0223825D01*
X0157642Y0223786D01*
X0157560Y0223750D01*
X0157477Y0223718D01*
X0157393Y0223690D01*
X0157307Y0223665D01*
X0157220Y0223645D01*
X0157133Y0223628D01*
X0157044Y0223615D01*
X0156956Y0223606D01*
X0156867Y0223601D01*
X0156778Y0223600D01*
X0156689Y0223603D01*
X0156600Y0223610D01*
X0156511Y0223621D01*
X0156423Y0223636D01*
X0156336Y0223654D01*
X0156250Y0223677D01*
X0156165Y0223703D01*
X0156081Y0223734D01*
X0155999Y0223768D01*
X0155918Y0223805D01*
X0155839Y0223846D01*
X0155762Y0223891D01*
X0155687Y0223939D01*
X0155614Y0223990D01*
X0155543Y0224044D01*
X0155475Y0224102D01*
X0155410Y0224162D01*
X0155347Y0224226D01*
X0155287Y0224292D01*
X0155230Y0224361D01*
X0155177Y0224432D01*
X0155126Y0224505D01*
X0155079Y0224581D01*
X0155036Y0224658D01*
X0154995Y0224738D01*
X0154959Y0224819D01*
X0154926Y0224902D01*
X0154897Y0224986D01*
X0154871Y0225072D01*
X0154849Y0225158D01*
X0154832Y0225245D01*
X0154818Y0225333D01*
X0154808Y0225422D01*
X0154802Y0225511D01*
X0154800Y0225600D01*
X0146800Y0220300D02*
X0146800Y0246300D01*
X0134800Y0225600D02*
X0134802Y0225689D01*
X0134808Y0225778D01*
X0134818Y0225867D01*
X0134832Y0225955D01*
X0134849Y0226042D01*
X0134871Y0226128D01*
X0134897Y0226214D01*
X0134926Y0226298D01*
X0134959Y0226381D01*
X0134995Y0226462D01*
X0135036Y0226542D01*
X0135079Y0226619D01*
X0135126Y0226695D01*
X0135177Y0226768D01*
X0135230Y0226839D01*
X0135287Y0226908D01*
X0135347Y0226974D01*
X0135410Y0227038D01*
X0135475Y0227098D01*
X0135543Y0227156D01*
X0135614Y0227210D01*
X0135687Y0227261D01*
X0135762Y0227309D01*
X0135839Y0227354D01*
X0135918Y0227395D01*
X0135999Y0227432D01*
X0136081Y0227466D01*
X0136165Y0227497D01*
X0136250Y0227523D01*
X0136336Y0227546D01*
X0136423Y0227564D01*
X0136511Y0227579D01*
X0136600Y0227590D01*
X0136689Y0227597D01*
X0136778Y0227600D01*
X0136867Y0227599D01*
X0136956Y0227594D01*
X0137044Y0227585D01*
X0137133Y0227572D01*
X0137220Y0227555D01*
X0137307Y0227535D01*
X0137393Y0227510D01*
X0137477Y0227482D01*
X0137560Y0227450D01*
X0137642Y0227414D01*
X0137722Y0227375D01*
X0137800Y0227332D01*
X0137876Y0227286D01*
X0137950Y0227236D01*
X0138022Y0227183D01*
X0138091Y0227127D01*
X0138158Y0227068D01*
X0138222Y0227006D01*
X0138283Y0226942D01*
X0138342Y0226874D01*
X0138397Y0226804D01*
X0138449Y0226732D01*
X0138498Y0226657D01*
X0138543Y0226581D01*
X0138585Y0226502D01*
X0138623Y0226422D01*
X0138658Y0226340D01*
X0138689Y0226256D01*
X0138717Y0226171D01*
X0138740Y0226085D01*
X0138760Y0225998D01*
X0138776Y0225911D01*
X0138788Y0225822D01*
X0138796Y0225734D01*
X0138800Y0225645D01*
X0138800Y0225555D01*
X0138796Y0225466D01*
X0138788Y0225378D01*
X0138776Y0225289D01*
X0138760Y0225202D01*
X0138740Y0225115D01*
X0138717Y0225029D01*
X0138689Y0224944D01*
X0138658Y0224860D01*
X0138623Y0224778D01*
X0138585Y0224698D01*
X0138543Y0224619D01*
X0138498Y0224543D01*
X0138449Y0224468D01*
X0138397Y0224396D01*
X0138342Y0224326D01*
X0138283Y0224258D01*
X0138222Y0224194D01*
X0138158Y0224132D01*
X0138091Y0224073D01*
X0138022Y0224017D01*
X0137950Y0223964D01*
X0137876Y0223914D01*
X0137800Y0223868D01*
X0137722Y0223825D01*
X0137642Y0223786D01*
X0137560Y0223750D01*
X0137477Y0223718D01*
X0137393Y0223690D01*
X0137307Y0223665D01*
X0137220Y0223645D01*
X0137133Y0223628D01*
X0137044Y0223615D01*
X0136956Y0223606D01*
X0136867Y0223601D01*
X0136778Y0223600D01*
X0136689Y0223603D01*
X0136600Y0223610D01*
X0136511Y0223621D01*
X0136423Y0223636D01*
X0136336Y0223654D01*
X0136250Y0223677D01*
X0136165Y0223703D01*
X0136081Y0223734D01*
X0135999Y0223768D01*
X0135918Y0223805D01*
X0135839Y0223846D01*
X0135762Y0223891D01*
X0135687Y0223939D01*
X0135614Y0223990D01*
X0135543Y0224044D01*
X0135475Y0224102D01*
X0135410Y0224162D01*
X0135347Y0224226D01*
X0135287Y0224292D01*
X0135230Y0224361D01*
X0135177Y0224432D01*
X0135126Y0224505D01*
X0135079Y0224581D01*
X0135036Y0224658D01*
X0134995Y0224738D01*
X0134959Y0224819D01*
X0134926Y0224902D01*
X0134897Y0224986D01*
X0134871Y0225072D01*
X0134849Y0225158D01*
X0134832Y0225245D01*
X0134818Y0225333D01*
X0134808Y0225422D01*
X0134802Y0225511D01*
X0134800Y0225600D01*
X0146800Y0220300D02*
X0106800Y0220300D01*
X0106800Y0219300D01*
X0106800Y0220300D02*
X0106800Y0246300D01*
X0100300Y0246300D01*
X0093300Y0246300D02*
X0080300Y0246300D01*
X0073300Y0246300D02*
X0066800Y0246300D01*
X0066800Y0255800D01*
X0026800Y0255800D01*
X0026800Y0246300D01*
X0026800Y0220300D01*
X0026800Y0219300D01*
X0066800Y0219300D01*
X0066800Y0220300D01*
X0106800Y0220300D01*
X0094800Y0225600D02*
X0094802Y0225689D01*
X0094808Y0225778D01*
X0094818Y0225867D01*
X0094832Y0225955D01*
X0094849Y0226042D01*
X0094871Y0226128D01*
X0094897Y0226214D01*
X0094926Y0226298D01*
X0094959Y0226381D01*
X0094995Y0226462D01*
X0095036Y0226542D01*
X0095079Y0226619D01*
X0095126Y0226695D01*
X0095177Y0226768D01*
X0095230Y0226839D01*
X0095287Y0226908D01*
X0095347Y0226974D01*
X0095410Y0227038D01*
X0095475Y0227098D01*
X0095543Y0227156D01*
X0095614Y0227210D01*
X0095687Y0227261D01*
X0095762Y0227309D01*
X0095839Y0227354D01*
X0095918Y0227395D01*
X0095999Y0227432D01*
X0096081Y0227466D01*
X0096165Y0227497D01*
X0096250Y0227523D01*
X0096336Y0227546D01*
X0096423Y0227564D01*
X0096511Y0227579D01*
X0096600Y0227590D01*
X0096689Y0227597D01*
X0096778Y0227600D01*
X0096867Y0227599D01*
X0096956Y0227594D01*
X0097044Y0227585D01*
X0097133Y0227572D01*
X0097220Y0227555D01*
X0097307Y0227535D01*
X0097393Y0227510D01*
X0097477Y0227482D01*
X0097560Y0227450D01*
X0097642Y0227414D01*
X0097722Y0227375D01*
X0097800Y0227332D01*
X0097876Y0227286D01*
X0097950Y0227236D01*
X0098022Y0227183D01*
X0098091Y0227127D01*
X0098158Y0227068D01*
X0098222Y0227006D01*
X0098283Y0226942D01*
X0098342Y0226874D01*
X0098397Y0226804D01*
X0098449Y0226732D01*
X0098498Y0226657D01*
X0098543Y0226581D01*
X0098585Y0226502D01*
X0098623Y0226422D01*
X0098658Y0226340D01*
X0098689Y0226256D01*
X0098717Y0226171D01*
X0098740Y0226085D01*
X0098760Y0225998D01*
X0098776Y0225911D01*
X0098788Y0225822D01*
X0098796Y0225734D01*
X0098800Y0225645D01*
X0098800Y0225555D01*
X0098796Y0225466D01*
X0098788Y0225378D01*
X0098776Y0225289D01*
X0098760Y0225202D01*
X0098740Y0225115D01*
X0098717Y0225029D01*
X0098689Y0224944D01*
X0098658Y0224860D01*
X0098623Y0224778D01*
X0098585Y0224698D01*
X0098543Y0224619D01*
X0098498Y0224543D01*
X0098449Y0224468D01*
X0098397Y0224396D01*
X0098342Y0224326D01*
X0098283Y0224258D01*
X0098222Y0224194D01*
X0098158Y0224132D01*
X0098091Y0224073D01*
X0098022Y0224017D01*
X0097950Y0223964D01*
X0097876Y0223914D01*
X0097800Y0223868D01*
X0097722Y0223825D01*
X0097642Y0223786D01*
X0097560Y0223750D01*
X0097477Y0223718D01*
X0097393Y0223690D01*
X0097307Y0223665D01*
X0097220Y0223645D01*
X0097133Y0223628D01*
X0097044Y0223615D01*
X0096956Y0223606D01*
X0096867Y0223601D01*
X0096778Y0223600D01*
X0096689Y0223603D01*
X0096600Y0223610D01*
X0096511Y0223621D01*
X0096423Y0223636D01*
X0096336Y0223654D01*
X0096250Y0223677D01*
X0096165Y0223703D01*
X0096081Y0223734D01*
X0095999Y0223768D01*
X0095918Y0223805D01*
X0095839Y0223846D01*
X0095762Y0223891D01*
X0095687Y0223939D01*
X0095614Y0223990D01*
X0095543Y0224044D01*
X0095475Y0224102D01*
X0095410Y0224162D01*
X0095347Y0224226D01*
X0095287Y0224292D01*
X0095230Y0224361D01*
X0095177Y0224432D01*
X0095126Y0224505D01*
X0095079Y0224581D01*
X0095036Y0224658D01*
X0094995Y0224738D01*
X0094959Y0224819D01*
X0094926Y0224902D01*
X0094897Y0224986D01*
X0094871Y0225072D01*
X0094849Y0225158D01*
X0094832Y0225245D01*
X0094818Y0225333D01*
X0094808Y0225422D01*
X0094802Y0225511D01*
X0094800Y0225600D01*
X0074800Y0225600D02*
X0074802Y0225689D01*
X0074808Y0225778D01*
X0074818Y0225867D01*
X0074832Y0225955D01*
X0074849Y0226042D01*
X0074871Y0226128D01*
X0074897Y0226214D01*
X0074926Y0226298D01*
X0074959Y0226381D01*
X0074995Y0226462D01*
X0075036Y0226542D01*
X0075079Y0226619D01*
X0075126Y0226695D01*
X0075177Y0226768D01*
X0075230Y0226839D01*
X0075287Y0226908D01*
X0075347Y0226974D01*
X0075410Y0227038D01*
X0075475Y0227098D01*
X0075543Y0227156D01*
X0075614Y0227210D01*
X0075687Y0227261D01*
X0075762Y0227309D01*
X0075839Y0227354D01*
X0075918Y0227395D01*
X0075999Y0227432D01*
X0076081Y0227466D01*
X0076165Y0227497D01*
X0076250Y0227523D01*
X0076336Y0227546D01*
X0076423Y0227564D01*
X0076511Y0227579D01*
X0076600Y0227590D01*
X0076689Y0227597D01*
X0076778Y0227600D01*
X0076867Y0227599D01*
X0076956Y0227594D01*
X0077044Y0227585D01*
X0077133Y0227572D01*
X0077220Y0227555D01*
X0077307Y0227535D01*
X0077393Y0227510D01*
X0077477Y0227482D01*
X0077560Y0227450D01*
X0077642Y0227414D01*
X0077722Y0227375D01*
X0077800Y0227332D01*
X0077876Y0227286D01*
X0077950Y0227236D01*
X0078022Y0227183D01*
X0078091Y0227127D01*
X0078158Y0227068D01*
X0078222Y0227006D01*
X0078283Y0226942D01*
X0078342Y0226874D01*
X0078397Y0226804D01*
X0078449Y0226732D01*
X0078498Y0226657D01*
X0078543Y0226581D01*
X0078585Y0226502D01*
X0078623Y0226422D01*
X0078658Y0226340D01*
X0078689Y0226256D01*
X0078717Y0226171D01*
X0078740Y0226085D01*
X0078760Y0225998D01*
X0078776Y0225911D01*
X0078788Y0225822D01*
X0078796Y0225734D01*
X0078800Y0225645D01*
X0078800Y0225555D01*
X0078796Y0225466D01*
X0078788Y0225378D01*
X0078776Y0225289D01*
X0078760Y0225202D01*
X0078740Y0225115D01*
X0078717Y0225029D01*
X0078689Y0224944D01*
X0078658Y0224860D01*
X0078623Y0224778D01*
X0078585Y0224698D01*
X0078543Y0224619D01*
X0078498Y0224543D01*
X0078449Y0224468D01*
X0078397Y0224396D01*
X0078342Y0224326D01*
X0078283Y0224258D01*
X0078222Y0224194D01*
X0078158Y0224132D01*
X0078091Y0224073D01*
X0078022Y0224017D01*
X0077950Y0223964D01*
X0077876Y0223914D01*
X0077800Y0223868D01*
X0077722Y0223825D01*
X0077642Y0223786D01*
X0077560Y0223750D01*
X0077477Y0223718D01*
X0077393Y0223690D01*
X0077307Y0223665D01*
X0077220Y0223645D01*
X0077133Y0223628D01*
X0077044Y0223615D01*
X0076956Y0223606D01*
X0076867Y0223601D01*
X0076778Y0223600D01*
X0076689Y0223603D01*
X0076600Y0223610D01*
X0076511Y0223621D01*
X0076423Y0223636D01*
X0076336Y0223654D01*
X0076250Y0223677D01*
X0076165Y0223703D01*
X0076081Y0223734D01*
X0075999Y0223768D01*
X0075918Y0223805D01*
X0075839Y0223846D01*
X0075762Y0223891D01*
X0075687Y0223939D01*
X0075614Y0223990D01*
X0075543Y0224044D01*
X0075475Y0224102D01*
X0075410Y0224162D01*
X0075347Y0224226D01*
X0075287Y0224292D01*
X0075230Y0224361D01*
X0075177Y0224432D01*
X0075126Y0224505D01*
X0075079Y0224581D01*
X0075036Y0224658D01*
X0074995Y0224738D01*
X0074959Y0224819D01*
X0074926Y0224902D01*
X0074897Y0224986D01*
X0074871Y0225072D01*
X0074849Y0225158D01*
X0074832Y0225245D01*
X0074818Y0225333D01*
X0074808Y0225422D01*
X0074802Y0225511D01*
X0074800Y0225600D01*
X0066800Y0220300D02*
X0066800Y0246300D01*
X0060300Y0246300D01*
X0053300Y0246300D02*
X0040300Y0246300D01*
X0033300Y0246300D02*
X0026800Y0246300D01*
X0034800Y0225600D02*
X0034802Y0225689D01*
X0034808Y0225778D01*
X0034818Y0225867D01*
X0034832Y0225955D01*
X0034849Y0226042D01*
X0034871Y0226128D01*
X0034897Y0226214D01*
X0034926Y0226298D01*
X0034959Y0226381D01*
X0034995Y0226462D01*
X0035036Y0226542D01*
X0035079Y0226619D01*
X0035126Y0226695D01*
X0035177Y0226768D01*
X0035230Y0226839D01*
X0035287Y0226908D01*
X0035347Y0226974D01*
X0035410Y0227038D01*
X0035475Y0227098D01*
X0035543Y0227156D01*
X0035614Y0227210D01*
X0035687Y0227261D01*
X0035762Y0227309D01*
X0035839Y0227354D01*
X0035918Y0227395D01*
X0035999Y0227432D01*
X0036081Y0227466D01*
X0036165Y0227497D01*
X0036250Y0227523D01*
X0036336Y0227546D01*
X0036423Y0227564D01*
X0036511Y0227579D01*
X0036600Y0227590D01*
X0036689Y0227597D01*
X0036778Y0227600D01*
X0036867Y0227599D01*
X0036956Y0227594D01*
X0037044Y0227585D01*
X0037133Y0227572D01*
X0037220Y0227555D01*
X0037307Y0227535D01*
X0037393Y0227510D01*
X0037477Y0227482D01*
X0037560Y0227450D01*
X0037642Y0227414D01*
X0037722Y0227375D01*
X0037800Y0227332D01*
X0037876Y0227286D01*
X0037950Y0227236D01*
X0038022Y0227183D01*
X0038091Y0227127D01*
X0038158Y0227068D01*
X0038222Y0227006D01*
X0038283Y0226942D01*
X0038342Y0226874D01*
X0038397Y0226804D01*
X0038449Y0226732D01*
X0038498Y0226657D01*
X0038543Y0226581D01*
X0038585Y0226502D01*
X0038623Y0226422D01*
X0038658Y0226340D01*
X0038689Y0226256D01*
X0038717Y0226171D01*
X0038740Y0226085D01*
X0038760Y0225998D01*
X0038776Y0225911D01*
X0038788Y0225822D01*
X0038796Y0225734D01*
X0038800Y0225645D01*
X0038800Y0225555D01*
X0038796Y0225466D01*
X0038788Y0225378D01*
X0038776Y0225289D01*
X0038760Y0225202D01*
X0038740Y0225115D01*
X0038717Y0225029D01*
X0038689Y0224944D01*
X0038658Y0224860D01*
X0038623Y0224778D01*
X0038585Y0224698D01*
X0038543Y0224619D01*
X0038498Y0224543D01*
X0038449Y0224468D01*
X0038397Y0224396D01*
X0038342Y0224326D01*
X0038283Y0224258D01*
X0038222Y0224194D01*
X0038158Y0224132D01*
X0038091Y0224073D01*
X0038022Y0224017D01*
X0037950Y0223964D01*
X0037876Y0223914D01*
X0037800Y0223868D01*
X0037722Y0223825D01*
X0037642Y0223786D01*
X0037560Y0223750D01*
X0037477Y0223718D01*
X0037393Y0223690D01*
X0037307Y0223665D01*
X0037220Y0223645D01*
X0037133Y0223628D01*
X0037044Y0223615D01*
X0036956Y0223606D01*
X0036867Y0223601D01*
X0036778Y0223600D01*
X0036689Y0223603D01*
X0036600Y0223610D01*
X0036511Y0223621D01*
X0036423Y0223636D01*
X0036336Y0223654D01*
X0036250Y0223677D01*
X0036165Y0223703D01*
X0036081Y0223734D01*
X0035999Y0223768D01*
X0035918Y0223805D01*
X0035839Y0223846D01*
X0035762Y0223891D01*
X0035687Y0223939D01*
X0035614Y0223990D01*
X0035543Y0224044D01*
X0035475Y0224102D01*
X0035410Y0224162D01*
X0035347Y0224226D01*
X0035287Y0224292D01*
X0035230Y0224361D01*
X0035177Y0224432D01*
X0035126Y0224505D01*
X0035079Y0224581D01*
X0035036Y0224658D01*
X0034995Y0224738D01*
X0034959Y0224819D01*
X0034926Y0224902D01*
X0034897Y0224986D01*
X0034871Y0225072D01*
X0034849Y0225158D01*
X0034832Y0225245D01*
X0034818Y0225333D01*
X0034808Y0225422D01*
X0034802Y0225511D01*
X0034800Y0225600D01*
X0026800Y0220300D02*
X0066800Y0220300D01*
X0054800Y0225600D02*
X0054802Y0225689D01*
X0054808Y0225778D01*
X0054818Y0225867D01*
X0054832Y0225955D01*
X0054849Y0226042D01*
X0054871Y0226128D01*
X0054897Y0226214D01*
X0054926Y0226298D01*
X0054959Y0226381D01*
X0054995Y0226462D01*
X0055036Y0226542D01*
X0055079Y0226619D01*
X0055126Y0226695D01*
X0055177Y0226768D01*
X0055230Y0226839D01*
X0055287Y0226908D01*
X0055347Y0226974D01*
X0055410Y0227038D01*
X0055475Y0227098D01*
X0055543Y0227156D01*
X0055614Y0227210D01*
X0055687Y0227261D01*
X0055762Y0227309D01*
X0055839Y0227354D01*
X0055918Y0227395D01*
X0055999Y0227432D01*
X0056081Y0227466D01*
X0056165Y0227497D01*
X0056250Y0227523D01*
X0056336Y0227546D01*
X0056423Y0227564D01*
X0056511Y0227579D01*
X0056600Y0227590D01*
X0056689Y0227597D01*
X0056778Y0227600D01*
X0056867Y0227599D01*
X0056956Y0227594D01*
X0057044Y0227585D01*
X0057133Y0227572D01*
X0057220Y0227555D01*
X0057307Y0227535D01*
X0057393Y0227510D01*
X0057477Y0227482D01*
X0057560Y0227450D01*
X0057642Y0227414D01*
X0057722Y0227375D01*
X0057800Y0227332D01*
X0057876Y0227286D01*
X0057950Y0227236D01*
X0058022Y0227183D01*
X0058091Y0227127D01*
X0058158Y0227068D01*
X0058222Y0227006D01*
X0058283Y0226942D01*
X0058342Y0226874D01*
X0058397Y0226804D01*
X0058449Y0226732D01*
X0058498Y0226657D01*
X0058543Y0226581D01*
X0058585Y0226502D01*
X0058623Y0226422D01*
X0058658Y0226340D01*
X0058689Y0226256D01*
X0058717Y0226171D01*
X0058740Y0226085D01*
X0058760Y0225998D01*
X0058776Y0225911D01*
X0058788Y0225822D01*
X0058796Y0225734D01*
X0058800Y0225645D01*
X0058800Y0225555D01*
X0058796Y0225466D01*
X0058788Y0225378D01*
X0058776Y0225289D01*
X0058760Y0225202D01*
X0058740Y0225115D01*
X0058717Y0225029D01*
X0058689Y0224944D01*
X0058658Y0224860D01*
X0058623Y0224778D01*
X0058585Y0224698D01*
X0058543Y0224619D01*
X0058498Y0224543D01*
X0058449Y0224468D01*
X0058397Y0224396D01*
X0058342Y0224326D01*
X0058283Y0224258D01*
X0058222Y0224194D01*
X0058158Y0224132D01*
X0058091Y0224073D01*
X0058022Y0224017D01*
X0057950Y0223964D01*
X0057876Y0223914D01*
X0057800Y0223868D01*
X0057722Y0223825D01*
X0057642Y0223786D01*
X0057560Y0223750D01*
X0057477Y0223718D01*
X0057393Y0223690D01*
X0057307Y0223665D01*
X0057220Y0223645D01*
X0057133Y0223628D01*
X0057044Y0223615D01*
X0056956Y0223606D01*
X0056867Y0223601D01*
X0056778Y0223600D01*
X0056689Y0223603D01*
X0056600Y0223610D01*
X0056511Y0223621D01*
X0056423Y0223636D01*
X0056336Y0223654D01*
X0056250Y0223677D01*
X0056165Y0223703D01*
X0056081Y0223734D01*
X0055999Y0223768D01*
X0055918Y0223805D01*
X0055839Y0223846D01*
X0055762Y0223891D01*
X0055687Y0223939D01*
X0055614Y0223990D01*
X0055543Y0224044D01*
X0055475Y0224102D01*
X0055410Y0224162D01*
X0055347Y0224226D01*
X0055287Y0224292D01*
X0055230Y0224361D01*
X0055177Y0224432D01*
X0055126Y0224505D01*
X0055079Y0224581D01*
X0055036Y0224658D01*
X0054995Y0224738D01*
X0054959Y0224819D01*
X0054926Y0224902D01*
X0054897Y0224986D01*
X0054871Y0225072D01*
X0054849Y0225158D01*
X0054832Y0225245D01*
X0054818Y0225333D01*
X0054808Y0225422D01*
X0054802Y0225511D01*
X0054800Y0225600D01*
X0039235Y0212438D02*
X0039235Y0208168D01*
X0037100Y0210303D02*
X0041370Y0210303D01*
X0114800Y0225600D02*
X0114802Y0225689D01*
X0114808Y0225778D01*
X0114818Y0225867D01*
X0114832Y0225955D01*
X0114849Y0226042D01*
X0114871Y0226128D01*
X0114897Y0226214D01*
X0114926Y0226298D01*
X0114959Y0226381D01*
X0114995Y0226462D01*
X0115036Y0226542D01*
X0115079Y0226619D01*
X0115126Y0226695D01*
X0115177Y0226768D01*
X0115230Y0226839D01*
X0115287Y0226908D01*
X0115347Y0226974D01*
X0115410Y0227038D01*
X0115475Y0227098D01*
X0115543Y0227156D01*
X0115614Y0227210D01*
X0115687Y0227261D01*
X0115762Y0227309D01*
X0115839Y0227354D01*
X0115918Y0227395D01*
X0115999Y0227432D01*
X0116081Y0227466D01*
X0116165Y0227497D01*
X0116250Y0227523D01*
X0116336Y0227546D01*
X0116423Y0227564D01*
X0116511Y0227579D01*
X0116600Y0227590D01*
X0116689Y0227597D01*
X0116778Y0227600D01*
X0116867Y0227599D01*
X0116956Y0227594D01*
X0117044Y0227585D01*
X0117133Y0227572D01*
X0117220Y0227555D01*
X0117307Y0227535D01*
X0117393Y0227510D01*
X0117477Y0227482D01*
X0117560Y0227450D01*
X0117642Y0227414D01*
X0117722Y0227375D01*
X0117800Y0227332D01*
X0117876Y0227286D01*
X0117950Y0227236D01*
X0118022Y0227183D01*
X0118091Y0227127D01*
X0118158Y0227068D01*
X0118222Y0227006D01*
X0118283Y0226942D01*
X0118342Y0226874D01*
X0118397Y0226804D01*
X0118449Y0226732D01*
X0118498Y0226657D01*
X0118543Y0226581D01*
X0118585Y0226502D01*
X0118623Y0226422D01*
X0118658Y0226340D01*
X0118689Y0226256D01*
X0118717Y0226171D01*
X0118740Y0226085D01*
X0118760Y0225998D01*
X0118776Y0225911D01*
X0118788Y0225822D01*
X0118796Y0225734D01*
X0118800Y0225645D01*
X0118800Y0225555D01*
X0118796Y0225466D01*
X0118788Y0225378D01*
X0118776Y0225289D01*
X0118760Y0225202D01*
X0118740Y0225115D01*
X0118717Y0225029D01*
X0118689Y0224944D01*
X0118658Y0224860D01*
X0118623Y0224778D01*
X0118585Y0224698D01*
X0118543Y0224619D01*
X0118498Y0224543D01*
X0118449Y0224468D01*
X0118397Y0224396D01*
X0118342Y0224326D01*
X0118283Y0224258D01*
X0118222Y0224194D01*
X0118158Y0224132D01*
X0118091Y0224073D01*
X0118022Y0224017D01*
X0117950Y0223964D01*
X0117876Y0223914D01*
X0117800Y0223868D01*
X0117722Y0223825D01*
X0117642Y0223786D01*
X0117560Y0223750D01*
X0117477Y0223718D01*
X0117393Y0223690D01*
X0117307Y0223665D01*
X0117220Y0223645D01*
X0117133Y0223628D01*
X0117044Y0223615D01*
X0116956Y0223606D01*
X0116867Y0223601D01*
X0116778Y0223600D01*
X0116689Y0223603D01*
X0116600Y0223610D01*
X0116511Y0223621D01*
X0116423Y0223636D01*
X0116336Y0223654D01*
X0116250Y0223677D01*
X0116165Y0223703D01*
X0116081Y0223734D01*
X0115999Y0223768D01*
X0115918Y0223805D01*
X0115839Y0223846D01*
X0115762Y0223891D01*
X0115687Y0223939D01*
X0115614Y0223990D01*
X0115543Y0224044D01*
X0115475Y0224102D01*
X0115410Y0224162D01*
X0115347Y0224226D01*
X0115287Y0224292D01*
X0115230Y0224361D01*
X0115177Y0224432D01*
X0115126Y0224505D01*
X0115079Y0224581D01*
X0115036Y0224658D01*
X0114995Y0224738D01*
X0114959Y0224819D01*
X0114926Y0224902D01*
X0114897Y0224986D01*
X0114871Y0225072D01*
X0114849Y0225158D01*
X0114832Y0225245D01*
X0114818Y0225333D01*
X0114808Y0225422D01*
X0114802Y0225511D01*
X0114800Y0225600D01*
X0152100Y0210303D02*
X0156370Y0210303D01*
X0154235Y0212438D02*
X0154235Y0208168D01*
X0212100Y0210303D02*
X0216370Y0210303D01*
X0214235Y0212438D02*
X0214235Y0208168D01*
X0214800Y0225600D02*
X0214802Y0225689D01*
X0214808Y0225778D01*
X0214818Y0225867D01*
X0214832Y0225955D01*
X0214849Y0226042D01*
X0214871Y0226128D01*
X0214897Y0226214D01*
X0214926Y0226298D01*
X0214959Y0226381D01*
X0214995Y0226462D01*
X0215036Y0226542D01*
X0215079Y0226619D01*
X0215126Y0226695D01*
X0215177Y0226768D01*
X0215230Y0226839D01*
X0215287Y0226908D01*
X0215347Y0226974D01*
X0215410Y0227038D01*
X0215475Y0227098D01*
X0215543Y0227156D01*
X0215614Y0227210D01*
X0215687Y0227261D01*
X0215762Y0227309D01*
X0215839Y0227354D01*
X0215918Y0227395D01*
X0215999Y0227432D01*
X0216081Y0227466D01*
X0216165Y0227497D01*
X0216250Y0227523D01*
X0216336Y0227546D01*
X0216423Y0227564D01*
X0216511Y0227579D01*
X0216600Y0227590D01*
X0216689Y0227597D01*
X0216778Y0227600D01*
X0216867Y0227599D01*
X0216956Y0227594D01*
X0217044Y0227585D01*
X0217133Y0227572D01*
X0217220Y0227555D01*
X0217307Y0227535D01*
X0217393Y0227510D01*
X0217477Y0227482D01*
X0217560Y0227450D01*
X0217642Y0227414D01*
X0217722Y0227375D01*
X0217800Y0227332D01*
X0217876Y0227286D01*
X0217950Y0227236D01*
X0218022Y0227183D01*
X0218091Y0227127D01*
X0218158Y0227068D01*
X0218222Y0227006D01*
X0218283Y0226942D01*
X0218342Y0226874D01*
X0218397Y0226804D01*
X0218449Y0226732D01*
X0218498Y0226657D01*
X0218543Y0226581D01*
X0218585Y0226502D01*
X0218623Y0226422D01*
X0218658Y0226340D01*
X0218689Y0226256D01*
X0218717Y0226171D01*
X0218740Y0226085D01*
X0218760Y0225998D01*
X0218776Y0225911D01*
X0218788Y0225822D01*
X0218796Y0225734D01*
X0218800Y0225645D01*
X0218800Y0225555D01*
X0218796Y0225466D01*
X0218788Y0225378D01*
X0218776Y0225289D01*
X0218760Y0225202D01*
X0218740Y0225115D01*
X0218717Y0225029D01*
X0218689Y0224944D01*
X0218658Y0224860D01*
X0218623Y0224778D01*
X0218585Y0224698D01*
X0218543Y0224619D01*
X0218498Y0224543D01*
X0218449Y0224468D01*
X0218397Y0224396D01*
X0218342Y0224326D01*
X0218283Y0224258D01*
X0218222Y0224194D01*
X0218158Y0224132D01*
X0218091Y0224073D01*
X0218022Y0224017D01*
X0217950Y0223964D01*
X0217876Y0223914D01*
X0217800Y0223868D01*
X0217722Y0223825D01*
X0217642Y0223786D01*
X0217560Y0223750D01*
X0217477Y0223718D01*
X0217393Y0223690D01*
X0217307Y0223665D01*
X0217220Y0223645D01*
X0217133Y0223628D01*
X0217044Y0223615D01*
X0216956Y0223606D01*
X0216867Y0223601D01*
X0216778Y0223600D01*
X0216689Y0223603D01*
X0216600Y0223610D01*
X0216511Y0223621D01*
X0216423Y0223636D01*
X0216336Y0223654D01*
X0216250Y0223677D01*
X0216165Y0223703D01*
X0216081Y0223734D01*
X0215999Y0223768D01*
X0215918Y0223805D01*
X0215839Y0223846D01*
X0215762Y0223891D01*
X0215687Y0223939D01*
X0215614Y0223990D01*
X0215543Y0224044D01*
X0215475Y0224102D01*
X0215410Y0224162D01*
X0215347Y0224226D01*
X0215287Y0224292D01*
X0215230Y0224361D01*
X0215177Y0224432D01*
X0215126Y0224505D01*
X0215079Y0224581D01*
X0215036Y0224658D01*
X0214995Y0224738D01*
X0214959Y0224819D01*
X0214926Y0224902D01*
X0214897Y0224986D01*
X0214871Y0225072D01*
X0214849Y0225158D01*
X0214832Y0225245D01*
X0214818Y0225333D01*
X0214808Y0225422D01*
X0214802Y0225511D01*
X0214800Y0225600D01*
X0234800Y0225600D02*
X0234802Y0225689D01*
X0234808Y0225778D01*
X0234818Y0225867D01*
X0234832Y0225955D01*
X0234849Y0226042D01*
X0234871Y0226128D01*
X0234897Y0226214D01*
X0234926Y0226298D01*
X0234959Y0226381D01*
X0234995Y0226462D01*
X0235036Y0226542D01*
X0235079Y0226619D01*
X0235126Y0226695D01*
X0235177Y0226768D01*
X0235230Y0226839D01*
X0235287Y0226908D01*
X0235347Y0226974D01*
X0235410Y0227038D01*
X0235475Y0227098D01*
X0235543Y0227156D01*
X0235614Y0227210D01*
X0235687Y0227261D01*
X0235762Y0227309D01*
X0235839Y0227354D01*
X0235918Y0227395D01*
X0235999Y0227432D01*
X0236081Y0227466D01*
X0236165Y0227497D01*
X0236250Y0227523D01*
X0236336Y0227546D01*
X0236423Y0227564D01*
X0236511Y0227579D01*
X0236600Y0227590D01*
X0236689Y0227597D01*
X0236778Y0227600D01*
X0236867Y0227599D01*
X0236956Y0227594D01*
X0237044Y0227585D01*
X0237133Y0227572D01*
X0237220Y0227555D01*
X0237307Y0227535D01*
X0237393Y0227510D01*
X0237477Y0227482D01*
X0237560Y0227450D01*
X0237642Y0227414D01*
X0237722Y0227375D01*
X0237800Y0227332D01*
X0237876Y0227286D01*
X0237950Y0227236D01*
X0238022Y0227183D01*
X0238091Y0227127D01*
X0238158Y0227068D01*
X0238222Y0227006D01*
X0238283Y0226942D01*
X0238342Y0226874D01*
X0238397Y0226804D01*
X0238449Y0226732D01*
X0238498Y0226657D01*
X0238543Y0226581D01*
X0238585Y0226502D01*
X0238623Y0226422D01*
X0238658Y0226340D01*
X0238689Y0226256D01*
X0238717Y0226171D01*
X0238740Y0226085D01*
X0238760Y0225998D01*
X0238776Y0225911D01*
X0238788Y0225822D01*
X0238796Y0225734D01*
X0238800Y0225645D01*
X0238800Y0225555D01*
X0238796Y0225466D01*
X0238788Y0225378D01*
X0238776Y0225289D01*
X0238760Y0225202D01*
X0238740Y0225115D01*
X0238717Y0225029D01*
X0238689Y0224944D01*
X0238658Y0224860D01*
X0238623Y0224778D01*
X0238585Y0224698D01*
X0238543Y0224619D01*
X0238498Y0224543D01*
X0238449Y0224468D01*
X0238397Y0224396D01*
X0238342Y0224326D01*
X0238283Y0224258D01*
X0238222Y0224194D01*
X0238158Y0224132D01*
X0238091Y0224073D01*
X0238022Y0224017D01*
X0237950Y0223964D01*
X0237876Y0223914D01*
X0237800Y0223868D01*
X0237722Y0223825D01*
X0237642Y0223786D01*
X0237560Y0223750D01*
X0237477Y0223718D01*
X0237393Y0223690D01*
X0237307Y0223665D01*
X0237220Y0223645D01*
X0237133Y0223628D01*
X0237044Y0223615D01*
X0236956Y0223606D01*
X0236867Y0223601D01*
X0236778Y0223600D01*
X0236689Y0223603D01*
X0236600Y0223610D01*
X0236511Y0223621D01*
X0236423Y0223636D01*
X0236336Y0223654D01*
X0236250Y0223677D01*
X0236165Y0223703D01*
X0236081Y0223734D01*
X0235999Y0223768D01*
X0235918Y0223805D01*
X0235839Y0223846D01*
X0235762Y0223891D01*
X0235687Y0223939D01*
X0235614Y0223990D01*
X0235543Y0224044D01*
X0235475Y0224102D01*
X0235410Y0224162D01*
X0235347Y0224226D01*
X0235287Y0224292D01*
X0235230Y0224361D01*
X0235177Y0224432D01*
X0235126Y0224505D01*
X0235079Y0224581D01*
X0235036Y0224658D01*
X0234995Y0224738D01*
X0234959Y0224819D01*
X0234926Y0224902D01*
X0234897Y0224986D01*
X0234871Y0225072D01*
X0234849Y0225158D01*
X0234832Y0225245D01*
X0234818Y0225333D01*
X0234808Y0225422D01*
X0234802Y0225511D01*
X0234800Y0225600D01*
X0272100Y0210303D02*
X0276370Y0210303D01*
X0274235Y0212438D02*
X0274235Y0208168D01*
X0332100Y0210303D02*
X0336370Y0210303D01*
X0334235Y0212438D02*
X0334235Y0208168D01*
X0334800Y0225600D02*
X0334802Y0225689D01*
X0334808Y0225778D01*
X0334818Y0225867D01*
X0334832Y0225955D01*
X0334849Y0226042D01*
X0334871Y0226128D01*
X0334897Y0226214D01*
X0334926Y0226298D01*
X0334959Y0226381D01*
X0334995Y0226462D01*
X0335036Y0226542D01*
X0335079Y0226619D01*
X0335126Y0226695D01*
X0335177Y0226768D01*
X0335230Y0226839D01*
X0335287Y0226908D01*
X0335347Y0226974D01*
X0335410Y0227038D01*
X0335475Y0227098D01*
X0335543Y0227156D01*
X0335614Y0227210D01*
X0335687Y0227261D01*
X0335762Y0227309D01*
X0335839Y0227354D01*
X0335918Y0227395D01*
X0335999Y0227432D01*
X0336081Y0227466D01*
X0336165Y0227497D01*
X0336250Y0227523D01*
X0336336Y0227546D01*
X0336423Y0227564D01*
X0336511Y0227579D01*
X0336600Y0227590D01*
X0336689Y0227597D01*
X0336778Y0227600D01*
X0336867Y0227599D01*
X0336956Y0227594D01*
X0337044Y0227585D01*
X0337133Y0227572D01*
X0337220Y0227555D01*
X0337307Y0227535D01*
X0337393Y0227510D01*
X0337477Y0227482D01*
X0337560Y0227450D01*
X0337642Y0227414D01*
X0337722Y0227375D01*
X0337800Y0227332D01*
X0337876Y0227286D01*
X0337950Y0227236D01*
X0338022Y0227183D01*
X0338091Y0227127D01*
X0338158Y0227068D01*
X0338222Y0227006D01*
X0338283Y0226942D01*
X0338342Y0226874D01*
X0338397Y0226804D01*
X0338449Y0226732D01*
X0338498Y0226657D01*
X0338543Y0226581D01*
X0338585Y0226502D01*
X0338623Y0226422D01*
X0338658Y0226340D01*
X0338689Y0226256D01*
X0338717Y0226171D01*
X0338740Y0226085D01*
X0338760Y0225998D01*
X0338776Y0225911D01*
X0338788Y0225822D01*
X0338796Y0225734D01*
X0338800Y0225645D01*
X0338800Y0225555D01*
X0338796Y0225466D01*
X0338788Y0225378D01*
X0338776Y0225289D01*
X0338760Y0225202D01*
X0338740Y0225115D01*
X0338717Y0225029D01*
X0338689Y0224944D01*
X0338658Y0224860D01*
X0338623Y0224778D01*
X0338585Y0224698D01*
X0338543Y0224619D01*
X0338498Y0224543D01*
X0338449Y0224468D01*
X0338397Y0224396D01*
X0338342Y0224326D01*
X0338283Y0224258D01*
X0338222Y0224194D01*
X0338158Y0224132D01*
X0338091Y0224073D01*
X0338022Y0224017D01*
X0337950Y0223964D01*
X0337876Y0223914D01*
X0337800Y0223868D01*
X0337722Y0223825D01*
X0337642Y0223786D01*
X0337560Y0223750D01*
X0337477Y0223718D01*
X0337393Y0223690D01*
X0337307Y0223665D01*
X0337220Y0223645D01*
X0337133Y0223628D01*
X0337044Y0223615D01*
X0336956Y0223606D01*
X0336867Y0223601D01*
X0336778Y0223600D01*
X0336689Y0223603D01*
X0336600Y0223610D01*
X0336511Y0223621D01*
X0336423Y0223636D01*
X0336336Y0223654D01*
X0336250Y0223677D01*
X0336165Y0223703D01*
X0336081Y0223734D01*
X0335999Y0223768D01*
X0335918Y0223805D01*
X0335839Y0223846D01*
X0335762Y0223891D01*
X0335687Y0223939D01*
X0335614Y0223990D01*
X0335543Y0224044D01*
X0335475Y0224102D01*
X0335410Y0224162D01*
X0335347Y0224226D01*
X0335287Y0224292D01*
X0335230Y0224361D01*
X0335177Y0224432D01*
X0335126Y0224505D01*
X0335079Y0224581D01*
X0335036Y0224658D01*
X0334995Y0224738D01*
X0334959Y0224819D01*
X0334926Y0224902D01*
X0334897Y0224986D01*
X0334871Y0225072D01*
X0334849Y0225158D01*
X0334832Y0225245D01*
X0334818Y0225333D01*
X0334808Y0225422D01*
X0334802Y0225511D01*
X0334800Y0225600D01*
X0354800Y0225600D02*
X0354802Y0225689D01*
X0354808Y0225778D01*
X0354818Y0225867D01*
X0354832Y0225955D01*
X0354849Y0226042D01*
X0354871Y0226128D01*
X0354897Y0226214D01*
X0354926Y0226298D01*
X0354959Y0226381D01*
X0354995Y0226462D01*
X0355036Y0226542D01*
X0355079Y0226619D01*
X0355126Y0226695D01*
X0355177Y0226768D01*
X0355230Y0226839D01*
X0355287Y0226908D01*
X0355347Y0226974D01*
X0355410Y0227038D01*
X0355475Y0227098D01*
X0355543Y0227156D01*
X0355614Y0227210D01*
X0355687Y0227261D01*
X0355762Y0227309D01*
X0355839Y0227354D01*
X0355918Y0227395D01*
X0355999Y0227432D01*
X0356081Y0227466D01*
X0356165Y0227497D01*
X0356250Y0227523D01*
X0356336Y0227546D01*
X0356423Y0227564D01*
X0356511Y0227579D01*
X0356600Y0227590D01*
X0356689Y0227597D01*
X0356778Y0227600D01*
X0356867Y0227599D01*
X0356956Y0227594D01*
X0357044Y0227585D01*
X0357133Y0227572D01*
X0357220Y0227555D01*
X0357307Y0227535D01*
X0357393Y0227510D01*
X0357477Y0227482D01*
X0357560Y0227450D01*
X0357642Y0227414D01*
X0357722Y0227375D01*
X0357800Y0227332D01*
X0357876Y0227286D01*
X0357950Y0227236D01*
X0358022Y0227183D01*
X0358091Y0227127D01*
X0358158Y0227068D01*
X0358222Y0227006D01*
X0358283Y0226942D01*
X0358342Y0226874D01*
X0358397Y0226804D01*
X0358449Y0226732D01*
X0358498Y0226657D01*
X0358543Y0226581D01*
X0358585Y0226502D01*
X0358623Y0226422D01*
X0358658Y0226340D01*
X0358689Y0226256D01*
X0358717Y0226171D01*
X0358740Y0226085D01*
X0358760Y0225998D01*
X0358776Y0225911D01*
X0358788Y0225822D01*
X0358796Y0225734D01*
X0358800Y0225645D01*
X0358800Y0225555D01*
X0358796Y0225466D01*
X0358788Y0225378D01*
X0358776Y0225289D01*
X0358760Y0225202D01*
X0358740Y0225115D01*
X0358717Y0225029D01*
X0358689Y0224944D01*
X0358658Y0224860D01*
X0358623Y0224778D01*
X0358585Y0224698D01*
X0358543Y0224619D01*
X0358498Y0224543D01*
X0358449Y0224468D01*
X0358397Y0224396D01*
X0358342Y0224326D01*
X0358283Y0224258D01*
X0358222Y0224194D01*
X0358158Y0224132D01*
X0358091Y0224073D01*
X0358022Y0224017D01*
X0357950Y0223964D01*
X0357876Y0223914D01*
X0357800Y0223868D01*
X0357722Y0223825D01*
X0357642Y0223786D01*
X0357560Y0223750D01*
X0357477Y0223718D01*
X0357393Y0223690D01*
X0357307Y0223665D01*
X0357220Y0223645D01*
X0357133Y0223628D01*
X0357044Y0223615D01*
X0356956Y0223606D01*
X0356867Y0223601D01*
X0356778Y0223600D01*
X0356689Y0223603D01*
X0356600Y0223610D01*
X0356511Y0223621D01*
X0356423Y0223636D01*
X0356336Y0223654D01*
X0356250Y0223677D01*
X0356165Y0223703D01*
X0356081Y0223734D01*
X0355999Y0223768D01*
X0355918Y0223805D01*
X0355839Y0223846D01*
X0355762Y0223891D01*
X0355687Y0223939D01*
X0355614Y0223990D01*
X0355543Y0224044D01*
X0355475Y0224102D01*
X0355410Y0224162D01*
X0355347Y0224226D01*
X0355287Y0224292D01*
X0355230Y0224361D01*
X0355177Y0224432D01*
X0355126Y0224505D01*
X0355079Y0224581D01*
X0355036Y0224658D01*
X0354995Y0224738D01*
X0354959Y0224819D01*
X0354926Y0224902D01*
X0354897Y0224986D01*
X0354871Y0225072D01*
X0354849Y0225158D01*
X0354832Y0225245D01*
X0354818Y0225333D01*
X0354808Y0225422D01*
X0354802Y0225511D01*
X0354800Y0225600D01*
X0271800Y0099300D02*
X0231800Y0099300D01*
X0231800Y0098300D01*
X0231800Y0072300D01*
X0231800Y0062800D01*
X0271800Y0062800D01*
X0271800Y0072300D01*
X0271800Y0098300D01*
X0271800Y0099300D01*
X0271800Y0098300D02*
X0231800Y0098300D01*
X0231800Y0099300D01*
X0191800Y0099300D01*
X0191800Y0098300D01*
X0191800Y0072300D01*
X0191800Y0062800D01*
X0231800Y0062800D01*
X0231800Y0072300D01*
X0238300Y0072300D01*
X0231800Y0072300D02*
X0231800Y0098300D01*
X0191800Y0098300D01*
X0191800Y0099300D01*
X0151800Y0099300D01*
X0151800Y0098300D01*
X0151800Y0072300D01*
X0151800Y0062800D01*
X0191800Y0062800D01*
X0191800Y0072300D01*
X0198300Y0072300D01*
X0191800Y0072300D02*
X0191800Y0098300D01*
X0151800Y0098300D01*
X0151800Y0099300D01*
X0111800Y0099300D01*
X0111800Y0098300D01*
X0111800Y0072300D01*
X0111800Y0062800D01*
X0151800Y0062800D01*
X0151800Y0072300D01*
X0158300Y0072300D01*
X0165300Y0072300D02*
X0178300Y0072300D01*
X0185300Y0072300D02*
X0191800Y0072300D01*
X0205300Y0072300D02*
X0218300Y0072300D01*
X0225300Y0072300D02*
X0231800Y0072300D01*
X0245300Y0072300D02*
X0258300Y0072300D01*
X0265300Y0072300D02*
X0271800Y0072300D01*
X0259800Y0093000D02*
X0259802Y0093089D01*
X0259808Y0093178D01*
X0259818Y0093267D01*
X0259832Y0093355D01*
X0259849Y0093442D01*
X0259871Y0093528D01*
X0259897Y0093614D01*
X0259926Y0093698D01*
X0259959Y0093781D01*
X0259995Y0093862D01*
X0260036Y0093942D01*
X0260079Y0094019D01*
X0260126Y0094095D01*
X0260177Y0094168D01*
X0260230Y0094239D01*
X0260287Y0094308D01*
X0260347Y0094374D01*
X0260410Y0094438D01*
X0260475Y0094498D01*
X0260543Y0094556D01*
X0260614Y0094610D01*
X0260687Y0094661D01*
X0260762Y0094709D01*
X0260839Y0094754D01*
X0260918Y0094795D01*
X0260999Y0094832D01*
X0261081Y0094866D01*
X0261165Y0094897D01*
X0261250Y0094923D01*
X0261336Y0094946D01*
X0261423Y0094964D01*
X0261511Y0094979D01*
X0261600Y0094990D01*
X0261689Y0094997D01*
X0261778Y0095000D01*
X0261867Y0094999D01*
X0261956Y0094994D01*
X0262044Y0094985D01*
X0262133Y0094972D01*
X0262220Y0094955D01*
X0262307Y0094935D01*
X0262393Y0094910D01*
X0262477Y0094882D01*
X0262560Y0094850D01*
X0262642Y0094814D01*
X0262722Y0094775D01*
X0262800Y0094732D01*
X0262876Y0094686D01*
X0262950Y0094636D01*
X0263022Y0094583D01*
X0263091Y0094527D01*
X0263158Y0094468D01*
X0263222Y0094406D01*
X0263283Y0094342D01*
X0263342Y0094274D01*
X0263397Y0094204D01*
X0263449Y0094132D01*
X0263498Y0094057D01*
X0263543Y0093981D01*
X0263585Y0093902D01*
X0263623Y0093822D01*
X0263658Y0093740D01*
X0263689Y0093656D01*
X0263717Y0093571D01*
X0263740Y0093485D01*
X0263760Y0093398D01*
X0263776Y0093311D01*
X0263788Y0093222D01*
X0263796Y0093134D01*
X0263800Y0093045D01*
X0263800Y0092955D01*
X0263796Y0092866D01*
X0263788Y0092778D01*
X0263776Y0092689D01*
X0263760Y0092602D01*
X0263740Y0092515D01*
X0263717Y0092429D01*
X0263689Y0092344D01*
X0263658Y0092260D01*
X0263623Y0092178D01*
X0263585Y0092098D01*
X0263543Y0092019D01*
X0263498Y0091943D01*
X0263449Y0091868D01*
X0263397Y0091796D01*
X0263342Y0091726D01*
X0263283Y0091658D01*
X0263222Y0091594D01*
X0263158Y0091532D01*
X0263091Y0091473D01*
X0263022Y0091417D01*
X0262950Y0091364D01*
X0262876Y0091314D01*
X0262800Y0091268D01*
X0262722Y0091225D01*
X0262642Y0091186D01*
X0262560Y0091150D01*
X0262477Y0091118D01*
X0262393Y0091090D01*
X0262307Y0091065D01*
X0262220Y0091045D01*
X0262133Y0091028D01*
X0262044Y0091015D01*
X0261956Y0091006D01*
X0261867Y0091001D01*
X0261778Y0091000D01*
X0261689Y0091003D01*
X0261600Y0091010D01*
X0261511Y0091021D01*
X0261423Y0091036D01*
X0261336Y0091054D01*
X0261250Y0091077D01*
X0261165Y0091103D01*
X0261081Y0091134D01*
X0260999Y0091168D01*
X0260918Y0091205D01*
X0260839Y0091246D01*
X0260762Y0091291D01*
X0260687Y0091339D01*
X0260614Y0091390D01*
X0260543Y0091444D01*
X0260475Y0091502D01*
X0260410Y0091562D01*
X0260347Y0091626D01*
X0260287Y0091692D01*
X0260230Y0091761D01*
X0260177Y0091832D01*
X0260126Y0091905D01*
X0260079Y0091981D01*
X0260036Y0092058D01*
X0259995Y0092138D01*
X0259959Y0092219D01*
X0259926Y0092302D01*
X0259897Y0092386D01*
X0259871Y0092472D01*
X0259849Y0092558D01*
X0259832Y0092645D01*
X0259818Y0092733D01*
X0259808Y0092822D01*
X0259802Y0092911D01*
X0259800Y0093000D01*
X0239800Y0093000D02*
X0239802Y0093089D01*
X0239808Y0093178D01*
X0239818Y0093267D01*
X0239832Y0093355D01*
X0239849Y0093442D01*
X0239871Y0093528D01*
X0239897Y0093614D01*
X0239926Y0093698D01*
X0239959Y0093781D01*
X0239995Y0093862D01*
X0240036Y0093942D01*
X0240079Y0094019D01*
X0240126Y0094095D01*
X0240177Y0094168D01*
X0240230Y0094239D01*
X0240287Y0094308D01*
X0240347Y0094374D01*
X0240410Y0094438D01*
X0240475Y0094498D01*
X0240543Y0094556D01*
X0240614Y0094610D01*
X0240687Y0094661D01*
X0240762Y0094709D01*
X0240839Y0094754D01*
X0240918Y0094795D01*
X0240999Y0094832D01*
X0241081Y0094866D01*
X0241165Y0094897D01*
X0241250Y0094923D01*
X0241336Y0094946D01*
X0241423Y0094964D01*
X0241511Y0094979D01*
X0241600Y0094990D01*
X0241689Y0094997D01*
X0241778Y0095000D01*
X0241867Y0094999D01*
X0241956Y0094994D01*
X0242044Y0094985D01*
X0242133Y0094972D01*
X0242220Y0094955D01*
X0242307Y0094935D01*
X0242393Y0094910D01*
X0242477Y0094882D01*
X0242560Y0094850D01*
X0242642Y0094814D01*
X0242722Y0094775D01*
X0242800Y0094732D01*
X0242876Y0094686D01*
X0242950Y0094636D01*
X0243022Y0094583D01*
X0243091Y0094527D01*
X0243158Y0094468D01*
X0243222Y0094406D01*
X0243283Y0094342D01*
X0243342Y0094274D01*
X0243397Y0094204D01*
X0243449Y0094132D01*
X0243498Y0094057D01*
X0243543Y0093981D01*
X0243585Y0093902D01*
X0243623Y0093822D01*
X0243658Y0093740D01*
X0243689Y0093656D01*
X0243717Y0093571D01*
X0243740Y0093485D01*
X0243760Y0093398D01*
X0243776Y0093311D01*
X0243788Y0093222D01*
X0243796Y0093134D01*
X0243800Y0093045D01*
X0243800Y0092955D01*
X0243796Y0092866D01*
X0243788Y0092778D01*
X0243776Y0092689D01*
X0243760Y0092602D01*
X0243740Y0092515D01*
X0243717Y0092429D01*
X0243689Y0092344D01*
X0243658Y0092260D01*
X0243623Y0092178D01*
X0243585Y0092098D01*
X0243543Y0092019D01*
X0243498Y0091943D01*
X0243449Y0091868D01*
X0243397Y0091796D01*
X0243342Y0091726D01*
X0243283Y0091658D01*
X0243222Y0091594D01*
X0243158Y0091532D01*
X0243091Y0091473D01*
X0243022Y0091417D01*
X0242950Y0091364D01*
X0242876Y0091314D01*
X0242800Y0091268D01*
X0242722Y0091225D01*
X0242642Y0091186D01*
X0242560Y0091150D01*
X0242477Y0091118D01*
X0242393Y0091090D01*
X0242307Y0091065D01*
X0242220Y0091045D01*
X0242133Y0091028D01*
X0242044Y0091015D01*
X0241956Y0091006D01*
X0241867Y0091001D01*
X0241778Y0091000D01*
X0241689Y0091003D01*
X0241600Y0091010D01*
X0241511Y0091021D01*
X0241423Y0091036D01*
X0241336Y0091054D01*
X0241250Y0091077D01*
X0241165Y0091103D01*
X0241081Y0091134D01*
X0240999Y0091168D01*
X0240918Y0091205D01*
X0240839Y0091246D01*
X0240762Y0091291D01*
X0240687Y0091339D01*
X0240614Y0091390D01*
X0240543Y0091444D01*
X0240475Y0091502D01*
X0240410Y0091562D01*
X0240347Y0091626D01*
X0240287Y0091692D01*
X0240230Y0091761D01*
X0240177Y0091832D01*
X0240126Y0091905D01*
X0240079Y0091981D01*
X0240036Y0092058D01*
X0239995Y0092138D01*
X0239959Y0092219D01*
X0239926Y0092302D01*
X0239897Y0092386D01*
X0239871Y0092472D01*
X0239849Y0092558D01*
X0239832Y0092645D01*
X0239818Y0092733D01*
X0239808Y0092822D01*
X0239802Y0092911D01*
X0239800Y0093000D01*
X0219800Y0093000D02*
X0219802Y0093089D01*
X0219808Y0093178D01*
X0219818Y0093267D01*
X0219832Y0093355D01*
X0219849Y0093442D01*
X0219871Y0093528D01*
X0219897Y0093614D01*
X0219926Y0093698D01*
X0219959Y0093781D01*
X0219995Y0093862D01*
X0220036Y0093942D01*
X0220079Y0094019D01*
X0220126Y0094095D01*
X0220177Y0094168D01*
X0220230Y0094239D01*
X0220287Y0094308D01*
X0220347Y0094374D01*
X0220410Y0094438D01*
X0220475Y0094498D01*
X0220543Y0094556D01*
X0220614Y0094610D01*
X0220687Y0094661D01*
X0220762Y0094709D01*
X0220839Y0094754D01*
X0220918Y0094795D01*
X0220999Y0094832D01*
X0221081Y0094866D01*
X0221165Y0094897D01*
X0221250Y0094923D01*
X0221336Y0094946D01*
X0221423Y0094964D01*
X0221511Y0094979D01*
X0221600Y0094990D01*
X0221689Y0094997D01*
X0221778Y0095000D01*
X0221867Y0094999D01*
X0221956Y0094994D01*
X0222044Y0094985D01*
X0222133Y0094972D01*
X0222220Y0094955D01*
X0222307Y0094935D01*
X0222393Y0094910D01*
X0222477Y0094882D01*
X0222560Y0094850D01*
X0222642Y0094814D01*
X0222722Y0094775D01*
X0222800Y0094732D01*
X0222876Y0094686D01*
X0222950Y0094636D01*
X0223022Y0094583D01*
X0223091Y0094527D01*
X0223158Y0094468D01*
X0223222Y0094406D01*
X0223283Y0094342D01*
X0223342Y0094274D01*
X0223397Y0094204D01*
X0223449Y0094132D01*
X0223498Y0094057D01*
X0223543Y0093981D01*
X0223585Y0093902D01*
X0223623Y0093822D01*
X0223658Y0093740D01*
X0223689Y0093656D01*
X0223717Y0093571D01*
X0223740Y0093485D01*
X0223760Y0093398D01*
X0223776Y0093311D01*
X0223788Y0093222D01*
X0223796Y0093134D01*
X0223800Y0093045D01*
X0223800Y0092955D01*
X0223796Y0092866D01*
X0223788Y0092778D01*
X0223776Y0092689D01*
X0223760Y0092602D01*
X0223740Y0092515D01*
X0223717Y0092429D01*
X0223689Y0092344D01*
X0223658Y0092260D01*
X0223623Y0092178D01*
X0223585Y0092098D01*
X0223543Y0092019D01*
X0223498Y0091943D01*
X0223449Y0091868D01*
X0223397Y0091796D01*
X0223342Y0091726D01*
X0223283Y0091658D01*
X0223222Y0091594D01*
X0223158Y0091532D01*
X0223091Y0091473D01*
X0223022Y0091417D01*
X0222950Y0091364D01*
X0222876Y0091314D01*
X0222800Y0091268D01*
X0222722Y0091225D01*
X0222642Y0091186D01*
X0222560Y0091150D01*
X0222477Y0091118D01*
X0222393Y0091090D01*
X0222307Y0091065D01*
X0222220Y0091045D01*
X0222133Y0091028D01*
X0222044Y0091015D01*
X0221956Y0091006D01*
X0221867Y0091001D01*
X0221778Y0091000D01*
X0221689Y0091003D01*
X0221600Y0091010D01*
X0221511Y0091021D01*
X0221423Y0091036D01*
X0221336Y0091054D01*
X0221250Y0091077D01*
X0221165Y0091103D01*
X0221081Y0091134D01*
X0220999Y0091168D01*
X0220918Y0091205D01*
X0220839Y0091246D01*
X0220762Y0091291D01*
X0220687Y0091339D01*
X0220614Y0091390D01*
X0220543Y0091444D01*
X0220475Y0091502D01*
X0220410Y0091562D01*
X0220347Y0091626D01*
X0220287Y0091692D01*
X0220230Y0091761D01*
X0220177Y0091832D01*
X0220126Y0091905D01*
X0220079Y0091981D01*
X0220036Y0092058D01*
X0219995Y0092138D01*
X0219959Y0092219D01*
X0219926Y0092302D01*
X0219897Y0092386D01*
X0219871Y0092472D01*
X0219849Y0092558D01*
X0219832Y0092645D01*
X0219818Y0092733D01*
X0219808Y0092822D01*
X0219802Y0092911D01*
X0219800Y0093000D01*
X0199800Y0093000D02*
X0199802Y0093089D01*
X0199808Y0093178D01*
X0199818Y0093267D01*
X0199832Y0093355D01*
X0199849Y0093442D01*
X0199871Y0093528D01*
X0199897Y0093614D01*
X0199926Y0093698D01*
X0199959Y0093781D01*
X0199995Y0093862D01*
X0200036Y0093942D01*
X0200079Y0094019D01*
X0200126Y0094095D01*
X0200177Y0094168D01*
X0200230Y0094239D01*
X0200287Y0094308D01*
X0200347Y0094374D01*
X0200410Y0094438D01*
X0200475Y0094498D01*
X0200543Y0094556D01*
X0200614Y0094610D01*
X0200687Y0094661D01*
X0200762Y0094709D01*
X0200839Y0094754D01*
X0200918Y0094795D01*
X0200999Y0094832D01*
X0201081Y0094866D01*
X0201165Y0094897D01*
X0201250Y0094923D01*
X0201336Y0094946D01*
X0201423Y0094964D01*
X0201511Y0094979D01*
X0201600Y0094990D01*
X0201689Y0094997D01*
X0201778Y0095000D01*
X0201867Y0094999D01*
X0201956Y0094994D01*
X0202044Y0094985D01*
X0202133Y0094972D01*
X0202220Y0094955D01*
X0202307Y0094935D01*
X0202393Y0094910D01*
X0202477Y0094882D01*
X0202560Y0094850D01*
X0202642Y0094814D01*
X0202722Y0094775D01*
X0202800Y0094732D01*
X0202876Y0094686D01*
X0202950Y0094636D01*
X0203022Y0094583D01*
X0203091Y0094527D01*
X0203158Y0094468D01*
X0203222Y0094406D01*
X0203283Y0094342D01*
X0203342Y0094274D01*
X0203397Y0094204D01*
X0203449Y0094132D01*
X0203498Y0094057D01*
X0203543Y0093981D01*
X0203585Y0093902D01*
X0203623Y0093822D01*
X0203658Y0093740D01*
X0203689Y0093656D01*
X0203717Y0093571D01*
X0203740Y0093485D01*
X0203760Y0093398D01*
X0203776Y0093311D01*
X0203788Y0093222D01*
X0203796Y0093134D01*
X0203800Y0093045D01*
X0203800Y0092955D01*
X0203796Y0092866D01*
X0203788Y0092778D01*
X0203776Y0092689D01*
X0203760Y0092602D01*
X0203740Y0092515D01*
X0203717Y0092429D01*
X0203689Y0092344D01*
X0203658Y0092260D01*
X0203623Y0092178D01*
X0203585Y0092098D01*
X0203543Y0092019D01*
X0203498Y0091943D01*
X0203449Y0091868D01*
X0203397Y0091796D01*
X0203342Y0091726D01*
X0203283Y0091658D01*
X0203222Y0091594D01*
X0203158Y0091532D01*
X0203091Y0091473D01*
X0203022Y0091417D01*
X0202950Y0091364D01*
X0202876Y0091314D01*
X0202800Y0091268D01*
X0202722Y0091225D01*
X0202642Y0091186D01*
X0202560Y0091150D01*
X0202477Y0091118D01*
X0202393Y0091090D01*
X0202307Y0091065D01*
X0202220Y0091045D01*
X0202133Y0091028D01*
X0202044Y0091015D01*
X0201956Y0091006D01*
X0201867Y0091001D01*
X0201778Y0091000D01*
X0201689Y0091003D01*
X0201600Y0091010D01*
X0201511Y0091021D01*
X0201423Y0091036D01*
X0201336Y0091054D01*
X0201250Y0091077D01*
X0201165Y0091103D01*
X0201081Y0091134D01*
X0200999Y0091168D01*
X0200918Y0091205D01*
X0200839Y0091246D01*
X0200762Y0091291D01*
X0200687Y0091339D01*
X0200614Y0091390D01*
X0200543Y0091444D01*
X0200475Y0091502D01*
X0200410Y0091562D01*
X0200347Y0091626D01*
X0200287Y0091692D01*
X0200230Y0091761D01*
X0200177Y0091832D01*
X0200126Y0091905D01*
X0200079Y0091981D01*
X0200036Y0092058D01*
X0199995Y0092138D01*
X0199959Y0092219D01*
X0199926Y0092302D01*
X0199897Y0092386D01*
X0199871Y0092472D01*
X0199849Y0092558D01*
X0199832Y0092645D01*
X0199818Y0092733D01*
X0199808Y0092822D01*
X0199802Y0092911D01*
X0199800Y0093000D01*
X0179800Y0093000D02*
X0179802Y0093089D01*
X0179808Y0093178D01*
X0179818Y0093267D01*
X0179832Y0093355D01*
X0179849Y0093442D01*
X0179871Y0093528D01*
X0179897Y0093614D01*
X0179926Y0093698D01*
X0179959Y0093781D01*
X0179995Y0093862D01*
X0180036Y0093942D01*
X0180079Y0094019D01*
X0180126Y0094095D01*
X0180177Y0094168D01*
X0180230Y0094239D01*
X0180287Y0094308D01*
X0180347Y0094374D01*
X0180410Y0094438D01*
X0180475Y0094498D01*
X0180543Y0094556D01*
X0180614Y0094610D01*
X0180687Y0094661D01*
X0180762Y0094709D01*
X0180839Y0094754D01*
X0180918Y0094795D01*
X0180999Y0094832D01*
X0181081Y0094866D01*
X0181165Y0094897D01*
X0181250Y0094923D01*
X0181336Y0094946D01*
X0181423Y0094964D01*
X0181511Y0094979D01*
X0181600Y0094990D01*
X0181689Y0094997D01*
X0181778Y0095000D01*
X0181867Y0094999D01*
X0181956Y0094994D01*
X0182044Y0094985D01*
X0182133Y0094972D01*
X0182220Y0094955D01*
X0182307Y0094935D01*
X0182393Y0094910D01*
X0182477Y0094882D01*
X0182560Y0094850D01*
X0182642Y0094814D01*
X0182722Y0094775D01*
X0182800Y0094732D01*
X0182876Y0094686D01*
X0182950Y0094636D01*
X0183022Y0094583D01*
X0183091Y0094527D01*
X0183158Y0094468D01*
X0183222Y0094406D01*
X0183283Y0094342D01*
X0183342Y0094274D01*
X0183397Y0094204D01*
X0183449Y0094132D01*
X0183498Y0094057D01*
X0183543Y0093981D01*
X0183585Y0093902D01*
X0183623Y0093822D01*
X0183658Y0093740D01*
X0183689Y0093656D01*
X0183717Y0093571D01*
X0183740Y0093485D01*
X0183760Y0093398D01*
X0183776Y0093311D01*
X0183788Y0093222D01*
X0183796Y0093134D01*
X0183800Y0093045D01*
X0183800Y0092955D01*
X0183796Y0092866D01*
X0183788Y0092778D01*
X0183776Y0092689D01*
X0183760Y0092602D01*
X0183740Y0092515D01*
X0183717Y0092429D01*
X0183689Y0092344D01*
X0183658Y0092260D01*
X0183623Y0092178D01*
X0183585Y0092098D01*
X0183543Y0092019D01*
X0183498Y0091943D01*
X0183449Y0091868D01*
X0183397Y0091796D01*
X0183342Y0091726D01*
X0183283Y0091658D01*
X0183222Y0091594D01*
X0183158Y0091532D01*
X0183091Y0091473D01*
X0183022Y0091417D01*
X0182950Y0091364D01*
X0182876Y0091314D01*
X0182800Y0091268D01*
X0182722Y0091225D01*
X0182642Y0091186D01*
X0182560Y0091150D01*
X0182477Y0091118D01*
X0182393Y0091090D01*
X0182307Y0091065D01*
X0182220Y0091045D01*
X0182133Y0091028D01*
X0182044Y0091015D01*
X0181956Y0091006D01*
X0181867Y0091001D01*
X0181778Y0091000D01*
X0181689Y0091003D01*
X0181600Y0091010D01*
X0181511Y0091021D01*
X0181423Y0091036D01*
X0181336Y0091054D01*
X0181250Y0091077D01*
X0181165Y0091103D01*
X0181081Y0091134D01*
X0180999Y0091168D01*
X0180918Y0091205D01*
X0180839Y0091246D01*
X0180762Y0091291D01*
X0180687Y0091339D01*
X0180614Y0091390D01*
X0180543Y0091444D01*
X0180475Y0091502D01*
X0180410Y0091562D01*
X0180347Y0091626D01*
X0180287Y0091692D01*
X0180230Y0091761D01*
X0180177Y0091832D01*
X0180126Y0091905D01*
X0180079Y0091981D01*
X0180036Y0092058D01*
X0179995Y0092138D01*
X0179959Y0092219D01*
X0179926Y0092302D01*
X0179897Y0092386D01*
X0179871Y0092472D01*
X0179849Y0092558D01*
X0179832Y0092645D01*
X0179818Y0092733D01*
X0179808Y0092822D01*
X0179802Y0092911D01*
X0179800Y0093000D01*
X0159800Y0093000D02*
X0159802Y0093089D01*
X0159808Y0093178D01*
X0159818Y0093267D01*
X0159832Y0093355D01*
X0159849Y0093442D01*
X0159871Y0093528D01*
X0159897Y0093614D01*
X0159926Y0093698D01*
X0159959Y0093781D01*
X0159995Y0093862D01*
X0160036Y0093942D01*
X0160079Y0094019D01*
X0160126Y0094095D01*
X0160177Y0094168D01*
X0160230Y0094239D01*
X0160287Y0094308D01*
X0160347Y0094374D01*
X0160410Y0094438D01*
X0160475Y0094498D01*
X0160543Y0094556D01*
X0160614Y0094610D01*
X0160687Y0094661D01*
X0160762Y0094709D01*
X0160839Y0094754D01*
X0160918Y0094795D01*
X0160999Y0094832D01*
X0161081Y0094866D01*
X0161165Y0094897D01*
X0161250Y0094923D01*
X0161336Y0094946D01*
X0161423Y0094964D01*
X0161511Y0094979D01*
X0161600Y0094990D01*
X0161689Y0094997D01*
X0161778Y0095000D01*
X0161867Y0094999D01*
X0161956Y0094994D01*
X0162044Y0094985D01*
X0162133Y0094972D01*
X0162220Y0094955D01*
X0162307Y0094935D01*
X0162393Y0094910D01*
X0162477Y0094882D01*
X0162560Y0094850D01*
X0162642Y0094814D01*
X0162722Y0094775D01*
X0162800Y0094732D01*
X0162876Y0094686D01*
X0162950Y0094636D01*
X0163022Y0094583D01*
X0163091Y0094527D01*
X0163158Y0094468D01*
X0163222Y0094406D01*
X0163283Y0094342D01*
X0163342Y0094274D01*
X0163397Y0094204D01*
X0163449Y0094132D01*
X0163498Y0094057D01*
X0163543Y0093981D01*
X0163585Y0093902D01*
X0163623Y0093822D01*
X0163658Y0093740D01*
X0163689Y0093656D01*
X0163717Y0093571D01*
X0163740Y0093485D01*
X0163760Y0093398D01*
X0163776Y0093311D01*
X0163788Y0093222D01*
X0163796Y0093134D01*
X0163800Y0093045D01*
X0163800Y0092955D01*
X0163796Y0092866D01*
X0163788Y0092778D01*
X0163776Y0092689D01*
X0163760Y0092602D01*
X0163740Y0092515D01*
X0163717Y0092429D01*
X0163689Y0092344D01*
X0163658Y0092260D01*
X0163623Y0092178D01*
X0163585Y0092098D01*
X0163543Y0092019D01*
X0163498Y0091943D01*
X0163449Y0091868D01*
X0163397Y0091796D01*
X0163342Y0091726D01*
X0163283Y0091658D01*
X0163222Y0091594D01*
X0163158Y0091532D01*
X0163091Y0091473D01*
X0163022Y0091417D01*
X0162950Y0091364D01*
X0162876Y0091314D01*
X0162800Y0091268D01*
X0162722Y0091225D01*
X0162642Y0091186D01*
X0162560Y0091150D01*
X0162477Y0091118D01*
X0162393Y0091090D01*
X0162307Y0091065D01*
X0162220Y0091045D01*
X0162133Y0091028D01*
X0162044Y0091015D01*
X0161956Y0091006D01*
X0161867Y0091001D01*
X0161778Y0091000D01*
X0161689Y0091003D01*
X0161600Y0091010D01*
X0161511Y0091021D01*
X0161423Y0091036D01*
X0161336Y0091054D01*
X0161250Y0091077D01*
X0161165Y0091103D01*
X0161081Y0091134D01*
X0160999Y0091168D01*
X0160918Y0091205D01*
X0160839Y0091246D01*
X0160762Y0091291D01*
X0160687Y0091339D01*
X0160614Y0091390D01*
X0160543Y0091444D01*
X0160475Y0091502D01*
X0160410Y0091562D01*
X0160347Y0091626D01*
X0160287Y0091692D01*
X0160230Y0091761D01*
X0160177Y0091832D01*
X0160126Y0091905D01*
X0160079Y0091981D01*
X0160036Y0092058D01*
X0159995Y0092138D01*
X0159959Y0092219D01*
X0159926Y0092302D01*
X0159897Y0092386D01*
X0159871Y0092472D01*
X0159849Y0092558D01*
X0159832Y0092645D01*
X0159818Y0092733D01*
X0159808Y0092822D01*
X0159802Y0092911D01*
X0159800Y0093000D01*
X0151800Y0098300D02*
X0151800Y0072300D01*
X0145300Y0072300D01*
X0138300Y0072300D02*
X0125300Y0072300D01*
X0118300Y0072300D02*
X0111800Y0072300D01*
X0119800Y0093000D02*
X0119802Y0093089D01*
X0119808Y0093178D01*
X0119818Y0093267D01*
X0119832Y0093355D01*
X0119849Y0093442D01*
X0119871Y0093528D01*
X0119897Y0093614D01*
X0119926Y0093698D01*
X0119959Y0093781D01*
X0119995Y0093862D01*
X0120036Y0093942D01*
X0120079Y0094019D01*
X0120126Y0094095D01*
X0120177Y0094168D01*
X0120230Y0094239D01*
X0120287Y0094308D01*
X0120347Y0094374D01*
X0120410Y0094438D01*
X0120475Y0094498D01*
X0120543Y0094556D01*
X0120614Y0094610D01*
X0120687Y0094661D01*
X0120762Y0094709D01*
X0120839Y0094754D01*
X0120918Y0094795D01*
X0120999Y0094832D01*
X0121081Y0094866D01*
X0121165Y0094897D01*
X0121250Y0094923D01*
X0121336Y0094946D01*
X0121423Y0094964D01*
X0121511Y0094979D01*
X0121600Y0094990D01*
X0121689Y0094997D01*
X0121778Y0095000D01*
X0121867Y0094999D01*
X0121956Y0094994D01*
X0122044Y0094985D01*
X0122133Y0094972D01*
X0122220Y0094955D01*
X0122307Y0094935D01*
X0122393Y0094910D01*
X0122477Y0094882D01*
X0122560Y0094850D01*
X0122642Y0094814D01*
X0122722Y0094775D01*
X0122800Y0094732D01*
X0122876Y0094686D01*
X0122950Y0094636D01*
X0123022Y0094583D01*
X0123091Y0094527D01*
X0123158Y0094468D01*
X0123222Y0094406D01*
X0123283Y0094342D01*
X0123342Y0094274D01*
X0123397Y0094204D01*
X0123449Y0094132D01*
X0123498Y0094057D01*
X0123543Y0093981D01*
X0123585Y0093902D01*
X0123623Y0093822D01*
X0123658Y0093740D01*
X0123689Y0093656D01*
X0123717Y0093571D01*
X0123740Y0093485D01*
X0123760Y0093398D01*
X0123776Y0093311D01*
X0123788Y0093222D01*
X0123796Y0093134D01*
X0123800Y0093045D01*
X0123800Y0092955D01*
X0123796Y0092866D01*
X0123788Y0092778D01*
X0123776Y0092689D01*
X0123760Y0092602D01*
X0123740Y0092515D01*
X0123717Y0092429D01*
X0123689Y0092344D01*
X0123658Y0092260D01*
X0123623Y0092178D01*
X0123585Y0092098D01*
X0123543Y0092019D01*
X0123498Y0091943D01*
X0123449Y0091868D01*
X0123397Y0091796D01*
X0123342Y0091726D01*
X0123283Y0091658D01*
X0123222Y0091594D01*
X0123158Y0091532D01*
X0123091Y0091473D01*
X0123022Y0091417D01*
X0122950Y0091364D01*
X0122876Y0091314D01*
X0122800Y0091268D01*
X0122722Y0091225D01*
X0122642Y0091186D01*
X0122560Y0091150D01*
X0122477Y0091118D01*
X0122393Y0091090D01*
X0122307Y0091065D01*
X0122220Y0091045D01*
X0122133Y0091028D01*
X0122044Y0091015D01*
X0121956Y0091006D01*
X0121867Y0091001D01*
X0121778Y0091000D01*
X0121689Y0091003D01*
X0121600Y0091010D01*
X0121511Y0091021D01*
X0121423Y0091036D01*
X0121336Y0091054D01*
X0121250Y0091077D01*
X0121165Y0091103D01*
X0121081Y0091134D01*
X0120999Y0091168D01*
X0120918Y0091205D01*
X0120839Y0091246D01*
X0120762Y0091291D01*
X0120687Y0091339D01*
X0120614Y0091390D01*
X0120543Y0091444D01*
X0120475Y0091502D01*
X0120410Y0091562D01*
X0120347Y0091626D01*
X0120287Y0091692D01*
X0120230Y0091761D01*
X0120177Y0091832D01*
X0120126Y0091905D01*
X0120079Y0091981D01*
X0120036Y0092058D01*
X0119995Y0092138D01*
X0119959Y0092219D01*
X0119926Y0092302D01*
X0119897Y0092386D01*
X0119871Y0092472D01*
X0119849Y0092558D01*
X0119832Y0092645D01*
X0119818Y0092733D01*
X0119808Y0092822D01*
X0119802Y0092911D01*
X0119800Y0093000D01*
X0111800Y0098300D02*
X0151800Y0098300D01*
X0139800Y0093000D02*
X0139802Y0093089D01*
X0139808Y0093178D01*
X0139818Y0093267D01*
X0139832Y0093355D01*
X0139849Y0093442D01*
X0139871Y0093528D01*
X0139897Y0093614D01*
X0139926Y0093698D01*
X0139959Y0093781D01*
X0139995Y0093862D01*
X0140036Y0093942D01*
X0140079Y0094019D01*
X0140126Y0094095D01*
X0140177Y0094168D01*
X0140230Y0094239D01*
X0140287Y0094308D01*
X0140347Y0094374D01*
X0140410Y0094438D01*
X0140475Y0094498D01*
X0140543Y0094556D01*
X0140614Y0094610D01*
X0140687Y0094661D01*
X0140762Y0094709D01*
X0140839Y0094754D01*
X0140918Y0094795D01*
X0140999Y0094832D01*
X0141081Y0094866D01*
X0141165Y0094897D01*
X0141250Y0094923D01*
X0141336Y0094946D01*
X0141423Y0094964D01*
X0141511Y0094979D01*
X0141600Y0094990D01*
X0141689Y0094997D01*
X0141778Y0095000D01*
X0141867Y0094999D01*
X0141956Y0094994D01*
X0142044Y0094985D01*
X0142133Y0094972D01*
X0142220Y0094955D01*
X0142307Y0094935D01*
X0142393Y0094910D01*
X0142477Y0094882D01*
X0142560Y0094850D01*
X0142642Y0094814D01*
X0142722Y0094775D01*
X0142800Y0094732D01*
X0142876Y0094686D01*
X0142950Y0094636D01*
X0143022Y0094583D01*
X0143091Y0094527D01*
X0143158Y0094468D01*
X0143222Y0094406D01*
X0143283Y0094342D01*
X0143342Y0094274D01*
X0143397Y0094204D01*
X0143449Y0094132D01*
X0143498Y0094057D01*
X0143543Y0093981D01*
X0143585Y0093902D01*
X0143623Y0093822D01*
X0143658Y0093740D01*
X0143689Y0093656D01*
X0143717Y0093571D01*
X0143740Y0093485D01*
X0143760Y0093398D01*
X0143776Y0093311D01*
X0143788Y0093222D01*
X0143796Y0093134D01*
X0143800Y0093045D01*
X0143800Y0092955D01*
X0143796Y0092866D01*
X0143788Y0092778D01*
X0143776Y0092689D01*
X0143760Y0092602D01*
X0143740Y0092515D01*
X0143717Y0092429D01*
X0143689Y0092344D01*
X0143658Y0092260D01*
X0143623Y0092178D01*
X0143585Y0092098D01*
X0143543Y0092019D01*
X0143498Y0091943D01*
X0143449Y0091868D01*
X0143397Y0091796D01*
X0143342Y0091726D01*
X0143283Y0091658D01*
X0143222Y0091594D01*
X0143158Y0091532D01*
X0143091Y0091473D01*
X0143022Y0091417D01*
X0142950Y0091364D01*
X0142876Y0091314D01*
X0142800Y0091268D01*
X0142722Y0091225D01*
X0142642Y0091186D01*
X0142560Y0091150D01*
X0142477Y0091118D01*
X0142393Y0091090D01*
X0142307Y0091065D01*
X0142220Y0091045D01*
X0142133Y0091028D01*
X0142044Y0091015D01*
X0141956Y0091006D01*
X0141867Y0091001D01*
X0141778Y0091000D01*
X0141689Y0091003D01*
X0141600Y0091010D01*
X0141511Y0091021D01*
X0141423Y0091036D01*
X0141336Y0091054D01*
X0141250Y0091077D01*
X0141165Y0091103D01*
X0141081Y0091134D01*
X0140999Y0091168D01*
X0140918Y0091205D01*
X0140839Y0091246D01*
X0140762Y0091291D01*
X0140687Y0091339D01*
X0140614Y0091390D01*
X0140543Y0091444D01*
X0140475Y0091502D01*
X0140410Y0091562D01*
X0140347Y0091626D01*
X0140287Y0091692D01*
X0140230Y0091761D01*
X0140177Y0091832D01*
X0140126Y0091905D01*
X0140079Y0091981D01*
X0140036Y0092058D01*
X0139995Y0092138D01*
X0139959Y0092219D01*
X0139926Y0092302D01*
X0139897Y0092386D01*
X0139871Y0092472D01*
X0139849Y0092558D01*
X0139832Y0092645D01*
X0139818Y0092733D01*
X0139808Y0092822D01*
X0139802Y0092911D01*
X0139800Y0093000D01*
X0075332Y0104585D02*
X0071829Y0104585D01*
X0069494Y0102255D02*
X0068326Y0102255D01*
X0071829Y0111583D02*
X0076500Y0111583D01*
X0075332Y0118581D02*
X0076500Y0119748D01*
X0076500Y0123251D01*
D12*
X0117000Y0106337D02*
X0117000Y0105470D01*
X0117867Y0104602D01*
X0119602Y0104602D01*
X0120470Y0103735D01*
X0120470Y0102867D01*
X0119602Y0102000D01*
X0117867Y0102000D01*
X0117000Y0102867D01*
X0117000Y0106337D02*
X0117867Y0107204D01*
X0119602Y0107204D01*
X0120470Y0106337D01*
X0122156Y0105470D02*
X0123891Y0107204D01*
X0123891Y0102000D01*
X0122156Y0102000D02*
X0125626Y0102000D01*
X0137000Y0102867D02*
X0137867Y0102000D01*
X0139602Y0102000D01*
X0140470Y0102867D01*
X0140470Y0103735D01*
X0139602Y0104602D01*
X0137867Y0104602D01*
X0137000Y0105470D01*
X0137000Y0106337D01*
X0137867Y0107204D01*
X0139602Y0107204D01*
X0140470Y0106337D01*
X0142156Y0106337D02*
X0143024Y0107204D01*
X0144759Y0107204D01*
X0145626Y0106337D01*
X0145626Y0105470D01*
X0142156Y0102000D01*
X0145626Y0102000D01*
X0157000Y0102867D02*
X0157867Y0102000D01*
X0159602Y0102000D01*
X0160470Y0102867D01*
X0160470Y0103735D01*
X0159602Y0104602D01*
X0157867Y0104602D01*
X0157000Y0105470D01*
X0157000Y0106337D01*
X0157867Y0107204D01*
X0159602Y0107204D01*
X0160470Y0106337D01*
X0162156Y0106337D02*
X0163024Y0107204D01*
X0164759Y0107204D01*
X0165626Y0106337D01*
X0165626Y0105470D01*
X0164759Y0104602D01*
X0165626Y0103735D01*
X0165626Y0102867D01*
X0164759Y0102000D01*
X0163024Y0102000D01*
X0162156Y0102867D01*
X0163891Y0104602D02*
X0164759Y0104602D01*
X0177000Y0105470D02*
X0177867Y0104602D01*
X0179602Y0104602D01*
X0180470Y0103735D01*
X0180470Y0102867D01*
X0179602Y0102000D01*
X0177867Y0102000D01*
X0177000Y0102867D01*
X0177000Y0105470D02*
X0177000Y0106337D01*
X0177867Y0107204D01*
X0179602Y0107204D01*
X0180470Y0106337D01*
X0182156Y0104602D02*
X0185626Y0104602D01*
X0184759Y0102000D02*
X0184759Y0107204D01*
X0182156Y0104602D01*
X0197000Y0105470D02*
X0197867Y0104602D01*
X0199602Y0104602D01*
X0200470Y0103735D01*
X0200470Y0102867D01*
X0199602Y0102000D01*
X0197867Y0102000D01*
X0197000Y0102867D01*
X0197000Y0105470D02*
X0197000Y0106337D01*
X0197867Y0107204D01*
X0199602Y0107204D01*
X0200470Y0106337D01*
X0202156Y0107204D02*
X0202156Y0104602D01*
X0203891Y0105470D01*
X0204759Y0105470D01*
X0205626Y0104602D01*
X0205626Y0102867D01*
X0204759Y0102000D01*
X0203024Y0102000D01*
X0202156Y0102867D01*
X0202156Y0107204D02*
X0205626Y0107204D01*
X0217000Y0106337D02*
X0217000Y0105470D01*
X0217867Y0104602D01*
X0219602Y0104602D01*
X0220470Y0103735D01*
X0220470Y0102867D01*
X0219602Y0102000D01*
X0217867Y0102000D01*
X0217000Y0102867D01*
X0217000Y0106337D02*
X0217867Y0107204D01*
X0219602Y0107204D01*
X0220470Y0106337D01*
X0222156Y0104602D02*
X0224759Y0104602D01*
X0225626Y0103735D01*
X0225626Y0102867D01*
X0224759Y0102000D01*
X0223024Y0102000D01*
X0222156Y0102867D01*
X0222156Y0104602D01*
X0223891Y0106337D01*
X0225626Y0107204D01*
X0237000Y0104602D02*
X0240470Y0104602D01*
X0238735Y0106337D02*
X0238735Y0102867D01*
X0257000Y0102867D02*
X0257867Y0102000D01*
X0259602Y0102000D01*
X0260470Y0102867D01*
X0260470Y0104602D01*
X0258735Y0104602D01*
X0257000Y0106337D02*
X0257000Y0102867D01*
X0257000Y0106337D02*
X0257867Y0107204D01*
X0259602Y0107204D01*
X0260470Y0106337D01*
X0262156Y0107204D02*
X0265626Y0102000D01*
X0265626Y0107204D01*
X0267313Y0107204D02*
X0269915Y0107204D01*
X0270782Y0106337D01*
X0270782Y0102867D01*
X0269915Y0102000D01*
X0267313Y0102000D01*
X0267313Y0107204D01*
X0262156Y0107204D02*
X0262156Y0102000D01*
X0259759Y0207000D02*
X0259759Y0212204D01*
X0257156Y0209602D01*
X0260626Y0209602D01*
X0255470Y0208735D02*
X0255470Y0207867D01*
X0254602Y0207000D01*
X0252867Y0207000D01*
X0252000Y0207867D01*
X0252867Y0209602D02*
X0252000Y0210470D01*
X0252000Y0211337D01*
X0252867Y0212204D01*
X0254602Y0212204D01*
X0255470Y0211337D01*
X0254602Y0209602D02*
X0255470Y0208735D01*
X0254602Y0209602D02*
X0252867Y0209602D01*
X0240782Y0207867D02*
X0240782Y0211337D01*
X0239915Y0212204D01*
X0237313Y0212204D01*
X0237313Y0207000D01*
X0239915Y0207000D01*
X0240782Y0207867D01*
X0235626Y0207000D02*
X0235626Y0212204D01*
X0232156Y0212204D02*
X0235626Y0207000D01*
X0232156Y0207000D02*
X0232156Y0212204D01*
X0230470Y0211337D02*
X0229602Y0212204D01*
X0227867Y0212204D01*
X0227000Y0211337D01*
X0227000Y0207867D01*
X0227867Y0207000D01*
X0229602Y0207000D01*
X0230470Y0207867D01*
X0230470Y0209602D01*
X0228735Y0209602D01*
X0200626Y0208735D02*
X0200626Y0207867D01*
X0199759Y0207000D01*
X0198024Y0207000D01*
X0197156Y0207867D01*
X0195470Y0207867D02*
X0194602Y0207000D01*
X0192867Y0207000D01*
X0192000Y0207867D01*
X0192867Y0209602D02*
X0194602Y0209602D01*
X0195470Y0208735D01*
X0195470Y0207867D01*
X0192867Y0209602D02*
X0192000Y0210470D01*
X0192000Y0211337D01*
X0192867Y0212204D01*
X0194602Y0212204D01*
X0195470Y0211337D01*
X0197156Y0211337D02*
X0198024Y0212204D01*
X0199759Y0212204D01*
X0200626Y0211337D01*
X0200626Y0210470D01*
X0199759Y0209602D01*
X0200626Y0208735D01*
X0199759Y0209602D02*
X0198891Y0209602D01*
X0180782Y0207867D02*
X0180782Y0211337D01*
X0179915Y0212204D01*
X0177313Y0212204D01*
X0177313Y0207000D01*
X0179915Y0207000D01*
X0180782Y0207867D01*
X0175626Y0207000D02*
X0175626Y0212204D01*
X0172156Y0212204D02*
X0175626Y0207000D01*
X0172156Y0207000D02*
X0172156Y0212204D01*
X0170470Y0211337D02*
X0169602Y0212204D01*
X0167867Y0212204D01*
X0167000Y0211337D01*
X0167000Y0207867D01*
X0167867Y0207000D01*
X0169602Y0207000D01*
X0170470Y0207867D01*
X0170470Y0209602D01*
X0168735Y0209602D01*
X0140626Y0210470D02*
X0140626Y0211337D01*
X0139759Y0212204D01*
X0138024Y0212204D01*
X0137156Y0211337D01*
X0135470Y0211337D02*
X0134602Y0212204D01*
X0132867Y0212204D01*
X0132000Y0211337D01*
X0132000Y0210470D01*
X0132867Y0209602D01*
X0134602Y0209602D01*
X0135470Y0208735D01*
X0135470Y0207867D01*
X0134602Y0207000D01*
X0132867Y0207000D01*
X0132000Y0207867D01*
X0137156Y0207000D02*
X0140626Y0210470D01*
X0140626Y0207000D02*
X0137156Y0207000D01*
X0120782Y0207867D02*
X0120782Y0211337D01*
X0119915Y0212204D01*
X0117313Y0212204D01*
X0117313Y0207000D01*
X0119915Y0207000D01*
X0120782Y0207867D01*
X0115626Y0207000D02*
X0115626Y0212204D01*
X0112156Y0212204D02*
X0115626Y0207000D01*
X0112156Y0207000D02*
X0112156Y0212204D01*
X0110470Y0211337D02*
X0109602Y0212204D01*
X0107867Y0212204D01*
X0107000Y0211337D01*
X0107000Y0207867D01*
X0107867Y0207000D01*
X0109602Y0207000D01*
X0110470Y0207867D01*
X0110470Y0209602D01*
X0108735Y0209602D01*
X0080626Y0207000D02*
X0077156Y0207000D01*
X0078891Y0207000D02*
X0078891Y0212204D01*
X0077156Y0210470D01*
X0075470Y0211337D02*
X0074602Y0212204D01*
X0072867Y0212204D01*
X0072000Y0211337D01*
X0072000Y0210470D01*
X0072867Y0209602D01*
X0074602Y0209602D01*
X0075470Y0208735D01*
X0075470Y0207867D01*
X0074602Y0207000D01*
X0072867Y0207000D01*
X0072000Y0207867D01*
X0060782Y0207867D02*
X0060782Y0211337D01*
X0059915Y0212204D01*
X0057313Y0212204D01*
X0057313Y0207000D01*
X0059915Y0207000D01*
X0060782Y0207867D01*
X0055626Y0207000D02*
X0055626Y0212204D01*
X0052156Y0212204D02*
X0055626Y0207000D01*
X0052156Y0207000D02*
X0052156Y0212204D01*
X0050470Y0211337D02*
X0049602Y0212204D01*
X0047867Y0212204D01*
X0047000Y0211337D01*
X0047000Y0207867D01*
X0047867Y0207000D01*
X0049602Y0207000D01*
X0050470Y0207867D01*
X0050470Y0209602D01*
X0048735Y0209602D01*
X0287000Y0207867D02*
X0287867Y0207000D01*
X0289602Y0207000D01*
X0290470Y0207867D01*
X0290470Y0209602D01*
X0288735Y0209602D01*
X0287000Y0211337D02*
X0287000Y0207867D01*
X0287000Y0211337D02*
X0287867Y0212204D01*
X0289602Y0212204D01*
X0290470Y0211337D01*
X0292156Y0212204D02*
X0292156Y0207000D01*
X0295626Y0207000D02*
X0295626Y0212204D01*
X0297313Y0212204D02*
X0299915Y0212204D01*
X0300782Y0211337D01*
X0300782Y0207867D01*
X0299915Y0207000D01*
X0297313Y0207000D01*
X0297313Y0212204D01*
X0292156Y0212204D02*
X0295626Y0207000D01*
X0312000Y0207867D02*
X0312867Y0207000D01*
X0314602Y0207000D01*
X0315470Y0207867D01*
X0315470Y0208735D01*
X0314602Y0209602D01*
X0312867Y0209602D01*
X0312000Y0210470D01*
X0312000Y0211337D01*
X0312867Y0212204D01*
X0314602Y0212204D01*
X0315470Y0211337D01*
X0317156Y0212204D02*
X0317156Y0209602D01*
X0318891Y0210470D01*
X0319759Y0210470D01*
X0320626Y0209602D01*
X0320626Y0207867D01*
X0319759Y0207000D01*
X0318024Y0207000D01*
X0317156Y0207867D01*
X0317156Y0212204D02*
X0320626Y0212204D01*
X0347000Y0211337D02*
X0347000Y0207867D01*
X0347867Y0207000D01*
X0349602Y0207000D01*
X0350470Y0207867D01*
X0350470Y0209602D01*
X0348735Y0209602D01*
X0350470Y0211337D02*
X0349602Y0212204D01*
X0347867Y0212204D01*
X0347000Y0211337D01*
X0352156Y0212204D02*
X0355626Y0207000D01*
X0355626Y0212204D01*
X0357313Y0212204D02*
X0359915Y0212204D01*
X0360782Y0211337D01*
X0360782Y0207867D01*
X0359915Y0207000D01*
X0357313Y0207000D01*
X0357313Y0212204D01*
X0352156Y0212204D02*
X0352156Y0207000D01*
X0372000Y0207867D02*
X0372867Y0207000D01*
X0374602Y0207000D01*
X0375470Y0207867D01*
X0375470Y0208735D01*
X0374602Y0209602D01*
X0372867Y0209602D01*
X0372000Y0210470D01*
X0372000Y0211337D01*
X0372867Y0212204D01*
X0374602Y0212204D01*
X0375470Y0211337D01*
X0377156Y0209602D02*
X0377156Y0207867D01*
X0378024Y0207000D01*
X0379759Y0207000D01*
X0380626Y0207867D01*
X0380626Y0208735D01*
X0379759Y0209602D01*
X0377156Y0209602D01*
X0378891Y0211337D01*
X0380626Y0212204D01*
D13*
X0065804Y0196236D02*
X0065804Y0193934D01*
X0065804Y0196236D02*
X0063502Y0198538D01*
X0051992Y0198538D01*
X0061200Y0198538D02*
X0061200Y0191632D01*
X0058898Y0189330D01*
X0051992Y0189330D01*
X0051992Y0184726D02*
X0051992Y0177820D01*
X0054294Y0175518D01*
X0058898Y0175518D01*
X0061200Y0177820D01*
X0061200Y0184726D01*
X0063502Y0184726D02*
X0051992Y0184726D01*
X0063502Y0184726D02*
X0065804Y0182424D01*
X0065804Y0180122D01*
X0058898Y0170914D02*
X0054294Y0170914D01*
X0051992Y0168612D01*
X0051992Y0164008D01*
X0054294Y0161706D01*
X0058898Y0161706D01*
X0061200Y0164008D01*
X0061200Y0168612D01*
X0058898Y0170914D01*
X0061200Y0157102D02*
X0061200Y0152498D01*
X0061200Y0154800D02*
X0047388Y0154800D01*
X0047388Y0152498D01*
X0051992Y0145592D02*
X0051992Y0140988D01*
X0054294Y0138687D01*
X0058898Y0138687D01*
X0061200Y0140988D01*
X0061200Y0145592D01*
X0058898Y0147894D01*
X0054294Y0147894D01*
X0051992Y0145592D01*
X0054294Y0134083D02*
X0061200Y0134083D01*
X0054294Y0134083D02*
X0051992Y0131781D01*
X0051992Y0124875D01*
X0061200Y0124875D01*
X0061200Y0120271D02*
X0051992Y0111063D01*
X0054294Y0106459D02*
X0056596Y0106459D01*
X0056596Y0097251D01*
X0054294Y0097251D02*
X0051992Y0099553D01*
X0051992Y0104157D01*
X0054294Y0106459D01*
X0061200Y0104157D02*
X0061200Y0099553D01*
X0058898Y0097251D01*
X0054294Y0097251D01*
X0051992Y0092647D02*
X0051992Y0088043D01*
X0049690Y0090345D02*
X0058898Y0090345D01*
X0061200Y0092647D01*
X0058898Y0083439D02*
X0054294Y0083439D01*
X0051992Y0081137D01*
X0051992Y0076533D01*
X0054294Y0074231D01*
X0058898Y0074231D01*
X0061200Y0076533D01*
X0061200Y0081137D01*
X0058898Y0083439D01*
X0061200Y0069628D02*
X0047388Y0069628D01*
X0051992Y0069628D02*
X0051992Y0062722D01*
X0054294Y0060420D01*
X0058898Y0060420D01*
X0061200Y0062722D01*
X0061200Y0069628D01*
X0061200Y0055816D02*
X0054294Y0055816D01*
X0051992Y0053514D01*
X0051992Y0046608D01*
X0061200Y0046608D01*
X0061200Y0042004D02*
X0061200Y0037400D01*
X0061200Y0039702D02*
X0047388Y0039702D01*
X0047388Y0037400D02*
X0047388Y0042004D01*
X0061200Y0111063D02*
X0051992Y0120271D01*
D14*
X0117050Y0069554D02*
X0120053Y0065050D01*
X0121654Y0065050D02*
X0124656Y0065050D01*
X0123155Y0065050D02*
X0123155Y0069554D01*
X0121654Y0068053D01*
X0120053Y0069554D02*
X0117050Y0065050D01*
X0157050Y0065050D02*
X0160053Y0069554D01*
X0161654Y0068803D02*
X0162405Y0069554D01*
X0163906Y0069554D01*
X0164656Y0068803D01*
X0164656Y0068053D01*
X0161654Y0065050D01*
X0164656Y0065050D01*
X0160053Y0065050D02*
X0157050Y0069554D01*
X0197050Y0069554D02*
X0200053Y0065050D01*
X0201654Y0065801D02*
X0202405Y0065050D01*
X0203906Y0065050D01*
X0204656Y0065801D01*
X0204656Y0066551D01*
X0203906Y0067302D01*
X0203155Y0067302D01*
X0203906Y0067302D02*
X0204656Y0068053D01*
X0204656Y0068803D01*
X0203906Y0069554D01*
X0202405Y0069554D01*
X0201654Y0068803D01*
X0200053Y0069554D02*
X0197050Y0065050D01*
X0237050Y0065050D02*
X0240053Y0069554D01*
X0241654Y0067302D02*
X0243906Y0069554D01*
X0243906Y0065050D01*
X0244656Y0067302D02*
X0241654Y0067302D01*
X0240053Y0065050D02*
X0237050Y0069554D01*
X0248238Y0249050D02*
X0251241Y0253554D01*
X0252842Y0252053D02*
X0254343Y0253554D01*
X0254343Y0249050D01*
X0252842Y0249050D02*
X0255845Y0249050D01*
X0257446Y0249801D02*
X0260449Y0252803D01*
X0260449Y0249801D01*
X0259698Y0249050D01*
X0258197Y0249050D01*
X0257446Y0249801D01*
X0257446Y0252803D01*
X0258197Y0253554D01*
X0259698Y0253554D01*
X0260449Y0252803D01*
X0251241Y0249050D02*
X0248238Y0253554D01*
X0220449Y0252803D02*
X0220449Y0249801D01*
X0219698Y0249050D01*
X0218197Y0249050D01*
X0217446Y0249801D01*
X0218197Y0251302D02*
X0220449Y0251302D01*
X0220449Y0252803D02*
X0219698Y0253554D01*
X0218197Y0253554D01*
X0217446Y0252803D01*
X0217446Y0252053D01*
X0218197Y0251302D01*
X0215845Y0253554D02*
X0212842Y0249050D01*
X0215845Y0249050D02*
X0212842Y0253554D01*
X0180449Y0252803D02*
X0180449Y0252053D01*
X0179698Y0251302D01*
X0178197Y0251302D01*
X0177446Y0252053D01*
X0177446Y0252803D01*
X0178197Y0253554D01*
X0179698Y0253554D01*
X0180449Y0252803D01*
X0179698Y0251302D02*
X0180449Y0250551D01*
X0180449Y0249801D01*
X0179698Y0249050D01*
X0178197Y0249050D01*
X0177446Y0249801D01*
X0177446Y0250551D01*
X0178197Y0251302D01*
X0175845Y0253554D02*
X0172842Y0249050D01*
X0175845Y0249050D02*
X0172842Y0253554D01*
X0140449Y0253554D02*
X0140449Y0252803D01*
X0137446Y0249801D01*
X0137446Y0249050D01*
X0135845Y0249050D02*
X0132842Y0253554D01*
X0135845Y0253554D02*
X0132842Y0249050D01*
X0137446Y0253554D02*
X0140449Y0253554D01*
X0100449Y0253554D02*
X0098947Y0252803D01*
X0097446Y0251302D01*
X0099698Y0251302D01*
X0100449Y0250551D01*
X0100449Y0249801D01*
X0099698Y0249050D01*
X0098197Y0249050D01*
X0097446Y0249801D01*
X0097446Y0251302D01*
X0095845Y0253554D02*
X0092842Y0249050D01*
X0095845Y0249050D02*
X0092842Y0253554D01*
X0060449Y0253554D02*
X0057446Y0253554D01*
X0057446Y0251302D01*
X0058947Y0252053D01*
X0059698Y0252053D01*
X0060449Y0251302D01*
X0060449Y0249801D01*
X0059698Y0249050D01*
X0058197Y0249050D01*
X0057446Y0249801D01*
X0055845Y0249050D02*
X0052842Y0253554D01*
X0055845Y0253554D02*
X0052842Y0249050D01*
X0288238Y0249050D02*
X0291241Y0253554D01*
X0292842Y0252053D02*
X0294343Y0253554D01*
X0294343Y0249050D01*
X0292842Y0249050D02*
X0295845Y0249050D01*
X0297446Y0249050D02*
X0300449Y0249050D01*
X0298947Y0249050D02*
X0298947Y0253554D01*
X0297446Y0252053D01*
X0291241Y0249050D02*
X0288238Y0253554D01*
X0328238Y0253554D02*
X0331241Y0249050D01*
X0332842Y0249050D02*
X0335845Y0249050D01*
X0334343Y0249050D02*
X0334343Y0253554D01*
X0332842Y0252053D01*
X0331241Y0253554D02*
X0328238Y0249050D01*
X0337446Y0249050D02*
X0340449Y0252053D01*
X0340449Y0252803D01*
X0339698Y0253554D01*
X0338197Y0253554D01*
X0337446Y0252803D01*
X0337446Y0249050D02*
X0340449Y0249050D01*
X0368238Y0249050D02*
X0371241Y0253554D01*
X0372842Y0252053D02*
X0374343Y0253554D01*
X0374343Y0249050D01*
X0372842Y0249050D02*
X0375845Y0249050D01*
X0377446Y0249801D02*
X0378197Y0249050D01*
X0379698Y0249050D01*
X0380449Y0249801D01*
X0380449Y0250551D01*
X0379698Y0251302D01*
X0378947Y0251302D01*
X0379698Y0251302D02*
X0380449Y0252053D01*
X0380449Y0252803D01*
X0379698Y0253554D01*
X0378197Y0253554D01*
X0377446Y0252803D01*
X0371241Y0249050D02*
X0368238Y0253554D01*
M02*
