G75*
%MOIN*%
%OFA0B0*%
%FSLAX25Y25*%
%IPPOS*%
%LPD*%
%AMOC8*
5,1,8,0,0,1.08239X$1,22.5*
%
%ADD10C,0.07850*%
D10*
X0121957Y0088275D02*
X0121957Y0095325D01*
X0141643Y0095325D02*
X0141643Y0088275D01*
X0161957Y0088275D02*
X0161957Y0095325D01*
X0181643Y0095325D02*
X0181643Y0088275D01*
X0201957Y0088275D02*
X0201957Y0095325D01*
X0221643Y0095325D02*
X0221643Y0088275D01*
X0321957Y0088275D02*
X0321957Y0095325D01*
X0341643Y0095325D02*
X0341643Y0088275D01*
X0331957Y0248275D02*
X0331957Y0255325D01*
X0351643Y0255325D02*
X0351643Y0248275D01*
X0311643Y0248275D02*
X0311643Y0255325D01*
X0291957Y0255325D02*
X0291957Y0248275D01*
X0271643Y0248275D02*
X0271643Y0255325D01*
X0251957Y0255325D02*
X0251957Y0248275D01*
X0231643Y0248275D02*
X0231643Y0255325D01*
X0211957Y0255325D02*
X0211957Y0248275D01*
X0191643Y0248275D02*
X0191643Y0255325D01*
X0171957Y0255325D02*
X0171957Y0248275D01*
X0151643Y0248275D02*
X0151643Y0255325D01*
X0131957Y0255325D02*
X0131957Y0248275D01*
X0111643Y0248275D02*
X0111643Y0255325D01*
X0091957Y0255325D02*
X0091957Y0248275D01*
X0071643Y0248275D02*
X0071643Y0255325D01*
X0051957Y0255325D02*
X0051957Y0248275D01*
X0031643Y0248275D02*
X0031643Y0255325D01*
X0011957Y0255325D02*
X0011957Y0248275D01*
M02*
