G75*
%MOIN*%
%OFA0B0*%
%FSLAX25Y25*%
%IPPOS*%
%LPD*%
%AMOC8*
5,1,8,0,0,1.08239X$1,22.5*
%
%ADD10C,0.00000*%
%ADD11C,0.07050*%
%ADD12C,0.05000*%
%ADD13C,0.01600*%
%ADD14C,0.03200*%
%ADD15C,0.16598*%
D10*
X0001800Y0001800D02*
X0001800Y0290501D01*
X0396721Y0290501D01*
X0396721Y0001800D01*
X0001800Y0001800D01*
D11*
X0136957Y0073275D02*
X0136957Y0080325D01*
X0156643Y0080325D02*
X0156643Y0073275D01*
X0176957Y0073275D02*
X0176957Y0080325D01*
X0196643Y0080325D02*
X0196643Y0073275D01*
X0216957Y0073275D02*
X0216957Y0080325D01*
X0236643Y0080325D02*
X0236643Y0073275D01*
X0336957Y0073275D02*
X0336957Y0080325D01*
X0356643Y0080325D02*
X0356643Y0073275D01*
X0346957Y0233275D02*
X0346957Y0240325D01*
X0366643Y0240325D02*
X0366643Y0233275D01*
X0326643Y0233275D02*
X0326643Y0240325D01*
X0306957Y0240325D02*
X0306957Y0233275D01*
X0286643Y0233275D02*
X0286643Y0240325D01*
X0266957Y0240325D02*
X0266957Y0233275D01*
X0246643Y0233275D02*
X0246643Y0240325D01*
X0226957Y0240325D02*
X0226957Y0233275D01*
X0206643Y0233275D02*
X0206643Y0240325D01*
X0186957Y0240325D02*
X0186957Y0233275D01*
X0166643Y0233275D02*
X0166643Y0240325D01*
X0146957Y0240325D02*
X0146957Y0233275D01*
X0126643Y0233275D02*
X0126643Y0240325D01*
X0106957Y0240325D02*
X0106957Y0233275D01*
X0086643Y0233275D02*
X0086643Y0240325D01*
X0066957Y0240325D02*
X0066957Y0233275D01*
X0046643Y0233275D02*
X0046643Y0240325D01*
X0026957Y0240325D02*
X0026957Y0233275D01*
D12*
X0026957Y0236800D02*
X0026957Y0251957D01*
X0036800Y0261800D01*
X0076800Y0261800D01*
X0086800Y0251800D01*
X0086800Y0236957D01*
X0086643Y0236800D01*
X0076800Y0261800D02*
X0141800Y0261800D01*
X0146957Y0256643D01*
X0146957Y0236800D01*
X0141800Y0261800D02*
X0196800Y0261800D01*
X0206643Y0251957D01*
X0206643Y0236800D01*
X0196800Y0261800D02*
X0256800Y0261800D01*
X0266957Y0251643D01*
X0266957Y0236800D01*
X0256800Y0261800D02*
X0316800Y0261800D01*
X0376800Y0261800D01*
X0381800Y0256800D01*
X0381800Y0051800D01*
X0371800Y0041800D01*
X0346800Y0041800D01*
X0326800Y0061800D01*
X0326800Y0071800D01*
X0331800Y0076800D01*
X0336957Y0076800D01*
X0326643Y0236800D02*
X0326643Y0251957D01*
X0316800Y0261800D01*
X0326643Y0251957D02*
X0326800Y0251800D01*
X0326800Y0236957D01*
X0326643Y0236800D01*
D13*
X0321518Y0236781D02*
X0312082Y0236781D01*
X0312082Y0235183D02*
X0321518Y0235183D01*
X0321518Y0233584D02*
X0312082Y0233584D01*
X0312082Y0232256D02*
X0312082Y0241344D01*
X0311302Y0243228D01*
X0309861Y0244670D01*
X0307977Y0245450D01*
X0305938Y0245450D01*
X0304054Y0244670D01*
X0302613Y0243228D01*
X0301832Y0241344D01*
X0301832Y0232256D01*
X0302613Y0230372D01*
X0303757Y0229227D01*
X0303757Y0223283D01*
X0214987Y0134513D01*
X0214087Y0133613D01*
X0213600Y0132437D01*
X0213600Y0084215D01*
X0212613Y0083228D01*
X0211832Y0081344D01*
X0211832Y0072256D01*
X0212613Y0070372D01*
X0214054Y0068930D01*
X0215938Y0068150D01*
X0217977Y0068150D01*
X0219861Y0068930D01*
X0221302Y0070372D01*
X0222082Y0072256D01*
X0222082Y0081344D01*
X0221302Y0083228D01*
X0220000Y0084530D01*
X0220000Y0130475D01*
X0309670Y0220145D01*
X0310157Y0221321D01*
X0310157Y0229227D01*
X0311302Y0230372D01*
X0312082Y0232256D01*
X0311971Y0231986D02*
X0321629Y0231986D01*
X0321518Y0232256D02*
X0322298Y0230372D01*
X0323739Y0228930D01*
X0325623Y0228150D01*
X0327662Y0228150D01*
X0329546Y0228930D01*
X0330987Y0230372D01*
X0331768Y0232256D01*
X0331768Y0241344D01*
X0330987Y0243228D01*
X0330900Y0243315D01*
X0330900Y0252616D01*
X0330276Y0254122D01*
X0329122Y0255276D01*
X0328965Y0255433D01*
X0326698Y0257700D01*
X0375102Y0257700D01*
X0377700Y0255102D01*
X0377700Y0053498D01*
X0370102Y0045900D01*
X0348498Y0045900D01*
X0330900Y0063498D01*
X0330900Y0070102D01*
X0332190Y0071392D01*
X0332613Y0070372D01*
X0334054Y0068930D01*
X0335938Y0068150D01*
X0337977Y0068150D01*
X0339861Y0068930D01*
X0341302Y0070372D01*
X0342082Y0072256D01*
X0342082Y0081344D01*
X0341302Y0083228D01*
X0339861Y0084670D01*
X0337977Y0085450D01*
X0335938Y0085450D01*
X0334054Y0084670D01*
X0332613Y0083228D01*
X0331832Y0081344D01*
X0331832Y0080900D01*
X0330984Y0080900D01*
X0329478Y0080276D01*
X0328324Y0079122D01*
X0323324Y0074122D01*
X0322700Y0072616D01*
X0322700Y0060984D01*
X0323324Y0059478D01*
X0324478Y0058324D01*
X0344478Y0038324D01*
X0345984Y0037700D01*
X0372616Y0037700D01*
X0374122Y0038324D01*
X0375276Y0039478D01*
X0385276Y0049478D01*
X0385900Y0050984D01*
X0385900Y0257616D01*
X0385276Y0259122D01*
X0384122Y0260276D01*
X0379122Y0265276D01*
X0377616Y0265900D01*
X0035984Y0265900D01*
X0034478Y0265276D01*
X0033324Y0264122D01*
X0023482Y0254280D01*
X0022857Y0252773D01*
X0022857Y0243473D01*
X0022613Y0243228D01*
X0021832Y0241344D01*
X0021832Y0232256D01*
X0022613Y0230372D01*
X0024054Y0228930D01*
X0025938Y0228150D01*
X0027977Y0228150D01*
X0029861Y0228930D01*
X0031302Y0230372D01*
X0032082Y0232256D01*
X0032082Y0241344D01*
X0031302Y0243228D01*
X0031057Y0243473D01*
X0031057Y0250259D01*
X0038498Y0257700D01*
X0075102Y0257700D01*
X0082700Y0250102D01*
X0082700Y0243630D01*
X0082298Y0243228D01*
X0081518Y0241344D01*
X0081518Y0232256D01*
X0082298Y0230372D01*
X0083739Y0228930D01*
X0085623Y0228150D01*
X0087662Y0228150D01*
X0089546Y0228930D01*
X0090987Y0230372D01*
X0091768Y0232256D01*
X0091768Y0241344D01*
X0090987Y0243228D01*
X0090900Y0243315D01*
X0090900Y0252616D01*
X0090276Y0254122D01*
X0089122Y0255276D01*
X0086698Y0257700D01*
X0140102Y0257700D01*
X0142857Y0254944D01*
X0142857Y0243473D01*
X0142613Y0243228D01*
X0141832Y0241344D01*
X0141832Y0232256D01*
X0142613Y0230372D01*
X0144054Y0228930D01*
X0145938Y0228150D01*
X0147977Y0228150D01*
X0149861Y0228930D01*
X0151302Y0230372D01*
X0152082Y0232256D01*
X0152082Y0241344D01*
X0151302Y0243228D01*
X0151057Y0243473D01*
X0151057Y0257458D01*
X0150957Y0257700D01*
X0195102Y0257700D01*
X0202543Y0250259D01*
X0202543Y0243473D01*
X0202298Y0243228D01*
X0201518Y0241344D01*
X0201518Y0232256D01*
X0202298Y0230372D01*
X0203739Y0228930D01*
X0205623Y0228150D01*
X0207662Y0228150D01*
X0209546Y0228930D01*
X0210987Y0230372D01*
X0211768Y0232256D01*
X0211768Y0241344D01*
X0210987Y0243228D01*
X0210743Y0243473D01*
X0210743Y0252773D01*
X0210118Y0254280D01*
X0206698Y0257700D01*
X0255102Y0257700D01*
X0262857Y0249944D01*
X0262857Y0243473D01*
X0262613Y0243228D01*
X0261832Y0241344D01*
X0261832Y0232256D01*
X0262613Y0230372D01*
X0264054Y0228930D01*
X0265938Y0228150D01*
X0267977Y0228150D01*
X0269861Y0228930D01*
X0271302Y0230372D01*
X0272082Y0232256D01*
X0272082Y0241344D01*
X0271302Y0243228D01*
X0271057Y0243473D01*
X0271057Y0252458D01*
X0270433Y0253965D01*
X0266698Y0257700D01*
X0315102Y0257700D01*
X0322543Y0250259D01*
X0322543Y0243473D01*
X0322298Y0243228D01*
X0321518Y0241344D01*
X0321518Y0232256D01*
X0322291Y0230387D02*
X0311309Y0230387D01*
X0310157Y0228789D02*
X0324081Y0228789D01*
X0329204Y0228789D02*
X0344073Y0228789D01*
X0344167Y0228721D02*
X0344913Y0228340D01*
X0345711Y0228081D01*
X0346538Y0227950D01*
X0346582Y0227950D01*
X0346582Y0236425D01*
X0341632Y0236425D01*
X0341632Y0232856D01*
X0341764Y0232028D01*
X0342023Y0231231D01*
X0342403Y0230484D01*
X0342896Y0229806D01*
X0343488Y0229213D01*
X0344167Y0228721D01*
X0342474Y0230387D02*
X0330994Y0230387D01*
X0331656Y0231986D02*
X0341777Y0231986D01*
X0341632Y0233584D02*
X0331768Y0233584D01*
X0331768Y0235183D02*
X0341632Y0235183D01*
X0341632Y0237175D02*
X0346582Y0237175D01*
X0346582Y0236425D01*
X0347332Y0236425D01*
X0347332Y0227950D01*
X0347377Y0227950D01*
X0348204Y0228081D01*
X0349002Y0228340D01*
X0349748Y0228721D01*
X0350426Y0229213D01*
X0351019Y0229806D01*
X0351512Y0230484D01*
X0351892Y0231231D01*
X0352151Y0232028D01*
X0352282Y0232856D01*
X0352282Y0236425D01*
X0347333Y0236425D01*
X0347333Y0237175D01*
X0352282Y0237175D01*
X0352282Y0240744D01*
X0352151Y0241572D01*
X0351892Y0242369D01*
X0351512Y0243116D01*
X0351019Y0243794D01*
X0350426Y0244387D01*
X0349748Y0244879D01*
X0349002Y0245260D01*
X0348204Y0245519D01*
X0347377Y0245650D01*
X0347332Y0245650D01*
X0347332Y0237175D01*
X0346582Y0237175D01*
X0346582Y0245650D01*
X0346538Y0245650D01*
X0345711Y0245519D01*
X0344913Y0245260D01*
X0344167Y0244879D01*
X0343488Y0244387D01*
X0342896Y0243794D01*
X0342403Y0243116D01*
X0342023Y0242369D01*
X0341764Y0241572D01*
X0341632Y0240744D01*
X0341632Y0237175D01*
X0341632Y0238380D02*
X0331768Y0238380D01*
X0331768Y0239978D02*
X0341632Y0239978D01*
X0341765Y0241577D02*
X0331671Y0241577D01*
X0331009Y0243175D02*
X0342446Y0243175D01*
X0344021Y0244774D02*
X0330900Y0244774D01*
X0330900Y0246372D02*
X0377700Y0246372D01*
X0377700Y0244774D02*
X0369295Y0244774D01*
X0369546Y0244670D02*
X0367662Y0245450D01*
X0365623Y0245450D01*
X0363739Y0244670D01*
X0362298Y0243228D01*
X0361518Y0241344D01*
X0361518Y0232256D01*
X0362298Y0230372D01*
X0363443Y0229227D01*
X0363443Y0227968D01*
X0270475Y0135000D01*
X0241163Y0135000D01*
X0239987Y0134513D01*
X0234987Y0129513D01*
X0234087Y0128613D01*
X0233600Y0127437D01*
X0233600Y0084530D01*
X0232298Y0083228D01*
X0231518Y0081344D01*
X0231518Y0072256D01*
X0232298Y0070372D01*
X0233739Y0068930D01*
X0235623Y0068150D01*
X0237662Y0068150D01*
X0239546Y0068930D01*
X0240987Y0070372D01*
X0241768Y0072256D01*
X0241768Y0081344D01*
X0240987Y0083228D01*
X0240000Y0084215D01*
X0240000Y0125475D01*
X0243125Y0128600D01*
X0272437Y0128600D01*
X0273613Y0129087D01*
X0274513Y0129987D01*
X0274513Y0129987D01*
X0368455Y0223930D01*
X0369355Y0224830D01*
X0369843Y0226006D01*
X0369843Y0229227D01*
X0370987Y0230372D01*
X0371768Y0232256D01*
X0371768Y0241344D01*
X0370987Y0243228D01*
X0369546Y0244670D01*
X0371009Y0243175D02*
X0377700Y0243175D01*
X0377700Y0241577D02*
X0371671Y0241577D01*
X0371768Y0239978D02*
X0377700Y0239978D01*
X0377700Y0238380D02*
X0371768Y0238380D01*
X0371768Y0236781D02*
X0377700Y0236781D01*
X0377700Y0235183D02*
X0371768Y0235183D01*
X0371768Y0233584D02*
X0377700Y0233584D01*
X0377700Y0231986D02*
X0371656Y0231986D01*
X0370994Y0230387D02*
X0377700Y0230387D01*
X0377700Y0228789D02*
X0369843Y0228789D01*
X0369843Y0227190D02*
X0377700Y0227190D01*
X0377700Y0225592D02*
X0369671Y0225592D01*
X0368519Y0223993D02*
X0377700Y0223993D01*
X0377700Y0222395D02*
X0366920Y0222395D01*
X0368455Y0223930D02*
X0368455Y0223930D01*
X0365322Y0220796D02*
X0377700Y0220796D01*
X0377700Y0219198D02*
X0363723Y0219198D01*
X0362124Y0217599D02*
X0377700Y0217599D01*
X0377700Y0216001D02*
X0360526Y0216001D01*
X0358927Y0214402D02*
X0377700Y0214402D01*
X0377700Y0212803D02*
X0357329Y0212803D01*
X0355730Y0211205D02*
X0377700Y0211205D01*
X0377700Y0209606D02*
X0354132Y0209606D01*
X0352533Y0208008D02*
X0377700Y0208008D01*
X0377700Y0206409D02*
X0350935Y0206409D01*
X0349336Y0204811D02*
X0377700Y0204811D01*
X0377700Y0203212D02*
X0347738Y0203212D01*
X0346139Y0201614D02*
X0377700Y0201614D01*
X0377700Y0200015D02*
X0344541Y0200015D01*
X0342942Y0198417D02*
X0377700Y0198417D01*
X0377700Y0196818D02*
X0341344Y0196818D01*
X0339745Y0195220D02*
X0377700Y0195220D01*
X0377700Y0193621D02*
X0338147Y0193621D01*
X0336548Y0192023D02*
X0377700Y0192023D01*
X0377700Y0190424D02*
X0334950Y0190424D01*
X0333351Y0188826D02*
X0377700Y0188826D01*
X0377700Y0187227D02*
X0331753Y0187227D01*
X0330154Y0185629D02*
X0377700Y0185629D01*
X0377700Y0184030D02*
X0328556Y0184030D01*
X0326957Y0182432D02*
X0377700Y0182432D01*
X0377700Y0180833D02*
X0325359Y0180833D01*
X0323760Y0179235D02*
X0377700Y0179235D01*
X0377700Y0177636D02*
X0322162Y0177636D01*
X0320563Y0176038D02*
X0377700Y0176038D01*
X0377700Y0174439D02*
X0318965Y0174439D01*
X0317366Y0172841D02*
X0377700Y0172841D01*
X0377700Y0171242D02*
X0315768Y0171242D01*
X0314169Y0169644D02*
X0377700Y0169644D01*
X0377700Y0168045D02*
X0312571Y0168045D01*
X0310972Y0166447D02*
X0377700Y0166447D01*
X0377700Y0164848D02*
X0309374Y0164848D01*
X0307775Y0163250D02*
X0377700Y0163250D01*
X0377700Y0161651D02*
X0306177Y0161651D01*
X0304578Y0160053D02*
X0377700Y0160053D01*
X0377700Y0158454D02*
X0302980Y0158454D01*
X0301381Y0156856D02*
X0377700Y0156856D01*
X0377700Y0155257D02*
X0299783Y0155257D01*
X0298184Y0153659D02*
X0377700Y0153659D01*
X0377700Y0152060D02*
X0296586Y0152060D01*
X0294987Y0150462D02*
X0377700Y0150462D01*
X0377700Y0148863D02*
X0293389Y0148863D01*
X0291790Y0147265D02*
X0377700Y0147265D01*
X0377700Y0145666D02*
X0290191Y0145666D01*
X0288593Y0144068D02*
X0377700Y0144068D01*
X0377700Y0142469D02*
X0286994Y0142469D01*
X0285396Y0140870D02*
X0377700Y0140870D01*
X0377700Y0139272D02*
X0283797Y0139272D01*
X0282199Y0137673D02*
X0377700Y0137673D01*
X0377700Y0136075D02*
X0280600Y0136075D01*
X0279002Y0134476D02*
X0377700Y0134476D01*
X0377700Y0132878D02*
X0277403Y0132878D01*
X0275805Y0131279D02*
X0377700Y0131279D01*
X0377700Y0129681D02*
X0274206Y0129681D01*
X0271549Y0136075D02*
X0225600Y0136075D01*
X0224002Y0134476D02*
X0239951Y0134476D01*
X0238352Y0132878D02*
X0222403Y0132878D01*
X0220805Y0131279D02*
X0236754Y0131279D01*
X0235155Y0129681D02*
X0220000Y0129681D01*
X0220000Y0128082D02*
X0233868Y0128082D01*
X0233600Y0126484D02*
X0220000Y0126484D01*
X0220000Y0124885D02*
X0233600Y0124885D01*
X0233600Y0123287D02*
X0220000Y0123287D01*
X0220000Y0121688D02*
X0233600Y0121688D01*
X0233600Y0120090D02*
X0220000Y0120090D01*
X0220000Y0118491D02*
X0233600Y0118491D01*
X0233600Y0116893D02*
X0220000Y0116893D01*
X0220000Y0115294D02*
X0233600Y0115294D01*
X0233600Y0113696D02*
X0220000Y0113696D01*
X0220000Y0112097D02*
X0233600Y0112097D01*
X0233600Y0110499D02*
X0220000Y0110499D01*
X0220000Y0108900D02*
X0233600Y0108900D01*
X0233600Y0107302D02*
X0220000Y0107302D01*
X0220000Y0105703D02*
X0233600Y0105703D01*
X0233600Y0104105D02*
X0220000Y0104105D01*
X0220000Y0102506D02*
X0233600Y0102506D01*
X0233600Y0100908D02*
X0220000Y0100908D01*
X0220000Y0099309D02*
X0233600Y0099309D01*
X0233600Y0097711D02*
X0220000Y0097711D01*
X0220000Y0096112D02*
X0233600Y0096112D01*
X0233600Y0094514D02*
X0220000Y0094514D01*
X0220000Y0092915D02*
X0233600Y0092915D01*
X0233600Y0091317D02*
X0220000Y0091317D01*
X0220000Y0089718D02*
X0233600Y0089718D01*
X0233600Y0088120D02*
X0220000Y0088120D01*
X0220000Y0086521D02*
X0233600Y0086521D01*
X0233600Y0084923D02*
X0220000Y0084923D01*
X0221206Y0083324D02*
X0232394Y0083324D01*
X0231675Y0081726D02*
X0221925Y0081726D01*
X0222082Y0080127D02*
X0231518Y0080127D01*
X0231518Y0078529D02*
X0222082Y0078529D01*
X0222082Y0076930D02*
X0231518Y0076930D01*
X0231518Y0075332D02*
X0222082Y0075332D01*
X0222082Y0073733D02*
X0231518Y0073733D01*
X0231568Y0072134D02*
X0222032Y0072134D01*
X0221370Y0070536D02*
X0232230Y0070536D01*
X0233732Y0068937D02*
X0219868Y0068937D01*
X0214047Y0068937D02*
X0199553Y0068937D01*
X0199546Y0068930D02*
X0200987Y0070372D01*
X0201768Y0072256D01*
X0201768Y0081344D01*
X0200987Y0083228D01*
X0200000Y0084215D01*
X0200000Y0130475D01*
X0249355Y0179830D01*
X0249843Y0181006D01*
X0249843Y0229227D01*
X0250987Y0230372D01*
X0251768Y0232256D01*
X0251768Y0241344D01*
X0250987Y0243228D01*
X0249546Y0244670D01*
X0247662Y0245450D01*
X0245623Y0245450D01*
X0243739Y0244670D01*
X0242298Y0243228D01*
X0241518Y0241344D01*
X0241518Y0232256D01*
X0242298Y0230372D01*
X0243443Y0229227D01*
X0243443Y0182968D01*
X0194987Y0134513D01*
X0194087Y0133613D01*
X0193600Y0132437D01*
X0193600Y0084530D01*
X0192298Y0083228D01*
X0191518Y0081344D01*
X0191518Y0072256D01*
X0192298Y0070372D01*
X0193739Y0068930D01*
X0195623Y0068150D01*
X0197662Y0068150D01*
X0199546Y0068930D01*
X0201055Y0070536D02*
X0212545Y0070536D01*
X0211883Y0072134D02*
X0201717Y0072134D01*
X0201768Y0073733D02*
X0211832Y0073733D01*
X0211832Y0075332D02*
X0201768Y0075332D01*
X0201768Y0076930D02*
X0211832Y0076930D01*
X0211832Y0078529D02*
X0201768Y0078529D01*
X0201768Y0080127D02*
X0211832Y0080127D01*
X0211990Y0081726D02*
X0201610Y0081726D01*
X0200891Y0083324D02*
X0212709Y0083324D01*
X0213600Y0084923D02*
X0200000Y0084923D01*
X0200000Y0086521D02*
X0213600Y0086521D01*
X0213600Y0088120D02*
X0200000Y0088120D01*
X0200000Y0089718D02*
X0213600Y0089718D01*
X0213600Y0091317D02*
X0200000Y0091317D01*
X0200000Y0092915D02*
X0213600Y0092915D01*
X0213600Y0094514D02*
X0200000Y0094514D01*
X0200000Y0096112D02*
X0213600Y0096112D01*
X0213600Y0097711D02*
X0200000Y0097711D01*
X0200000Y0099309D02*
X0213600Y0099309D01*
X0213600Y0100908D02*
X0200000Y0100908D01*
X0200000Y0102506D02*
X0213600Y0102506D01*
X0213600Y0104105D02*
X0200000Y0104105D01*
X0200000Y0105703D02*
X0213600Y0105703D01*
X0213600Y0107302D02*
X0200000Y0107302D01*
X0200000Y0108900D02*
X0213600Y0108900D01*
X0213600Y0110499D02*
X0200000Y0110499D01*
X0200000Y0112097D02*
X0213600Y0112097D01*
X0213600Y0113696D02*
X0200000Y0113696D01*
X0200000Y0115294D02*
X0213600Y0115294D01*
X0213600Y0116893D02*
X0200000Y0116893D01*
X0200000Y0118491D02*
X0213600Y0118491D01*
X0213600Y0120090D02*
X0200000Y0120090D01*
X0200000Y0121688D02*
X0213600Y0121688D01*
X0213600Y0123287D02*
X0200000Y0123287D01*
X0200000Y0124885D02*
X0213600Y0124885D01*
X0213600Y0126484D02*
X0200000Y0126484D01*
X0200000Y0128082D02*
X0213600Y0128082D01*
X0213600Y0129681D02*
X0200000Y0129681D01*
X0200805Y0131279D02*
X0213600Y0131279D01*
X0213783Y0132878D02*
X0202403Y0132878D01*
X0204002Y0134476D02*
X0214951Y0134476D01*
X0216549Y0136075D02*
X0205600Y0136075D01*
X0207199Y0137673D02*
X0218148Y0137673D01*
X0219746Y0139272D02*
X0208797Y0139272D01*
X0210396Y0140870D02*
X0221345Y0140870D01*
X0222944Y0142469D02*
X0211994Y0142469D01*
X0213593Y0144068D02*
X0224542Y0144068D01*
X0226141Y0145666D02*
X0215191Y0145666D01*
X0216790Y0147265D02*
X0227739Y0147265D01*
X0229338Y0148863D02*
X0218389Y0148863D01*
X0219987Y0150462D02*
X0230936Y0150462D01*
X0232535Y0152060D02*
X0221586Y0152060D01*
X0223184Y0153659D02*
X0234133Y0153659D01*
X0235732Y0155257D02*
X0224783Y0155257D01*
X0226381Y0156856D02*
X0237330Y0156856D01*
X0238929Y0158454D02*
X0227980Y0158454D01*
X0229578Y0160053D02*
X0240527Y0160053D01*
X0242126Y0161651D02*
X0231177Y0161651D01*
X0232775Y0163250D02*
X0243724Y0163250D01*
X0245323Y0164848D02*
X0234374Y0164848D01*
X0235972Y0166447D02*
X0246921Y0166447D01*
X0248520Y0168045D02*
X0237571Y0168045D01*
X0239169Y0169644D02*
X0250118Y0169644D01*
X0251717Y0171242D02*
X0240768Y0171242D01*
X0242366Y0172841D02*
X0253315Y0172841D01*
X0254914Y0174439D02*
X0243965Y0174439D01*
X0245563Y0176038D02*
X0256512Y0176038D01*
X0258111Y0177636D02*
X0247162Y0177636D01*
X0248760Y0179235D02*
X0259709Y0179235D01*
X0261308Y0180833D02*
X0249771Y0180833D01*
X0249843Y0182432D02*
X0262906Y0182432D01*
X0264505Y0184030D02*
X0249843Y0184030D01*
X0249843Y0185629D02*
X0266103Y0185629D01*
X0267702Y0187227D02*
X0249843Y0187227D01*
X0249843Y0188826D02*
X0269300Y0188826D01*
X0270899Y0190424D02*
X0249843Y0190424D01*
X0249843Y0192023D02*
X0272497Y0192023D01*
X0274096Y0193621D02*
X0249843Y0193621D01*
X0249843Y0195220D02*
X0275694Y0195220D01*
X0277293Y0196818D02*
X0249843Y0196818D01*
X0249843Y0198417D02*
X0278891Y0198417D01*
X0280490Y0200015D02*
X0249843Y0200015D01*
X0249843Y0201614D02*
X0282088Y0201614D01*
X0283687Y0203212D02*
X0249843Y0203212D01*
X0249843Y0204811D02*
X0285285Y0204811D01*
X0286884Y0206409D02*
X0249843Y0206409D01*
X0249843Y0208008D02*
X0288482Y0208008D01*
X0290081Y0209606D02*
X0249843Y0209606D01*
X0249843Y0211205D02*
X0291680Y0211205D01*
X0293278Y0212803D02*
X0249843Y0212803D01*
X0249843Y0214402D02*
X0294877Y0214402D01*
X0296475Y0216001D02*
X0249843Y0216001D01*
X0249843Y0217599D02*
X0298074Y0217599D01*
X0299672Y0219198D02*
X0249843Y0219198D01*
X0249843Y0220796D02*
X0301271Y0220796D01*
X0302869Y0222395D02*
X0249843Y0222395D01*
X0249843Y0223993D02*
X0303757Y0223993D01*
X0303757Y0225592D02*
X0249843Y0225592D01*
X0249843Y0227190D02*
X0303757Y0227190D01*
X0303757Y0228789D02*
X0289527Y0228789D01*
X0289433Y0228721D02*
X0290112Y0229213D01*
X0290704Y0229806D01*
X0291197Y0230484D01*
X0291577Y0231231D01*
X0291836Y0232028D01*
X0291968Y0232856D01*
X0291968Y0236425D01*
X0287018Y0236425D01*
X0287018Y0237175D01*
X0291968Y0237175D01*
X0291968Y0240744D01*
X0291836Y0241572D01*
X0291577Y0242369D01*
X0291197Y0243116D01*
X0290704Y0243794D01*
X0290112Y0244387D01*
X0289433Y0244879D01*
X0288687Y0245260D01*
X0287889Y0245519D01*
X0287062Y0245650D01*
X0287018Y0245650D01*
X0287018Y0237175D01*
X0286267Y0237175D01*
X0286267Y0236425D01*
X0281318Y0236425D01*
X0281318Y0232856D01*
X0281449Y0232028D01*
X0281708Y0231231D01*
X0282088Y0230484D01*
X0282581Y0229806D01*
X0283174Y0229213D01*
X0283852Y0228721D01*
X0284598Y0228340D01*
X0285396Y0228081D01*
X0286223Y0227950D01*
X0286267Y0227950D01*
X0286267Y0236425D01*
X0287018Y0236425D01*
X0287018Y0227950D01*
X0287062Y0227950D01*
X0287889Y0228081D01*
X0288687Y0228340D01*
X0289433Y0228721D01*
X0291126Y0230387D02*
X0302606Y0230387D01*
X0301944Y0231986D02*
X0291823Y0231986D01*
X0291968Y0233584D02*
X0301832Y0233584D01*
X0301832Y0235183D02*
X0291968Y0235183D01*
X0291968Y0238380D02*
X0301832Y0238380D01*
X0301832Y0239978D02*
X0291968Y0239978D01*
X0291835Y0241577D02*
X0301929Y0241577D01*
X0302591Y0243175D02*
X0291154Y0243175D01*
X0289579Y0244774D02*
X0304305Y0244774D01*
X0309610Y0244774D02*
X0322543Y0244774D01*
X0322543Y0246372D02*
X0271057Y0246372D01*
X0271057Y0244774D02*
X0283706Y0244774D01*
X0283852Y0244879D02*
X0283174Y0244387D01*
X0282581Y0243794D01*
X0282088Y0243116D01*
X0281708Y0242369D01*
X0281449Y0241572D01*
X0281318Y0240744D01*
X0281318Y0237175D01*
X0286267Y0237175D01*
X0286267Y0245650D01*
X0286223Y0245650D01*
X0285396Y0245519D01*
X0284598Y0245260D01*
X0283852Y0244879D01*
X0286267Y0244774D02*
X0287018Y0244774D01*
X0287018Y0243175D02*
X0286267Y0243175D01*
X0286267Y0241577D02*
X0287018Y0241577D01*
X0287018Y0239978D02*
X0286267Y0239978D01*
X0286267Y0238380D02*
X0287018Y0238380D01*
X0287018Y0236781D02*
X0301832Y0236781D01*
X0312082Y0238380D02*
X0321518Y0238380D01*
X0321518Y0239978D02*
X0312082Y0239978D01*
X0311986Y0241577D02*
X0321614Y0241577D01*
X0322276Y0243175D02*
X0311324Y0243175D01*
X0322543Y0247971D02*
X0271057Y0247971D01*
X0271057Y0249569D02*
X0322543Y0249569D01*
X0321634Y0251168D02*
X0271057Y0251168D01*
X0270930Y0252766D02*
X0320035Y0252766D01*
X0318437Y0254365D02*
X0270033Y0254365D01*
X0268435Y0255963D02*
X0316838Y0255963D01*
X0315240Y0257562D02*
X0266836Y0257562D01*
X0260035Y0252766D02*
X0210743Y0252766D01*
X0210743Y0251168D02*
X0261634Y0251168D01*
X0262857Y0249569D02*
X0210743Y0249569D01*
X0210743Y0247971D02*
X0262857Y0247971D01*
X0262857Y0246372D02*
X0210743Y0246372D01*
X0210743Y0244774D02*
X0224021Y0244774D01*
X0224167Y0244879D02*
X0223488Y0244387D01*
X0222896Y0243794D01*
X0222403Y0243116D01*
X0222023Y0242369D01*
X0221764Y0241572D01*
X0221632Y0240744D01*
X0221632Y0237175D01*
X0226582Y0237175D01*
X0226582Y0236425D01*
X0221632Y0236425D01*
X0221632Y0232856D01*
X0221764Y0232028D01*
X0222023Y0231231D01*
X0222403Y0230484D01*
X0222896Y0229806D01*
X0223488Y0229213D01*
X0224167Y0228721D01*
X0224913Y0228340D01*
X0225711Y0228081D01*
X0226538Y0227950D01*
X0226582Y0227950D01*
X0226582Y0236425D01*
X0227332Y0236425D01*
X0227332Y0227950D01*
X0227377Y0227950D01*
X0228204Y0228081D01*
X0229002Y0228340D01*
X0229748Y0228721D01*
X0230426Y0229213D01*
X0231019Y0229806D01*
X0231512Y0230484D01*
X0231892Y0231231D01*
X0232151Y0232028D01*
X0232282Y0232856D01*
X0232282Y0236425D01*
X0227333Y0236425D01*
X0227333Y0237175D01*
X0232282Y0237175D01*
X0232282Y0240744D01*
X0232151Y0241572D01*
X0231892Y0242369D01*
X0231512Y0243116D01*
X0231019Y0243794D01*
X0230426Y0244387D01*
X0229748Y0244879D01*
X0229002Y0245260D01*
X0228204Y0245519D01*
X0227377Y0245650D01*
X0227332Y0245650D01*
X0227332Y0237175D01*
X0226582Y0237175D01*
X0226582Y0245650D01*
X0226538Y0245650D01*
X0225711Y0245519D01*
X0224913Y0245260D01*
X0224167Y0244879D01*
X0226582Y0244774D02*
X0227332Y0244774D01*
X0227332Y0243175D02*
X0226582Y0243175D01*
X0226582Y0241577D02*
X0227332Y0241577D01*
X0227332Y0239978D02*
X0226582Y0239978D01*
X0226582Y0238380D02*
X0227332Y0238380D01*
X0227333Y0236781D02*
X0241518Y0236781D01*
X0241518Y0235183D02*
X0232282Y0235183D01*
X0232282Y0233584D02*
X0241518Y0233584D01*
X0241629Y0231986D02*
X0232138Y0231986D01*
X0231441Y0230387D02*
X0242291Y0230387D01*
X0243443Y0228789D02*
X0229842Y0228789D01*
X0227332Y0228789D02*
X0226582Y0228789D01*
X0226582Y0230387D02*
X0227332Y0230387D01*
X0227332Y0231986D02*
X0226582Y0231986D01*
X0226582Y0233584D02*
X0227332Y0233584D01*
X0227332Y0235183D02*
X0226582Y0235183D01*
X0226582Y0236781D02*
X0211768Y0236781D01*
X0211768Y0235183D02*
X0221632Y0235183D01*
X0221632Y0233584D02*
X0211768Y0233584D01*
X0211656Y0231986D02*
X0221777Y0231986D01*
X0222474Y0230387D02*
X0210994Y0230387D01*
X0209204Y0228789D02*
X0224073Y0228789D01*
X0221632Y0238380D02*
X0211768Y0238380D01*
X0211768Y0239978D02*
X0221632Y0239978D01*
X0221765Y0241577D02*
X0211671Y0241577D01*
X0211009Y0243175D02*
X0222446Y0243175D01*
X0229894Y0244774D02*
X0243990Y0244774D01*
X0242276Y0243175D02*
X0231469Y0243175D01*
X0232150Y0241577D02*
X0241614Y0241577D01*
X0241518Y0239978D02*
X0232282Y0239978D01*
X0232282Y0238380D02*
X0241518Y0238380D01*
X0249295Y0244774D02*
X0262857Y0244774D01*
X0262591Y0243175D02*
X0251009Y0243175D01*
X0251671Y0241577D02*
X0261929Y0241577D01*
X0261832Y0239978D02*
X0251768Y0239978D01*
X0251768Y0238380D02*
X0261832Y0238380D01*
X0261832Y0236781D02*
X0251768Y0236781D01*
X0251768Y0235183D02*
X0261832Y0235183D01*
X0261832Y0233584D02*
X0251768Y0233584D01*
X0251656Y0231986D02*
X0261944Y0231986D01*
X0262606Y0230387D02*
X0250994Y0230387D01*
X0249843Y0228789D02*
X0264396Y0228789D01*
X0269519Y0228789D02*
X0283758Y0228789D01*
X0282159Y0230387D02*
X0271309Y0230387D01*
X0271971Y0231986D02*
X0281462Y0231986D01*
X0281318Y0233584D02*
X0272082Y0233584D01*
X0272082Y0235183D02*
X0281318Y0235183D01*
X0281318Y0238380D02*
X0272082Y0238380D01*
X0272082Y0239978D02*
X0281318Y0239978D01*
X0281450Y0241577D02*
X0271986Y0241577D01*
X0271324Y0243175D02*
X0282131Y0243175D01*
X0286267Y0236781D02*
X0272082Y0236781D01*
X0286267Y0235183D02*
X0287018Y0235183D01*
X0287018Y0233584D02*
X0286267Y0233584D01*
X0286267Y0231986D02*
X0287018Y0231986D01*
X0287018Y0230387D02*
X0286267Y0230387D01*
X0286267Y0228789D02*
X0287018Y0228789D01*
X0303927Y0214402D02*
X0349877Y0214402D01*
X0351475Y0216001D02*
X0305526Y0216001D01*
X0307125Y0217599D02*
X0353074Y0217599D01*
X0354672Y0219198D02*
X0308723Y0219198D01*
X0309940Y0220796D02*
X0356271Y0220796D01*
X0357869Y0222395D02*
X0310157Y0222395D01*
X0310157Y0223993D02*
X0359468Y0223993D01*
X0361066Y0225592D02*
X0310157Y0225592D01*
X0310157Y0227190D02*
X0362665Y0227190D01*
X0363443Y0228789D02*
X0349842Y0228789D01*
X0351441Y0230387D02*
X0362291Y0230387D01*
X0361629Y0231986D02*
X0352138Y0231986D01*
X0352282Y0233584D02*
X0361518Y0233584D01*
X0361518Y0235183D02*
X0352282Y0235183D01*
X0352282Y0238380D02*
X0361518Y0238380D01*
X0361518Y0239978D02*
X0352282Y0239978D01*
X0352150Y0241577D02*
X0361614Y0241577D01*
X0362276Y0243175D02*
X0351469Y0243175D01*
X0349894Y0244774D02*
X0363990Y0244774D01*
X0361518Y0236781D02*
X0347333Y0236781D01*
X0346582Y0236781D02*
X0331768Y0236781D01*
X0346582Y0235183D02*
X0347332Y0235183D01*
X0347332Y0233584D02*
X0346582Y0233584D01*
X0346582Y0231986D02*
X0347332Y0231986D01*
X0347332Y0230387D02*
X0346582Y0230387D01*
X0346582Y0228789D02*
X0347332Y0228789D01*
X0347332Y0238380D02*
X0346582Y0238380D01*
X0346582Y0239978D02*
X0347332Y0239978D01*
X0347332Y0241577D02*
X0346582Y0241577D01*
X0346582Y0243175D02*
X0347332Y0243175D01*
X0347332Y0244774D02*
X0346582Y0244774D01*
X0330900Y0247971D02*
X0377700Y0247971D01*
X0377700Y0249569D02*
X0330900Y0249569D01*
X0330900Y0251168D02*
X0377700Y0251168D01*
X0377700Y0252766D02*
X0330838Y0252766D01*
X0330033Y0254365D02*
X0377700Y0254365D01*
X0376838Y0255963D02*
X0328435Y0255963D01*
X0328965Y0255433D02*
X0328965Y0255433D01*
X0326836Y0257562D02*
X0375240Y0257562D01*
X0380442Y0263956D02*
X0391921Y0263956D01*
X0391921Y0265554D02*
X0378450Y0265554D01*
X0379222Y0267153D02*
X0019378Y0267153D01*
X0018769Y0266901D02*
X0022407Y0268408D01*
X0025192Y0271193D01*
X0026699Y0274831D01*
X0026699Y0278769D01*
X0025192Y0282407D01*
X0022407Y0285192D01*
X0021179Y0285701D01*
X0377421Y0285701D01*
X0376193Y0285192D01*
X0373408Y0282407D01*
X0371901Y0278769D01*
X0371901Y0274831D01*
X0373408Y0271193D01*
X0376193Y0268408D01*
X0379831Y0266901D01*
X0383769Y0266901D01*
X0387407Y0268408D01*
X0390192Y0271193D01*
X0391699Y0274831D01*
X0391699Y0278769D01*
X0390192Y0282407D01*
X0387407Y0285192D01*
X0386179Y0285701D01*
X0391921Y0285701D01*
X0391921Y0006600D01*
X0006600Y0006600D01*
X0006600Y0285701D01*
X0012421Y0285701D01*
X0011193Y0285192D01*
X0008408Y0282407D01*
X0006901Y0278769D01*
X0006901Y0274831D01*
X0008408Y0271193D01*
X0011193Y0268408D01*
X0014831Y0266901D01*
X0018769Y0266901D01*
X0022751Y0268751D02*
X0375849Y0268751D01*
X0374250Y0270350D02*
X0024349Y0270350D01*
X0025505Y0271948D02*
X0373095Y0271948D01*
X0372433Y0273547D02*
X0026167Y0273547D01*
X0026699Y0275145D02*
X0371901Y0275145D01*
X0371901Y0276744D02*
X0026699Y0276744D01*
X0026699Y0278342D02*
X0371901Y0278342D01*
X0372386Y0279941D02*
X0026214Y0279941D01*
X0025552Y0281539D02*
X0373048Y0281539D01*
X0374138Y0283138D02*
X0024462Y0283138D01*
X0022863Y0284737D02*
X0375737Y0284737D01*
X0387863Y0284737D02*
X0391921Y0284737D01*
X0391921Y0283138D02*
X0389462Y0283138D01*
X0390552Y0281539D02*
X0391921Y0281539D01*
X0391921Y0279941D02*
X0391214Y0279941D01*
X0391699Y0278342D02*
X0391921Y0278342D01*
X0391921Y0276744D02*
X0391699Y0276744D01*
X0391699Y0275145D02*
X0391921Y0275145D01*
X0391921Y0273547D02*
X0391167Y0273547D01*
X0390505Y0271948D02*
X0391921Y0271948D01*
X0391921Y0270350D02*
X0389349Y0270350D01*
X0387751Y0268751D02*
X0391921Y0268751D01*
X0391921Y0267153D02*
X0384378Y0267153D01*
X0382041Y0262357D02*
X0391921Y0262357D01*
X0391921Y0260759D02*
X0383639Y0260759D01*
X0385238Y0259160D02*
X0391921Y0259160D01*
X0391921Y0257562D02*
X0385900Y0257562D01*
X0385900Y0255963D02*
X0391921Y0255963D01*
X0391921Y0254365D02*
X0385900Y0254365D01*
X0385900Y0252766D02*
X0391921Y0252766D01*
X0391921Y0251168D02*
X0385900Y0251168D01*
X0385900Y0249569D02*
X0391921Y0249569D01*
X0391921Y0247971D02*
X0385900Y0247971D01*
X0385900Y0246372D02*
X0391921Y0246372D01*
X0391921Y0244774D02*
X0385900Y0244774D01*
X0385900Y0243175D02*
X0391921Y0243175D01*
X0391921Y0241577D02*
X0385900Y0241577D01*
X0385900Y0239978D02*
X0391921Y0239978D01*
X0391921Y0238380D02*
X0385900Y0238380D01*
X0385900Y0236781D02*
X0391921Y0236781D01*
X0391921Y0235183D02*
X0385900Y0235183D01*
X0385900Y0233584D02*
X0391921Y0233584D01*
X0391921Y0231986D02*
X0385900Y0231986D01*
X0385900Y0230387D02*
X0391921Y0230387D01*
X0391921Y0228789D02*
X0385900Y0228789D01*
X0385900Y0227190D02*
X0391921Y0227190D01*
X0391921Y0225592D02*
X0385900Y0225592D01*
X0385900Y0223993D02*
X0391921Y0223993D01*
X0391921Y0222395D02*
X0385900Y0222395D01*
X0385900Y0220796D02*
X0391921Y0220796D01*
X0391921Y0219198D02*
X0385900Y0219198D01*
X0385900Y0217599D02*
X0391921Y0217599D01*
X0391921Y0216001D02*
X0385900Y0216001D01*
X0385900Y0214402D02*
X0391921Y0214402D01*
X0391921Y0212803D02*
X0385900Y0212803D01*
X0385900Y0211205D02*
X0391921Y0211205D01*
X0391921Y0209606D02*
X0385900Y0209606D01*
X0385900Y0208008D02*
X0391921Y0208008D01*
X0391921Y0206409D02*
X0385900Y0206409D01*
X0385900Y0204811D02*
X0391921Y0204811D01*
X0391921Y0203212D02*
X0385900Y0203212D01*
X0385900Y0201614D02*
X0391921Y0201614D01*
X0391921Y0200015D02*
X0385900Y0200015D01*
X0385900Y0198417D02*
X0391921Y0198417D01*
X0391921Y0196818D02*
X0385900Y0196818D01*
X0385900Y0195220D02*
X0391921Y0195220D01*
X0391921Y0193621D02*
X0385900Y0193621D01*
X0385900Y0192023D02*
X0391921Y0192023D01*
X0391921Y0190424D02*
X0385900Y0190424D01*
X0385900Y0188826D02*
X0391921Y0188826D01*
X0391921Y0187227D02*
X0385900Y0187227D01*
X0385900Y0185629D02*
X0391921Y0185629D01*
X0391921Y0184030D02*
X0385900Y0184030D01*
X0385900Y0182432D02*
X0391921Y0182432D01*
X0391921Y0180833D02*
X0385900Y0180833D01*
X0385900Y0179235D02*
X0391921Y0179235D01*
X0391921Y0177636D02*
X0385900Y0177636D01*
X0385900Y0176038D02*
X0391921Y0176038D01*
X0391921Y0174439D02*
X0385900Y0174439D01*
X0385900Y0172841D02*
X0391921Y0172841D01*
X0391921Y0171242D02*
X0385900Y0171242D01*
X0385900Y0169644D02*
X0391921Y0169644D01*
X0391921Y0168045D02*
X0385900Y0168045D01*
X0385900Y0166447D02*
X0391921Y0166447D01*
X0391921Y0164848D02*
X0385900Y0164848D01*
X0385900Y0163250D02*
X0391921Y0163250D01*
X0391921Y0161651D02*
X0385900Y0161651D01*
X0385900Y0160053D02*
X0391921Y0160053D01*
X0391921Y0158454D02*
X0385900Y0158454D01*
X0385900Y0156856D02*
X0391921Y0156856D01*
X0391921Y0155257D02*
X0385900Y0155257D01*
X0385900Y0153659D02*
X0391921Y0153659D01*
X0391921Y0152060D02*
X0385900Y0152060D01*
X0385900Y0150462D02*
X0391921Y0150462D01*
X0391921Y0148863D02*
X0385900Y0148863D01*
X0385900Y0147265D02*
X0391921Y0147265D01*
X0391921Y0145666D02*
X0385900Y0145666D01*
X0385900Y0144068D02*
X0391921Y0144068D01*
X0391921Y0142469D02*
X0385900Y0142469D01*
X0385900Y0140870D02*
X0391921Y0140870D01*
X0391921Y0139272D02*
X0385900Y0139272D01*
X0385900Y0137673D02*
X0391921Y0137673D01*
X0391921Y0136075D02*
X0385900Y0136075D01*
X0385900Y0134476D02*
X0391921Y0134476D01*
X0391921Y0132878D02*
X0385900Y0132878D01*
X0385900Y0131279D02*
X0391921Y0131279D01*
X0391921Y0129681D02*
X0385900Y0129681D01*
X0385900Y0128082D02*
X0391921Y0128082D01*
X0391921Y0126484D02*
X0385900Y0126484D01*
X0385900Y0124885D02*
X0391921Y0124885D01*
X0391921Y0123287D02*
X0385900Y0123287D01*
X0385900Y0121688D02*
X0391921Y0121688D01*
X0391921Y0120090D02*
X0385900Y0120090D01*
X0385900Y0118491D02*
X0391921Y0118491D01*
X0391921Y0116893D02*
X0385900Y0116893D01*
X0385900Y0115294D02*
X0391921Y0115294D01*
X0391921Y0113696D02*
X0385900Y0113696D01*
X0385900Y0112097D02*
X0391921Y0112097D01*
X0391921Y0110499D02*
X0385900Y0110499D01*
X0385900Y0108900D02*
X0391921Y0108900D01*
X0391921Y0107302D02*
X0385900Y0107302D01*
X0385900Y0105703D02*
X0391921Y0105703D01*
X0391921Y0104105D02*
X0385900Y0104105D01*
X0385900Y0102506D02*
X0391921Y0102506D01*
X0391921Y0100908D02*
X0385900Y0100908D01*
X0385900Y0099309D02*
X0391921Y0099309D01*
X0391921Y0097711D02*
X0385900Y0097711D01*
X0385900Y0096112D02*
X0391921Y0096112D01*
X0391921Y0094514D02*
X0385900Y0094514D01*
X0385900Y0092915D02*
X0391921Y0092915D01*
X0391921Y0091317D02*
X0385900Y0091317D01*
X0385900Y0089718D02*
X0391921Y0089718D01*
X0391921Y0088120D02*
X0385900Y0088120D01*
X0385900Y0086521D02*
X0391921Y0086521D01*
X0391921Y0084923D02*
X0385900Y0084923D01*
X0385900Y0083324D02*
X0391921Y0083324D01*
X0391921Y0081726D02*
X0385900Y0081726D01*
X0385900Y0080127D02*
X0391921Y0080127D01*
X0391921Y0078529D02*
X0385900Y0078529D01*
X0385900Y0076930D02*
X0391921Y0076930D01*
X0391921Y0075332D02*
X0385900Y0075332D01*
X0385900Y0073733D02*
X0391921Y0073733D01*
X0391921Y0072134D02*
X0385900Y0072134D01*
X0385900Y0070536D02*
X0391921Y0070536D01*
X0391921Y0068937D02*
X0385900Y0068937D01*
X0385900Y0067339D02*
X0391921Y0067339D01*
X0391921Y0065740D02*
X0385900Y0065740D01*
X0385900Y0064142D02*
X0391921Y0064142D01*
X0391921Y0062543D02*
X0385900Y0062543D01*
X0385900Y0060945D02*
X0391921Y0060945D01*
X0391921Y0059346D02*
X0385900Y0059346D01*
X0385900Y0057748D02*
X0391921Y0057748D01*
X0391921Y0056149D02*
X0385900Y0056149D01*
X0385900Y0054551D02*
X0391921Y0054551D01*
X0391921Y0052952D02*
X0385900Y0052952D01*
X0385900Y0051354D02*
X0391921Y0051354D01*
X0391921Y0049755D02*
X0385391Y0049755D01*
X0383955Y0048157D02*
X0391921Y0048157D01*
X0391921Y0046558D02*
X0382357Y0046558D01*
X0380758Y0044960D02*
X0391921Y0044960D01*
X0391921Y0043361D02*
X0379160Y0043361D01*
X0377561Y0041763D02*
X0391921Y0041763D01*
X0391921Y0040164D02*
X0375963Y0040164D01*
X0374364Y0038566D02*
X0391921Y0038566D01*
X0391921Y0036967D02*
X0006600Y0036967D01*
X0006600Y0035369D02*
X0391921Y0035369D01*
X0391921Y0033770D02*
X0006600Y0033770D01*
X0006600Y0032172D02*
X0391921Y0032172D01*
X0391921Y0030573D02*
X0006600Y0030573D01*
X0006600Y0028975D02*
X0391921Y0028975D01*
X0391921Y0027376D02*
X0006600Y0027376D01*
X0006600Y0025778D02*
X0012606Y0025778D01*
X0011193Y0025192D02*
X0008408Y0022407D01*
X0006901Y0018769D01*
X0006901Y0014831D01*
X0008408Y0011193D01*
X0011193Y0008408D01*
X0014831Y0006901D01*
X0018769Y0006901D01*
X0022407Y0008408D01*
X0025192Y0011193D01*
X0026699Y0014831D01*
X0026699Y0018769D01*
X0025192Y0022407D01*
X0022407Y0025192D01*
X0018769Y0026699D01*
X0014831Y0026699D01*
X0011193Y0025192D01*
X0010180Y0024179D02*
X0006600Y0024179D01*
X0006600Y0022581D02*
X0008581Y0022581D01*
X0007817Y0020982D02*
X0006600Y0020982D01*
X0006600Y0019384D02*
X0007155Y0019384D01*
X0006901Y0017785D02*
X0006600Y0017785D01*
X0006600Y0016187D02*
X0006901Y0016187D01*
X0007001Y0014588D02*
X0006600Y0014588D01*
X0006600Y0012990D02*
X0007663Y0012990D01*
X0008326Y0011391D02*
X0006600Y0011391D01*
X0006600Y0009793D02*
X0009808Y0009793D01*
X0011709Y0008194D02*
X0006600Y0008194D01*
X0021891Y0008194D02*
X0376709Y0008194D01*
X0376193Y0008408D02*
X0379831Y0006901D01*
X0383769Y0006901D01*
X0387407Y0008408D01*
X0390192Y0011193D01*
X0391699Y0014831D01*
X0391699Y0018769D01*
X0390192Y0022407D01*
X0387407Y0025192D01*
X0383769Y0026699D01*
X0379831Y0026699D01*
X0376193Y0025192D01*
X0373408Y0022407D01*
X0371901Y0018769D01*
X0371901Y0014831D01*
X0373408Y0011193D01*
X0376193Y0008408D01*
X0374808Y0009793D02*
X0023792Y0009793D01*
X0025274Y0011391D02*
X0373326Y0011391D01*
X0372663Y0012990D02*
X0025936Y0012990D01*
X0026599Y0014588D02*
X0372001Y0014588D01*
X0371901Y0016187D02*
X0026699Y0016187D01*
X0026699Y0017785D02*
X0371901Y0017785D01*
X0372155Y0019384D02*
X0026445Y0019384D01*
X0025783Y0020982D02*
X0372817Y0020982D01*
X0373581Y0022581D02*
X0025019Y0022581D01*
X0023420Y0024179D02*
X0375180Y0024179D01*
X0377606Y0025778D02*
X0020994Y0025778D01*
X0006600Y0038566D02*
X0344236Y0038566D01*
X0342637Y0040164D02*
X0006600Y0040164D01*
X0006600Y0041763D02*
X0341039Y0041763D01*
X0339440Y0043361D02*
X0006600Y0043361D01*
X0006600Y0044960D02*
X0337842Y0044960D01*
X0336243Y0046558D02*
X0006600Y0046558D01*
X0006600Y0048157D02*
X0334645Y0048157D01*
X0333046Y0049755D02*
X0006600Y0049755D01*
X0006600Y0051354D02*
X0331448Y0051354D01*
X0329849Y0052952D02*
X0006600Y0052952D01*
X0006600Y0054551D02*
X0328251Y0054551D01*
X0326652Y0056149D02*
X0006600Y0056149D01*
X0006600Y0057748D02*
X0325054Y0057748D01*
X0323455Y0059346D02*
X0006600Y0059346D01*
X0006600Y0060945D02*
X0322716Y0060945D01*
X0322700Y0062543D02*
X0006600Y0062543D01*
X0006600Y0064142D02*
X0322700Y0064142D01*
X0322700Y0065740D02*
X0006600Y0065740D01*
X0006600Y0067339D02*
X0322700Y0067339D01*
X0322700Y0068937D02*
X0239553Y0068937D01*
X0241055Y0070536D02*
X0322700Y0070536D01*
X0322700Y0072134D02*
X0241717Y0072134D01*
X0241768Y0073733D02*
X0323163Y0073733D01*
X0324533Y0075332D02*
X0241768Y0075332D01*
X0241768Y0076930D02*
X0326132Y0076930D01*
X0327730Y0078529D02*
X0241768Y0078529D01*
X0241768Y0080127D02*
X0329329Y0080127D01*
X0331990Y0081726D02*
X0241610Y0081726D01*
X0240891Y0083324D02*
X0332709Y0083324D01*
X0334665Y0084923D02*
X0240000Y0084923D01*
X0240000Y0086521D02*
X0377700Y0086521D01*
X0377700Y0084923D02*
X0359349Y0084923D01*
X0359433Y0084879D02*
X0358687Y0085260D01*
X0357889Y0085519D01*
X0357062Y0085650D01*
X0357018Y0085650D01*
X0357018Y0077175D01*
X0361968Y0077175D01*
X0361968Y0080744D01*
X0361836Y0081572D01*
X0361577Y0082369D01*
X0361197Y0083116D01*
X0360704Y0083794D01*
X0360112Y0084387D01*
X0359433Y0084879D01*
X0361046Y0083324D02*
X0377700Y0083324D01*
X0377700Y0081726D02*
X0361786Y0081726D01*
X0361968Y0080127D02*
X0377700Y0080127D01*
X0377700Y0078529D02*
X0361968Y0078529D01*
X0361968Y0076425D02*
X0357018Y0076425D01*
X0357018Y0077175D01*
X0356267Y0077175D01*
X0356267Y0076425D01*
X0351318Y0076425D01*
X0351318Y0072856D01*
X0351449Y0072028D01*
X0351708Y0071231D01*
X0352088Y0070484D01*
X0352581Y0069806D01*
X0353174Y0069213D01*
X0353852Y0068721D01*
X0354598Y0068340D01*
X0355396Y0068081D01*
X0356223Y0067950D01*
X0356267Y0067950D01*
X0356267Y0076425D01*
X0357018Y0076425D01*
X0357018Y0067950D01*
X0357062Y0067950D01*
X0357889Y0068081D01*
X0358687Y0068340D01*
X0359433Y0068721D01*
X0360112Y0069213D01*
X0360704Y0069806D01*
X0361197Y0070484D01*
X0361577Y0071231D01*
X0361836Y0072028D01*
X0361968Y0072856D01*
X0361968Y0076425D01*
X0361968Y0075332D02*
X0377700Y0075332D01*
X0377700Y0076930D02*
X0357018Y0076930D01*
X0356267Y0076930D02*
X0342082Y0076930D01*
X0342082Y0075332D02*
X0351318Y0075332D01*
X0351318Y0073733D02*
X0342082Y0073733D01*
X0342032Y0072134D02*
X0351432Y0072134D01*
X0352062Y0070536D02*
X0341370Y0070536D01*
X0339868Y0068937D02*
X0353553Y0068937D01*
X0356267Y0068937D02*
X0357018Y0068937D01*
X0357018Y0070536D02*
X0356267Y0070536D01*
X0356267Y0072134D02*
X0357018Y0072134D01*
X0357018Y0073733D02*
X0356267Y0073733D01*
X0356267Y0075332D02*
X0357018Y0075332D01*
X0356267Y0077175D02*
X0351318Y0077175D01*
X0351318Y0080744D01*
X0351449Y0081572D01*
X0351708Y0082369D01*
X0352088Y0083116D01*
X0352581Y0083794D01*
X0353174Y0084387D01*
X0353852Y0084879D01*
X0354598Y0085260D01*
X0355396Y0085519D01*
X0356223Y0085650D01*
X0356267Y0085650D01*
X0356267Y0077175D01*
X0356267Y0078529D02*
X0357018Y0078529D01*
X0357018Y0080127D02*
X0356267Y0080127D01*
X0356267Y0081726D02*
X0357018Y0081726D01*
X0357018Y0083324D02*
X0356267Y0083324D01*
X0356267Y0084923D02*
X0357018Y0084923D01*
X0353936Y0084923D02*
X0339250Y0084923D01*
X0341206Y0083324D02*
X0352239Y0083324D01*
X0351499Y0081726D02*
X0341925Y0081726D01*
X0342082Y0080127D02*
X0351318Y0080127D01*
X0351318Y0078529D02*
X0342082Y0078529D01*
X0332545Y0070536D02*
X0331334Y0070536D01*
X0330900Y0068937D02*
X0334047Y0068937D01*
X0330900Y0067339D02*
X0377700Y0067339D01*
X0377700Y0068937D02*
X0359732Y0068937D01*
X0361223Y0070536D02*
X0377700Y0070536D01*
X0377700Y0072134D02*
X0361853Y0072134D01*
X0361968Y0073733D02*
X0377700Y0073733D01*
X0377700Y0065740D02*
X0330900Y0065740D01*
X0330900Y0064142D02*
X0377700Y0064142D01*
X0377700Y0062543D02*
X0331855Y0062543D01*
X0333453Y0060945D02*
X0377700Y0060945D01*
X0377700Y0059346D02*
X0335052Y0059346D01*
X0336650Y0057748D02*
X0377700Y0057748D01*
X0377700Y0056149D02*
X0338249Y0056149D01*
X0339847Y0054551D02*
X0377700Y0054551D01*
X0377154Y0052952D02*
X0341446Y0052952D01*
X0343044Y0051354D02*
X0375556Y0051354D01*
X0373957Y0049755D02*
X0344643Y0049755D01*
X0346241Y0048157D02*
X0372359Y0048157D01*
X0370760Y0046558D02*
X0347840Y0046558D01*
X0385994Y0025778D02*
X0391921Y0025778D01*
X0391921Y0024179D02*
X0388420Y0024179D01*
X0390019Y0022581D02*
X0391921Y0022581D01*
X0391921Y0020982D02*
X0390783Y0020982D01*
X0391445Y0019384D02*
X0391921Y0019384D01*
X0391921Y0017785D02*
X0391699Y0017785D01*
X0391699Y0016187D02*
X0391921Y0016187D01*
X0391921Y0014588D02*
X0391599Y0014588D01*
X0391921Y0012990D02*
X0390936Y0012990D01*
X0390274Y0011391D02*
X0391921Y0011391D01*
X0391921Y0009793D02*
X0388792Y0009793D01*
X0386891Y0008194D02*
X0391921Y0008194D01*
X0377700Y0088120D02*
X0240000Y0088120D01*
X0240000Y0089718D02*
X0377700Y0089718D01*
X0377700Y0091317D02*
X0240000Y0091317D01*
X0240000Y0092915D02*
X0377700Y0092915D01*
X0377700Y0094514D02*
X0240000Y0094514D01*
X0240000Y0096112D02*
X0377700Y0096112D01*
X0377700Y0097711D02*
X0240000Y0097711D01*
X0240000Y0099309D02*
X0377700Y0099309D01*
X0377700Y0100908D02*
X0240000Y0100908D01*
X0240000Y0102506D02*
X0377700Y0102506D01*
X0377700Y0104105D02*
X0240000Y0104105D01*
X0240000Y0105703D02*
X0377700Y0105703D01*
X0377700Y0107302D02*
X0240000Y0107302D01*
X0240000Y0108900D02*
X0377700Y0108900D01*
X0377700Y0110499D02*
X0240000Y0110499D01*
X0240000Y0112097D02*
X0377700Y0112097D01*
X0377700Y0113696D02*
X0240000Y0113696D01*
X0240000Y0115294D02*
X0377700Y0115294D01*
X0377700Y0116893D02*
X0240000Y0116893D01*
X0240000Y0118491D02*
X0377700Y0118491D01*
X0377700Y0120090D02*
X0240000Y0120090D01*
X0240000Y0121688D02*
X0377700Y0121688D01*
X0377700Y0123287D02*
X0240000Y0123287D01*
X0240000Y0124885D02*
X0377700Y0124885D01*
X0377700Y0126484D02*
X0241009Y0126484D01*
X0242608Y0128082D02*
X0377700Y0128082D01*
X0311512Y0176038D02*
X0265563Y0176038D01*
X0267162Y0177636D02*
X0313111Y0177636D01*
X0314709Y0179235D02*
X0268760Y0179235D01*
X0270359Y0180833D02*
X0316308Y0180833D01*
X0317906Y0182432D02*
X0271957Y0182432D01*
X0273556Y0184030D02*
X0319505Y0184030D01*
X0321103Y0185629D02*
X0275154Y0185629D01*
X0276753Y0187227D02*
X0322702Y0187227D01*
X0324300Y0188826D02*
X0278351Y0188826D01*
X0279950Y0190424D02*
X0325899Y0190424D01*
X0327497Y0192023D02*
X0281548Y0192023D01*
X0283147Y0193621D02*
X0329096Y0193621D01*
X0330694Y0195220D02*
X0284745Y0195220D01*
X0286344Y0196818D02*
X0332293Y0196818D01*
X0333891Y0198417D02*
X0287942Y0198417D01*
X0289541Y0200015D02*
X0335490Y0200015D01*
X0337088Y0201614D02*
X0291139Y0201614D01*
X0292738Y0203212D02*
X0338687Y0203212D01*
X0340285Y0204811D02*
X0294336Y0204811D01*
X0295935Y0206409D02*
X0341884Y0206409D01*
X0343482Y0208008D02*
X0297533Y0208008D01*
X0299132Y0209606D02*
X0345081Y0209606D01*
X0346680Y0211205D02*
X0300730Y0211205D01*
X0302329Y0212803D02*
X0348278Y0212803D01*
X0309914Y0174439D02*
X0263965Y0174439D01*
X0262366Y0172841D02*
X0308315Y0172841D01*
X0306717Y0171242D02*
X0260768Y0171242D01*
X0259169Y0169644D02*
X0305118Y0169644D01*
X0303520Y0168045D02*
X0257571Y0168045D01*
X0255972Y0166447D02*
X0301921Y0166447D01*
X0300323Y0164848D02*
X0254374Y0164848D01*
X0252775Y0163250D02*
X0298724Y0163250D01*
X0297126Y0161651D02*
X0251177Y0161651D01*
X0249578Y0160053D02*
X0295527Y0160053D01*
X0293929Y0158454D02*
X0247980Y0158454D01*
X0246381Y0156856D02*
X0292330Y0156856D01*
X0290732Y0155257D02*
X0244783Y0155257D01*
X0243184Y0153659D02*
X0289133Y0153659D01*
X0287535Y0152060D02*
X0241586Y0152060D01*
X0239987Y0150462D02*
X0285936Y0150462D01*
X0284338Y0148863D02*
X0238389Y0148863D01*
X0236790Y0147265D02*
X0282739Y0147265D01*
X0281141Y0145666D02*
X0235191Y0145666D01*
X0233593Y0144068D02*
X0279542Y0144068D01*
X0277944Y0142469D02*
X0231994Y0142469D01*
X0230396Y0140870D02*
X0276345Y0140870D01*
X0274747Y0139272D02*
X0228797Y0139272D01*
X0227199Y0137673D02*
X0273148Y0137673D01*
X0234987Y0129513D02*
X0234987Y0129513D01*
X0209338Y0148863D02*
X0190157Y0148863D01*
X0190157Y0147265D02*
X0207739Y0147265D01*
X0206141Y0145666D02*
X0189886Y0145666D01*
X0189670Y0145145D02*
X0190157Y0146321D01*
X0190157Y0229227D01*
X0191302Y0230372D01*
X0192082Y0232256D01*
X0192082Y0241344D01*
X0191302Y0243228D01*
X0189861Y0244670D01*
X0187977Y0245450D01*
X0185938Y0245450D01*
X0184054Y0244670D01*
X0182613Y0243228D01*
X0181832Y0241344D01*
X0181832Y0232256D01*
X0182613Y0230372D01*
X0183757Y0229227D01*
X0183757Y0148283D01*
X0174987Y0139513D01*
X0174087Y0138613D01*
X0173600Y0137437D01*
X0173600Y0084215D01*
X0172613Y0083228D01*
X0171832Y0081344D01*
X0171832Y0072256D01*
X0172613Y0070372D01*
X0174054Y0068930D01*
X0175938Y0068150D01*
X0177977Y0068150D01*
X0179861Y0068930D01*
X0181302Y0070372D01*
X0182082Y0072256D01*
X0182082Y0081344D01*
X0181302Y0083228D01*
X0180000Y0084530D01*
X0180000Y0135475D01*
X0189670Y0145145D01*
X0188593Y0144068D02*
X0204542Y0144068D01*
X0202944Y0142469D02*
X0186994Y0142469D01*
X0185396Y0140870D02*
X0201345Y0140870D01*
X0199746Y0139272D02*
X0183797Y0139272D01*
X0182199Y0137673D02*
X0198148Y0137673D01*
X0196549Y0136075D02*
X0180600Y0136075D01*
X0180000Y0134476D02*
X0194951Y0134476D01*
X0193783Y0132878D02*
X0180000Y0132878D01*
X0180000Y0131279D02*
X0193600Y0131279D01*
X0193600Y0129681D02*
X0180000Y0129681D01*
X0180000Y0128082D02*
X0193600Y0128082D01*
X0193600Y0126484D02*
X0180000Y0126484D01*
X0180000Y0124885D02*
X0193600Y0124885D01*
X0193600Y0123287D02*
X0180000Y0123287D01*
X0180000Y0121688D02*
X0193600Y0121688D01*
X0193600Y0120090D02*
X0180000Y0120090D01*
X0180000Y0118491D02*
X0193600Y0118491D01*
X0193600Y0116893D02*
X0180000Y0116893D01*
X0180000Y0115294D02*
X0193600Y0115294D01*
X0193600Y0113696D02*
X0180000Y0113696D01*
X0180000Y0112097D02*
X0193600Y0112097D01*
X0193600Y0110499D02*
X0180000Y0110499D01*
X0180000Y0108900D02*
X0193600Y0108900D01*
X0193600Y0107302D02*
X0180000Y0107302D01*
X0180000Y0105703D02*
X0193600Y0105703D01*
X0193600Y0104105D02*
X0180000Y0104105D01*
X0180000Y0102506D02*
X0193600Y0102506D01*
X0193600Y0100908D02*
X0180000Y0100908D01*
X0180000Y0099309D02*
X0193600Y0099309D01*
X0193600Y0097711D02*
X0180000Y0097711D01*
X0180000Y0096112D02*
X0193600Y0096112D01*
X0193600Y0094514D02*
X0180000Y0094514D01*
X0180000Y0092915D02*
X0193600Y0092915D01*
X0193600Y0091317D02*
X0180000Y0091317D01*
X0180000Y0089718D02*
X0193600Y0089718D01*
X0193600Y0088120D02*
X0180000Y0088120D01*
X0180000Y0086521D02*
X0193600Y0086521D01*
X0193600Y0084923D02*
X0180000Y0084923D01*
X0181206Y0083324D02*
X0192394Y0083324D01*
X0191675Y0081726D02*
X0181925Y0081726D01*
X0182082Y0080127D02*
X0191518Y0080127D01*
X0191518Y0078529D02*
X0182082Y0078529D01*
X0182082Y0076930D02*
X0191518Y0076930D01*
X0191518Y0075332D02*
X0182082Y0075332D01*
X0182082Y0073733D02*
X0191518Y0073733D01*
X0191568Y0072134D02*
X0182032Y0072134D01*
X0181370Y0070536D02*
X0192230Y0070536D01*
X0193732Y0068937D02*
X0179868Y0068937D01*
X0174047Y0068937D02*
X0159553Y0068937D01*
X0159546Y0068930D02*
X0160987Y0070372D01*
X0161768Y0072256D01*
X0161768Y0081344D01*
X0160987Y0083228D01*
X0160000Y0084215D01*
X0160000Y0137437D01*
X0159513Y0138613D01*
X0158613Y0139513D01*
X0129843Y0168283D01*
X0129843Y0229227D01*
X0130987Y0230372D01*
X0131768Y0232256D01*
X0131768Y0241344D01*
X0130987Y0243228D01*
X0129546Y0244670D01*
X0127662Y0245450D01*
X0125623Y0245450D01*
X0123739Y0244670D01*
X0122298Y0243228D01*
X0121518Y0241344D01*
X0121518Y0232256D01*
X0122298Y0230372D01*
X0123443Y0229227D01*
X0123443Y0166321D01*
X0123930Y0165145D01*
X0153600Y0135475D01*
X0153600Y0084530D01*
X0152298Y0083228D01*
X0151518Y0081344D01*
X0151518Y0072256D01*
X0152298Y0070372D01*
X0153739Y0068930D01*
X0155623Y0068150D01*
X0157662Y0068150D01*
X0159546Y0068930D01*
X0161055Y0070536D02*
X0172545Y0070536D01*
X0171883Y0072134D02*
X0161717Y0072134D01*
X0161768Y0073733D02*
X0171832Y0073733D01*
X0171832Y0075332D02*
X0161768Y0075332D01*
X0161768Y0076930D02*
X0171832Y0076930D01*
X0171832Y0078529D02*
X0161768Y0078529D01*
X0161768Y0080127D02*
X0171832Y0080127D01*
X0171990Y0081726D02*
X0161610Y0081726D01*
X0160891Y0083324D02*
X0172709Y0083324D01*
X0173600Y0084923D02*
X0160000Y0084923D01*
X0160000Y0086521D02*
X0173600Y0086521D01*
X0173600Y0088120D02*
X0160000Y0088120D01*
X0160000Y0089718D02*
X0173600Y0089718D01*
X0173600Y0091317D02*
X0160000Y0091317D01*
X0160000Y0092915D02*
X0173600Y0092915D01*
X0173600Y0094514D02*
X0160000Y0094514D01*
X0160000Y0096112D02*
X0173600Y0096112D01*
X0173600Y0097711D02*
X0160000Y0097711D01*
X0160000Y0099309D02*
X0173600Y0099309D01*
X0173600Y0100908D02*
X0160000Y0100908D01*
X0160000Y0102506D02*
X0173600Y0102506D01*
X0173600Y0104105D02*
X0160000Y0104105D01*
X0160000Y0105703D02*
X0173600Y0105703D01*
X0173600Y0107302D02*
X0160000Y0107302D01*
X0160000Y0108900D02*
X0173600Y0108900D01*
X0173600Y0110499D02*
X0160000Y0110499D01*
X0160000Y0112097D02*
X0173600Y0112097D01*
X0173600Y0113696D02*
X0160000Y0113696D01*
X0160000Y0115294D02*
X0173600Y0115294D01*
X0173600Y0116893D02*
X0160000Y0116893D01*
X0160000Y0118491D02*
X0173600Y0118491D01*
X0173600Y0120090D02*
X0160000Y0120090D01*
X0160000Y0121688D02*
X0173600Y0121688D01*
X0173600Y0123287D02*
X0160000Y0123287D01*
X0160000Y0124885D02*
X0173600Y0124885D01*
X0173600Y0126484D02*
X0160000Y0126484D01*
X0160000Y0128082D02*
X0173600Y0128082D01*
X0173600Y0129681D02*
X0160000Y0129681D01*
X0160000Y0131279D02*
X0173600Y0131279D01*
X0173600Y0132878D02*
X0160000Y0132878D01*
X0160000Y0134476D02*
X0173600Y0134476D01*
X0173600Y0136075D02*
X0160000Y0136075D01*
X0159902Y0137673D02*
X0173698Y0137673D01*
X0174746Y0139272D02*
X0158853Y0139272D01*
X0157255Y0140870D02*
X0176345Y0140870D01*
X0177944Y0142469D02*
X0155656Y0142469D01*
X0154058Y0144068D02*
X0179542Y0144068D01*
X0181141Y0145666D02*
X0152459Y0145666D01*
X0150861Y0147265D02*
X0182739Y0147265D01*
X0183757Y0148863D02*
X0149262Y0148863D01*
X0147664Y0150462D02*
X0183757Y0150462D01*
X0183757Y0152060D02*
X0146065Y0152060D01*
X0144467Y0153659D02*
X0183757Y0153659D01*
X0183757Y0155257D02*
X0142868Y0155257D01*
X0141270Y0156856D02*
X0183757Y0156856D01*
X0183757Y0158454D02*
X0139671Y0158454D01*
X0138073Y0160053D02*
X0183757Y0160053D01*
X0183757Y0161651D02*
X0136474Y0161651D01*
X0134876Y0163250D02*
X0183757Y0163250D01*
X0183757Y0164848D02*
X0133277Y0164848D01*
X0131679Y0166447D02*
X0183757Y0166447D01*
X0183757Y0168045D02*
X0130080Y0168045D01*
X0129843Y0169644D02*
X0183757Y0169644D01*
X0183757Y0171242D02*
X0129843Y0171242D01*
X0129843Y0172841D02*
X0183757Y0172841D01*
X0183757Y0174439D02*
X0129843Y0174439D01*
X0129843Y0176038D02*
X0183757Y0176038D01*
X0183757Y0177636D02*
X0129843Y0177636D01*
X0129843Y0179235D02*
X0183757Y0179235D01*
X0183757Y0180833D02*
X0129843Y0180833D01*
X0129843Y0182432D02*
X0183757Y0182432D01*
X0183757Y0184030D02*
X0129843Y0184030D01*
X0129843Y0185629D02*
X0183757Y0185629D01*
X0183757Y0187227D02*
X0129843Y0187227D01*
X0129843Y0188826D02*
X0183757Y0188826D01*
X0183757Y0190424D02*
X0129843Y0190424D01*
X0129843Y0192023D02*
X0183757Y0192023D01*
X0183757Y0193621D02*
X0129843Y0193621D01*
X0129843Y0195220D02*
X0183757Y0195220D01*
X0183757Y0196818D02*
X0129843Y0196818D01*
X0129843Y0198417D02*
X0183757Y0198417D01*
X0183757Y0200015D02*
X0129843Y0200015D01*
X0129843Y0201614D02*
X0183757Y0201614D01*
X0183757Y0203212D02*
X0129843Y0203212D01*
X0129843Y0204811D02*
X0183757Y0204811D01*
X0183757Y0206409D02*
X0129843Y0206409D01*
X0129843Y0208008D02*
X0183757Y0208008D01*
X0183757Y0209606D02*
X0129843Y0209606D01*
X0129843Y0211205D02*
X0183757Y0211205D01*
X0183757Y0212803D02*
X0129843Y0212803D01*
X0129843Y0214402D02*
X0183757Y0214402D01*
X0183757Y0216001D02*
X0129843Y0216001D01*
X0129843Y0217599D02*
X0183757Y0217599D01*
X0183757Y0219198D02*
X0129843Y0219198D01*
X0129843Y0220796D02*
X0183757Y0220796D01*
X0183757Y0222395D02*
X0129843Y0222395D01*
X0129843Y0223993D02*
X0183757Y0223993D01*
X0183757Y0225592D02*
X0129843Y0225592D01*
X0129843Y0227190D02*
X0183757Y0227190D01*
X0183757Y0228789D02*
X0169527Y0228789D01*
X0169433Y0228721D02*
X0170112Y0229213D01*
X0170704Y0229806D01*
X0171197Y0230484D01*
X0171577Y0231231D01*
X0171836Y0232028D01*
X0171968Y0232856D01*
X0171968Y0236425D01*
X0167018Y0236425D01*
X0167018Y0237175D01*
X0171968Y0237175D01*
X0171968Y0240744D01*
X0171836Y0241572D01*
X0171577Y0242369D01*
X0171197Y0243116D01*
X0170704Y0243794D01*
X0170112Y0244387D01*
X0169433Y0244879D01*
X0168687Y0245260D01*
X0167889Y0245519D01*
X0167062Y0245650D01*
X0167018Y0245650D01*
X0167018Y0237175D01*
X0166267Y0237175D01*
X0166267Y0236425D01*
X0161318Y0236425D01*
X0161318Y0232856D01*
X0161449Y0232028D01*
X0161708Y0231231D01*
X0162088Y0230484D01*
X0162581Y0229806D01*
X0163174Y0229213D01*
X0163852Y0228721D01*
X0164598Y0228340D01*
X0165396Y0228081D01*
X0166223Y0227950D01*
X0166267Y0227950D01*
X0166267Y0236425D01*
X0167018Y0236425D01*
X0167018Y0227950D01*
X0167062Y0227950D01*
X0167889Y0228081D01*
X0168687Y0228340D01*
X0169433Y0228721D01*
X0171126Y0230387D02*
X0182606Y0230387D01*
X0181944Y0231986D02*
X0171823Y0231986D01*
X0171968Y0233584D02*
X0181832Y0233584D01*
X0181832Y0235183D02*
X0171968Y0235183D01*
X0171968Y0238380D02*
X0181832Y0238380D01*
X0181832Y0239978D02*
X0171968Y0239978D01*
X0171835Y0241577D02*
X0181929Y0241577D01*
X0182591Y0243175D02*
X0171154Y0243175D01*
X0169579Y0244774D02*
X0184305Y0244774D01*
X0189610Y0244774D02*
X0202543Y0244774D01*
X0202543Y0246372D02*
X0151057Y0246372D01*
X0151057Y0244774D02*
X0163706Y0244774D01*
X0163852Y0244879D02*
X0163174Y0244387D01*
X0162581Y0243794D01*
X0162088Y0243116D01*
X0161708Y0242369D01*
X0161449Y0241572D01*
X0161318Y0240744D01*
X0161318Y0237175D01*
X0166267Y0237175D01*
X0166267Y0245650D01*
X0166223Y0245650D01*
X0165396Y0245519D01*
X0164598Y0245260D01*
X0163852Y0244879D01*
X0166267Y0244774D02*
X0167018Y0244774D01*
X0167018Y0243175D02*
X0166267Y0243175D01*
X0166267Y0241577D02*
X0167018Y0241577D01*
X0167018Y0239978D02*
X0166267Y0239978D01*
X0166267Y0238380D02*
X0167018Y0238380D01*
X0167018Y0236781D02*
X0181832Y0236781D01*
X0191309Y0230387D02*
X0202291Y0230387D01*
X0201629Y0231986D02*
X0191971Y0231986D01*
X0192082Y0233584D02*
X0201518Y0233584D01*
X0201518Y0235183D02*
X0192082Y0235183D01*
X0192082Y0236781D02*
X0201518Y0236781D01*
X0201518Y0238380D02*
X0192082Y0238380D01*
X0192082Y0239978D02*
X0201518Y0239978D01*
X0201614Y0241577D02*
X0191986Y0241577D01*
X0191324Y0243175D02*
X0202276Y0243175D01*
X0202543Y0247971D02*
X0151057Y0247971D01*
X0151057Y0249569D02*
X0202543Y0249569D01*
X0201634Y0251168D02*
X0151057Y0251168D01*
X0151057Y0252766D02*
X0200035Y0252766D01*
X0198437Y0254365D02*
X0151057Y0254365D01*
X0151057Y0255963D02*
X0196838Y0255963D01*
X0195240Y0257562D02*
X0151014Y0257562D01*
X0142857Y0254365D02*
X0090033Y0254365D01*
X0090838Y0252766D02*
X0142857Y0252766D01*
X0142857Y0251168D02*
X0090900Y0251168D01*
X0090900Y0249569D02*
X0142857Y0249569D01*
X0142857Y0247971D02*
X0090900Y0247971D01*
X0090900Y0246372D02*
X0142857Y0246372D01*
X0142857Y0244774D02*
X0129295Y0244774D01*
X0131009Y0243175D02*
X0142591Y0243175D01*
X0141929Y0241577D02*
X0131671Y0241577D01*
X0131768Y0239978D02*
X0141832Y0239978D01*
X0141832Y0238380D02*
X0131768Y0238380D01*
X0131768Y0236781D02*
X0141832Y0236781D01*
X0141832Y0235183D02*
X0131768Y0235183D01*
X0131768Y0233584D02*
X0141832Y0233584D01*
X0141944Y0231986D02*
X0131656Y0231986D01*
X0130994Y0230387D02*
X0142606Y0230387D01*
X0144396Y0228789D02*
X0129843Y0228789D01*
X0123443Y0228789D02*
X0109842Y0228789D01*
X0109748Y0228721D02*
X0110426Y0229213D01*
X0111019Y0229806D01*
X0111512Y0230484D01*
X0111892Y0231231D01*
X0112151Y0232028D01*
X0112282Y0232856D01*
X0112282Y0236425D01*
X0107333Y0236425D01*
X0107333Y0237175D01*
X0112282Y0237175D01*
X0112282Y0240744D01*
X0112151Y0241572D01*
X0111892Y0242369D01*
X0111512Y0243116D01*
X0111019Y0243794D01*
X0110426Y0244387D01*
X0109748Y0244879D01*
X0109002Y0245260D01*
X0108204Y0245519D01*
X0107377Y0245650D01*
X0107332Y0245650D01*
X0107332Y0237175D01*
X0106582Y0237175D01*
X0106582Y0236425D01*
X0101632Y0236425D01*
X0101632Y0232856D01*
X0101764Y0232028D01*
X0102023Y0231231D01*
X0102403Y0230484D01*
X0102896Y0229806D01*
X0103488Y0229213D01*
X0104167Y0228721D01*
X0104913Y0228340D01*
X0105711Y0228081D01*
X0106538Y0227950D01*
X0106582Y0227950D01*
X0106582Y0236425D01*
X0107332Y0236425D01*
X0107332Y0227950D01*
X0107377Y0227950D01*
X0108204Y0228081D01*
X0109002Y0228340D01*
X0109748Y0228721D01*
X0111441Y0230387D02*
X0122291Y0230387D01*
X0121629Y0231986D02*
X0112138Y0231986D01*
X0112282Y0233584D02*
X0121518Y0233584D01*
X0121518Y0235183D02*
X0112282Y0235183D01*
X0112282Y0238380D02*
X0121518Y0238380D01*
X0121518Y0239978D02*
X0112282Y0239978D01*
X0112150Y0241577D02*
X0121614Y0241577D01*
X0122276Y0243175D02*
X0111469Y0243175D01*
X0109894Y0244774D02*
X0123990Y0244774D01*
X0121518Y0236781D02*
X0107333Y0236781D01*
X0106582Y0236781D02*
X0091768Y0236781D01*
X0091768Y0235183D02*
X0101632Y0235183D01*
X0101632Y0233584D02*
X0091768Y0233584D01*
X0091656Y0231986D02*
X0101777Y0231986D01*
X0102474Y0230387D02*
X0090994Y0230387D01*
X0089204Y0228789D02*
X0104073Y0228789D01*
X0106582Y0228789D02*
X0107332Y0228789D01*
X0107332Y0230387D02*
X0106582Y0230387D01*
X0106582Y0231986D02*
X0107332Y0231986D01*
X0107332Y0233584D02*
X0106582Y0233584D01*
X0106582Y0235183D02*
X0107332Y0235183D01*
X0106582Y0237175D02*
X0101632Y0237175D01*
X0101632Y0240744D01*
X0101764Y0241572D01*
X0102023Y0242369D01*
X0102403Y0243116D01*
X0102896Y0243794D01*
X0103488Y0244387D01*
X0104167Y0244879D01*
X0104913Y0245260D01*
X0105711Y0245519D01*
X0106538Y0245650D01*
X0106582Y0245650D01*
X0106582Y0237175D01*
X0106582Y0238380D02*
X0107332Y0238380D01*
X0107332Y0239978D02*
X0106582Y0239978D01*
X0106582Y0241577D02*
X0107332Y0241577D01*
X0107332Y0243175D02*
X0106582Y0243175D01*
X0106582Y0244774D02*
X0107332Y0244774D01*
X0104021Y0244774D02*
X0090900Y0244774D01*
X0091009Y0243175D02*
X0102446Y0243175D01*
X0101765Y0241577D02*
X0091671Y0241577D01*
X0091768Y0239978D02*
X0101632Y0239978D01*
X0101632Y0238380D02*
X0091768Y0238380D01*
X0081518Y0238380D02*
X0072082Y0238380D01*
X0072082Y0239978D02*
X0081518Y0239978D01*
X0081614Y0241577D02*
X0071986Y0241577D01*
X0072082Y0241344D02*
X0071302Y0243228D01*
X0069861Y0244670D01*
X0067977Y0245450D01*
X0065938Y0245450D01*
X0064054Y0244670D01*
X0062613Y0243228D01*
X0061832Y0241344D01*
X0061832Y0232256D01*
X0062613Y0230372D01*
X0063757Y0229227D01*
X0063757Y0191006D01*
X0064245Y0189830D01*
X0133600Y0120475D01*
X0133600Y0084215D01*
X0132613Y0083228D01*
X0131832Y0081344D01*
X0131832Y0072256D01*
X0132613Y0070372D01*
X0134054Y0068930D01*
X0135938Y0068150D01*
X0137977Y0068150D01*
X0139861Y0068930D01*
X0141302Y0070372D01*
X0142082Y0072256D01*
X0142082Y0081344D01*
X0141302Y0083228D01*
X0140000Y0084530D01*
X0140000Y0122437D01*
X0139513Y0123613D01*
X0138613Y0124513D01*
X0070157Y0192968D01*
X0070157Y0229227D01*
X0071302Y0230372D01*
X0072082Y0232256D01*
X0072082Y0241344D01*
X0071324Y0243175D02*
X0082276Y0243175D01*
X0082700Y0244774D02*
X0069610Y0244774D01*
X0064305Y0244774D02*
X0049579Y0244774D01*
X0049433Y0244879D02*
X0048687Y0245260D01*
X0047889Y0245519D01*
X0047062Y0245650D01*
X0047018Y0245650D01*
X0047018Y0237175D01*
X0051968Y0237175D01*
X0051968Y0240744D01*
X0051836Y0241572D01*
X0051577Y0242369D01*
X0051197Y0243116D01*
X0050704Y0243794D01*
X0050112Y0244387D01*
X0049433Y0244879D01*
X0047018Y0244774D02*
X0046267Y0244774D01*
X0046267Y0245650D02*
X0046223Y0245650D01*
X0045396Y0245519D01*
X0044598Y0245260D01*
X0043852Y0244879D01*
X0043174Y0244387D01*
X0042581Y0243794D01*
X0042088Y0243116D01*
X0041708Y0242369D01*
X0041449Y0241572D01*
X0041318Y0240744D01*
X0041318Y0237175D01*
X0046267Y0237175D01*
X0046267Y0236425D01*
X0041318Y0236425D01*
X0041318Y0232856D01*
X0041449Y0232028D01*
X0041708Y0231231D01*
X0042088Y0230484D01*
X0042581Y0229806D01*
X0043174Y0229213D01*
X0043852Y0228721D01*
X0044598Y0228340D01*
X0045396Y0228081D01*
X0046223Y0227950D01*
X0046267Y0227950D01*
X0046267Y0236425D01*
X0047018Y0236425D01*
X0047018Y0237175D01*
X0046267Y0237175D01*
X0046267Y0245650D01*
X0046267Y0243175D02*
X0047018Y0243175D01*
X0047018Y0241577D02*
X0046267Y0241577D01*
X0046267Y0239978D02*
X0047018Y0239978D01*
X0047018Y0238380D02*
X0046267Y0238380D01*
X0046267Y0236781D02*
X0032082Y0236781D01*
X0032082Y0235183D02*
X0041318Y0235183D01*
X0041318Y0233584D02*
X0032082Y0233584D01*
X0031971Y0231986D02*
X0041462Y0231986D01*
X0042159Y0230387D02*
X0031309Y0230387D01*
X0029519Y0228789D02*
X0043758Y0228789D01*
X0046267Y0228789D02*
X0047018Y0228789D01*
X0047018Y0227950D02*
X0047062Y0227950D01*
X0047889Y0228081D01*
X0048687Y0228340D01*
X0049433Y0228721D01*
X0050112Y0229213D01*
X0050704Y0229806D01*
X0051197Y0230484D01*
X0051577Y0231231D01*
X0051836Y0232028D01*
X0051968Y0232856D01*
X0051968Y0236425D01*
X0047018Y0236425D01*
X0047018Y0227950D01*
X0047018Y0230387D02*
X0046267Y0230387D01*
X0046267Y0231986D02*
X0047018Y0231986D01*
X0047018Y0233584D02*
X0046267Y0233584D01*
X0046267Y0235183D02*
X0047018Y0235183D01*
X0047018Y0236781D02*
X0061832Y0236781D01*
X0061832Y0235183D02*
X0051968Y0235183D01*
X0051968Y0233584D02*
X0061832Y0233584D01*
X0061944Y0231986D02*
X0051823Y0231986D01*
X0051126Y0230387D02*
X0062606Y0230387D01*
X0063757Y0228789D02*
X0049527Y0228789D01*
X0063757Y0227190D02*
X0006600Y0227190D01*
X0006600Y0225592D02*
X0063757Y0225592D01*
X0063757Y0223993D02*
X0006600Y0223993D01*
X0006600Y0222395D02*
X0063757Y0222395D01*
X0063757Y0220796D02*
X0006600Y0220796D01*
X0006600Y0219198D02*
X0063757Y0219198D01*
X0063757Y0217599D02*
X0006600Y0217599D01*
X0006600Y0216001D02*
X0063757Y0216001D01*
X0063757Y0214402D02*
X0006600Y0214402D01*
X0006600Y0212803D02*
X0063757Y0212803D01*
X0063757Y0211205D02*
X0006600Y0211205D01*
X0006600Y0209606D02*
X0063757Y0209606D01*
X0063757Y0208008D02*
X0006600Y0208008D01*
X0006600Y0206409D02*
X0063757Y0206409D01*
X0063757Y0204811D02*
X0006600Y0204811D01*
X0006600Y0203212D02*
X0063757Y0203212D01*
X0063757Y0201614D02*
X0006600Y0201614D01*
X0006600Y0200015D02*
X0063757Y0200015D01*
X0063757Y0198417D02*
X0006600Y0198417D01*
X0006600Y0196818D02*
X0063757Y0196818D01*
X0063757Y0195220D02*
X0006600Y0195220D01*
X0006600Y0193621D02*
X0063757Y0193621D01*
X0063757Y0192023D02*
X0006600Y0192023D01*
X0006600Y0190424D02*
X0063998Y0190424D01*
X0065249Y0188826D02*
X0006600Y0188826D01*
X0006600Y0187227D02*
X0066847Y0187227D01*
X0068446Y0185629D02*
X0006600Y0185629D01*
X0006600Y0184030D02*
X0070044Y0184030D01*
X0071643Y0182432D02*
X0006600Y0182432D01*
X0006600Y0180833D02*
X0073241Y0180833D01*
X0074840Y0179235D02*
X0006600Y0179235D01*
X0006600Y0177636D02*
X0076438Y0177636D01*
X0078037Y0176038D02*
X0006600Y0176038D01*
X0006600Y0174439D02*
X0079635Y0174439D01*
X0081234Y0172841D02*
X0006600Y0172841D01*
X0006600Y0171242D02*
X0082832Y0171242D01*
X0084431Y0169644D02*
X0006600Y0169644D01*
X0006600Y0168045D02*
X0086029Y0168045D01*
X0087628Y0166447D02*
X0006600Y0166447D01*
X0006600Y0164848D02*
X0089226Y0164848D01*
X0090825Y0163250D02*
X0006600Y0163250D01*
X0006600Y0161651D02*
X0092423Y0161651D01*
X0094022Y0160053D02*
X0006600Y0160053D01*
X0006600Y0158454D02*
X0095620Y0158454D01*
X0097219Y0156856D02*
X0006600Y0156856D01*
X0006600Y0155257D02*
X0098817Y0155257D01*
X0100416Y0153659D02*
X0006600Y0153659D01*
X0006600Y0152060D02*
X0102014Y0152060D01*
X0103613Y0150462D02*
X0006600Y0150462D01*
X0006600Y0148863D02*
X0105211Y0148863D01*
X0106810Y0147265D02*
X0006600Y0147265D01*
X0006600Y0145666D02*
X0108408Y0145666D01*
X0110007Y0144068D02*
X0006600Y0144068D01*
X0006600Y0142469D02*
X0111606Y0142469D01*
X0113204Y0140870D02*
X0006600Y0140870D01*
X0006600Y0139272D02*
X0114803Y0139272D01*
X0116401Y0137673D02*
X0006600Y0137673D01*
X0006600Y0136075D02*
X0118000Y0136075D01*
X0119598Y0134476D02*
X0006600Y0134476D01*
X0006600Y0132878D02*
X0121197Y0132878D01*
X0122795Y0131279D02*
X0006600Y0131279D01*
X0006600Y0129681D02*
X0124394Y0129681D01*
X0125992Y0128082D02*
X0006600Y0128082D01*
X0006600Y0126484D02*
X0127591Y0126484D01*
X0129189Y0124885D02*
X0006600Y0124885D01*
X0006600Y0123287D02*
X0130788Y0123287D01*
X0132386Y0121688D02*
X0006600Y0121688D01*
X0006600Y0120090D02*
X0133600Y0120090D01*
X0133600Y0118491D02*
X0006600Y0118491D01*
X0006600Y0116893D02*
X0133600Y0116893D01*
X0133600Y0115294D02*
X0006600Y0115294D01*
X0006600Y0113696D02*
X0133600Y0113696D01*
X0133600Y0112097D02*
X0006600Y0112097D01*
X0006600Y0110499D02*
X0133600Y0110499D01*
X0133600Y0108900D02*
X0006600Y0108900D01*
X0006600Y0107302D02*
X0133600Y0107302D01*
X0133600Y0105703D02*
X0006600Y0105703D01*
X0006600Y0104105D02*
X0133600Y0104105D01*
X0133600Y0102506D02*
X0006600Y0102506D01*
X0006600Y0100908D02*
X0133600Y0100908D01*
X0133600Y0099309D02*
X0006600Y0099309D01*
X0006600Y0097711D02*
X0133600Y0097711D01*
X0133600Y0096112D02*
X0006600Y0096112D01*
X0006600Y0094514D02*
X0133600Y0094514D01*
X0133600Y0092915D02*
X0006600Y0092915D01*
X0006600Y0091317D02*
X0133600Y0091317D01*
X0133600Y0089718D02*
X0006600Y0089718D01*
X0006600Y0088120D02*
X0133600Y0088120D01*
X0133600Y0086521D02*
X0006600Y0086521D01*
X0006600Y0084923D02*
X0133600Y0084923D01*
X0132709Y0083324D02*
X0006600Y0083324D01*
X0006600Y0081726D02*
X0131990Y0081726D01*
X0131832Y0080127D02*
X0006600Y0080127D01*
X0006600Y0078529D02*
X0131832Y0078529D01*
X0131832Y0076930D02*
X0006600Y0076930D01*
X0006600Y0075332D02*
X0131832Y0075332D01*
X0131832Y0073733D02*
X0006600Y0073733D01*
X0006600Y0072134D02*
X0131883Y0072134D01*
X0132545Y0070536D02*
X0006600Y0070536D01*
X0006600Y0068937D02*
X0134047Y0068937D01*
X0139868Y0068937D02*
X0153732Y0068937D01*
X0152230Y0070536D02*
X0141370Y0070536D01*
X0142032Y0072134D02*
X0151568Y0072134D01*
X0151518Y0073733D02*
X0142082Y0073733D01*
X0142082Y0075332D02*
X0151518Y0075332D01*
X0151518Y0076930D02*
X0142082Y0076930D01*
X0142082Y0078529D02*
X0151518Y0078529D01*
X0151518Y0080127D02*
X0142082Y0080127D01*
X0141925Y0081726D02*
X0151675Y0081726D01*
X0152394Y0083324D02*
X0141206Y0083324D01*
X0140000Y0084923D02*
X0153600Y0084923D01*
X0153600Y0086521D02*
X0140000Y0086521D01*
X0140000Y0088120D02*
X0153600Y0088120D01*
X0153600Y0089718D02*
X0140000Y0089718D01*
X0140000Y0091317D02*
X0153600Y0091317D01*
X0153600Y0092915D02*
X0140000Y0092915D01*
X0140000Y0094514D02*
X0153600Y0094514D01*
X0153600Y0096112D02*
X0140000Y0096112D01*
X0140000Y0097711D02*
X0153600Y0097711D01*
X0153600Y0099309D02*
X0140000Y0099309D01*
X0140000Y0100908D02*
X0153600Y0100908D01*
X0153600Y0102506D02*
X0140000Y0102506D01*
X0140000Y0104105D02*
X0153600Y0104105D01*
X0153600Y0105703D02*
X0140000Y0105703D01*
X0140000Y0107302D02*
X0153600Y0107302D01*
X0153600Y0108900D02*
X0140000Y0108900D01*
X0140000Y0110499D02*
X0153600Y0110499D01*
X0153600Y0112097D02*
X0140000Y0112097D01*
X0140000Y0113696D02*
X0153600Y0113696D01*
X0153600Y0115294D02*
X0140000Y0115294D01*
X0140000Y0116893D02*
X0153600Y0116893D01*
X0153600Y0118491D02*
X0140000Y0118491D01*
X0140000Y0120090D02*
X0153600Y0120090D01*
X0153600Y0121688D02*
X0140000Y0121688D01*
X0139648Y0123287D02*
X0153600Y0123287D01*
X0153600Y0124885D02*
X0138240Y0124885D01*
X0136642Y0126484D02*
X0153600Y0126484D01*
X0153600Y0128082D02*
X0135043Y0128082D01*
X0133445Y0129681D02*
X0153600Y0129681D01*
X0153600Y0131279D02*
X0131846Y0131279D01*
X0130248Y0132878D02*
X0153600Y0132878D01*
X0153600Y0134476D02*
X0128649Y0134476D01*
X0127051Y0136075D02*
X0153000Y0136075D01*
X0151401Y0137673D02*
X0125452Y0137673D01*
X0123853Y0139272D02*
X0149803Y0139272D01*
X0148204Y0140870D02*
X0122255Y0140870D01*
X0120656Y0142469D02*
X0146606Y0142469D01*
X0145007Y0144068D02*
X0119058Y0144068D01*
X0117459Y0145666D02*
X0143408Y0145666D01*
X0141810Y0147265D02*
X0115861Y0147265D01*
X0114262Y0148863D02*
X0140211Y0148863D01*
X0138613Y0150462D02*
X0112664Y0150462D01*
X0111065Y0152060D02*
X0137014Y0152060D01*
X0135416Y0153659D02*
X0109467Y0153659D01*
X0107868Y0155257D02*
X0133817Y0155257D01*
X0132219Y0156856D02*
X0106270Y0156856D01*
X0104671Y0158454D02*
X0130620Y0158454D01*
X0129022Y0160053D02*
X0103073Y0160053D01*
X0101474Y0161651D02*
X0127423Y0161651D01*
X0125825Y0163250D02*
X0099876Y0163250D01*
X0098277Y0164848D02*
X0124226Y0164848D01*
X0123443Y0166447D02*
X0096679Y0166447D01*
X0095080Y0168045D02*
X0123443Y0168045D01*
X0123443Y0169644D02*
X0093482Y0169644D01*
X0091883Y0171242D02*
X0123443Y0171242D01*
X0123443Y0172841D02*
X0090285Y0172841D01*
X0088686Y0174439D02*
X0123443Y0174439D01*
X0123443Y0176038D02*
X0087088Y0176038D01*
X0085489Y0177636D02*
X0123443Y0177636D01*
X0123443Y0179235D02*
X0083891Y0179235D01*
X0082292Y0180833D02*
X0123443Y0180833D01*
X0123443Y0182432D02*
X0080694Y0182432D01*
X0079095Y0184030D02*
X0123443Y0184030D01*
X0123443Y0185629D02*
X0077497Y0185629D01*
X0075898Y0187227D02*
X0123443Y0187227D01*
X0123443Y0188826D02*
X0074300Y0188826D01*
X0072701Y0190424D02*
X0123443Y0190424D01*
X0123443Y0192023D02*
X0071103Y0192023D01*
X0070157Y0193621D02*
X0123443Y0193621D01*
X0123443Y0195220D02*
X0070157Y0195220D01*
X0070157Y0196818D02*
X0123443Y0196818D01*
X0123443Y0198417D02*
X0070157Y0198417D01*
X0070157Y0200015D02*
X0123443Y0200015D01*
X0123443Y0201614D02*
X0070157Y0201614D01*
X0070157Y0203212D02*
X0123443Y0203212D01*
X0123443Y0204811D02*
X0070157Y0204811D01*
X0070157Y0206409D02*
X0123443Y0206409D01*
X0123443Y0208008D02*
X0070157Y0208008D01*
X0070157Y0209606D02*
X0123443Y0209606D01*
X0123443Y0211205D02*
X0070157Y0211205D01*
X0070157Y0212803D02*
X0123443Y0212803D01*
X0123443Y0214402D02*
X0070157Y0214402D01*
X0070157Y0216001D02*
X0123443Y0216001D01*
X0123443Y0217599D02*
X0070157Y0217599D01*
X0070157Y0219198D02*
X0123443Y0219198D01*
X0123443Y0220796D02*
X0070157Y0220796D01*
X0070157Y0222395D02*
X0123443Y0222395D01*
X0123443Y0223993D02*
X0070157Y0223993D01*
X0070157Y0225592D02*
X0123443Y0225592D01*
X0123443Y0227190D02*
X0070157Y0227190D01*
X0070157Y0228789D02*
X0084081Y0228789D01*
X0082291Y0230387D02*
X0071309Y0230387D01*
X0071971Y0231986D02*
X0081629Y0231986D01*
X0081518Y0233584D02*
X0072082Y0233584D01*
X0072082Y0235183D02*
X0081518Y0235183D01*
X0081518Y0236781D02*
X0072082Y0236781D01*
X0061832Y0238380D02*
X0051968Y0238380D01*
X0051968Y0239978D02*
X0061832Y0239978D01*
X0061929Y0241577D02*
X0051835Y0241577D01*
X0051154Y0243175D02*
X0062591Y0243175D01*
X0078437Y0254365D02*
X0035163Y0254365D01*
X0036762Y0255963D02*
X0076838Y0255963D01*
X0075240Y0257562D02*
X0038360Y0257562D01*
X0033565Y0252766D02*
X0080035Y0252766D01*
X0081634Y0251168D02*
X0031966Y0251168D01*
X0031057Y0249569D02*
X0082700Y0249569D01*
X0082700Y0247971D02*
X0031057Y0247971D01*
X0031057Y0246372D02*
X0082700Y0246372D01*
X0088435Y0255963D02*
X0141838Y0255963D01*
X0140240Y0257562D02*
X0086836Y0257562D01*
X0043706Y0244774D02*
X0031057Y0244774D01*
X0031324Y0243175D02*
X0042131Y0243175D01*
X0041450Y0241577D02*
X0031986Y0241577D01*
X0032082Y0239978D02*
X0041318Y0239978D01*
X0041318Y0238380D02*
X0032082Y0238380D01*
X0021832Y0238380D02*
X0006600Y0238380D01*
X0006600Y0239978D02*
X0021832Y0239978D01*
X0021929Y0241577D02*
X0006600Y0241577D01*
X0006600Y0243175D02*
X0022591Y0243175D01*
X0022857Y0244774D02*
X0006600Y0244774D01*
X0006600Y0246372D02*
X0022857Y0246372D01*
X0022857Y0247971D02*
X0006600Y0247971D01*
X0006600Y0249569D02*
X0022857Y0249569D01*
X0022857Y0251168D02*
X0006600Y0251168D01*
X0006600Y0252766D02*
X0022857Y0252766D01*
X0023567Y0254365D02*
X0006600Y0254365D01*
X0006600Y0255963D02*
X0025165Y0255963D01*
X0026764Y0257562D02*
X0006600Y0257562D01*
X0006600Y0259160D02*
X0028362Y0259160D01*
X0029961Y0260759D02*
X0006600Y0260759D01*
X0006600Y0262357D02*
X0031559Y0262357D01*
X0033158Y0263956D02*
X0006600Y0263956D01*
X0006600Y0265554D02*
X0035150Y0265554D01*
X0033324Y0264122D02*
X0033324Y0264122D01*
X0014222Y0267153D02*
X0006600Y0267153D01*
X0006600Y0268751D02*
X0010849Y0268751D01*
X0009250Y0270350D02*
X0006600Y0270350D01*
X0006600Y0271948D02*
X0008095Y0271948D01*
X0007433Y0273547D02*
X0006600Y0273547D01*
X0006600Y0275145D02*
X0006901Y0275145D01*
X0006901Y0276744D02*
X0006600Y0276744D01*
X0006600Y0278342D02*
X0006901Y0278342D01*
X0006600Y0279941D02*
X0007386Y0279941D01*
X0008048Y0281539D02*
X0006600Y0281539D01*
X0006600Y0283138D02*
X0009138Y0283138D01*
X0010737Y0284737D02*
X0006600Y0284737D01*
X0006600Y0236781D02*
X0021832Y0236781D01*
X0021832Y0235183D02*
X0006600Y0235183D01*
X0006600Y0233584D02*
X0021832Y0233584D01*
X0021944Y0231986D02*
X0006600Y0231986D01*
X0006600Y0230387D02*
X0022606Y0230387D01*
X0024396Y0228789D02*
X0006600Y0228789D01*
X0149519Y0228789D02*
X0163758Y0228789D01*
X0162159Y0230387D02*
X0151309Y0230387D01*
X0151971Y0231986D02*
X0161462Y0231986D01*
X0161318Y0233584D02*
X0152082Y0233584D01*
X0152082Y0235183D02*
X0161318Y0235183D01*
X0161318Y0238380D02*
X0152082Y0238380D01*
X0152082Y0239978D02*
X0161318Y0239978D01*
X0161450Y0241577D02*
X0151986Y0241577D01*
X0151324Y0243175D02*
X0162131Y0243175D01*
X0166267Y0236781D02*
X0152082Y0236781D01*
X0166267Y0235183D02*
X0167018Y0235183D01*
X0167018Y0233584D02*
X0166267Y0233584D01*
X0166267Y0231986D02*
X0167018Y0231986D01*
X0167018Y0230387D02*
X0166267Y0230387D01*
X0166267Y0228789D02*
X0167018Y0228789D01*
X0190157Y0228789D02*
X0204081Y0228789D01*
X0190157Y0227190D02*
X0243443Y0227190D01*
X0243443Y0225592D02*
X0190157Y0225592D01*
X0190157Y0223993D02*
X0243443Y0223993D01*
X0243443Y0222395D02*
X0190157Y0222395D01*
X0190157Y0220796D02*
X0243443Y0220796D01*
X0243443Y0219198D02*
X0190157Y0219198D01*
X0190157Y0217599D02*
X0243443Y0217599D01*
X0243443Y0216001D02*
X0190157Y0216001D01*
X0190157Y0214402D02*
X0243443Y0214402D01*
X0243443Y0212803D02*
X0190157Y0212803D01*
X0190157Y0211205D02*
X0243443Y0211205D01*
X0243443Y0209606D02*
X0190157Y0209606D01*
X0190157Y0208008D02*
X0243443Y0208008D01*
X0243443Y0206409D02*
X0190157Y0206409D01*
X0190157Y0204811D02*
X0243443Y0204811D01*
X0243443Y0203212D02*
X0190157Y0203212D01*
X0190157Y0201614D02*
X0243443Y0201614D01*
X0243443Y0200015D02*
X0190157Y0200015D01*
X0190157Y0198417D02*
X0243443Y0198417D01*
X0243443Y0196818D02*
X0190157Y0196818D01*
X0190157Y0195220D02*
X0243443Y0195220D01*
X0243443Y0193621D02*
X0190157Y0193621D01*
X0190157Y0192023D02*
X0243443Y0192023D01*
X0243443Y0190424D02*
X0190157Y0190424D01*
X0190157Y0188826D02*
X0243443Y0188826D01*
X0243443Y0187227D02*
X0190157Y0187227D01*
X0190157Y0185629D02*
X0243443Y0185629D01*
X0243443Y0184030D02*
X0190157Y0184030D01*
X0190157Y0182432D02*
X0242906Y0182432D01*
X0241308Y0180833D02*
X0190157Y0180833D01*
X0190157Y0179235D02*
X0239709Y0179235D01*
X0238111Y0177636D02*
X0190157Y0177636D01*
X0190157Y0176038D02*
X0236512Y0176038D01*
X0234914Y0174439D02*
X0190157Y0174439D01*
X0190157Y0172841D02*
X0233315Y0172841D01*
X0231717Y0171242D02*
X0190157Y0171242D01*
X0190157Y0169644D02*
X0230118Y0169644D01*
X0228520Y0168045D02*
X0190157Y0168045D01*
X0190157Y0166447D02*
X0226921Y0166447D01*
X0225323Y0164848D02*
X0190157Y0164848D01*
X0190157Y0163250D02*
X0223724Y0163250D01*
X0222126Y0161651D02*
X0190157Y0161651D01*
X0190157Y0160053D02*
X0220527Y0160053D01*
X0218929Y0158454D02*
X0190157Y0158454D01*
X0190157Y0156856D02*
X0217330Y0156856D01*
X0215732Y0155257D02*
X0190157Y0155257D01*
X0190157Y0153659D02*
X0214133Y0153659D01*
X0212535Y0152060D02*
X0190157Y0152060D01*
X0190157Y0150462D02*
X0210936Y0150462D01*
X0210033Y0254365D02*
X0258437Y0254365D01*
X0256838Y0255963D02*
X0208435Y0255963D01*
X0206836Y0257562D02*
X0255240Y0257562D01*
D14*
X0246643Y0236800D02*
X0246643Y0181643D01*
X0196800Y0131800D01*
X0196800Y0076957D01*
X0196643Y0076800D01*
X0176957Y0076800D02*
X0176800Y0076957D01*
X0176800Y0136800D01*
X0186957Y0146957D01*
X0186957Y0236800D01*
X0126643Y0236800D02*
X0126643Y0166957D01*
X0156800Y0136800D01*
X0156800Y0076957D01*
X0156643Y0076800D01*
X0136957Y0076800D02*
X0136800Y0076957D01*
X0136800Y0121800D01*
X0066957Y0191643D01*
X0066957Y0236800D01*
X0216800Y0131800D02*
X0216800Y0076957D01*
X0216957Y0076800D01*
X0236643Y0076800D02*
X0236800Y0076957D01*
X0236800Y0126800D01*
X0241800Y0131800D01*
X0271800Y0131800D01*
X0366643Y0226643D01*
X0366643Y0236800D01*
X0306957Y0236800D02*
X0306957Y0221957D01*
X0216800Y0131800D01*
D15*
X0381800Y0016800D03*
X0381800Y0276800D03*
X0016800Y0276800D03*
X0016800Y0016800D03*
M02*
