G75*
%MOIN*%
%OFA0B0*%
%FSLAX25Y25*%
%IPPOS*%
%LPD*%
%AMOC8*
5,1,8,0,0,1.08239X$1,22.5*
%
%ADD10C,0.07850*%
%ADD11C,0.17398*%
D10*
X0136957Y0073275D02*
X0136957Y0080325D01*
X0156643Y0080325D02*
X0156643Y0073275D01*
X0176957Y0073275D02*
X0176957Y0080325D01*
X0196643Y0080325D02*
X0196643Y0073275D01*
X0216957Y0073275D02*
X0216957Y0080325D01*
X0236643Y0080325D02*
X0236643Y0073275D01*
X0336957Y0073275D02*
X0336957Y0080325D01*
X0356643Y0080325D02*
X0356643Y0073275D01*
X0346957Y0233275D02*
X0346957Y0240325D01*
X0366643Y0240325D02*
X0366643Y0233275D01*
X0326643Y0233275D02*
X0326643Y0240325D01*
X0306957Y0240325D02*
X0306957Y0233275D01*
X0286643Y0233275D02*
X0286643Y0240325D01*
X0266957Y0240325D02*
X0266957Y0233275D01*
X0246643Y0233275D02*
X0246643Y0240325D01*
X0226957Y0240325D02*
X0226957Y0233275D01*
X0206643Y0233275D02*
X0206643Y0240325D01*
X0186957Y0240325D02*
X0186957Y0233275D01*
X0166643Y0233275D02*
X0166643Y0240325D01*
X0146957Y0240325D02*
X0146957Y0233275D01*
X0126643Y0233275D02*
X0126643Y0240325D01*
X0106957Y0240325D02*
X0106957Y0233275D01*
X0086643Y0233275D02*
X0086643Y0240325D01*
X0066957Y0240325D02*
X0066957Y0233275D01*
X0046643Y0233275D02*
X0046643Y0240325D01*
X0026957Y0240325D02*
X0026957Y0233275D01*
D11*
X0016800Y0016800D03*
X0016800Y0276800D03*
X0381800Y0276800D03*
X0381800Y0016800D03*
M02*
