%
M48
M72
T01C0.08100
%
T01
X123000Y91800
X143000Y91800
X163000Y91800
X183000Y91800
X203000Y91800
X223000Y91800
X318000Y101800
X338000Y101800
X333000Y246800
X353000Y246800
X313000Y246800
X293000Y246800
X273000Y246800
X253000Y246800
X233000Y246800
X213000Y246800
X193000Y246800
X173000Y246800
X153000Y246800
X133000Y246800
X113000Y246800
X93000Y246800
X73000Y246800
X53000Y246800
X33000Y246800
X13000Y246800
M30
