%
M48
M72
T01C0.04700
%
T01
X121957Y91800
X141643Y91800
X161957Y91800
X181643Y91800
X201957Y91800
X221643Y91800
X321957Y91800
X341643Y91800
X331957Y251800
X351643Y251800
X311643Y251800
X291957Y251800
X271643Y251800
X251957Y251800
X231643Y251800
X211957Y251800
X191643Y251800
X171957Y251800
X151643Y251800
X131957Y251800
X111643Y251800
X91957Y251800
X71643Y251800
X51957Y251800
X31643Y251800
X11957Y251800
M30
